<svg xmlns="http://www.w3.org/2000/svg" viewBox="0 0 147.09 240.08"><defs><style>.cls-1{fill:#fff;}.cls-2{fill:#1a5a91;}.cls-3{fill:#d31447;}.cls-4{fill:#d31446;}</style></defs><g id="Calque_2" data-name="Calque 2"><g id="Calque_3" data-name="Calque 3"><rect class="cls-1" x="16" y="16" width="115.09" height="208.08"/><path class="cls-1" d="M131.09,16V224.08H16V16H131.09m0-16H16A16,16,0,0,0,0,16V224.08a16,16,0,0,0,16,16H131.09a16,16,0,0,0,16-16V16a16,16,0,0,0-16-16Z"/><path class="cls-2" d="M118.46,43.94a23.08,23.08,0,0,1-2.87,10.51c-1.6,2.66-6,4.9-8.43,4A8.84,8.84,0,0,1,101.9,54c-2.83-5.6-.61-15.77,2.79-19.15a7.47,7.47,0,0,1,12.33,2A16.71,16.71,0,0,1,118.46,43.94Z"/><rect class="cls-3" x="16" y="194.24" width="115.09" height="29.85"/><path class="cls-2" d="M63.74,43.39a9.1,9.1,0,0,1,5.82,2,4.88,4.88,0,0,1-1.25,8.17,8.59,8.59,0,0,1-8.72-.95,4.7,4.7,0,0,1-2-5.06,4.81,4.81,0,0,1,3.71-3.84A8.17,8.17,0,0,1,63.74,43.39Z"/><path class="cls-2" d="M67.1,35.21c-4-.07-6.48-2.76-6-6.32a5.07,5.07,0,0,1,2.08-3.06c1.58-1.38,4.6-1.43,7-.16a4.88,4.88,0,0,1,2.6,5.16C72.41,33.49,70.11,35.26,67.1,35.21Z"/><path class="cls-2" d="M96.34,118.57c.66,1.05,1.24,2,1.8,2.86a.55.55,0,0,1-.2.79L95.65,124c-.41.31-.7.26-.91-.25-.83-2-2.59-2.92-4.39-3.89s-3.87-1.46-5.66-2.5c-1-.57-2.09-1.15-1.78-2.57.2-.92,1.56-1.32,3.08-1,2.84.67,5.12,2,5.9,5.1a1.1,1.1,0,0,0,.76.81l1.47.55c1.55.61,1.54.61,1.91-1A3.55,3.55,0,0,1,96.34,118.57Z"/><path class="cls-2" d="M90.44,126.72c-1.46-.46-3.29-.36-4.29-2.24a3.41,3.41,0,0,0-3-1.6,1.61,1.61,0,0,1-1.66-1.13,5.7,5.7,0,0,1-.41-.82c-.12-.4-.95-.62-.54-1s.88.2,1.3.43c2.42,1.36,5,2.41,7.52,3.54a7.26,7.26,0,0,1,2,1.05c.38.32,1,.63.68,1.26S91.14,126.71,90.44,126.72Z"/><path class="cls-2" d="M84.08,126.49c1.76.5,3.24,1.43,5,1.68.56.08.38.49.1.73-.71.59-1.44,1.13-2.17,1.69-.44.34-.69.13-.91-.29C85.43,129,84.75,127.76,84.08,126.49Z"/><path class="cls-2" d="M78.72,116.27a9,9,0,0,1-1.4-2.27.14.14,0,0,1,0-.12c.11-.79.88-.9,1.39-1.2.68-.4,1.25-1.24,2.14-1,.4.11.46.83,0,1.08C79.54,113.52,79.14,114.82,78.72,116.27Z"/><path class="cls-2" d="M92.24,116c.57.09,1.09.1,1.12.76,0,.22-.18.48-.39.43C92.38,117.09,92.27,116.62,92.24,116Z"/><path class="cls-1" d="M101.46,210.64a4.66,4.66,0,0,0,2.4-3.57c.52-3.79-1.67-6.26-5.77-6.39-2.15-.07-4.29,0-6.44,0-1,0-1.37.32-1.35,1.36,0,4.51,0,9,0,13.54,0,1.22.35,1.57,1.58,1.5,2.45-.13,1.9-.15,2-2,0-.39,0-.79,0-1.18,0-2.09,0-2.1,2.08-2.06a1.5,1.5,0,0,1,1.38.79c.63,1,1.39,1.93,1.94,3a2.76,2.76,0,0,0,3,1.59c.67-.07,1.33-.25,2-.39-1-1.51-2-3-3.06-4.47C100.63,211.52,100.6,211.12,101.46,210.64Zm-3.23-2.07a16,16,0,0,1-2,0c-2.84,0-2.4.23-2.4-2.31s-.55-2.43,2.47-2.4a14.15,14.15,0,0,1,2,.09,2.17,2.17,0,0,1,2,2.32A2.27,2.27,0,0,1,98.23,208.57Z"/><path class="cls-1" d="M59,215.28c.05-.77.07-1.49-1.1-1.43-1.79.07-3.59,0-5.38,0-2.87-.05-2.31.51-2.4-2.56,0-.76.27-1,1-1,1.88,0,3.76,0,5.64,0,1.33.05,1.08-.82,1.09-1.57s.24-1.64-1.07-1.59c-1.75.06-3.51-.06-5.25,0-1.19.07-1.61-.35-1.44-1.49a3.47,3.47,0,0,0,0-.79c-.08-.88.26-1.23,1.2-1.2,2.14.07,4.29,0,6.43.05,1,0,1.29-.45,1.18-1.36s.33-1.82-1.17-1.79c-3.32.06-6.65.06-10,0-1,0-1.18.4-1.17,1.25,0,2.27,0,4.55,0,6.83h0c0,2.37,0,4.73,0,7.1,0,.81.21,1.18,1.11,1.17,3.41-.05,6.82-.07,10.23,0C59.43,217,59,216,59,215.28Z"/><path class="cls-1" d="M76.44,201.58c-.55-1.35-1.55-1-2.49-1.07a1.49,1.49,0,0,0-1.75,1.09c-1.91,4.64-3.9,9.25-5.86,13.88-.66,1.57-.66,1.61,1,1.53.71,0,1.8.47,2-.64.52-2.76,2.24-3.42,4.71-3a.57.57,0,0,0,.13,0H75c2.7,0,2.74,0,3.77,2.54A1.47,1.47,0,0,0,80.53,217a8.19,8.19,0,0,1,1.31,0c.88.06,1.08-.24.71-1.08C80.49,211.18,78.41,206.4,76.44,201.58Zm-1,8.64c-3.41.31-3.49.24-2.24-2.88A6.54,6.54,0,0,1,74.38,205c.65,1.6,1.21,3,1.77,4.32C76.43,210,76.08,210.16,75.48,210.22Z"/><path class="cls-1" d="M121.11,208.14c-1.53-.8-3.26-1-4.85-1.62-.74-.3-1.36-.7-1.19-1.63s.84-1.16,1.62-1.27a5.54,5.54,0,0,1,3.17.62c1.76.85,1.73.81,2.83-.84.5-.74.37-1.15-.35-1.58a10.34,10.34,0,0,0-5.1-1.37,8.7,8.7,0,0,0-1,.05c-2.68.4-4.49,1.82-4.76,4.38s.91,4.06,3.7,5c.83.27,1.69.46,2.52.73a8.28,8.28,0,0,1,1.81.77,1.3,1.3,0,0,1-.15,2.39,3.49,3.49,0,0,1-2.06.31,6.44,6.44,0,0,1-3.4-1.27c-.77-.61-1.32-.5-1.81.31a3.6,3.6,0,0,1-.58.71c-.57.56-.55,1,.15,1.45a10.45,10.45,0,0,0,6.56,1.94,5.45,5.45,0,0,0,4.76-2.33A4.5,4.5,0,0,0,121.11,208.14Z"/><path class="cls-1" d="M35.06,201.5c-1,1.61-2,3.21-2.93,4.84-.44.75-.73.72-1.15,0-.87-1.51-1.82-3-2.66-4.53a1.93,1.93,0,0,0-2.11-1.17,8.66,8.66,0,0,1-1.44,0c-1.09,0-1.08.41-.58,1.18,1.31,2,2.55,4.09,3.91,6.08,1.2,1.75,2.12,3.52,1.64,5.73,0,.31,0,.62,0,.92.07,2.9-.45,2.39,2.53,2.5.82,0,1.08-.31,1-1.09,0-1.22.06-2.46,0-3.68a5.11,5.11,0,0,1,1-3.31c1.59-2.36,3.09-4.78,4.6-7.18.19-.3.6-.64.16-1S35.48,200.81,35.06,201.5Z"/><path class="cls-4" d="M96.27,208.58c-2.84,0-2.4.23-2.4-2.31s-.55-2.43,2.47-2.4a14.15,14.15,0,0,1,2,.09,2.17,2.17,0,0,1,2,2.32,2.27,2.27,0,0,1-2.1,2.29A16,16,0,0,1,96.27,208.58Z"/><path class="cls-4" d="M74.38,205c.65,1.6,1.21,3,1.77,4.32.28.68-.07.82-.67.88-3.41.31-3.49.24-2.24-2.88A6.62,6.62,0,0,1,74.38,205Z"/><path class="cls-2" d="M131.08,17V16h-3.49q-26.36,0-52.7,0c-.37,0-.78-.14-1.19.28l1.23.48A18.63,18.63,0,0,1,81.52,21,11.38,11.38,0,0,1,79,39.3l-.57.32c-.7.4-.8.88-.17,1.43.26.23.54.44.82.65a11.29,11.29,0,0,1,3.85,13.61,13.19,13.19,0,0,1-9.42,8,28.46,28.46,0,0,1-16.62-.62,23.36,23.36,0,0,1-7.47-4c-7.26-5.88-5.93-18,3.79-21.07,1-.32,1.12-.5.27-1.24-3.87-3.38-5-7.6-3.49-12.48a8.8,8.8,0,0,1,1.44-3.13A13.56,13.56,0,0,1,57,16.57c.17-.06.44-.13.32-.49a3.55,3.55,0,0,0-.47-.06Q41.89,16,27,16v0H16v5.85h0Q16,41,16,60.17c0,2.38.26,2.77,2.49,3.5a6.91,6.91,0,0,0,1.39.41c.78.11,1,.5,1.15,1.29a11.42,11.42,0,0,0,7,9.2c5.69,2.48,15-.38,17.52-7,.23-.62.4-1.24,1.35-1.08,1.81.31,3.64.53,5.46.74.73.09.86.49,1,1.15.59,3.92-.78,7.65-1.28,11.43a70,70,0,0,0-.78,11.73c0,.65.07,1.48.72,1.75,2.83,1.19,3.82,4.43,6.53,5.75.78.38.7.93-.12,1.4-1.21.71-2.39,1.46-3.53,2.28a68.1,68.1,0,0,1-25,11.6,7.92,7.92,0,0,1-3.75.18c-3-.76-6.06-1.4-9.07-2.16-.85-.21-1.07,0-1.06.83,0,3.16,0,6.32,0,9.48q0,13,0,25.92c0,.73-.05,1.23,1,1.12A83.38,83.38,0,0,0,37.59,145c6.83-2.52,13-6.25,19.19-10,3-1.82,5.92-3.75,8.88-5.61.42-.26,1-.93,1.22.17.47,2.87.79,5.78-.43,8.54-.42,1-1.32,1.72-1.67,2.76a20.19,20.19,0,0,1-2.79,5c-1.75,2.52-3.21,5.17-3.11,8.36A7.85,7.85,0,0,1,57,159.58c-3.73,4.69-7.71,9.23-9.7,15-.42,1.25-.92,2.47-1.37,3.7a16.49,16.49,0,0,1-4.76,7.13,38.35,38.35,0,0,0-4.37,3.88c-1.34,1.56-3.1,2.77-4,4.7a17.54,17.54,0,0,0,4,.16c4.26.05,8.53,0,12.79,0a13.39,13.39,0,0,0,1.42-.15c1.18-1.44,2.27-3,3.56-4.29a22.16,22.16,0,0,1,3.14-2.32,48.51,48.51,0,0,0,14.8-16.09c1.45-2.63,3-4.18,6.27-4,3.5.23,6.84-1.08,10.24-2.4a10,10,0,0,1-1.65,3.14A25.34,25.34,0,0,1,81.76,175a2.09,2.09,0,0,1-1.67.57c-1.52-.18-2.93.58-4.47.58-1.06,0-1.3,1-1.3,1.95a34,34,0,0,0,.78,7.18,2,2,0,0,1,.06,1.29c-1.06,2.22-.5,4.45-.13,6.69,0,.26,0,.52.08.79a42.88,42.88,0,0,0,6.8,0,21.94,21.94,0,0,1,1.69-3.84,68.58,68.58,0,0,1,9.09-12.18c3.22-3.49,6.93-6.4,10.35-9.65a41.2,41.2,0,0,1,4.88-3.71c2.74-1.91,4.67-4.25,4-7.9a4.85,4.85,0,0,1,0-.66,6.76,6.76,0,0,0-4.32-6.29,62.89,62.89,0,0,0-20.56-4.52c-.56,0-1.19.08-1-.88a19.42,19.42,0,0,1,2.9-6.55c1.25-2,2.78-3.91,4-6a5.47,5.47,0,0,1,1.6-1.87,8,8,0,0,0,3-4.8c.06-.24.28-.53,0-.73s-.55.11-.77.28c-3.27,2.6-6.56,5.19-9.81,7.81-.75.6-1.2.38-1.47-.39a45.77,45.77,0,0,0-2.91-5.87c-2.14-4-4.17-8.08-6.46-12-.8-1.37-.49-1.79.74-2.31A10,10,0,0,0,79,110.72a2.13,2.13,0,0,1,2.31-.24c3.43,1.37,6.84,2.81,10.34,4,3,1,5.6,2.36,6.92,5.44.13.29.3.74.72.64s.37-.56.49-.87a18.33,18.33,0,0,0,.93-6.86,7.23,7.23,0,0,1,1.62-4.6c1.19-1.45,2.65-2.69,3.83-4.15a19.77,19.77,0,0,0,4.45-8.54A11.21,11.21,0,0,1,113,90c.54-.63,1-1.34,1.5-2a1.74,1.74,0,0,0,.34-1.48c-.54-2.8-1.44-5.51-2.13-8.26-.25-1-1.5-2.15-.72-2.86.54-.5,2.07.06,3.16.21s2,.46,3-.1,1-.06,1.1.59a16.22,16.22,0,0,0,2.31,5.41c2,3,4.37,5.52,8,6.42,1.39.34,1.5.23,1.5-1.2q0-17.1,0-34.21c0-.36.18-.79-.23-1.1-.28.35-.65.62-.68,1.09-.18,2.68-1.51,4.93-2.82,7.14-8.76,14.79-29,13.27-36.56.48-5.08-8.57-4.48-21.62,1.67-30,5.25-7.2,12.34-10.42,21.17-8.88,8.59,1.49,14.14,6.68,16.75,15,.1.33.07.79.55.93.29-.37.16-.77.16-1.14m-24.6,58.56a1.78,1.78,0,0,1-2.29.79,1.24,1.24,0,0,0-1.85.37c.24-.81.47-1.62.79-2.71.42.85.4,1.67,1.19,1.9a1.14,1.14,0,0,0,1.37-.35c-.3-.44-1.32-.11-1.2-1,.1-.65.65-.89,1.09-1.23a1.3,1.3,0,0,0,.3-2A36.58,36.58,0,0,0,99.55,84c-1.8-1.37-6.26-1.44-8.25-.47-1.55.76-2.18,2.06-3,3.39-1.8,2.86-3.25,6-6.29,7.92-.69.43-1,.17-1.68-.19-1.35-.69-1.82-3-4-2.24-.36.12-.66-.4-.91-.69a1.8,1.8,0,0,0-2.63-.46,1.27,1.27,0,0,1-1.9-.49c-1.4-2.25-3.68-3.46-5.83-4.78-.66-.4-1-.71-.93-1.48A19.83,19.83,0,0,0,63,77.37a51.21,51.21,0,0,1-1.61-7.57c-.19-1.25.26-1.3,1.23-1.17,4.51.64,9,1.23,13.53,1.84,7.63,1,15.26,2.1,22.89,3.1a1.39,1.39,0,0,1,1.39,1.11,15,15,0,0,1,.85,6.06,8,8,0,0,0,.11,3.48,3.83,3.83,0,0,0,1.71,2.21c1.49,1,2.25,2.65,3.4,3.95.83.94-.2,1.77-.61,2.65C107.11,93.17,107,93.82,106.49,94.54Z"/></g></g></svg>