<svg xmlns="http://www.w3.org/2000/svg" viewBox="0 0 74.22 116.93"><defs><style>.cls-1{fill:#06b0e0;}.cls-2,.cls-3{fill:#fff;}.cls-3{stroke:#fff;stroke-linecap:round;stroke-linejoin:round;stroke-width:0.71px;}</style></defs><g id="Calque_2" data-name="Calque 2"><g id="Calque_8" data-name="Calque 8"><path class="cls-1" d="M11.4,108.92a9.28,9.28,0,1,1,9.28-9.28A9.28,9.28,0,0,1,11.4,108.92Z"/><path class="cls-2" d="M11.41,92.49a7.16,7.16,0,1,1-7.16,7.15,7.15,7.15,0,0,1,7.16-7.15m0-4.25a11.41,11.41,0,1,0,11.4,11.4,11.42,11.42,0,0,0-11.4-11.4Z"/><path class="cls-1" d="M39.78,114.81A15.78,15.78,0,0,1,24,99V63.19A.77.77,0,0,1,24,63a1.65,1.65,0,0,0-3.3,0,1,1,0,0,1,0,.17V79.85a9.28,9.28,0,1,1-18.55,0V4.25A2.12,2.12,0,0,1,4.25,2.13H70a2.12,2.12,0,0,1,2.12,2.12v71a10,10,0,0,1-10,10h-.75a10,10,0,0,1-5.78-1.83V99A15.78,15.78,0,0,1,39.78,114.81Z"/><path class="cls-2" d="M70,4.25v71a7.9,7.9,0,0,1-7.9,7.9h-.75a7.9,7.9,0,0,1-7.9-7.9V99a13.64,13.64,0,1,1-27.28,0V62.9l0,0a3.78,3.78,0,0,0-7.54,0l0,0V79.85a7.16,7.16,0,0,1-14.31,0V4.25H70M70,0H4.25A4.25,4.25,0,0,0,0,4.25v75.6a11.41,11.41,0,0,0,21.89,4.49V99a17.89,17.89,0,1,0,35.78,0V86.84a12.22,12.22,0,0,0,3.65.56h.75A12.17,12.17,0,0,0,74.22,75.24v-71A4.25,4.25,0,0,0,70,0Z"/><path class="cls-3" d="M17.1,9q6,0,8,3.78a6.55,6.55,0,0,1,.5,2.46V30.45a.56.56,0,0,1-.63.64h-.13q-.57,0-.57-.51v-10H9.72v9.9a.61.61,0,0,1-.7.68.56.56,0,0,1-.64-.64V15c0-2.45,1.47-4.25,4.39-5.4A14.58,14.58,0,0,1,17.1,9ZM9.72,14.77v4.89H24.3V14.81c0-1.63-1-3-3-4.12a10.23,10.23,0,0,0-3.88-.76h-.7c-3.25,0-5.43,1.06-6.56,3.18A3.78,3.78,0,0,0,9.72,14.77Z"/><path class="cls-3" d="M36.65,9q6.56,0,8.85,3.39a5.78,5.78,0,0,1,.57,2.43q0,4-5.54,5.31a17,17,0,0,1-2.23.34v0a11,11,0,0,1,6.31,5,12.74,12.74,0,0,1,1.46,5.18.59.59,0,0,1-.64.38h-.06c-.42,0-.64-.31-.64-.93a11.53,11.53,0,0,0-1.4-4.34A10.32,10.32,0,0,0,40,22.42a12.5,12.5,0,0,0-5.22-1.74c-.86-.09-1.73-.14-2.61-.17-.17-.12-.25-.24-.25-.34V20c0-.25.25-.38.76-.38h4.84a9.13,9.13,0,0,0,6.17-2.13,3.81,3.81,0,0,0,1-2.42V14.6c0-2.19-1.65-3.67-5-4.42a13.12,13.12,0,0,0-2.55-.25H30.15V30.58q0,.51-.57.51h-.19q-.57,0-.57-.72V9.84c0-.54.32-.8.95-.8Z"/><path class="cls-3" d="M49.89,9.08H65.68c.42,0,.64.17.64.42v.05c-.06.25-.25.38-.58.38H58.49V30.62c0,.34-.2.51-.58.51h-.19q-.57,0-.57-.72V10.18l.06-.21-.12,0H50c-.46,0-.7-.14-.7-.43A.58.58,0,0,1,49.89,9.08Z"/><path class="cls-3" d="M12.91,35.8H17.5c.21,0,.32.09.32.21v0c0,.15-.15.23-.36.23H13.27c-2.09,0-3.49.59-4.2,1.76a2.51,2.51,0,0,0-.18.92v0c0,1,1.25,1.78,3.73,2.51l2.51.87c1.82.68,2.73,1.52,2.73,2.51q0,2.23-3.23,3A7.4,7.4,0,0,1,13,48H8.61c-.26,0-.4-.07-.4-.21v-.07c0-.13.11-.19.33-.19h4c2.13,0,3.57-.52,4.3-1.57a2,2,0,0,0,.28-1v-.28q0-1.38-4.62-2.7A19.69,19.69,0,0,1,9.4,40.75,2.24,2.24,0,0,1,8.14,39c0-1.45,1-2.43,3-2.94A8.75,8.75,0,0,1,12.91,35.8Z"/><path class="cls-3" d="M20,35.8h8.92c.26,0,.4.08.4.24a.34.34,0,0,1-.36.23H20.4v5.4h4.05c.26,0,.4.07.4.23a.34.34,0,0,1-.36.24H20.4v5.39h8.5c.26,0,.39.08.39.23a.32.32,0,0,1-.36.24H20c-.26,0-.39-.1-.39-.31V36.16A.32.32,0,0,1,20,35.8Z"/><path class="cls-3" d="M35.53,35.8q3.69,0,5,1.88A3.17,3.17,0,0,1,40.83,39q0,2.17-3.12,2.93a11.86,11.86,0,0,1-1.25.19v0A6.16,6.16,0,0,1,40,44.93a6.85,6.85,0,0,1,.82,2.86.34.34,0,0,1-.36.21h0c-.24,0-.36-.17-.36-.52a6.29,6.29,0,0,0-.79-2.39,5.67,5.67,0,0,0-1.86-1.9,7.25,7.25,0,0,0-2.94-1q-.74-.07-1.47-.09c-.1-.07-.15-.13-.15-.19v-.07c0-.14.15-.21.43-.21H36a5.22,5.22,0,0,0,3.48-1.18,2.09,2.09,0,0,0,.57-1.33v-.28c0-1.22-.93-2-2.8-2.44a7,7,0,0,0-1.43-.14h-4V47.69c0,.19-.11.29-.32.29h-.11c-.21,0-.32-.14-.32-.4V36.25q0-.45.54-.45Z"/><path class="cls-3" d="M43,35.87h.1c.2,0,.29.07.29.21V47.79c0,.14-.14.21-.32.21H43c-.22,0-.33-.09-.33-.26V36.13C42.62,36,42.73,35.87,43,35.87Z"/><path class="cls-3" d="M45.49,35.8h8.93q.39,0,.39.24a.32.32,0,0,1-.36.23H45.89v5.4h4c.26,0,.39.07.39.23a.32.32,0,0,1-.36.24H45.89v5.39h8.49c.26,0,.39.08.39.23a.32.32,0,0,1-.35.24H45.53c-.27,0-.4-.1-.4-.31V36.16A.32.32,0,0,1,45.49,35.8Z"/><path class="cls-3" d="M61.37,35.8H66c.21,0,.32.09.32.21v0c0,.15-.15.23-.36.23H61.73c-2.09,0-3.49.59-4.19,1.76a2.51,2.51,0,0,0-.18.92v0c0,1,1.24,1.78,3.72,2.51l2.51.87c1.82.68,2.73,1.52,2.73,2.51q0,2.23-3.23,3a7.4,7.4,0,0,1-1.68.19H57.07q-.39,0-.39-.21v-.07c0-.13.1-.19.32-.19h4c2.14,0,3.57-.52,4.3-1.57a2,2,0,0,0,.28-1v-.28q0-1.38-4.62-2.7a20.1,20.1,0,0,1-3.08-1.27A2.24,2.24,0,0,1,56.6,39c0-1.45,1-2.43,3-2.94A8.75,8.75,0,0,1,61.37,35.8Z"/></g></g></svg>