<svg xmlns="http://www.w3.org/2000/svg" xmlns:xlink="http://www.w3.org/1999/xlink" viewBox="0 0 82.55 82.55"><defs><style>.cls-1{fill:url(#Dégradé_sans_nom_98);}</style><linearGradient id="Dégradé_sans_nom_98" x1="17.66" y1="15.45" x2="67.43" y2="65.22" gradientUnits="userSpaceOnUse"><stop offset="0" stop-color="#8ec580"/><stop offset="0.08" stop-color="#a3be9b"/><stop offset="0.18" stop-color="#b6b8b4"/><stop offset="0.28" stop-color="#c4b4c6"/><stop offset="0.38" stop-color="#ccb1d1"/><stop offset="0.51" stop-color="#cfb0d4"/><stop offset="0.63" stop-color="#ccb1d1"/><stop offset="0.73" stop-color="#c4b3c6"/><stop offset="0.83" stop-color="#b7b8b5"/><stop offset="0.92" stop-color="#a4be9c"/><stop offset="1" stop-color="#8ec580"/></linearGradient></defs><g id="Calque_2" data-name="Calque 2"><g id="BLACK_LIGHT_GLOW" data-name="BLACK LIGHT GLOW"><circle cx="41.27" cy="41.27" r="41.27"/><path class="cls-1" d="M35.26,24.86h1.91l1-4.1h2.94l1.06,4.1h2.09L40.74,11.12H38.66l-3.4,13.19V22.74H31.05V11.12h-2V24.86h6.19Zm4.23-9.45h0c0-.25.11-.49.16-.74.06.25.12.5.19.76l.85,3.31H38.64Z"/><path class="cls-1" d="M49.35,25.06a5.33,5.33,0,0,0,2.8-.68l.2-.13-.42-2.08-.43.28a3.7,3.7,0,0,1-1.89.49c-2.15,0-3.43-1.83-3.43-4.89s1.3-5,3.49-5a3.32,3.32,0,0,1,1.8.49l.42.27.47-2.1-.19-.14a4.54,4.54,0,0,0-2.54-.64c-3.3,0-5.51,2.89-5.51,7.2S46.17,25.06,49.35,25.06Z"/><path class="cls-1" d="M55.17,19.64l.54-.83,3.07,6.05h2.31l-4-7.83,3.81-5.91H58.45l-3.12,5.07-.16.27V11.12h-2V24.86h2Z"/><path class="cls-1" d="M23.4,28.12a4.17,4.17,0,0,0,3.7-1.6h0A5.89,5.89,0,0,0,28,23.2a4.59,4.59,0,0,0-1.76-4,4.43,4.43,0,0,0,1.39-3.39,4.54,4.54,0,0,0-.89-3,3.47,3.47,0,0,0-3-1.26,8.4,8.4,0,0,0-2.44.34l-.24.08V27.87l.28.06A10.06,10.06,0,0,0,23.4,28.12Zm-.35-14.19a4.22,4.22,0,0,1,.77-.06c1.22,0,1.81.71,1.81,2.18s-.7,2.25-1.78,2.25h-.8Zm0,6.6h.7c1.39,0,2.19,1,2.19,2.65,0,2.2-1.18,2.66-2.18,2.66a6.75,6.75,0,0,1-.71,0Z"/><polygon class="cls-1" points="26.11 50.73 20.3 50.73 20.3 32.64 17.12 32.64 17.12 54.34 26.11 54.34 26.11 50.73"/><rect class="cls-1" x="26.65" y="32.64" width="3.17" height="21.71"/><path class="cls-1" d="M42.88,53.36l.37-.2V42.27h-5.9V45.8h2.77v4.92a4.57,4.57,0,0,1-1.63.25C35.69,51,34,48.1,34,43.49S35.77,36,38.71,36a4.34,4.34,0,0,1,2.61.76l.88.58.72-3.62-.37-.27a6.81,6.81,0,0,0-3.8-1.06c-4.81,0-8.06,4.49-8.08,11.18a14.37,14.37,0,0,0,2,8,6.52,6.52,0,0,0,5.66,3A9.8,9.8,0,0,0,42.88,53.36Z"/><path class="cls-1" d="M37.88,62.33c0,4.14,1.84,7,4.46,7,2.28,0,4.59-2.25,4.59-7.28,0-4.19-1.79-7-4.46-7S37.88,58.06,37.88,62.33Zm7.1-.17c0,3-1.06,5.11-2.57,5.11-1.68,0-2.56-2.5-2.56-5s.8-5.13,2.57-5.13S45,59.68,45,62.16Z"/><path class="cls-1" d="M55.62,62.45c-.11.66-.22,1.29-.32,1.9L55,62.26l-1.16-7H52l-1.27,6.92c-.14.75-.28,1.51-.4,2.24-.11-.72-.23-1.47-.35-2.21l-1.13-7h-2L49.3,69.15h1.82L52.47,62c.13-.64.24-1.24.34-1.81.09.58.19,1.17.29,1.8l1.2,7.15h1.83l2.72-13.86H56.92l-1.26,6.92Z"/><path class="cls-1" d="M28.92,65.94H31v4.22a3,3,0,0,1-1.4.26c-2.19,0-3.56-2.33-3.56-6.1s1.43-6.07,3.73-6.07a3.32,3.32,0,0,1,2,.62l.45.32.46-2.44-.18-.13a4.69,4.69,0,0,0-2.74-.81c-3.48,0-5.84,3.46-5.85,8.61a11.72,11.72,0,0,0,1.47,6.15,4.65,4.65,0,0,0,4.09,2.27,6.88,6.88,0,0,0,3.3-.92l.18-.1V63.57H28.92Z"/><polygon class="cls-1" points="44.52 32.64 44.52 54.34 47.7 54.34 47.7 44.83 52.86 44.83 52.86 54.34 56.05 54.34 56.05 32.64 52.86 32.64 52.86 41.13 47.7 41.13 47.7 32.64 44.52 32.64"/><polygon class="cls-1" points="29.42 26.77 29.42 28.1 29.42 28.91 21.88 28.91 21.88 30.59 58.16 30.59 58.16 53.99 59.06 53.99 61.54 53.99 61.54 40.03 61.54 36.26 61.54 35.93 61.54 35.57 61.54 35.22 61.54 33.7 61.54 33.34 61.54 32.99 61.54 30.59 66.73 30.59 66.73 29.98 66.73 28.91 66.73 28.1 66.73 26.77 29.42 26.77"/><polygon class="cls-1" points="37.88 70.23 36.29 70.23 36.29 55.97 34.27 55.97 34.27 72.67 37.88 72.67 40.63 72.67 59.98 72.67 59.98 70.23 40.63 70.23 37.88 70.23"/></g></g></svg>