<svg xmlns="http://www.w3.org/2000/svg" viewBox="0 0 217.44 217.44"><defs><style>.cls-1{stroke:#000;stroke-width:2.83px;}.cls-1,.cls-5,.cls-6{stroke-miterlimit:10;}.cls-2{fill:#ffe106;}.cls-3{fill:#e52521;}.cls-4{fill:#e52822;}.cls-5{fill:#1d1d1b;}.cls-5,.cls-6{stroke:#ffe10b;stroke-width:0.71px;}</style></defs><g id="Calque_2" data-name="Calque 2"><g id="CHASE"><circle class="cls-1" cx="108.72" cy="108.72" r="107.3"/><circle class="cls-2" cx="108.72" cy="108.72" r="105.88"/><circle class="cls-2" cx="108.72" cy="108.72" r="101.55"/><path d="M204.19,114c3.32-1.57,6.6-3.33,9.9-5.27h2.12c-.06,2-.08,4-.17,5.92s-.26,3.94-.49,5.9l-2.1-.23C210.44,118,207.28,115.92,204.19,114Z"/><path d="M203,124.47c1.77-.6,3.5-1.25,5.22-1.94s3.46-1.44,5.2-2.22l2.1.23a109.86,109.86,0,0,1-2,11.68l-2.06-.46A111.59,111.59,0,0,0,203,124.47Z"/><path d="M200.73,134.74c1.79-.4,3.64-.84,5.43-1.34s3.57-1.05,5.38-1.64l2.06.46-.67,2.89c-.22,1-.52,1.9-.78,2.85l-.82,2.85-1,2.81-2-.69q-1.84-2.16-3.72-4.2C203.37,137.36,202.05,136,200.73,134.74Z"/><path d="M197.32,144.7a109.11,109.11,0,0,0,11.06-1.77l2,.69a105.5,105.5,0,0,1-4.45,11l-1.91-.9q-1.61-2.37-3.27-4.61l-1.67-2.21Z"/><path d="M192.84,154.23c3.64,0,7.43-.17,11.18-.53l1.91.9c-.83,1.79-1.78,3.53-2.66,5.29s-1.94,3.44-3,5.12l-1.8-1.11C196.74,160.55,194.81,157.3,192.84,154.23Z"/><path d="M187.29,163.19q2.79.33,5.55.49c1.86.11,3.74.19,5.65.22l1.8,1.11a108.2,108.2,0,0,1-6.77,9.72l-1.67-1.3A110.94,110.94,0,0,0,187.29,163.19Z"/><path d="M180.81,171.5c1.8.4,3.63.78,5.49,1.11s3.68.58,5.55.82l1.67,1.3-1.83,2.32-1.94,2.25c-1.26,1.51-2.64,2.93-4,4.35l-1.52-1.47A110.76,110.76,0,0,0,180.81,171.5Z"/><path d="M173.47,179.06q2.61.88,5.31,1.68l2.73.77,2.72.67,1.52,1.47-1,1.07-1.07,1-2.14,2c-1.45,1.34-3,2.6-4.46,3.9l-1.34-1.63C175.1,186.28,174.39,182.65,173.47,179.06Z"/><path d="M165.34,185.77c3.35,1.58,6.77,3,10.37,4.29l1.34,1.63c-1.56,1.21-3.08,2.47-4.68,3.63s-3.18,2.34-4.86,3.37l-1.16-1.77C166.22,193.19,165.82,189.38,165.34,185.77Z"/><path d="M156.52,191.52a110.85,110.85,0,0,0,9.83,5.4l1.16,1.77c-1.66,1.07-3.32,2.15-5,3.1l-2.57,1.48-2.64,1.35-.95-1.89c.12-1.89.21-3.76.26-5.61S156.57,193.37,156.52,191.52Z"/><path d="M147.13,196.29a109.67,109.67,0,0,0,9.17,6.44l.95,1.89a105.7,105.7,0,0,1-10.84,4.77l-.74-2q.5-2.81.87-5.58l.34-2.75Z"/><path d="M137.28,200c2.62,2.53,5.44,5.06,8.39,7.41l.74,2c-1.84.71-3.73,1.29-5.6,1.94s-3.79,1.11-5.7,1.6l-.52-2.05C135.67,207.25,136.56,203.59,137.28,200Z"/><path d="M127.06,202.57c2.35,2.89,4.84,5.58,7.53,8.31l.52,2.05a109.93,109.93,0,0,1-11.63,2.24l-.29-2.09C124.67,209.66,126,206,127.06,202.57Z"/><path d="M116.62,204c2,3.15,4.21,6.11,6.57,9.09l.29,2.09c-2,.25-3.92.53-5.89.64l-3,.23c-1,.06-2,.06-3,.09l-.06-2.11c.93-1.66,1.81-3.28,2.64-5S115.88,205.68,116.62,204Z"/><path d="M106.08,204.27q1.26,2.47,2.64,4.95t2.9,4.8l.06,2.11-3,.08-3-.08c-1,0-2,0-3-.09l-3-.23.18-2.1c1.09-1.55,2.15-3.1,3.15-4.65S105.16,205.87,106.08,204.27Z"/><path d="M95.58,203.42A111.69,111.69,0,0,0,100,213.71l-.18,2.1a105.61,105.61,0,0,1-11.73-1.6l.4-2.07C91.05,209.26,93.39,206.46,95.58,203.42Z"/><path d="M85.24,201.43c.92,3.52,2,7.18,3.28,10.71l-.4,2.07c-1.94-.34-3.86-.85-5.78-1.28s-3.81-1.06-5.71-1.6l.63-2C80.09,206.74,82.75,204.14,85.24,201.43Z"/><path d="M75.19,198.28c.5,3.68,1.21,7.29,2.07,11l-.63,2c-1.87-.65-3.76-1.23-5.6-1.94l-2.76-1.08-1.38-.55-1.35-.61.85-1.93,2.28-1.65,2.23-1.74C72.38,200.67,73.8,199.48,75.19,198.28Z"/><path d="M65.55,194c.08,3.73.39,7.4.84,11.18l-.85,1.93c-1.8-.81-3.61-1.6-5.35-2.53l-2.64-1.35L55,201.79,56,200c1.66-.92,3.27-1.86,4.85-2.84S64,195.08,65.55,194Z"/><path d="M56.44,188.77A109.3,109.3,0,0,0,56,200L55,201.79a107.28,107.28,0,0,1-9.91-6.47l1.25-1.7C49.84,192.1,53.15,190.57,56.44,188.77Z"/><path d="M47.94,182.54c-.68,3.58-1.26,7.33-1.62,11.08l-1.25,1.7c-1.6-1.16-3.12-2.42-4.68-3.63s-3-2.56-4.46-3.9l1.44-1.55C41,185.16,44.55,183.88,47.94,182.54Z"/><path d="M40.2,175.38l-.82,2.68-.72,2.68q-.69,2.7-1.29,5.5l-1.44,1.55a108.24,108.24,0,0,1-8.24-8.49l1.59-1.39A111.81,111.81,0,0,0,40.2,175.38Z"/><path d="M33.28,167.43q-1.11,2.53-2.13,5.18t-1.87,5.3l-1.59,1.39-1.94-2.25-1.83-2.32c-1.25-1.53-2.37-3.16-3.51-4.77l1.73-1.2C25.94,168.48,29.6,168.07,33.28,167.43Z"/><path d="M27.26,158.79q-1.36,2.39-2.66,4.89c-.87,1.67-1.7,3.37-2.46,5.08L20.41,170c-.59-.79-1.13-1.62-1.66-2.45l-1.6-2.5c-1-1.68-2-3.41-3-5.12l1.86-1C19.86,159,23.57,159,27.26,158.79Z"/><path d="M22.24,149.53c-2.2,3-4.22,6.07-6.2,9.35l-1.86,1c-.89-1.76-1.84-3.5-2.67-5.29l-1.22-2.7-.61-1.35-.54-1.38,1.95-.79,2.78.4,2.82.31C18.56,149.28,20.41,149.42,22.24,149.53Z"/><path d="M18.28,139.77c-2.54,2.73-4.88,5.58-7.19,8.61l-1.95.79c-.73-1.84-1.48-3.66-2.08-5.55l-.94-2.81L5.3,138l2-.57c1.83.49,3.64.94,5.46,1.34S16.47,139.47,18.28,139.77Z"/><path d="M15.42,129.64q-2.07,1.81-4.13,3.76c-1.37,1.29-2.65,2.62-4,4l-2,.57c-.26-1-.56-1.89-.79-2.85l-.66-2.89c-.49-1.92-.78-3.87-1.14-5.81l2.09-.35C8.36,127.43,11.81,128.64,15.42,129.64Z"/><path d="M13.69,119.25q-2.25,1.57-4.5,3.28c-1.5,1.13-3,2.31-4.39,3.53l-2.09.35c-.19-1-.32-2-.44-2.93l-.37-2.94c-.24-2-.33-3.94-.49-5.9l2.11-.12C6.93,116.28,10.25,117.86,13.69,119.25Z"/><path d="M13.1,108.72c-3.19,1.76-6.43,3.69-9.58,5.8l-2.11.12c-.09-2-.12-4-.17-5.92s.08-3.94.17-5.91l2.11.11C6.67,105,9.91,107,13.1,108.72Z"/><path d="M13.69,98.2c-3.44,1.39-6.76,3-10.17,4.72l-2.11-.11c.16-2,.25-3.94.49-5.91L2.27,94c.12-1,.25-2,.44-2.93l2.09.34c1.41,1.22,2.89,2.4,4.39,3.54S12.19,97.15,13.69,98.2Z"/><path d="M15.42,87.81A111.32,111.32,0,0,0,4.8,91.38L2.71,91c.36-1.94.65-3.9,1.14-5.82l.66-2.88c.23-1,.53-1.91.79-2.86l2,.57c1.31,1.38,2.59,2.7,4,4S14,86.6,15.42,87.81Z"/><path d="M18.28,77.67c-1.81.31-3.65.65-5.49,1s-3.63.85-5.46,1.34l-2-.57.82-2.85.94-2.81c.6-1.88,1.35-3.71,2.08-5.55l1.95.8C13.4,72.09,15.74,74.94,18.28,77.67Z"/><path d="M22.24,67.91c-1.83.11-3.68.26-5.55.44l-2.82.32-2.78.4-1.95-.8.54-1.38.61-1.35,1.22-2.7c.83-1.79,1.78-3.52,2.67-5.29l1.86,1C18,61.84,20,64.93,22.24,67.91Z"/><path d="M27.26,58.65c-3.69-.21-7.4-.22-11.22-.09l-1.86-1c1-1.71,1.94-3.44,3-5.12l1.6-2.49c.53-.84,1.07-1.66,1.66-2.46l1.73,1.21c.76,1.71,1.59,3.4,2.46,5.08S26.35,57.06,27.26,58.65Z"/><path d="M33.28,50c-3.68-.64-7.34-1-11.14-1.32l-1.73-1.21c1.14-1.61,2.26-3.23,3.51-4.76l1.83-2.33,1.94-2.24,1.59,1.39q.88,2.7,1.87,5.29T33.28,50Z"/><path d="M40.2,42.06a111.78,111.78,0,0,0-10.92-2.52l-1.59-1.39a108.37,108.37,0,0,1,8.24-8.5l1.44,1.56q.6,2.79,1.29,5.5l.72,2.67Z"/><path d="M47.94,34.91c-3.39-1.35-6.95-2.63-10.57-3.7l-1.44-1.56c1.45-1.34,3-2.6,4.46-3.9s3.08-2.47,4.68-3.63l1.25,1.71C46.68,27.58,47.26,31.33,47.94,34.91Z"/><path d="M56.44,28.68c-3.29-1.81-6.6-3.34-10.12-4.85l-1.25-1.71A109.38,109.38,0,0,1,55,15.65L56,17.48A109.49,109.49,0,0,0,56.44,28.68Z"/><path d="M65.55,23.41c-1.51-1.05-3.07-2.08-4.66-3.09S57.7,18.41,56,17.48L55,15.65l2.57-1.47,2.64-1.35c1.74-.94,3.55-1.72,5.35-2.54l.85,1.94C65.94,16,65.63,19.67,65.55,23.41Z"/><path d="M75.19,19.16c-1.39-1.2-2.81-2.38-4.29-3.55l-2.23-1.74-2.28-1.64-.85-1.94,1.35-.61,1.38-.54L71,8.05c1.84-.7,3.73-1.29,5.6-1.93l.63,2C76.4,11.87,75.69,15.49,75.19,19.16Z"/><path d="M85.24,16c-2.49-2.71-5.15-5.32-8-7.89l-.63-2c1.9-.55,3.79-1.11,5.71-1.61s3.84-.94,5.78-1.28l.4,2.08C87.24,8.83,86.16,12.49,85.24,16Z"/><path d="M95.58,14c-2.19-3-4.53-5.84-7.06-8.71l-.4-2.08a105.61,105.61,0,0,1,11.73-1.6L100,3.74A111.52,111.52,0,0,0,95.58,14Z"/><path d="M106.08,13.17c-.92-1.59-1.89-3.22-2.9-4.79s-2.06-3.1-3.15-4.64l-.18-2.11,3-.22c1-.07,2-.07,3-.1l3-.07,3,.07-.06,2.11q-1.52,2.4-2.9,4.81T106.08,13.17Z"/><path d="M116.62,13.45q-1.11-2.52-2.36-5.07c-.83-1.68-1.71-3.3-2.64-5l.06-2.11c1,0,2,0,3,.1l3,.22c2,.11,3.93.39,5.89.64l-.29,2.09C120.83,7.34,118.65,10.31,116.62,13.45Z"/><path d="M127.06,14.88c-1.11-3.47-2.39-7.1-3.87-10.52l.29-2.09a112.52,112.52,0,0,1,11.63,2.24l-.52,2.05C131.9,9.3,129.41,12,127.06,14.88Z"/><path d="M137.28,17.44c-.72-3.58-1.61-7.24-2.69-10.88l.52-2c1.91.5,3.8,1.06,5.7,1.61s3.76,1.23,5.6,1.93l-.74,2C142.72,12.38,139.9,14.92,137.28,17.44Z"/><path d="M147.13,21.15l-.25-2.79-.34-2.75q-.37-2.76-.87-5.58l.74-2a105.77,105.77,0,0,1,10.84,4.78l-.95,1.88A109.67,109.67,0,0,0,147.13,21.15Z"/><path d="M156.52,25.92c0-1.84.07-3.72,0-5.6s-.14-3.72-.26-5.61l.95-1.88,2.64,1.35,2.57,1.47c1.73,1,3.39,2,5,3.1l-1.16,1.77A110.85,110.85,0,0,0,156.52,25.92Z"/><path d="M165.34,31.68c.48-3.61.88-7.43,1-11.16l1.16-1.77c1.68,1,3.24,2.25,4.86,3.37s3.12,2.42,4.68,3.63l-1.34,1.63C172.11,28.71,168.69,30.09,165.34,31.68Z"/><path d="M173.47,38.38c.92-3.59,1.63-7.22,2.24-11l1.34-1.63c1.49,1.3,3,2.56,4.46,3.9l2.14,2.05,1.07,1,1,1.07-1.52,1.47-2.72.68-2.73.77Q176.08,37.49,173.47,38.38Z"/><path d="M180.81,45.94a110.76,110.76,0,0,0,3.42-10.68l1.52-1.47c1.36,1.43,2.74,2.84,4,4.36l1.94,2.24,1.83,2.33L191.85,44c-1.87.23-3.73.51-5.55.81S182.61,45.54,180.81,45.94Z"/><path d="M187.29,54.25A110.76,110.76,0,0,0,191.85,44l1.67-1.3a106.65,106.65,0,0,1,6.77,9.71l-1.8,1.11c-1.91,0-3.79.11-5.65.23S189.15,54,187.29,54.25Z"/><path d="M192.84,63.21c2-3.07,3.9-6.32,5.65-9.67l1.8-1.11c1,1.68,2,3.41,3,5.12s1.83,3.5,2.66,5.29l-1.91.91C200.27,63.38,196.48,63.23,192.84,63.21Z"/><path d="M197.32,72.74l1.76-2.17,1.67-2.22c1.11-1.49,2.2-3,3.27-4.6l1.91-.91a106.4,106.4,0,0,1,4.45,11l-2,.69A112,112,0,0,0,197.32,72.74Z"/><path d="M200.73,82.7c1.32-1.28,2.64-2.62,3.93-4s2.49-2.76,3.72-4.2l2-.69,1,2.81.82,2.85c.26,1,.56,1.89.78,2.86l.67,2.88-2.06.46q-2.72-.89-5.38-1.63C204.37,83.54,202.52,83.11,200.73,82.7Z"/><path d="M203,93c2.88-2.26,5.81-4.71,8.51-7.3l2.06-.46a109.86,109.86,0,0,1,2,11.68l-2.1.23q-2.61-1.17-5.2-2.21C206.53,94.22,204.8,93.57,203,93Z"/><path d="M204.19,103.45c3.09-1.93,6.25-4,9.26-6.32l2.1-.23c.23,2,.32,3.94.49,5.91s.11,3.94.17,5.91h-2.12C210.79,106.79,207.51,105,204.19,103.45Z"/><circle class="cls-2" cx="108.72" cy="108.72" r="87.16"/><path class="cls-3" d="M108.72,24.39a84.33,84.33,0,1,1-84.33,84.33,84.43,84.43,0,0,1,84.33-84.33m0-5.67a90,90,0,1,0,90,90,90,90,0,0,0-90-90Z"/><circle class="cls-2" cx="108.72" cy="108.72" r="47.27"/><path class="cls-3" d="M108.72,64.29a44.43,44.43,0,1,1-44.43,44.43,44.48,44.48,0,0,1,44.43-44.43m0-5.67a50.1,50.1,0,1,0,50.1,50.1,50.1,50.1,0,0,0-50.1-50.1Z"/><rect class="cls-2" x="40.01" y="85.77" width="137.43" height="45.73"/><path class="cls-4" d="M92.79,37.25A3.38,3.38,0,0,0,89.43,35c-2,0-2.56,1.93-3.81,2.53s-3.25-.8-4.73.59c-.79.74-1.32,2.1-2.52.85-2.2,0-4,1.45-3.48,2.76,1.83,4.85,3.74,9.67,5.48,14.56.72,2,1.87,1.23,3.08.84s2.25-.87,1.55-2.59c-1.3-3.23-2.46-6.51-3.63-9.79-.23-.63-.86-1.51.29-1.88s1.13.71,1.37,1.36c1.21,3.19,2.47,6.36,3.55,9.6.61,1.86,1.63,1.56,3,1S92,54,91.25,52.18C90,49,88.84,45.8,87.68,42.59c-.23-.64-.91-1.51.14-1.94,1.21-.5,1.27.74,1.53,1.4,1.23,3.18,2.44,6.37,3.55,9.6.53,1.53,1.41,1.61,2.67,1,1.1-.53,2.76-.56,2-2.56C96,45.82,94.42,41.52,92.79,37.25Z"/><path class="cls-4" d="M152.54,71.68c1.3,1.67,2.54,3.38,3.83,5.06a3.51,3.51,0,0,0,2.79,1.48,3.81,3.81,0,0,0,2.47-.84c3-2.25,6-4.47,9-6.77,2-1.53,2.22-3.36.81-5.38-1.18-1.68-2.47-3.27-3.67-4.93a1.38,1.38,0,0,0-2.25-.29q-6.3,4.74-12.63,9.45C152,70.12,151.84,70.77,152.54,71.68Zm7.06-1.11c1.72-1.31,3.46-2.6,5.2-3.89.74-.56,1.36-.56,1.71.36,0,.55-.33.79-.64,1-1.73,1.31-3.46,2.62-5.2,3.91-.5.37-1.07.76-1.59.08S159.11,70.94,159.6,70.57Z"/><path class="cls-4" d="M80.25,158.35c-1.86-1.26-3.78-2.44-5.65-3.69-1-.69-1.61-.16-2.15.68-2.81,4.36-5.61,8.72-8.47,13a1.42,1.42,0,0,0,.52,2.34c1.68,1,3.31,2.18,5,3.21,2.17,1.34,4,.95,5.45-1.21,2-3,4-6.05,5.92-9.08a4.27,4.27,0,0,0,.85-2.48A3.54,3.54,0,0,0,80.25,158.35Zm-4.32,3.82c-1.39,2.19-2.8,4.36-4.22,6.53-.1.15-.32.22-.49.33-.75-.22-1.42-.53-.87-1.42,1.29-2.09,2.65-4.14,4-6.19a.8.8,0,0,1,1.23-.28C76,161.39,76.2,161.75,75.93,162.17Z"/><path class="cls-4" d="M146.51,156.72c-1.22-1.84-3.06-2.17-5-1.08-1.19.67-2.35,1.39-3.47,2.17-1.93,1.34-2.4,3.18-1.2,5.18,2,3.27,4.06,6.48,6.11,9.72A3.76,3.76,0,0,0,146,174.5c1.61,0,6.4-3.08,7-4.56a3.46,3.46,0,0,0-.26-3.34C150.68,163.3,148.66,160,146.51,156.72Zm.65,11.86a.73.73,0,0,1-1.08-.16q-2-3.16-4-6.36a.78.78,0,0,1,.22-1.09.7.7,0,0,1,1.08.05c1.47,2.2,2.89,4.43,4.11,6.32C147.68,168.13,147.46,168.38,147.16,168.58Z"/><path class="cls-4" d="M170.5,150.08c-3.45-2.67-6.8-5.47-10.2-8.21a3.76,3.76,0,0,0-2.45-1,3.68,3.68,0,0,0-3.54,3.09c-.11.47.22,1.24-.68,1.22-1.65,0-2,1.48-2.83,2.35-.68.68-.48,1.25.28,1.85,4.07,3.2,8.15,6.4,12.13,9.71,1.66,1.38,2.34.23,3.26-.83s1.32-1.92-.12-3c-2.56-1.92-5-4-7.47-6.05-.65-.54-2.15-1-1.31-2.09,1-1.23,1.78.26,2.47.79,2.49,1.91,4.94,3.87,7.3,5.94,1.38,1.21,2.15.77,3.11-.48S172.16,151.35,170.5,150.08Z"/><path class="cls-4" d="M140.13,60.83c1.3.89,2.66,1.69,3.88,2.67,1.41,1.13,2.31.88,3.27-.62s1.44-2.48-.47-3.43a13.52,13.52,0,0,1-2.18-1.52.9.9,0,0,1-.15-1.42.82.82,0,0,1,1.25-.19c.8.51,1.62,1,2.38,1.58,1.15.88,2,.82,2.85-.46,1.58-2.32,1.63-2.38-.65-4-.5-.35-1-.72-1.51-1-.67-.41-1-.86-.5-1.66s1.17-.69,1.87-.18,1.5.95,2.19,1.5c1.33,1.09,2.08.33,2.73-.79s1.94-2,.1-3.2c-1.39-.87-2.7-1.86-4.07-2.76-2.3-1.51-4.19-1.14-5.78,1.15-2,2.91-4,5.85-6,8.78a4.78,4.78,0,0,0-.92,2.4A3.9,3.9,0,0,0,140.13,60.83Z"/><path class="cls-4" d="M65.59,150.63c.78-.76,2.49-1.2,1.19-2.83s-2.45-3.1-3.73-4.61a3.19,3.19,0,0,0-2.63-1.14,3.37,3.37,0,0,0-2.36.84c-3,2.38-6,4.72-9,7.15a3.44,3.44,0,0,0-.69,5.08c1.11,1.55,2.35,3,3.54,4.5.63.8,1.27.78,2.11.23,2.57-1.69,2.59-2,.86-4.39-.59-.83-2.55-1.72-1-2.91,1.33-1,1.71,1,2.49,1.64s1,1.93,2.06,1.76a5,5,0,0,0,2.88-2.17c.68-.87-.29-1.47-.73-2.1s-1-1.29-1.51-1.93a1.05,1.05,0,0,1,.27-1.72c.67-.5,1.11-.25,1.55.29.64.8,1.33,1.56,1.92,2.39C63.88,152.08,64.77,151.44,65.59,150.63Z"/><path class="cls-4" d="M133.51,36.56c-2.71-.72-5.4-1.46-8.1-2.2-1.33-.37-1.73.48-1.91,1.49s-1.29,2.55.53,3.1,1.65,1.38,1.25,2.75c-.91,3.07-1.62,6.21-2.57,9.26-.56,1.79.06,2.46,1.73,2.85,1.5.34,2.57.53,3-1.47.69-3.13,1.66-6.19,2.48-9.29.35-1.34.65-2.68,2.47-1.73,2,.11,1.63-1.54,2-2.55S134.82,36.9,133.51,36.56Z"/><path class="cls-4" d="M113.71,166c-2.93-.11-5.87-.1-8.8-.12-1.1,0-1.42.76-1.32,1.66.1,1.05-.67,2.86.88,2.92,2.64.11,2.29,1.66,2.26,3.29,0,1.3,0,2.6,0,3.89h-.08c0,1.57.08,3.15,0,4.71-.12,1.76.33,2.61,2.34,2.6,1.85,0,2.55-.54,2.51-2.45-.07-3.13.16-6.27.16-9.41,0-1.41.19-2.33,2-2.3s1.33-1.42,1.33-2.45S115.28,166,113.71,166Z"/><path class="cls-4" d="M61.09,77.21q1.3-2,2.73-3.83c.85-1.13,1.54-2.08-.16-3.16-1.4-.88-2.59-2-3.74.21-.62,1.2-1.39,1.21-2.46.42C54.78,68.85,52,67,49.3,65a3.39,3.39,0,0,0-1.75-.85c-1.1.51-1.62,1.66-2.25,2.67-.53.85.11,1.39.76,1.85,4.22,3,8.45,6,12.66,9C59.75,78.47,60.44,78.18,61.09,77.21Z"/><path class="cls-4" d="M108.76,51.52c1.31,0,2.25-.19,2.2-1.87-.09-2.52,0-5,0-7.57h-.2c0-2.66,0-5.32,0-8,0-2-1.53-1.5-2.68-1.54s-2.23,0-2.2,1.62c.1,5.18.18,10.37.2,15.55C106.08,51.78,107.46,51.49,108.76,51.52Z"/><path class="cls-4" d="M93.22,163.46c-1.4-.4-2.55-.82-3.1,1.23-1.21,4.48-2.63,8.91-4,13.36-.86,2.88-.38,3.59,2.66,3.92,1.2.28,1.44-.58,1.71-1.48,1.42-4.78,2.78-9.58,4.33-14.31C95.46,164.38,94.67,163.88,93.22,163.46Z"/><path class="cls-4" d="M69.77,64.63c1.15,1.4,2,.6,2.86-.21s2.27-1.32.93-2.89c-3.36-4-6.64-8-10-11.92-.34-.41-.65-.9-1.39-.92a7.19,7.19,0,0,0-2.87,2.39c-.55.8.33,1.37.77,1.91C63.32,56.88,66.59,60.72,69.77,64.63Z"/><path class="cls-4" d="M128.13,165.05c-.46-1.74-1.2-2.12-2.91-1.64s-2.59,1.3-1.79,3.18a19.33,19.33,0,0,1,.62,2.17c1.14,4,2.31,8,3.41,12,.33,1.2,1,1.58,2.13,1.17s2.62-.09,2.71-1.84c-.11-.45-.19-.86-.3-1.25C130.7,174.25,129.33,169.67,128.13,165.05Z"/><path class="cls-5" d="M123.35,90.84c-7.18-.08-14.35,0-21.53,0a3.32,3.32,0,0,0-3.29,2.59c-.29.84,0,1.33.91,1.32a32.57,32.57,0,0,1,3.28,0c.71.08,2-.54,2,.5,0,.86-1.25.45-1.92.46a3.53,3.53,0,0,0-3.34,2c-.62,1.2-.67,2.11,1.12,2.09.68,0,1.5-.36,2,.41-.33.74-1.14.75-1.65,1.18-.92.78-2,1.91-1.28,2.92s.35,1.82,0,2.71q-3.73,8.43-7.46,16.86c-.92,2.09-.62,2.6,1.59,2.64,1.91,0,3.83,0,5.74,0a2.1,2.1,0,0,0,2.33-1.5c.94-2.34,2.08-4.6,3-6.94.44-1.06,1-1.57,2.38-1.06l-3,6.83c-1,2.18-.67,2.61,1.78,2.64a42.17,42.17,0,0,1,4.5,0c2,.26,3.06-.57,3.83-2.42,2.16-5.16,4.51-10.25,6.77-15.37,1.88-4.25,3.85-8.46,5.56-12.77C127.94,93,126.53,90.88,123.35,90.84Zm-8.45,9.08c-1.17,2.75-2.4,5.48-3.63,8.2-.27.6-.42,1.38-1.24,1.26s-1.07-.38-.77-1c1.36-3,2.69-6.1,4.1-9.12.32-.68,1-1.41,1.76-1S115.13,99.37,114.9,99.92Z"/><path class="cls-6" d="M94.38,90.78c-1.85,0-3.7.08-5.54,0a2.3,2.3,0,0,0-2.62,1.66c-1.49,3.6-3.15,7.12-4.7,10.69-.46,1-.93,1.88-2.39,1.12,1.65-3.74,3.29-7.49,5-11.21.66-1.49.32-2.2-1.38-2.2-4.3,0-8.61,0-12.92,0a3.41,3.41,0,0,0-3.08,1.69c-.93,1.5-.54,2.22,1.2,2.26,1,0,1.93-.08,2.87,0,.66.07,1.82-.51,1.85.5,0,.8-1.11.37-1.74.47-.33.06-.68,0-1,0A3.4,3.4,0,0,0,67.12,98c-.49,1.1-.43,1.85,1.09,1.81a5,5,0,0,1,2.55.27c-.49.92-1.42.8-2,1.31-.91.85-2.21,2.12-1.25,3,1.16,1.11.52,1.76.15,2.59-2.47,5.62-5,11.23-7.48,16.85-1,2.16-.64,2.65,1.76,2.69,1.84,0,3.69,0,5.54,0a2.11,2.11,0,0,0,2.34-1.49c.83-2.09,1.8-4.13,2.72-6.19s1.81-4,2.67-6c.32-.77.88-1.13,1.6-.85,1,.38.17,1,0,1.47-1.52,3.58-3.14,7.12-4.69,10.69-.75,1.73-.41,2.27,1.44,2.32,2.05.06,4.11,0,6.16,0A2.08,2.08,0,0,0,82,125c.65-1.65,1.42-3.25,2.14-4.87q5.94-13.39,11.88-26.79C97,91.17,96.73,90.8,94.38,90.78Z"/><path class="cls-6" d="M149,105.14c-1.63-.17-3.28-.11-4.92-.13-.95,0-1.33-.21-.95-1.33,1.88-5.5,2.08-5.68,7.76-5.67h1.64c5.39,0,5.39,0,7.44-4.93a1.07,1.07,0,0,1,.07-.19c.66-1.36.3-2.12-1.27-2.12-8.4,0-16.81,0-25.21.06a3.2,3.2,0,0,0-3.16,2.47c-.27.84-.09,1.48,1,1.46,1.37,0,2.73,0,4.1,0,.42,0,1.14-.22,1.11.49s-.71.53-1.17.5c-1.66-.1-3.15.18-4.09,1.74s-.63,2.19,1.18,2.3c.6,0,1.23-.16,1.91.32-.34.86-1.19.8-1.66,1.26-.89.86-2.09,1.92-1.2,3.07.68.9.37,1.38.16,2.1-1,3.32.32,5.22,3.75,5.38,1.43.06,2.87,0,4.3,0,1,0,1.35.25,1,1.35-1.72,5.4-2.27,5.84-7.85,5.84h-1.64c-5.5,0-5.47,0-7.51,5.13-.61,1.54-.18,2.25,1.42,2.24,4.91,0,9.83,0,14.75-.1a7.87,7.87,0,0,0,7.17-4.71c1.82-3.74,3.49-7.56,5-11.42C153.35,107.37,152.12,105.49,149,105.14Z"/><path class="cls-6" d="M64.39,93a1.46,1.46,0,0,1,.07-.19c.69-1.46.09-2-1.38-2H37.87A3.27,3.27,0,0,0,35,92.46c-.36.57-.81,1.22-.46,1.9s1.1.34,1.68.39c1.63.16,3.33-.29,5,.31-.61,1.11-1.54.67-2.27.69a3.66,3.66,0,0,0-3.2,1.49,2.1,2.1,0,0,0-.51,2.09c.31.68,1.08.37,1.66.45s1.23-.13,2,.51c-.89.74-2,.88-2.6,1.77s-1.35,1.86-.37,2.5.57,1.15.29,1.78c-2,4.56-4.07,9.09-6,13.67-1.86,4.31-.55,6.37,4.14,6.49,3.35.09,6.74-.31,10,.11,4.11.51,6.45-.92,7.34-4.9a2.05,2.05,0,0,1,.16-.38c.7-1.5.19-2.19-1.44-2.17-2.59,0-5.19-.06-7.78,0-1.42,0-1.87-.25-1.2-1.72,2.66-5.83,5.24-11.7,7.83-17.57A2.77,2.77,0,0,1,52.09,98c1.64,0,3.28,0,4.92,0C62.42,98,62.42,98,64.39,93Z"/><path class="cls-6" d="M185.79,90.78l-19.87,0a3.31,3.31,0,0,0-3.13,1.93c-.62,1.19-.7,2.06,1.13,2,1.57,0,3.19-.32,4.81.27-.46,1-1.23.69-1.85.69a3.74,3.74,0,0,0-2.48.79c-.82.69-1.53,1.56-1.22,2.63s1.4.46,2.14.62c.32.08.65.1,1.07.16-.12,1-.78,1-1.2,1.28-.93.66-2,1.7-1.57,2.63,1,1.92-.22,3.18-.83,4.61-1.74,4.08-3.64,8.1-5.33,12.19-1.43,3.47-.2,5.46,3.49,5.75,2,.16,4.09.11,6.14.11,5.25,0,5.25,0,7.26-4.87.08-.19.18-.37.26-.56.52-1.33,0-1.87-1.37-2s-3.74.78-4.39-.42,1.1-2.88,1.54-4.43c.52-1.86,1.6-2.45,3.56-2.39,4.81.17,4.82.06,6.73-4.35,1.1-2.56.84-3-2-3-4,0-4,0-2.4-3.69.71-1.66,1.48-3.28,3.63-2.83,4,.84,6.07-1,7-4.67a3,3,0,0,1,.24-.56C187.86,91.35,187.27,90.78,185.79,90.78Z"/></g></g></svg>