<svg xmlns="http://www.w3.org/2000/svg" xmlns:xlink="http://www.w3.org/1999/xlink" viewBox="0 0 97.77 67.93"><defs><style>.cls-1{fill:url(#Dégradé_sans_nom_43);}.cls-2{fill:#1d1d1b;}.cls-3{fill:none;stroke:#1d1d1b;stroke-miterlimit:10;stroke-width:0.71px;}</style><linearGradient id="Dégradé_sans_nom_43" x1="9.03" y1="44.79" x2="90.23" y2="10.32" gradientUnits="userSpaceOnUse"><stop offset="0" stop-color="#95979a"/><stop offset="0.16" stop-color="#989a9d"/><stop offset="0.28" stop-color="#a1a3a5"/><stop offset="0.38" stop-color="#b0b2b4"/><stop offset="0.47" stop-color="#c6c8c9"/><stop offset="0.55" stop-color="#dfe0e1"/><stop offset="0.67" stop-color="#c0c1c3"/><stop offset="0.79" stop-color="#a8aaac"/><stop offset="0.9" stop-color="#9a9c9f"/><stop offset="1" stop-color="#95979a"/></linearGradient></defs><g id="Calque_2" data-name="Calque 2"><g id="DIAMOND"><path class="cls-1" d="M48.89,66.87a1,1,0,0,1-.69-.25l-46.76-40a1.06,1.06,0,0,1-.16-1.45l18-23.69a1.09,1.09,0,0,1,.85-.42H77.62a1.07,1.07,0,0,1,.84.42l18,23.69a1.05,1.05,0,0,1-.15,1.45l-46.76,40A1.07,1.07,0,0,1,48.89,66.87Z"/><path class="cls-2" d="M77.62,2.13l18,23.68h0l-46.76,40-46.76-40h0l18-23.68H77.62m0-2.13H20.16a2.11,2.11,0,0,0-1.69.84L.43,24.52a2.14,2.14,0,0,0,.31,2.91l46.77,40a2.12,2.12,0,0,0,2.76,0L97,27.43a2.13,2.13,0,0,0,.31-2.91L79.31.84A2.12,2.12,0,0,0,77.62,0Z"/><path class="cls-2" d="M13.82,14.47a18.88,18.88,0,0,1,3.1-.25,6.23,6.23,0,0,1,4.58,1.49A5.7,5.7,0,0,1,23.09,20a6.62,6.62,0,0,1-1.62,4.67,6.72,6.72,0,0,1-5,1.72,22.07,22.07,0,0,1-2.65-.14Zm1.46,10.61a8.86,8.86,0,0,0,1.48.09c3.11,0,4.81-1.85,4.81-5.1,0-2.83-1.49-4.63-4.58-4.63a8.5,8.5,0,0,0-1.71.16Z"/><path class="cls-2" d="M26.45,14.3v12H25v-12Z"/><path class="cls-2" d="M30.82,22.53l-1.17,3.78H28.14L32,14.3h1.76l3.86,12H36l-1.21-3.78Zm3.71-1.21-1.11-3.45c-.25-.79-.42-1.5-.59-2.19h0c-.17.71-.35,1.44-.57,2.17l-1.11,3.47Z"/><path class="cls-2" d="M48.71,21c-.08-1.68-.18-3.69-.17-5.19h0c-.38,1.41-.85,2.91-1.42,4.56l-2,5.83H44l-1.83-5.72c-.54-1.69-1-3.24-1.31-4.67h0c0,1.5-.12,3.51-.22,5.31l-.3,5.15H38.89l.78-12h1.86l1.93,5.81c.47,1.48.86,2.8,1.14,4h0c.29-1.21.69-2.53,1.19-4l2-5.81h1.86l.7,12H49Z"/><path class="cls-2" d="M62.33,20.18c0,4.13-2.37,6.32-5.25,6.32S52,24.05,52,20.41c0-3.81,2.23-6.3,5.24-6.3S62.33,16.62,62.33,20.18Zm-8.77.2c0,2.56,1.3,4.86,3.6,4.86s3.62-2.26,3.62-5c0-2.38-1.17-4.88-3.6-4.88S53.56,17.74,53.56,20.38Z"/><path class="cls-2" d="M64.22,26.31v-12h1.59l3.62,6.08a32.75,32.75,0,0,1,2,3.9l0,0c-.14-1.6-.17-3.06-.17-4.93v-5H72.7v12H71.23l-3.59-6.09a38.88,38.88,0,0,1-2.11-4l0,0c.08,1.51.11,2.95.11,4.95v5.13Z"/><path class="cls-2" d="M75.25,14.47a18.88,18.88,0,0,1,3.1-.25,6.23,6.23,0,0,1,4.58,1.49A5.7,5.7,0,0,1,84.52,20a6.62,6.62,0,0,1-1.62,4.67,6.72,6.72,0,0,1-5,1.72,22.07,22.07,0,0,1-2.65-.14Zm1.46,10.61a8.74,8.74,0,0,0,1.47.09c3.12,0,4.82-1.85,4.82-5.1,0-2.83-1.5-4.63-4.58-4.63a8.34,8.34,0,0,0-1.71.16Z"/><path class="cls-2" d="M24.6,36.91a4.85,4.85,0,0,1-2,.36,3.52,3.52,0,0,1-3.74-3.8,3.74,3.74,0,0,1,3.95-3.93,4.2,4.2,0,0,1,1.8.33l-.24.79a3.57,3.57,0,0,0-1.53-.31,2.8,2.8,0,0,0-2.95,3.09,2.73,2.73,0,0,0,2.91,3,3.91,3.91,0,0,0,1.59-.31Z"/><path class="cls-2" d="M32.05,33.33c0,2.58-1.58,4-3.51,4s-3.4-1.54-3.4-3.81,1.49-3.93,3.51-3.93S32.05,31.1,32.05,33.33Zm-5.87.12c0,1.6.88,3,2.42,3S31,35.07,31,33.37c0-1.49-.78-3-2.41-3S26.18,31.8,26.18,33.45Z"/><path class="cls-2" d="M33.33,29.66h1v6.68h3.24v.82H33.33Z"/><path class="cls-2" d="M38.63,29.66h1v6.68h3.24v.82H38.63Z"/><path class="cls-2" d="M47.85,33.64H44.91v2.7h3.28v.82H43.93v-7.5H48v.81H44.91v2.37h2.94Z"/><path class="cls-2" d="M54.75,36.91a4.85,4.85,0,0,1-2,.36A3.52,3.52,0,0,1,49,33.47a3.74,3.74,0,0,1,4-3.93,4.2,4.2,0,0,1,1.8.33l-.24.79A3.57,3.57,0,0,0,53,30.35a2.8,2.8,0,0,0-3,3.09,2.73,2.73,0,0,0,2.91,3,3.91,3.91,0,0,0,1.59-.31Z"/><path class="cls-2" d="M57.72,30.48h-2.3v-.82H61v.82H58.71v6.68h-1Z"/><path class="cls-2" d="M62.84,29.66v7.5h-1v-7.5Z"/><path class="cls-2" d="M71,33.33c0,2.58-1.58,4-3.51,4s-3.41-1.54-3.41-3.81,1.5-3.93,3.52-3.93S71,31.1,71,33.33Zm-5.87.12c0,1.6.87,3,2.41,3S70,35.07,70,33.37c0-1.49-.79-3-2.42-3S65.15,31.8,65.15,33.45Z"/><path class="cls-2" d="M72.29,37.16v-7.5h1.07l2.42,3.79a20,20,0,0,1,1.36,2.44h0c-.09-1-.12-1.92-.12-3.09V29.66H78v7.5H77l-2.41-3.81a24.5,24.5,0,0,1-1.41-2.5h0c.06.94.08,1.85.08,3.09v3.21Z"/><line class="cls-3" x1="48.16" y1="0.72" x2="55.48" y2="8.55"/><line class="cls-3" x1="48.89" y1="0.72" x2="41.57" y2="8.55"/><line class="cls-3" x1="62.27" y1="41.23" x2="48.89" y2="65.81"/><line class="cls-3" x1="35.5" y1="41.23" x2="48.89" y2="65.81"/><line class="cls-3" x1="2.13" y1="25.81" x2="8.4" y2="25.81"/><line class="cls-3" x1="90.01" y1="25.77" x2="96.28" y2="25.77"/><line class="cls-3" x1="20.16" y1="2.13" x2="21.33" y2="7.98"/><line class="cls-3" x1="77.98" y1="1.71" x2="76.8" y2="7.56"/></g></g></svg>