<svg xmlns="http://www.w3.org/2000/svg" viewBox="0 0 93.69 40.4"><defs><style>.cls-1{fill:#fbbc15;}.cls-2,.cls-3{fill:#1d1d1b;stroke:#000;stroke-miterlimit:10;}.cls-2{stroke-width:0.72px;}.cls-3{stroke-width:0.28px;}</style></defs><g id="Calque_2" data-name="Calque 2"><g id="HOT_TOPIC" data-name="HOT TOPIC"><rect class="cls-1" width="93.69" height="40.4"/><path class="cls-2" d="M5.57,5.93H7.38v15H5.57Zm1.13,6.6h7.14v2H6.7Zm6.19-6.6h1.8v15h-1.8Z"/><path class="cls-2" d="M19.77,20.37a4.38,4.38,0,0,1-1.59-1.94,6.92,6.92,0,0,1-.57-2.9V11.29a7,7,0,0,1,.57-2.9,4.35,4.35,0,0,1,1.59-1.93,4.42,4.42,0,0,1,4.74,0A4.35,4.35,0,0,1,26.1,8.39a7,7,0,0,1,.56,2.9v4.24a6.92,6.92,0,0,1-.56,2.9,4.38,4.38,0,0,1-1.59,1.94,4.47,4.47,0,0,1-4.74,0Zm3.77-1.8a2.63,2.63,0,0,0,.94-1.19,4.44,4.44,0,0,0,.33-1.77V11.22a4.49,4.49,0,0,0-.33-1.78,2.65,2.65,0,0,0-.94-1.18,2.54,2.54,0,0,0-2.8,0,2.65,2.65,0,0,0-.94,1.18,4.49,4.49,0,0,0-.33,1.78v4.39a4.44,4.44,0,0,0,.33,1.77,2.63,2.63,0,0,0,.94,1.19,2.6,2.6,0,0,0,2.8,0Z"/><path class="cls-2" d="M27.81,5.93H36.9v2H27.81Zm3.64,1.22h1.81V20.9H31.45Z"/><path class="cls-2" d="M41.42,5.93H50.5v2H41.42Zm3.63,1.22h1.81V20.9H45.05Z"/><path class="cls-2" d="M53.8,20.37a4.52,4.52,0,0,1-1.59-1.94,7.08,7.08,0,0,1-.56-2.9V11.29a7.11,7.11,0,0,1,.56-2.9A4.49,4.49,0,0,1,53.8,6.46a4.43,4.43,0,0,1,4.75,0,4.49,4.49,0,0,1,1.59,1.93,7.11,7.11,0,0,1,.56,2.9v4.24a7.08,7.08,0,0,1-.56,2.9,4.52,4.52,0,0,1-1.59,1.94,4.49,4.49,0,0,1-4.75,0Zm3.78-1.8a2.69,2.69,0,0,0,.94-1.19,4.44,4.44,0,0,0,.33-1.77V11.22a4.49,4.49,0,0,0-.33-1.78,2.72,2.72,0,0,0-.94-1.18,2.56,2.56,0,0,0-2.81,0,2.79,2.79,0,0,0-.94,1.18,4.49,4.49,0,0,0-.33,1.78v4.39a4.44,4.44,0,0,0,.33,1.77,2.77,2.77,0,0,0,.94,1.19,2.61,2.61,0,0,0,2.81,0Z"/><path class="cls-2" d="M63.45,5.93h1.8v15h-1.8Zm.93,7.16h4.11a1.68,1.68,0,0,0,1-.32,2.13,2.13,0,0,0,.69-.9,3.54,3.54,0,0,0,.24-1.35,3.55,3.55,0,0,0-.24-1.36,2.16,2.16,0,0,0-.69-.91,1.69,1.69,0,0,0-1-.33H64.38v-2h4.05a3.65,3.65,0,0,1,2,.57,3.79,3.79,0,0,1,1.36,1.61,5.7,5.7,0,0,1,.48,2.41,5.65,5.65,0,0,1-.48,2.4,3.79,3.79,0,0,1-1.36,1.61,3.73,3.73,0,0,1-2,.56H64.38Z"/><path class="cls-2" d="M76.37,20.9H74.56v-15h1.81Z"/><path class="cls-2" d="M81.42,20.36a4.53,4.53,0,0,1-1.58-1.95,7.31,7.31,0,0,1-.55-2.94V11.36a7.23,7.23,0,0,1,.55-2.93,4.5,4.5,0,0,1,1.58-2,4.16,4.16,0,0,1,4.38-.15,4.65,4.65,0,0,1,1.56,1.56,6.39,6.39,0,0,1,.84,2.34H86.35A3.55,3.55,0,0,0,85.79,9a2.85,2.85,0,0,0-.92-.85,2.22,2.22,0,0,0-1.1-.3,2.25,2.25,0,0,0-1.38.44,2.79,2.79,0,0,0-.92,1.24,4.9,4.9,0,0,0-.33,1.86v4.11a4.9,4.9,0,0,0,.33,1.86,2.74,2.74,0,0,0,.92,1.24,2.25,2.25,0,0,0,1.38.44,2.4,2.4,0,0,0,1.1-.28,2.67,2.67,0,0,0,.92-.83,3.44,3.44,0,0,0,.56-1.29H88.2a6.18,6.18,0,0,1-.85,2.33A4.45,4.45,0,0,1,85.8,20.5a3.89,3.89,0,0,1-2,.55A4.06,4.06,0,0,1,81.42,20.36Z"/><path class="cls-3" d="M20.22,26.46h1.12l-2,7.64H18.17ZM19,33.08H23.6l-.27,1H18.72Zm.88-3.28h4l-.28,1h-4Zm.89-3.34h4.62l-.28,1H20.49Z"/><path class="cls-3" d="M28,29.73l2.9-3.27h1.26l-3.76,4.13-3.1,3.51H24.05Zm-.22,1-.1-.26-1.53-4h1.27l1.1,3.11.11.28,1.61,4.25H29Z"/><path class="cls-3" d="M32.26,33.82a1.66,1.66,0,0,1-.72-1,2.88,2.88,0,0,1,.06-1.5l.56-2.1a4,4,0,0,1,.75-1.49,3.56,3.56,0,0,1,2.81-1.36,2.49,2.49,0,0,1,1.19.28,1.83,1.83,0,0,1,.76.8,2.39,2.39,0,0,1,.21,1.19H36.72a1.36,1.36,0,0,0-.18-.64,1.19,1.19,0,0,0-.46-.43,1.37,1.37,0,0,0-.64-.15,2,2,0,0,0-.93.22,2.24,2.24,0,0,0-.74.64,2.66,2.66,0,0,0-.46.94l-.56,2.1a1.92,1.92,0,0,0,0,.94,1,1,0,0,0,.41.64,1.31,1.31,0,0,0,.8.22,2,2,0,0,0,.72-.14,2.46,2.46,0,0,0,.69-.42,2.61,2.61,0,0,0,.53-.66H37a3.87,3.87,0,0,1-.85,1.19,4,4,0,0,1-1.18.8,3.54,3.54,0,0,1-1.34.28A2.38,2.38,0,0,1,32.26,33.82Z"/><path class="cls-3" d="M40,26.46h1.13L39,34.1H37.91Zm-1.21,6.62h4.6l-.27,1h-4.6Z"/><path class="cls-3" d="M45.42,33.84a1.53,1.53,0,0,1-.7-1,3.07,3.07,0,0,1,.08-1.54l1.31-4.87h1.13l-1.32,4.91A1.52,1.52,0,0,0,46,32.66a1.28,1.28,0,0,0,1.13.46,2.11,2.11,0,0,0,1.38-.46,2.35,2.35,0,0,0,.79-1.29l1.32-4.91h1.12l-1.3,4.87a4.1,4.1,0,0,1-.75,1.54,3.19,3.19,0,0,1-1.22,1,3.91,3.91,0,0,1-1.62.34A2.79,2.79,0,0,1,45.42,33.84Z"/><path class="cls-3" d="M52.68,34.07a3.39,3.39,0,0,1-.88-.31,2.81,2.81,0,0,1-.7-.53l.92-.82a2.31,2.31,0,0,0,.86.57,3.38,3.38,0,0,0,1.15.19,2.89,2.89,0,0,0,1.43-.31,1.35,1.35,0,0,0,.72-.87h0a.8.8,0,0,0,0-.64.93.93,0,0,0-.47-.34,4.63,4.63,0,0,0-.84-.21h-.07l-.08,0a7,7,0,0,1-1.23-.29,1.27,1.27,0,0,1-.7-.61,1.73,1.73,0,0,1,0-1.25h0a2.73,2.73,0,0,1,.65-1.21,3.1,3.1,0,0,1,1.18-.77,4.79,4.79,0,0,1,1.62-.26,3.68,3.68,0,0,1,.82.09,3.36,3.36,0,0,1,.75.27,2.93,2.93,0,0,1,.68.44l-.87.85a2.94,2.94,0,0,0-.78-.48,2.35,2.35,0,0,0-.87-.16,2.7,2.7,0,0,0-1.37.31,1.42,1.42,0,0,0-.69.89h0a.67.67,0,0,0,.07.62,1.05,1.05,0,0,0,.49.34,9.1,9.1,0,0,0,.92.22h.19a5.33,5.33,0,0,1,1.13.33,1.29,1.29,0,0,1,.65.63,1.67,1.67,0,0,1,0,1.18h0a2.73,2.73,0,0,1-.67,1.2,3.17,3.17,0,0,1-1.21.76,5,5,0,0,1-1.66.26A5.2,5.2,0,0,1,52.68,34.07Z"/><path class="cls-3" d="M59.35,34.1H58.22l2-7.64h1.13Z"/><path class="cls-3" d="M62.77,26.46H64l.32,6,3.53-6h1.23L64.42,34.1H63.34Z"/><path class="cls-3" d="M70.3,26.46h1.12l-2,7.64H68.25Zm-1.23,6.62h4.61l-.27,1H68.8ZM70,29.8h4l-.27,1h-4Zm.89-3.34h4.61l-.27,1H70.57Z"/></g></g></svg>