<svg xmlns="http://www.w3.org/2000/svg" xmlns:xlink="http://www.w3.org/1999/xlink" viewBox="0 0 184.11 275.06"><defs><style>.cls-1{fill:url(#Dégradé_sans_nom_30);}.cls-2{fill:url(#Dégradé_sans_nom_30-2);}.cls-3{fill:#1d1d1b;}.cls-4{fill:url(#Dégradé_sans_nom_30-3);}.cls-5{fill:url(#Dégradé_sans_nom_30-4);}.cls-6{fill:url(#Dégradé_sans_nom_30-5);}.cls-7{fill:url(#Dégradé_sans_nom_30-6);}.cls-8{fill:url(#Dégradé_sans_nom_30-7);}.cls-9{fill:url(#Dégradé_sans_nom_30-8);}.cls-10{fill:url(#Dégradé_sans_nom_30-9);}.cls-11{fill:url(#Dégradé_sans_nom_30-10);}</style><linearGradient id="Dégradé_sans_nom_30" x1="19.53" y1="104.54" x2="297.82" y2="165.91" gradientUnits="userSpaceOnUse"><stop offset="0" stop-color="#2c6436"/><stop offset="0.06" stop-color="#316c39"/><stop offset="0.31" stop-color="#478b46"/><stop offset="0.56" stop-color="#56a24f"/><stop offset="0.79" stop-color="#5faf55"/><stop offset="1" stop-color="#62b457"/></linearGradient><linearGradient id="Dégradé_sans_nom_30-2" x1="16.42" y1="249.19" x2="30.43" y2="249.19" xlink:href="#Dégradé_sans_nom_30"/><linearGradient id="Dégradé_sans_nom_30-3" x1="31.17" y1="249.19" x2="50.85" y2="249.19" xlink:href="#Dégradé_sans_nom_30"/><linearGradient id="Dégradé_sans_nom_30-4" x1="50.55" y1="249.17" x2="69.23" y2="249.17" xlink:href="#Dégradé_sans_nom_30"/><linearGradient id="Dégradé_sans_nom_30-5" x1="71.84" y1="249.19" x2="85.72" y2="249.19" xlink:href="#Dégradé_sans_nom_30"/><linearGradient id="Dégradé_sans_nom_30-6" x1="86.78" y1="249.38" x2="104.84" y2="249.38" xlink:href="#Dégradé_sans_nom_30"/><linearGradient id="Dégradé_sans_nom_30-7" x1="107.77" y1="249.17" x2="122.87" y2="249.17" xlink:href="#Dégradé_sans_nom_30"/><linearGradient id="Dégradé_sans_nom_30-8" x1="125.96" y1="249.19" x2="129.94" y2="249.19" xlink:href="#Dégradé_sans_nom_30"/><linearGradient id="Dégradé_sans_nom_30-9" x1="131.5" y1="249.19" x2="152.03" y2="249.19" xlink:href="#Dégradé_sans_nom_30"/><linearGradient id="Dégradé_sans_nom_30-10" x1="153.32" y1="249.19" x2="167.33" y2="249.19" xlink:href="#Dégradé_sans_nom_30"/></defs><g id="Calque_2" data-name="Calque 2"><g id="Calque_2-2" data-name="Calque 2"><path d="M168.11,161.07V90.47l12.4-16.57a16,16,0,0,0,3.19-9.46l.4-48.31A16,16,0,0,0,168.11,0H16A16,16,0,0,0,0,16V64.31a16,16,0,0,0,16,16v76.94L3.19,174.36A16,16,0,0,0,0,184v75.11a16,16,0,0,0,16,16H168.11A16,16,0,0,0,184,261h.13V177.07A16,16,0,0,0,168.11,161.07Z"/><polygon class="cls-1" points="168.1 16 168.1 16 16 16 16 64.31 105.54 64.31 16 183.95 16 225.06 168.1 225.06 168.1 183.95 168.1 177.07 83.31 177.07 167.7 64.31 168.1 16"/><polygon class="cls-2" points="20.41 250.4 29.4 250.4 29.4 246.97 20.41 246.97 20.41 240.76 29.92 240.76 29.92 237.3 16.42 237.3 16.42 261.09 30.43 261.09 30.43 257.62 20.41 257.62 20.41 250.4"/><path class="cls-3" d="M30.93,261.59h-15V236.8h14.5v4.46H20.91v5.21h9v4.43h-9v6.22h10Zm-14-1h13v-2.47h-10V249.9h9v-2.43h-9v-7.21h9.51V237.8H16.92Z"/><path class="cls-4" d="M50.69,237.3H46.06l-3.3,5.58C42.09,244,41.57,244.93,41,246c-.53-1-1.11-2-1.73-3.1l-3.2-5.59H31.45l7.1,11.75-7.38,12h4.62l2.92-5.25c1-1.65,1.6-2.75,2.13-3.79.64,1.13,1.34,2.28,2.26,3.75l3.1,5.29h4.65l-7.52-12.2Z"/><path class="cls-3" d="M51.74,261.59H45.91l-3.24-5.54c-.69-1.09-1.28-2.05-1.81-3-.49.91-1,1.85-1.73,3l-3,5.49H30.28L38,249.05l-7.4-12.25h5.82l3.34,5.84c.46.79.89,1.54,1.29,2.28.41-.76.83-1.48,1.31-2.29l3.45-5.83H51.6l-7.68,12.1Zm-5.26-1H50l-7.21-11.7,7-11.09H46.35l-3.16,5.34c-.64,1.08-1.17,2-1.71,3.08l-.44.86-.45-.86c-.53-1-1.1-2-1.73-3.08l-3-5.34H32.34l6.8,11.26-7.08,11.53H35.5l2.77-5c.9-1.5,1.54-2.63,2.12-3.77l.43-.83.45.81c.65,1.13,1.37,2.31,2.25,3.73Z"/><path class="cls-5" d="M63.24,240.39a10.54,10.54,0,0,1,4.45.9l.53.25,1-3.36-.37-.19a12.83,12.83,0,0,0-5.72-1.07c-7.41,0-12.59,5.13-12.59,12.47s4.69,12,11.94,12a15.44,15.44,0,0,0,6.33-1.13l.36-.18-.87-3.31-.55.26a11.65,11.65,0,0,1-4.66.9c-5.25,0-8.39-3.24-8.39-8.67S57.9,240.39,63.24,240.39Z"/><path class="cls-3" d="M62.49,261.92c-7.56,0-12.44-4.91-12.44-12.53s5.38-13,13.09-13a13.39,13.39,0,0,1,6,1.13l.74.38-1.3,4.31-1-.5a10,10,0,0,0-4.24-.85c-5,0-8,3.14-8,8.4s2.95,8.17,7.89,8.17a11.2,11.2,0,0,0,4.45-.85l1.09-.52,1.13,4.29-.73.36A16,16,0,0,1,62.49,261.92Zm.65-24.5c-7.12,0-12.09,4.93-12.09,12s4.49,11.53,11.44,11.53a14.86,14.86,0,0,0,6.11-1.08L68,257.51a12.22,12.22,0,0,1-4.88.95c-5.56,0-8.89-3.43-8.89-9.17s3.38-9.4,9-9.4a11.11,11.11,0,0,1,4.67,1l.72-2.4A12.25,12.25,0,0,0,63.14,237.42Z"/><polygon class="cls-6" points="75.83 237.3 71.84 237.3 71.84 261.09 85.72 261.09 85.72 257.62 75.83 257.62 75.83 237.3"/><path class="cls-3" d="M86.22,261.59H71.34V236.8h5v20.32h9.89Zm-13.88-1H85.22v-2.47H75.33V237.8h-3Z"/><path class="cls-7" d="M100.82,251.29c0,4.49-1.73,6.77-5.13,6.77-3.15,0-4.89-2.41-4.89-6.77v-14h-4v13.92c0,8.91,5.52,10.24,8.81,10.24,5.88,0,9.25-3.78,9.25-10.37V237.3h-4Z"/><path class="cls-3" d="M95.59,262c-3.48,0-9.31-1.4-9.31-10.74V236.8h5v14.49c0,2.86.76,6.27,4.39,6.27,3.11,0,4.63-2.05,4.63-6.27V236.8h5v14.29C105.34,258,101.78,262,95.59,262ZM87.28,237.8v13.42c0,8,4.52,9.74,8.31,9.74,5.56,0,8.75-3.6,8.75-9.87V237.8h-3v13.49c0,6-3.06,7.27-5.63,7.27-3.43,0-5.39-2.65-5.39-7.27V237.8Z"/><path class="cls-8" d="M116.64,247.2c-3.24-1.23-4.28-2.19-4.28-3.93,0-1.45,1.2-2.91,3.86-2.91a8.86,8.86,0,0,1,4.16,1l.52.28,1.15-3.35-.37-.21a11,11,0,0,0-5.36-1.18c-4.7,0-8,2.75-8,6.69,0,3.19,2,5.4,6.43,6.93,3,1.13,4,2.19,4,4.06,0,2.09-1.66,3.39-4.34,3.39a10.34,10.34,0,0,1-5.1-1.41l-.55-.34-1,3.44.32.21a12.52,12.52,0,0,0,6.17,1.53c6.35,0,8.61-3.8,8.61-7.05S121,248.86,116.64,247.2Z"/><path class="cls-3" d="M114.26,261.92a13.1,13.1,0,0,1-6.45-1.61l-.63-.41,1.35-4.42,1.1.67a9.76,9.76,0,0,0,4.84,1.34c2.41,0,3.84-1.08,3.84-2.89,0-1.42-.59-2.41-3.71-3.59-4.61-1.61-6.76-4-6.76-7.4,0-4.23,3.49-7.19,8.48-7.19a11.41,11.41,0,0,1,5.61,1.25l.73.4-1.48,4.31-1-.56a8.28,8.28,0,0,0-3.92-1c-2.48,0-3.36,1.3-3.36,2.41,0,1.33.59,2.18,4,3.47h0c4.59,1.74,6.55,4,6.55,7.63S121,261.92,114.26,261.92Zm-5.9-2.45a11.92,11.92,0,0,0,5.9,1.45c6,0,8.11-3.53,8.11-6.55,0-3.17-1.71-5.11-5.91-6.7h0c-3-1.14-4.6-2.17-4.6-4.4,0-1.7,1.35-3.41,4.36-3.41a9.35,9.35,0,0,1,4.4,1.08l.82-2.4a10.43,10.43,0,0,0-5.12-1.12c-4.4,0-7.48,2.55-7.48,6.19,0,2.95,1.94,5,6.1,6.46,2.7,1,4.37,2.13,4.37,4.53s-1.9,3.89-4.84,3.89a10.81,10.81,0,0,1-5.36-1.49Z"/><rect class="cls-9" x="125.96" y="237.3" width="3.99" height="23.79"/><path class="cls-3" d="M130.44,261.59h-5V236.8h5Zm-4-1h3V237.8h-3Z"/><path class="cls-10" d="M143.73,248.89c-.73,2.12-1.54,4.5-2.19,6.78-.54-2.07-1.22-4.27-2-6.8l-3.72-11.57H131.5l7.88,23.79h4L152,237.3h-4.27Z"/><path class="cls-3" d="M143.74,261.59H139L130.8,236.8h5.35L140,248.72c.54,1.66,1.1,3.41,1.59,5.13.55-1.77,1.16-3.54,1.7-5.12h0l4.15-11.93h5.33Zm-4-1H143l8.27-22.79h-3.19l-3.91,11.26c-.72,2.06-1.53,4.45-2.18,6.75l-.5,1.76-.47-1.77c-.59-2.23-1.33-4.58-2-6.78l-3.6-11.22h-3.23Z"/><polygon class="cls-11" points="157.31 257.62 157.31 250.4 166.3 250.4 166.3 246.97 157.31 246.97 157.31 240.76 166.82 240.76 166.82 237.3 153.32 237.3 153.32 261.09 167.33 261.09 167.33 257.62 157.31 257.62"/><path class="cls-3" d="M167.83,261.59h-15V236.8h14.5v4.46h-9.51v5.21h9v4.43h-9v6.22h10Zm-14-1h13v-2.47h-10V249.9h9v-2.43h-9v-7.21h9.51V237.8h-12.5Z"/><path d="M50.32,193.3l-14.6,17.47H51.11v4.87H28.49V211.1l15-17.36H28.9v-4.87H50.32Z"/><path d="M51.61,216.14H28v-5.23l14.39-16.67h-14v-5.87H50.82v5.11l-14,16.79H51.61Zm-22.62-1H50.61v-3.87h-16l15.17-18.15v-3.75H29.4v3.87H44.57L29,211.29Z"/><path d="M60.33,214a7.26,7.26,0,0,1-2.78-6.23,7.08,7.08,0,0,1,2.55-6c1.7-1.33,4.26-2,7.7-2h8.63l.41,4.23h-9a5.55,5.55,0,0,0-3.49.92,3.83,3.83,0,0,0,.38,5.82,8.85,8.85,0,0,0,4.67,1,15.09,15.09,0,0,0,5.1-.65c1.13-.43,1.69-1.1,1.69-2l.61,3.76a6.54,6.54,0,0,1-2,1.79,9.12,9.12,0,0,1-2.67,1,15.6,15.6,0,0,1-3.43.35C65,216,62.19,215.34,60.33,214Zm15.84-15.31a5.27,5.27,0,0,0-1.6-4.09,6.47,6.47,0,0,0-4.52-1.46,13,13,0,0,0-3.56.49A11.16,11.16,0,0,0,63.4,195L59,192.35a11.54,11.54,0,0,1,4.56-2.85,18.33,18.33,0,0,1,6.27-1,16.16,16.16,0,0,1,6.47,1.17,8.85,8.85,0,0,1,4.1,3.41,9.84,9.84,0,0,1,1.4,5.38v17.2H76.17Z"/><path d="M68.73,216.53c-3.84,0-6.76-.73-8.7-2.15h0a7.76,7.76,0,0,1-3-6.63,7.6,7.6,0,0,1,2.74-6.36c1.78-1.38,4.47-2.09,8-2.09h7.87v-.63A4.73,4.73,0,0,0,74.23,195a6,6,0,0,0-4.18-1.33,12.71,12.71,0,0,0-3.42.47,10.45,10.45,0,0,0-2.95,1.31l-.26.17-5.16-3.11.42-.46a12,12,0,0,1,4.75-3A18.79,18.79,0,0,1,69.87,188a16.8,16.8,0,0,1,6.67,1.21,9.36,9.36,0,0,1,4.32,3.6,10.37,10.37,0,0,1,1.48,5.65v17.7H75.67v-1.46c-.19.14-.38.26-.58.38a9.77,9.77,0,0,1-2.82,1.11A16,16,0,0,1,68.73,216.53Zm-8.1-2.95c1.76,1.29,4.48,1.95,8.1,1.95a15,15,0,0,0,3.31-.34,8.79,8.79,0,0,0,2.54-1,6.33,6.33,0,0,0,1.09-.84V211a4.32,4.32,0,0,1-1,.54,15.59,15.59,0,0,1-5.28.68,9.23,9.23,0,0,1-4.94-1.06,4.33,4.33,0,0,1-.42-6.63,6,6,0,0,1,3.8-1h7.85V200.3H67.8c-3.31,0-5.8.64-7.39,1.88a6.57,6.57,0,0,0-2.36,5.57c0,2.64.84,4.55,2.58,5.83Zm16,1.56h4.67v-16.7A9.47,9.47,0,0,0,80,193.32a8.44,8.44,0,0,0-3.88-3.21A15.72,15.72,0,0,0,69.87,189a18,18,0,0,0-6.11,1,11.5,11.5,0,0,0-3.91,2.28l3.55,2.14a12,12,0,0,1,3-1.26,13.52,13.52,0,0,1,3.69-.51,7,7,0,0,1,4.86,1.59,5.8,5.8,0,0,1,1.76,4.46v.63h.21l.51,5.23h-.72v4.52l.64,3.93-.13.17a7.79,7.79,0,0,1-.51.63Zm-8.85-10.61a5.09,5.09,0,0,0-3.18.81,2.87,2.87,0,0,0-1,2.41A2.83,2.83,0,0,0,65,210.34a8.35,8.35,0,0,0,4.4.91,14.59,14.59,0,0,0,4.92-.62c1.23-.46,1.37-1.1,1.37-1.54v-4.56Z"/><path d="M107.92,188.87h6.24l-11.42,26.77h-4.5L86.82,188.87h6.23L100.49,208Z"/><path d="M103.07,216.14H97.9L86.06,188.37H93.4l7.09,18.23,7.09-18.23h7.33Zm-4.5-1h3.84l11-25.77h-5.14l-7.77,20-7.78-20H87.58Z"/><path d="M137.89,188.87h6.24l-11.42,26.77h-4.5l-11.42-26.77H123L130.46,208Z"/><path d="M133,216.14h-5.16L116,188.37h7.34l7.09,18.23,7.09-18.23h7.33Zm-4.5-1h3.84l11-25.77h-5.13l-7.78,20-7.78-20h-5.13Z"/><path d="M150,188.87h6v26.77h-6Z"/><path d="M156.45,216.14h-7V188.37h7Zm-6-1h5V189.37h-5Z"/></g></g></svg>