<svg xmlns="http://www.w3.org/2000/svg" viewBox="0 0 130.05 57.02"><defs><style>.cls-1{fill:#d9af8d;}.cls-2{fill:#de7240;}.cls-3{fill:#787773;}</style></defs><g id="Calque_2" data-name="Calque 2"><g id="Calque_2-2" data-name="Calque 2"><rect class="cls-1" width="130.05" height="57.02"/><path class="cls-2" d="M7.44,7.22h2V27.93h-2Zm1.19,18h3.9a2.77,2.77,0,0,0,2.24-.84,3.58,3.58,0,0,0,.7-2.37v0a5.69,5.69,0,0,0-.25-1.81,2.36,2.36,0,0,0-.8-1.16A2.27,2.27,0,0,0,13,18.61H8.63V16H13a2,2,0,0,0,1.68-.75A3.68,3.68,0,0,0,15.28,13a3.61,3.61,0,0,0-.63-2.32,2.33,2.33,0,0,0-1.9-.77H8.63V7.22h4.48a3.9,3.9,0,0,1,2.34.68,4.11,4.11,0,0,1,1.41,1.94,8.62,8.62,0,0,1,.46,3,6.49,6.49,0,0,1-.29,2,4.2,4.2,0,0,1-.87,1.6,2.88,2.88,0,0,1-1.46.89,2.72,2.72,0,0,1,1.5.89,4.54,4.54,0,0,1,1,1.76,7.27,7.27,0,0,1,.34,2.28v0a8,8,0,0,1-.51,3,4.4,4.4,0,0,1-1.48,2,3.69,3.69,0,0,1-2.24.7H8.63Z"/><path class="cls-2" d="M13.28,28.29H7.09V6.86h6a4.18,4.18,0,0,1,2.54.75,4.4,4.4,0,0,1,1.54,2.1,9.12,9.12,0,0,1,.49,3.12,7.17,7.17,0,0,1-.31,2.11,4.53,4.53,0,0,1-.95,1.74,3.14,3.14,0,0,1-.75.62,3.27,3.27,0,0,1,.79.66,5.1,5.1,0,0,1,1.05,1.89,7.74,7.74,0,0,1,.35,2.4,8.39,8.39,0,0,1-.54,3.14,4.7,4.7,0,0,1-1.6,2.14A4,4,0,0,1,13.28,28.29Zm-3.47-.73h3.47a3.39,3.39,0,0,0,2-.63,4.06,4.06,0,0,0,1.35-1.82,7.67,7.67,0,0,0,.49-2.82,7.23,7.23,0,0,0-.32-2.21,4.38,4.38,0,0,0-.9-1.62,2.3,2.3,0,0,0-1.31-.78l-1.52-.32,1.5-.4a2.5,2.5,0,0,0,1.29-.78,4,4,0,0,0,.8-1.46A6.4,6.4,0,0,0,17,12.83,8.35,8.35,0,0,0,16.53,10,3.82,3.82,0,0,0,15.25,8.2a3.56,3.56,0,0,0-2.14-.61H9.81v2h2.94a2.65,2.65,0,0,1,2.17.9A3.9,3.9,0,0,1,15.64,13,4,4,0,0,1,15,15.46a2.31,2.31,0,0,1-2,.9H9.81v1.89H13a2.64,2.64,0,0,1,1.6.47,2.72,2.72,0,0,1,.92,1.34A6.14,6.14,0,0,1,15.83,22,4,4,0,0,1,15,24.64a3.11,3.11,0,0,1-2.51,1H9.81Zm-.82,0H9.1v-2H9Zm-1.19,0h.48V24.87H9.1V19H8.28V15.63H9.1V10.28H8.28V7.59H7.8Zm2-2.69h2.72a2.46,2.46,0,0,0,2-.71A3.26,3.26,0,0,0,15.12,22a5.3,5.3,0,0,0-.24-1.73,1.86,1.86,0,0,0-.67-1A1.9,1.9,0,0,0,13,19H9.81ZM9,18.25H9.1V16.36H9Zm.82-2.62H13a1.63,1.63,0,0,0,1.4-.61,3.38,3.38,0,0,0,.5-2,3.27,3.27,0,0,0-.55-2.08,2,2,0,0,0-1.63-.64H9.81ZM9,9.55H9.1v-2H9Z"/><path class="cls-2" d="M26.19,27.19a6,6,0,0,1-1.77-2.67,11.72,11.72,0,0,1-.63-4V14.64a11.72,11.72,0,0,1,.63-4A6.09,6.09,0,0,1,26.19,8,4.22,4.22,0,0,1,31.5,8a6.09,6.09,0,0,1,1.77,2.68,11.72,11.72,0,0,1,.63,4v5.87a11.72,11.72,0,0,1-.63,4,6,6,0,0,1-1.77,2.67,4.19,4.19,0,0,1-5.31,0Zm4.22-2.49a3.55,3.55,0,0,0,1.05-1.63,7.4,7.4,0,0,0,.37-2.46V14.54a7.4,7.4,0,0,0-.37-2.46,3.55,3.55,0,0,0-1.05-1.63,2.4,2.4,0,0,0-3.13,0,3.55,3.55,0,0,0-1.05,1.63,7.4,7.4,0,0,0-.37,2.46v6.07a7.4,7.4,0,0,0,.37,2.46,3.55,3.55,0,0,0,1.05,1.63,2.4,2.4,0,0,0,3.13,0Z"/><path class="cls-2" d="M28.84,28.51a4.41,4.41,0,0,1-2.87-1h0a6.45,6.45,0,0,1-1.89-2.83,12.24,12.24,0,0,1-.65-4.14V14.64a12.2,12.2,0,0,1,.65-4.14A6.45,6.45,0,0,1,26,7.67a4.53,4.53,0,0,1,5.75,0,6.45,6.45,0,0,1,1.89,2.83,12.2,12.2,0,0,1,.65,4.14v5.87a12.24,12.24,0,0,1-.65,4.14,6.45,6.45,0,0,1-1.89,2.83A4.44,4.44,0,0,1,28.84,28.51Zm-2.43-1.6a3.84,3.84,0,0,0,4.87,0,5.68,5.68,0,0,0,1.66-2.52,11.45,11.45,0,0,0,.61-3.88V14.64a11.45,11.45,0,0,0-.61-3.88,5.74,5.74,0,0,0-1.66-2.52,3.84,3.84,0,0,0-4.87,0,5.74,5.74,0,0,0-1.66,2.52,11.21,11.21,0,0,0-.61,3.88v5.87a11.21,11.21,0,0,0,.61,3.88,5.68,5.68,0,0,0,1.66,2.52Zm2.43-1.26A2.69,2.69,0,0,1,27.05,25a4,4,0,0,1-1.16-1.79,7.86,7.86,0,0,1-.39-2.58V14.54A7.82,7.82,0,0,1,25.89,12a4,4,0,0,1,1.16-1.79,2.77,2.77,0,0,1,3.59,0A4,4,0,0,1,31.8,12a7.82,7.82,0,0,1,.39,2.58v6.07a7.86,7.86,0,0,1-.39,2.58A4,4,0,0,1,30.64,25h0A2.71,2.71,0,0,1,28.84,25.65Zm0-15.41a2,2,0,0,0-1.34.49,3.32,3.32,0,0,0-.94,1.48,7.14,7.14,0,0,0-.35,2.33v6.07a7.14,7.14,0,0,0,.35,2.33,3.32,3.32,0,0,0,.94,1.48,2.05,2.05,0,0,0,2.69,0h0a3.41,3.41,0,0,0,.94-1.48,7.14,7.14,0,0,0,.35-2.33V14.54a7.14,7.14,0,0,0-.35-2.33,3.41,3.41,0,0,0-.94-1.48A2,2,0,0,0,28.84,10.24Z"/><path class="cls-2" d="M44.15,16.09l3.61-8.87H50L45.27,18.43l-3.86,9.5H39.14Zm.09,2.74-.31-.71L39.26,7.22h2.27L45,15.65l.33.77,4.92,11.51H48Z"/><path class="cls-2" d="M50.79,28.29h-3l-3.07-7.46-3,7.46h-3l4.62-10.92L38.72,6.86h3l2.9,7,2.87-7h3L46.11,17.35Zm-2.58-.73H49.7l-4-9.3-.67,1.63Zm-8.53,0h1.49l3.12-7.67-.68-1.61ZM44,17.37,44.67,19l.67-1.6-.68-1.58ZM39.8,7.59l3.81,8.87.67-1.63-3-7.24Zm5.25,7.24.67,1.61,3.77-8.85H48Z"/><path class="cls-3" d="M56.43,6.65h2V28.07h-2Zm1,18.56h8.16v2.86H57.43Z"/><path class="cls-3" d="M71.47,27.36a5.87,5.87,0,0,1-1.72-2.73,14,14,0,0,1-.58-4.31V6.65h2V20.43A7,7,0,0,0,72,24.05a2.47,2.47,0,0,0,2.22,1.28,2.49,2.49,0,0,0,2.23-1.28,6.87,6.87,0,0,0,.79-3.62V6.65h2V20.32a13.94,13.94,0,0,1-.59,4.31,5.72,5.72,0,0,1-1.72,2.73,4.11,4.11,0,0,1-2.71.93A4.06,4.06,0,0,1,71.47,27.36Z"/><path class="cls-3" d="M84.14,6.65H86l7,16.56-.23.38V6.65h2V28.06H92.84l-7-16.31.24-.39v16.7h-2Z"/><path class="cls-3" d="M102.07,27.31a6.34,6.34,0,0,1-1.74-2.8,13.08,13.08,0,0,1-.62-4.2V14.43a13.08,13.08,0,0,1,.62-4.2,6.43,6.43,0,0,1,1.74-2.81,3.83,3.83,0,0,1,2.61-1,3.59,3.59,0,0,1,2.25.79,5.93,5.93,0,0,1,1.72,2.23,10.89,10.89,0,0,1,.94,3.34h-2a5.92,5.92,0,0,0-.62-1.79,3.55,3.55,0,0,0-1-1.21,2,2,0,0,0-1.21-.43,2.12,2.12,0,0,0-1.53.63,4.2,4.2,0,0,0-1,1.78,8.55,8.55,0,0,0-.37,2.66v5.88a8.57,8.57,0,0,0,.37,2.65,4.08,4.08,0,0,0,1,1.78,2.15,2.15,0,0,0,1.53.62,2.11,2.11,0,0,0,1.22-.4,3.25,3.25,0,0,0,1-1.18,5.67,5.67,0,0,0,.62-1.85h2a10.81,10.81,0,0,1-.94,3.34,6.09,6.09,0,0,1-1.73,2.24,3.61,3.61,0,0,1-2.24.78A3.87,3.87,0,0,1,102.07,27.31Z"/><path class="cls-3" d="M114.05,6.65h2V28.07h-2Zm1.24,9.44h7.92V19h-7.92Zm6.86-9.44h2V28.07h-2Z"/><path class="cls-3" d="M30.05,36.51h1.37L29,50.15H27.63ZM28.62,48.33h5.61l-.33,1.82H28.3Zm1-5.86h4.87l-.33,1.82H29.33Zm1.05-6h5.61L36,38.33H30.39Z"/><path class="cls-3" d="M40.8,42.35l3.48-5.84h1.54l-4.54,7.38-3.73,6.26H36Zm-.26,1.81-.13-.47-1.9-7.18h1.54l1.37,5.55.14.51,2,7.58H42Z"/><path class="cls-3" d="M47.23,49.66a3.23,3.23,0,0,1-.88-1.78,7.58,7.58,0,0,1,.06-2.67l.66-3.75a8.75,8.75,0,0,1,.9-2.67A5.13,5.13,0,0,1,49.47,37a3.15,3.15,0,0,1,1.9-.64,2.29,2.29,0,0,1,1.46.5,3,3,0,0,1,.92,1.43A5.84,5.84,0,0,1,54,40.42H52.61a3.17,3.17,0,0,0-.22-1.14,1.83,1.83,0,0,0-.57-.77,1.23,1.23,0,0,0-.78-.27,1.79,1.79,0,0,0-1.12.4,3.36,3.36,0,0,0-.9,1.13,6.21,6.21,0,0,0-.55,1.69l-.66,3.75a5.09,5.09,0,0,0-.05,1.68,2,2,0,0,0,.5,1.13,1.27,1.27,0,0,0,1,.4,1.73,1.73,0,0,0,.88-.25,2.92,2.92,0,0,0,.84-.75,4.41,4.41,0,0,0,.63-1.18H53a8.1,8.1,0,0,1-1,2.13,5.07,5.07,0,0,1-1.43,1.42,3,3,0,0,1-1.63.5A2.33,2.33,0,0,1,47.23,49.66Z"/><path class="cls-3" d="M57.76,36.51h1.37L56.71,50.15H55.34ZM56.35,48.33h5.59l-.32,1.82H56Z"/><path class="cls-3" d="M65.72,49.69A2.88,2.88,0,0,1,64.86,48a7.81,7.81,0,0,1,.08-2.74l1.54-8.71h1.37L66.3,45.28a3.79,3.79,0,0,0,.13,2.31,1.4,1.4,0,0,0,1.37.81,2.11,2.11,0,0,0,1.67-.81,4.82,4.82,0,0,0,1-2.31L72,36.51h1.37L71.8,45.22A9.19,9.19,0,0,1,70.91,48a4.55,4.55,0,0,1-1.48,1.73,3.4,3.4,0,0,1-2,.6A2.49,2.49,0,0,1,65.72,49.69Z"/><path class="cls-3" d="M75.79,50.1a3.27,3.27,0,0,1-1.08-.56,4.1,4.1,0,0,1-.86-.94L75,47.14a3.14,3.14,0,0,0,1.05,1,2.93,2.93,0,0,0,1.4.34,2.7,2.7,0,0,0,1.74-.55A2.44,2.44,0,0,0,80,46.39h0A1.94,1.94,0,0,0,80,45.25a1.28,1.28,0,0,0-.57-.62,4.71,4.71,0,0,0-1-.37h-.09l-.09,0a6.52,6.52,0,0,1-1.51-.53,1.93,1.93,0,0,1-.86-1.08,4.44,4.44,0,0,1,0-2.22h0a6,6,0,0,1,.79-2.16A3.9,3.9,0,0,1,78,36.84a4.09,4.09,0,0,1,2-.47,3.32,3.32,0,0,1,1,.16,3.52,3.52,0,0,1,.92.48,4.37,4.37,0,0,1,.83.79l-1,1.52a3.31,3.31,0,0,0-1-.86,2.11,2.11,0,0,0-1.06-.29,2.44,2.44,0,0,0-1.65.56,2.57,2.57,0,0,0-.84,1.58h0a1.78,1.78,0,0,0,.09,1.11,1.32,1.32,0,0,0,.6.59,7.59,7.59,0,0,0,1.12.4h0l0,0,.07,0,.07,0a5.34,5.34,0,0,1,1.37.6,2.05,2.05,0,0,1,.8,1.12,4.43,4.43,0,0,1,0,2.11v0a5.8,5.8,0,0,1-.8,2.13,4,4,0,0,1-1.47,1.35,4.27,4.27,0,0,1-2,.47A4.49,4.49,0,0,1,75.79,50.1Z"/><path class="cls-3" d="M85.13,50.15H83.76l2.41-13.64h1.37Z"/><path class="cls-3" d="M90.46,36.51H92L92.4,47.2l4.24-10.69h1.49l-5.6,13.64h-1.3Z"/><path class="cls-3" d="M100.85,36.51h1.37L99.8,50.15H98.43ZM99.42,48.33H105l-.32,1.82H99.09Zm1-5.86h4.86L105,44.29h-4.87Zm1.05-6h5.61l-.32,1.82h-5.61Z"/></g></g></svg>