<svg xmlns="http://www.w3.org/2000/svg" viewBox="0 0 91.55 103.04"><defs><style>.cls-1{fill:#28357a;}.cls-2,.cls-3,.cls-4{fill:#fff;}.cls-3,.cls-4{stroke:#fff;stroke-miterlimit:10;}.cls-3{stroke-width:0.35px;}.cls-4{stroke-width:0.85px;}.cls-5{fill:#263678;}</style></defs><g id="Calque_2" data-name="Calque 2"><g id="Calque_12" data-name="Calque 12"><rect class="cls-1" width="91.55" height="103.04" rx="6.8"/><rect class="cls-2" x="17.54" y="14.06" width="57.41" height="66.49" rx="6.54"/><polygon class="cls-2" points="7.67 10.75 14.11 10.75 14.11 9.46 10.26 9.46 10.26 7.85 13.32 7.85 13.32 6.56 10.26 6.56 10.26 5.23 14.11 5.23 14.11 3.94 7.67 3.94 7.67 10.75"/><polygon class="cls-2" points="24.29 3.94 21.71 3.94 20.25 5.92 18.82 3.94 16 3.94 18.59 7.27 15.88 10.75 18.45 10.75 20.04 8.61 21.59 10.75 24.41 10.75 21.69 7.27 24.29 3.94"/><path class="cls-2" d="M32,4.28a5.83,5.83,0,0,0-2.52-.43A5.83,5.83,0,0,0,27,4.28a1.46,1.46,0,0,0-.95,1.34V9.08A1.46,1.46,0,0,0,27,10.41a5.81,5.81,0,0,0,2.52.44A5.81,5.81,0,0,0,32,10.41,1.45,1.45,0,0,0,33,9.08V8H30.51V9.15c0,.27-.31.41-.93.41s-.93-.14-.93-.41V5.55c0-.27.31-.41.93-.41s.93.14.93.41v.93H33V5.62A1.45,1.45,0,0,0,32,4.28Z"/><polygon class="cls-2" points="38.17 3.94 35.57 3.94 35.57 10.75 41.83 10.75 41.83 9.46 38.17 9.46 38.17 3.94"/><path class="cls-2" d="M48.57,9.11a.32.32,0,0,1-.19.32,1.82,1.82,0,0,1-.76.13,1.77,1.77,0,0,1-.75-.13.32.32,0,0,1-.2-.32V3.94H44.08V9a1.48,1.48,0,0,0,1,1.37,6,6,0,0,0,2.55.44,5.9,5.9,0,0,0,2.55-.44,1.48,1.48,0,0,0,1-1.37V3.94H48.57Z"/><path class="cls-2" d="M58,6.79a7.45,7.45,0,0,1-1.47-.71.7.7,0,0,1-.34-.51c0-.11,0-.43.93-.43a1.58,1.58,0,0,1,.74.13.33.33,0,0,1,.19.32v.52h2.48V5.65a1.48,1.48,0,0,0-.92-1.36,5.76,5.76,0,0,0-2.51-.44,6,6,0,0,0-2.55.44,1.46,1.46,0,0,0-1,1.34,1.49,1.49,0,0,0,.61,1.16,8.17,8.17,0,0,0,2,1,6.68,6.68,0,0,1,1.46.72A.72.72,0,0,1,58,9.1a.35.35,0,0,1-.19.33,1.9,1.9,0,0,1-.78.13c-1,0-1-.34-1-.45V8.49H53.53V9a1.5,1.5,0,0,0,.94,1.37,5.8,5.8,0,0,0,2.53.44,5.88,5.88,0,0,0,2.58-.45,1.5,1.5,0,0,0,1-1.38A1.55,1.55,0,0,0,60,7.82,7.67,7.67,0,0,0,58,6.79Z"/><rect class="cls-2" x="63.07" y="3.94" width="2.6" height="6.81"/><polygon class="cls-2" points="71.91 8.54 70.56 3.94 67.92 3.94 70.19 10.75 73.42 10.75 75.68 3.94 73.25 3.94 71.91 8.54"/><polygon class="cls-2" points="84.38 5.23 84.38 3.94 77.94 3.94 77.94 10.75 84.38 10.75 84.38 9.46 80.53 9.46 80.53 7.85 83.59 7.85 83.59 6.56 80.53 6.56 80.53 5.23 84.38 5.23"/><polygon class="cls-3" points="22.3 90.44 18.59 90.44 18.59 84.51 16.33 84.51 16.33 91.43 22.3 91.43 22.3 90.44"/><polygon class="cls-3" points="29.56 90.44 25.65 90.44 25.65 88.32 28.75 88.32 28.75 87.33 25.65 87.33 25.65 85.5 29.56 85.5 29.56 84.51 23.39 84.51 23.39 91.43 29.56 91.43 29.56 90.44"/><path class="cls-3" d="M36.56,91.08a1.39,1.39,0,0,0,.86-1.29V87.53H34.16v1h1.13v1.36c0,.45-.39.67-1.17.67S33,90.32,33,89.87V86.08c0-.45.39-.68,1.17-.68s1.17.23,1.17.68v.66h2.13v-.59a1.39,1.39,0,0,0-.86-1.29,5.53,5.53,0,0,0-2.5-.45,5.54,5.54,0,0,0-2.51.45,1.39,1.39,0,0,0-.86,1.29v3.64a1.39,1.39,0,0,0,.86,1.29,5.54,5.54,0,0,0,2.51.45A5.53,5.53,0,0,0,36.56,91.08Z"/><rect class="cls-3" x="38.88" y="84.51" width="2.26" height="6.92"/><path class="cls-3" d="M49.52,89.79V86.15a1.39,1.39,0,0,0-.88-1.28,5.61,5.61,0,0,0-2.55-.46,5.54,5.54,0,0,0-2.54.46,1.41,1.41,0,0,0-.89,1.28v3.64a1.41,1.41,0,0,0,.89,1.28,5.54,5.54,0,0,0,2.54.46,5.61,5.61,0,0,0,2.55-.46A1.39,1.39,0,0,0,49.52,89.79Zm-2.26.07c0,.45-.39.68-1.17.68s-1.17-.23-1.17-.68V86.08c0-.45.39-.68,1.17-.68s1.17.23,1.17.68Z"/><polygon class="cls-3" points="58.13 91.43 58.13 84.51 56.12 84.51 56.12 88.65 56.08 88.65 53.88 84.51 51.04 84.51 51.04 91.43 53.06 91.43 53.06 86.38 53.1 86.38 55.81 91.43 58.13 91.43"/><path class="cls-3" d="M68.91,84.87a7.27,7.27,0,0,0-5.09,0,1.39,1.39,0,0,0-.88,1.28v3.64a1.39,1.39,0,0,0,.88,1.28,7.27,7.27,0,0,0,5.09,0,1.41,1.41,0,0,0,.89-1.28V86.15A1.41,1.41,0,0,0,68.91,84.87Zm-1.37,5c0,.45-.39.68-1.17.68s-1.17-.23-1.17-.68V86.08c0-.45.39-.68,1.17-.68s1.17.23,1.17.68Z"/><polygon class="cls-3" points="71.32 91.43 73.58 91.43 73.58 88.42 76.49 88.42 76.49 87.43 73.58 87.43 73.58 85.5 77.3 85.5 77.3 84.51 71.32 84.51 71.32 91.43"/><path class="cls-3" d="M14.46,92.79A5.48,5.48,0,0,0,12,92.35a5.43,5.43,0,0,0-2.47.44,1.39,1.39,0,0,0-.86,1.26v3.71A1.39,1.39,0,0,0,9.51,99a5.57,5.57,0,0,0,2.47.44A5.62,5.62,0,0,0,14.46,99a1.38,1.38,0,0,0,.85-1.26v-1H13.17v1.06c0,.42-.37.63-1.13.63s-1.13-.21-1.13-.63V94c0-.43.38-.65,1.13-.65s1.13.22,1.13.65v.8h2.14v-.73A1.38,1.38,0,0,0,14.46,92.79Z"/><path class="cls-3" d="M22.52,92.8A5.77,5.77,0,0,0,20,92.35a5.72,5.72,0,0,0-2.54.45,1.41,1.41,0,0,0-.89,1.29v3.63A1.42,1.42,0,0,0,17.43,99a5.72,5.72,0,0,0,2.54.45A5.77,5.77,0,0,0,22.52,99a1.41,1.41,0,0,0,.88-1.29V94.09A1.4,1.4,0,0,0,22.52,92.8Zm-1.38,5c0,.46-.39.68-1.17.68s-1.17-.22-1.17-.68V94q0-.69,1.17-.69t1.17.69Z"/><polygon class="cls-3" points="27.18 92.44 24.92 92.44 24.92 99.36 30.9 99.36 30.9 98.38 27.18 98.38 27.18 92.44"/><polygon class="cls-3" points="34.25 92.44 31.99 92.44 31.99 99.36 37.97 99.36 37.97 98.38 34.25 98.38 34.25 92.44"/><polygon class="cls-3" points="39.06 99.36 45.22 99.36 45.22 98.38 41.32 98.38 41.32 96.25 44.42 96.25 44.42 95.26 41.32 95.26 41.32 93.43 45.22 93.43 45.22 92.44 39.06 92.44 39.06 99.36"/><path class="cls-3" d="M52.17,92.79a5.43,5.43,0,0,0-2.47-.44,5.48,5.48,0,0,0-2.48.44,1.38,1.38,0,0,0-.85,1.26v3.71A1.38,1.38,0,0,0,47.22,99a5.62,5.62,0,0,0,2.48.44A5.57,5.57,0,0,0,52.17,99,1.39,1.39,0,0,0,53,97.76v-1H50.89v1.06c0,.42-.38.63-1.13.63s-1.13-.21-1.13-.63V94c0-.43.38-.65,1.13-.65s1.13.22,1.13.65v.8H53v-.73A1.39,1.39,0,0,0,52.17,92.79Z"/><polygon class="cls-3" points="53.78 93.43 56.15 93.43 56.15 99.36 58.41 99.36 58.41 93.43 60.77 93.43 60.77 92.44 53.78 92.44 53.78 93.43"/><path class="cls-3" d="M67.59,92.8a7.45,7.45,0,0,0-5.1,0,1.41,1.41,0,0,0-.88,1.29v3.63A1.42,1.42,0,0,0,62.49,99a7.45,7.45,0,0,0,5.1,0,1.41,1.41,0,0,0,.88-1.29V94.09A1.4,1.4,0,0,0,67.59,92.8Zm-1.38,5c0,.46-.39.68-1.17.68s-1.17-.22-1.17-.68V94q0-.69,1.17-.69t1.17.69Z"/><path class="cls-3" d="M76.71,98.52V97.31a1.36,1.36,0,0,0-.34-1,1.93,1.93,0,0,0-1.16-.49v0c1-.19,1.48-.64,1.48-1.36V94a1.3,1.3,0,0,0-.8-1.21,6.22,6.22,0,0,0-2.55-.39H70v6.92h2.26v-3H73a2.25,2.25,0,0,1,1.1.19.7.7,0,0,1,.32.66v1.26a2.24,2.24,0,0,0,0,.54.88.88,0,0,0,.17.31H77a.79.79,0,0,1-.21-.36A2.09,2.09,0,0,1,76.71,98.52Zm-2.28-3.84a.57.57,0,0,1-.34.56,2.41,2.41,0,0,1-1,.17h-.82v-2h1a1.73,1.73,0,0,1,.87.17.57.57,0,0,1,.28.54Z"/><path class="cls-3" d="M84.08,96.57a6.76,6.76,0,0,0-2-1.08,7.28,7.28,0,0,1-1.53-.79.91.91,0,0,1-.42-.7c0-.45.38-.67,1.13-.67a1.7,1.7,0,0,1,.84.17.54.54,0,0,1,.29.52v.35h2.14v-.28a1.4,1.4,0,0,0-.83-1.29,5.34,5.34,0,0,0-2.46-.45,5.57,5.57,0,0,0-2.51.45,1.39,1.39,0,0,0-.86,1.26,1.42,1.42,0,0,0,.56,1.09,8.05,8.05,0,0,0,2,1.07A7.05,7.05,0,0,1,82,97a1,1,0,0,1,.41.76.55.55,0,0,1-.3.53,1.85,1.85,0,0,1-.87.16c-.78,0-1.17-.22-1.17-.67v-.47H77.88v.39A1.41,1.41,0,0,0,78.72,99a5.42,5.42,0,0,0,2.49.45A5.72,5.72,0,0,0,83.75,99a1.43,1.43,0,0,0,.87-1.31A1.47,1.47,0,0,0,84.08,96.57Z"/><polygon class="cls-4" points="8.53 15.43 9.86 18.12 12.83 18.55 10.68 20.65 11.19 23.61 8.53 22.21 5.87 23.61 6.38 20.65 4.23 18.55 7.2 18.12 8.53 15.43"/><polygon class="cls-4" points="8.53 29.24 9.86 31.93 12.83 32.37 10.68 34.46 11.19 37.42 8.53 36.02 5.87 37.42 6.38 34.46 4.23 32.37 7.2 31.93 8.53 29.24"/><polygon class="cls-4" points="8.53 43.43 9.86 46.12 12.83 46.55 10.68 48.65 11.19 51.61 8.53 50.21 5.87 51.61 6.38 48.65 4.23 46.55 7.2 46.12 8.53 43.43"/><polygon class="cls-4" points="8.53 57.24 9.86 59.94 12.83 60.37 10.68 62.46 11.19 65.42 8.53 64.02 5.87 65.42 6.38 62.46 4.23 60.37 7.2 59.94 8.53 57.24"/><polygon class="cls-4" points="8.53 71.24 9.86 73.94 12.83 74.37 10.68 76.46 11.19 79.42 8.53 78.02 5.87 79.42 6.38 76.46 4.23 74.37 7.2 73.94 8.53 71.24"/><polygon class="cls-4" points="83.53 15.43 84.86 18.12 87.83 18.55 85.68 20.65 86.19 23.61 83.53 22.21 80.87 23.61 81.38 20.65 79.23 18.55 82.2 18.12 83.53 15.43"/><polygon class="cls-4" points="83.53 29.24 84.86 31.93 87.83 32.37 85.68 34.46 86.19 37.42 83.53 36.02 80.87 37.42 81.38 34.46 79.23 32.37 82.2 31.93 83.53 29.24"/><polygon class="cls-4" points="83.53 43.43 84.86 46.12 87.83 46.55 85.68 48.65 86.19 51.61 83.53 50.21 80.87 51.61 81.38 48.65 79.23 46.55 82.2 46.12 83.53 43.43"/><polygon class="cls-4" points="83.53 57.24 84.86 59.94 87.83 60.37 85.68 62.46 86.19 65.42 83.53 64.02 80.87 65.42 81.38 62.46 79.23 60.37 82.2 59.94 83.53 57.24"/><polygon class="cls-4" points="83.53 71.24 84.86 73.94 87.83 74.37 85.68 76.46 86.19 79.42 83.53 78.02 80.87 79.42 81.38 76.46 79.23 74.37 82.2 73.94 83.53 71.24"/><g id="layer1"><g id="g6280"><path id="path6282" class="cls-5" d="M29.51,65.77A1.7,1.7,0,0,0,31.32,64v0a1.71,1.71,0,0,0-1.81-1.79h-1v3.58ZM27.17,61h2.34a3,3,0,0,1,3.2,3h0a3,3,0,0,1-3.2,3H27.17Z"/></g><path id="path6286" class="cls-5" d="M50.14,72.27v0a3,3,0,0,1,3.13-3.07,3.18,3.18,0,0,1,2.37.91l-.84,1a2.23,2.23,0,0,0-1.54-.67,1.77,1.77,0,0,0-1.74,1.85h0a1.77,1.77,0,0,0,1.74,1.87,2.18,2.18,0,0,0,1.58-.69l.84.84a3.09,3.09,0,0,1-2.46,1.06,3,3,0,0,1-3.08-3.06"/><path id="path2607" class="cls-5" d="M42,19.52a18.78,18.78,0,0,1,18.9,16.6H51a9.28,9.28,0,0,0-8.87-7.8L39.49,22l-.45-1a2.8,2.8,0,0,0-.24-.49l0-.05-.07-.1A1.45,1.45,0,0,1,39,21a2.53,2.53,0,0,1,0,.48,7.47,7.47,0,0,1-.59,2.17,21.81,21.81,0,0,1-1,2.09c-.6,1.19-1.26,2.32-1.71,3.17a28.15,28.15,0,0,0-1.64,3.73A20.3,20.3,0,0,0,33,37.32a11.69,11.69,0,0,0,0,2.13,13.59,13.59,0,0,0,2.14,6.46,14.58,14.58,0,0,0,8,6.08,16.91,16.91,0,0,0,6,.66l.81-.07.39,0c1-.12,1.72,0,1.84.46a.29.29,0,0,0,0-.09l-3.45-8.44a9.74,9.74,0,0,0,2.21-4.42h10C60,49.14,51.85,56.42,42,56.42H27.18V19.52H42Zm-4,5.62c.08.08.94-.57,1.45-1.07l.67-.62-.24-.57-.8.83A5.06,5.06,0,0,0,38,25.14m1,1c-.47.53-.72.78-1.2,1.3s-.72.77-1.22,1.27a4.88,4.88,0,0,0-1.07,1.43,5.29,5.29,0,0,0,1.44-1.05c.51-.5.78-.74,1.29-1.22l1.31-1.19c.52-.48.8-.71,1.31-1.19l.08-.06-.4-1-.34.37c-.47.52-.71.79-1.2,1.3m.84,1.63L38.58,29l-1.21,1.29L36.15,31.6l-1.22,1.28a6.7,6.7,0,0,0-1.13,1.37,7,7,0,0,0,1.39-1.12c.51-.49.77-.72,1.29-1.21l1.29-1.2c.52-.49.78-.72,1.3-1.2l1.31-1.2,1.24-1.13-.41-1-.22.24c-.47.53-.72.78-1.2,1.31m.64,1.8-1.2,1.29L38,32.13l-1.21,1.28c-.49.52-.74.77-1.23,1.28s-.73.76-1.23,1.26a8.28,8.28,0,0,0-1.13,1.36,7.91,7.91,0,0,0,1.37-1.12L35.87,35l1.29-1.22,1.3-1.19,1.3-1.21,1.31-1.19L42.37,29l-.45-1.1-.3.31c-.48.51-.71.79-1.19,1.32m0,2.53-1.21,1.28L38,34.65l-1.22,1.28-1.22,1.28-1.23,1.26a9.34,9.34,0,0,0-1.16,1.35,9.13,9.13,0,0,0,1.35-1.15c.51-.5.78-.72,1.29-1.21s.77-.74,1.29-1.21L38.43,35l1.29-1.2,1.3-1.2,1.32-1.18.75-.66-.46-1.12-1,1.09-1.2,1.31m1.63.82c-.47.52-.71.78-1.2,1.29s-.73.77-1.21,1.29l-1.22,1.28c-.49.51-.73.77-1.22,1.27L36,39.31c-.5.51-.74.77-1.24,1.26a10,10,0,0,0-1.17,1.34A11,11,0,0,0,35,40.75c.5-.49.76-.74,1.28-1.22l1.28-1.21L38.8,37.1c.52-.47.78-.72,1.3-1.2s.77-.73,1.3-1.2.79-.71,1.31-1.18l1.09-1-.43-1.06a.47.47,0,0,1-.1.1L42.08,32.9m.63,1.92-1.2,1.29L40.3,37.39c-.5.51-.74.77-1.23,1.28s-.73.77-1.22,1.27l-1.23,1.27c-.5.51-.74.77-1.24,1.27a11.4,11.4,0,0,0-1.17,1.31,11.52,11.52,0,0,0,1.32-1.16c.51-.5.77-.73,1.29-1.22l1.27-1.22c.51-.49.78-.73,1.29-1.2l1.29-1.22,1.3-1.2,1.31-1.2,1.22-1.1-.39-1-.2.22c-.47.52-.71.78-1.2,1.3m.82,1.63c-.47.52-.72.78-1.2,1.29s-.72.78-1.21,1.29L39.9,40.31l-1.22,1.28c-.5.5-.74.76-1.23,1.27s-.74.76-1.23,1.27A9.89,9.89,0,0,0,35,45.46a11.45,11.45,0,0,0,1.35-1.17c.5-.49.76-.73,1.28-1.21L39,41.86l1.29-1.21c.51-.49.77-.73,1.29-1.21l1.31-1.2,1.3-1.19,1.11-1-.42-1-.1.11c-.48.51-.72.78-1.2,1.3m-.16,2.71-1.21,1.29L41,41.73c-.5.51-.74.76-1.23,1.28s-.73.77-1.22,1.27l-1.23,1.27a9.86,9.86,0,0,0-1.17,1.34,10.18,10.18,0,0,0,1.36-1.15l1.27-1.22c.51-.49.78-.73,1.3-1.2s.77-.74,1.29-1.22.77-.72,1.29-1.2l1.31-1.2,1.31-1.19c.3-.26.51-.46.74-.65l-.43-1.06-1,1.06-1.2,1.3m1.18,1.28-1.21,1.29c-.49.51-.72.77-1.21,1.29l-1.22,1.27c-.49.52-.74.76-1.23,1.27s-.73.78-1.22,1.28a8.51,8.51,0,0,0-1.15,1.35,10.12,10.12,0,0,0,1.35-1.14c.51-.49.78-.73,1.29-1.21l1.29-1.22c.52-.48.77-.73,1.28-1.21l1.31-1.19L45.14,41c.52-.48.78-.71,1.32-1.18a2.5,2.5,0,0,1,.24-.22l-.43-1.06-.52.58-1.2,1.3m.08,2.46-1.22,1.29c-.49.51-.73.77-1.21,1.29L41,46.75,39.75,48a8,8,0,0,0-1.15,1.35A6.93,6.93,0,0,0,40,48.25L41.27,47l1.29-1.2,1.29-1.21,1.31-1.19c.52-.49.77-.73,1.31-1.2l1-.85L47,40.33l-1.16,1.28-1.2,1.29m1.5,1c-.49.53-.74.77-1.22,1.29L43.7,46.44c-.48.52-.73.76-1.22,1.28s-.73.77-1.23,1.27a7.53,7.53,0,0,0-1.12,1.37,6.77,6.77,0,0,0,1.39-1.11c.51-.5.77-.73,1.29-1.21l1.29-1.21,1.29-1.2,1.31-1.2L48,43.25l.12-.1-.42-1-.4.44-1.19,1.3M46.51,46c-.49.52-.74.77-1.22,1.29L44.08,48.6c-.49.51-.73.77-1.23,1.27a6.51,6.51,0,0,0-1.11,1.39,6.64,6.64,0,0,0,1.4-1.1c.51-.5.77-.73,1.29-1.22l1.3-1.2L47,46.55l1.32-1.2.51-.46-.4-1-.74.82L46.51,46m.61,1.84-1.2,1.29c-.49.52-.73.79-1.22,1.29a5.16,5.16,0,0,0-1.07,1.43c.08.08.94-.56,1.45-1s.78-.73,1.29-1.21l1.32-1.19c.52-.48.78-.72,1.31-1.19l.59-.52-.44-1.07-.83.92c-.47.53-.72.78-1.2,1.3M48,49.59l-1.21,1.28c-.5.51-1.14,1.37-1.05,1.46a4.71,4.71,0,0,0,1.46-1c.51-.5.78-.73,1.3-1.21s.79-.72,1.32-1.19l.52-.48-.39-1-.75.82L48,49.59m2.73,2.76c.08.08.55-.19,1-.53l-.28-.69c-.42.51-.81,1.13-.72,1.22m-.48-2.67c.17-.17.29-.32.42-.46l.41,1-.16.13c-.53.48-.81.7-1.31,1.19s-1.43,1.08-1.54,1,.49-1,1-1.51.72-.78,1.2-1.31"/><path id="path2615" class="cls-5" d="M37.94,72.27v0a1.82,1.82,0,0,0-1.82-1.86,1.79,1.79,0,0,0-1.8,1.85h0a1.81,1.81,0,0,0,1.81,1.87,1.79,1.79,0,0,0,1.81-1.85m-5,0v0a3.19,3.19,0,0,1,6.38,0h0a3.1,3.1,0,0,1-3.2,3.08,3.06,3.06,0,0,1-3.18-3.06"/><path id="path2617" class="cls-5" d="M40.32,69.28h1.43l1.58,2.51,1.58-2.51h1.42v5.94H45V71.35l-1.69,2.54h0l-1.68-2.52v3.85h-1.3Z"/><path id="path2619" class="cls-5" d="M47.75,69.28h1.32v6H47.75Z"/><g id="g2611"><path id="path2609" class="cls-5" d="M33.44,64v0a3,3,0,0,1,3.14-3.07,3.14,3.14,0,0,1,2.37.91l-.85,1a2.23,2.23,0,0,0-1.53-.67A1.78,1.78,0,0,0,34.82,64h0a1.78,1.78,0,0,0,1.75,1.87,2.2,2.2,0,0,0,1.58-.69L39,66a3.08,3.08,0,0,1-2.46,1.07A3,3,0,0,1,33.44,64"/><path id="path2613" class="cls-5" d="M26.9,72.27v0A3,3,0,0,1,30,69.18a3.13,3.13,0,0,1,2.36.91l-.84,1A2.19,2.19,0,0,0,30,70.39a1.77,1.77,0,0,0-1.75,1.84v0A1.78,1.78,0,0,0,30,74.12a2.22,2.22,0,0,0,1.58-.69l.84.84A3.11,3.11,0,0,1,30,75.33a3,3,0,0,1-3.08-3.06"/></g><path id="path2628" class="cls-5" d="M56.11,74.36l.79-.92a2.76,2.76,0,0,0,1.79.72c.54,0,.87-.21.87-.56v0c0-.33-.21-.5-1.21-.75-1.22-.31-2-.64-2-1.83h0a1.87,1.87,0,0,1,2.1-1.79,3.54,3.54,0,0,1,2.24.75l-.69,1a2.79,2.79,0,0,0-1.56-.59c-.5,0-.77.23-.77.52v0c0,.39.25.52,1.29.78,1.22.31,1.9.74,1.9,1.78v0c0,1.18-.9,1.84-2.2,1.84a3.9,3.9,0,0,1-2.55-1"/></g></g></g></svg>