<svg xmlns="http://www.w3.org/2000/svg" viewBox="0 0 91.91 91.91"><defs><style>.cls-1{fill:#203c7c;}.cls-2{fill:#948ac1;}.cls-3{fill:#a08ec3;}.cls-4{fill:#1e3d7a;}</style></defs><g id="Calque_2" data-name="Calque 2"><g id="POP_IN_THE_BOX" data-name="POP IN THE BOX"><path class="cls-1" d="M46,91.2A45.25,45.25,0,1,1,91.2,46,45.3,45.3,0,0,1,46,91.2Z"/><path class="cls-2" d="M46,1.42A44.54,44.54,0,1,1,1.42,46,44.59,44.59,0,0,1,46,1.42M46,0a46,46,0,1,0,46,46A45.95,45.95,0,0,0,46,0Z"/><circle class="cls-1" cx="45.95" cy="45.86" r="38.42"/><path class="cls-3" d="M68.61,12.87l-1.85,2.7-1.51-.21a9.17,9.17,0,0,0-1.49-.14c-.57-.8-1.17-1.62-1.79-2.46l1.42-2.95c1.08.07,2.2.17,3.34.28a15.52,15.52,0,0,1,1,1.38Zm-4.18-.65a.51.51,0,1,0-.89-.48.51.51,0,1,0,.89.48Zm2.44,1.45a.51.51,0,0,0-.15-.71.48.48,0,0,0-.69.15.52.52,0,0,0,.15.71A.49.49,0,0,0,66.87,13.67Z"/><path class="cls-3" d="M76.39,19.85,73.89,22a21.1,21.1,0,0,0-2.82-1.1A22.17,22.17,0,0,0,70,18l2.14-2.48a24.22,24.22,0,0,1,3.15,1.14A26.27,26.27,0,0,1,76.39,19.85Zm-3.87-1.71a.54.54,0,0,0,0-.74.49.49,0,0,0-.71,0,.54.54,0,0,0,0,.73A.5.5,0,0,0,72.52,18.14Zm2,2a.48.48,0,0,0,0-.7.52.52,0,0,0-.73,0,.49.49,0,0,0,0,.71A.53.53,0,0,0,74.52,20.15Z"/><path class="cls-3" d="M82.11,28.6l-3,1.42c-.84-.63-1.66-1.23-2.47-1.8a23.91,23.91,0,0,0-.34-3l2.72-1.84a28.3,28.3,0,0,1,2.76,1.91C81.93,26.41,82,27.52,82.11,28.6ZM78.8,26a.49.49,0,0,0,.16-.7.54.54,0,0,0-.72-.15.51.51,0,0,0-.15.7A.54.54,0,0,0,78.8,26Zm1.36,2.49a.5.5,0,0,0,.22-.68.52.52,0,0,0-.7-.21.5.5,0,0,0-.21.68A.51.51,0,0,0,80.16,28.44Z"/><path class="cls-3" d="M85.31,38.55l-3.22.6c-.63-.82-1.22-1.62-1.87-2.37q.24-1.45.45-3l3.1-1.08c.72.82,1.44,1.67,2.18,2.55C85.78,36.38,85.53,37.49,85.31,38.55Zm-2.5-3.41a.51.51,0,0,0,.34-.64.5.5,0,0,0-.64-.33.51.51,0,0,0-.34.63A.52.52,0,0,0,82.81,35.14Zm.69,2.75a.52.52,0,0,0,.4-.61.49.49,0,0,0-.61-.38.53.53,0,0,0-.39.61A.49.49,0,0,0,83.5,37.89Z"/><path class="cls-3" d="M85.86,49l-3.27-.26-.54-1.41c-.21-.46-.45-.92-.67-1.37.41-.89.91-1.82,1.24-2.77l3.28-.24c.55,1,.93,2,1.4,3-.22.52-.42,1-.65,1.54Zm-1.53-4a.52.52,0,0,0,.51-.52.49.49,0,0,0-.52-.49.53.53,0,0,0-.51.52A.51.51,0,0,0,84.33,45Zm0,2.84a.55.55,0,0,0,.56-.49.54.54,0,0,0-.52-.52.51.51,0,0,0,0,1Z"/><path class="cls-3" d="M83.72,59.22l-3.09-1.09c-.15-1-.31-2-.48-3A20.57,20.57,0,0,0,82,52.75l3.22.62a24.26,24.26,0,0,1,.6,3.3C85.14,57.55,84.43,58.4,83.72,59.22ZM83.27,55a.48.48,0,0,0,.6-.38.52.52,0,0,0-.4-.61.5.5,0,0,0-.6.38A.55.55,0,0,0,83.27,55Zm-.81,2.72a.49.49,0,0,0,.63-.33.51.51,0,0,0-1-.31A.52.52,0,0,0,82.46,57.73Z"/><path class="cls-3" d="M79,68.52l-2.71-1.85.22-1.51a10.45,10.45,0,0,0,.14-1.5c.8-.57,1.62-1.16,2.45-1.79l3,1.43c-.08,1.08-.17,2.19-.29,3.33a11.31,11.31,0,0,1-1.37,1Zm.64-4.18a.52.52,0,0,0,.7-.21.51.51,0,0,0-.22-.69.51.51,0,0,0-.48.9Zm-1.45,2.43a.53.53,0,0,0,.72-.14.48.48,0,0,0-.15-.69.53.53,0,0,0-.72.14A.5.5,0,0,0,78.14,66.77Z"/><path class="cls-3" d="M72,76.29,69.83,73.8A22.14,22.14,0,0,0,70.94,71a20.66,20.66,0,0,0,2.83-1.09L76.25,72a24.08,24.08,0,0,1-1.14,3.14A23.6,23.6,0,0,1,72,76.29Zm1.72-3.87a.52.52,0,0,0,.73,0,.47.47,0,0,0,0-.71.53.53,0,0,0-.73,0A.49.49,0,0,0,73.68,72.42Zm-2,2a.49.49,0,0,0,.71,0,.53.53,0,0,0,0-.74.5.5,0,0,0-.71,0A.55.55,0,0,0,71.66,74.42Z"/><path class="cls-3" d="M63.21,82l-1.41-3c.63-.83,1.22-1.66,1.79-2.46a23.7,23.7,0,0,0,3-.34L68.44,79a28.19,28.19,0,0,1-1.9,2.76C65.4,81.84,64.29,81.93,63.21,82Zm2.66-3.3a.49.49,0,0,0,.69.16.53.53,0,0,0,.15-.72A.49.49,0,0,0,66,78,.54.54,0,0,0,65.87,78.71Zm-2.5,1.36a.5.5,0,0,0,.69.21.51.51,0,0,0,.21-.69.52.52,0,0,0-.69-.22A.54.54,0,0,0,63.37,80.07Z"/><path class="cls-3" d="M53.26,85.22,52.66,82c.82-.63,1.63-1.21,2.38-1.86,1,.16,2,.31,3,.45l1.08,3.1c-.82.71-1.67,1.44-2.56,2.17C55.44,85.69,54.33,85.44,53.26,85.22Zm3.42-2.5a.5.5,0,0,0,.63.34.51.51,0,1,0-.63-.34Zm-2.75.69a.51.51,0,0,0,1-.21.53.53,0,0,0-.61-.4A.51.51,0,0,0,53.93,83.41Z"/><path class="cls-3" d="M42.83,85.76l.25-3.27L44.5,82c.46-.21.92-.45,1.36-.67.89.4,1.82.91,2.78,1.24l.24,3.27c-1,.56-2,.94-3,1.41-.52-.22-1-.42-1.54-.66Zm4-1.52a.52.52,0,0,0,.52.51.5.5,0,0,0,.49-.52.54.54,0,0,0-.53-.51A.5.5,0,0,0,46.78,84.24Zm-2.84,0a.51.51,0,1,0,1,.05.49.49,0,0,0-.49-.51A.47.47,0,0,0,43.94,84.21Z"/><path class="cls-3" d="M32.59,83.63l1.1-3.09c1-.16,2-.32,3-.49A20.76,20.76,0,0,0,39.07,82l-.62,3.22a24.84,24.84,0,0,1-3.3.6C34.27,85.05,33.41,84.33,32.59,83.63Zm4.22-.46a.49.49,0,0,0,.38.61.53.53,0,0,0,.61-.41.49.49,0,0,0-.38-.59A.54.54,0,0,0,36.81,83.17Zm-2.72-.81a.5.5,0,0,0,.33.64.51.51,0,0,0,.63-.35.5.5,0,0,0-.33-.63A.51.51,0,0,0,34.09,82.36Z"/><path class="cls-3" d="M23.29,78.85l1.86-2.7,1.51.22a10.45,10.45,0,0,0,1.49.13c.57.81,1.17,1.62,1.79,2.46l-1.42,3c-1.08-.08-2.2-.18-3.34-.29a12.53,12.53,0,0,1-1-1.37Zm4.19.65a.51.51,0,1,0,.89.48.51.51,0,1,0-.89-.48ZM25,78.05a.53.53,0,0,0,.15.72.49.49,0,0,0,.69-.16.52.52,0,0,0-.15-.71A.5.5,0,0,0,25,78.05Z"/><path class="cls-3" d="M15.52,71.87,18,69.74a22.6,22.6,0,0,0,2.82,1.11,22.62,22.62,0,0,0,1.09,2.83l-2.14,2.48A24.22,24.22,0,0,1,16.64,75,25.67,25.67,0,0,1,15.52,71.87Zm3.87,1.72a.53.53,0,0,0,0,.73.49.49,0,0,0,.71,0,.54.54,0,0,0,0-.73A.49.49,0,0,0,19.39,73.59Zm-2-2a.49.49,0,0,0,0,.71.53.53,0,0,0,.73,0,.49.49,0,0,0,0-.71A.54.54,0,0,0,17.39,71.57Z"/><path class="cls-3" d="M9.8,63.12l3-1.41c.84.62,1.66,1.22,2.47,1.79a25.88,25.88,0,0,0,.33,3l-2.71,1.84a28.3,28.3,0,0,1-2.76-1.91C10,65.31,9.88,64.2,9.8,63.12Zm3.3,2.66a.48.48,0,0,0-.15.69.54.54,0,0,0,.72.15.5.5,0,0,0,.15-.69A.53.53,0,0,0,13.1,65.78Zm-1.35-2.5a.5.5,0,0,0-.22.68.52.52,0,0,0,.7.21.5.5,0,0,0,.21-.68A.51.51,0,0,0,11.75,63.28Z"/><path class="cls-3" d="M6.6,53.17l3.22-.6c.63.82,1.22,1.62,1.87,2.38-.16,1-.31,2-.45,3L8.14,59C7.42,58.2,6.7,57.35,6,56.47,6.13,55.35,6.38,54.24,6.6,53.17Zm2.5,3.42a.49.49,0,0,0-.34.63.5.5,0,0,0,.64.33.5.5,0,1,0-.3-1Zm-.69-2.76a.52.52,0,0,0-.4.61.49.49,0,0,0,.61.38A.52.52,0,0,0,9,54.21.49.49,0,0,0,8.41,53.83Z"/><path class="cls-3" d="M6.05,42.73,9.32,43l.54,1.41c.21.47.45.92.67,1.37-.41.89-.92,1.82-1.25,2.77L6,48.79c-.55-1-.93-2-1.4-3,.21-.52.42-1,.65-1.53Zm1.53,4a.52.52,0,0,0-.51.53.48.48,0,0,0,.52.48.51.51,0,0,0,.5-.52A.5.5,0,0,0,7.58,46.68Zm0-2.84a.55.55,0,0,0-.56.49.53.53,0,0,0,.52.52.51.51,0,0,0,0-1Z"/><path class="cls-3" d="M8.19,32.5l3.09,1.09c.15,1,.31,2,.48,3A21.47,21.47,0,0,0,9.87,39l-3.22-.62a22.93,22.93,0,0,1-.6-3.29C6.77,34.17,7.48,33.32,8.19,32.5Zm.45,4.21a.48.48,0,0,0-.6.38.52.52,0,0,0,.4.62.5.5,0,0,0,.6-.39A.55.55,0,0,0,8.64,36.71ZM9.45,34a.49.49,0,0,0-.63.33.51.51,0,0,0,1,.31A.52.52,0,0,0,9.45,34Z"/><path class="cls-3" d="M13,23.2l2.71,1.86-.22,1.5a9.19,9.19,0,0,0-.14,1.5c-.8.57-1.62,1.16-2.46,1.79L9.9,28.42c.08-1.08.17-2.19.29-3.33a11.31,11.31,0,0,1,1.37-1Zm-.65,4.19a.5.5,0,1,0-.47.89.52.52,0,0,0,.69-.21A.5.5,0,0,0,12.31,27.39ZM13.76,25a.51.51,0,0,0-.71.14.49.49,0,0,0,.15.7.55.55,0,0,0,.72-.15A.49.49,0,0,0,13.76,25Z"/><path class="cls-3" d="M20,15.43l2.13,2.49A22.74,22.74,0,0,0,21,20.75a22,22,0,0,0-2.83,1.09L15.66,19.7a23.7,23.7,0,0,1,1.14-3.15A23.6,23.6,0,0,1,20,15.43ZM18.23,19.3a.52.52,0,0,0-.73,0,.48.48,0,0,0,0,.72.54.54,0,0,0,.73,0A.49.49,0,0,0,18.23,19.3Zm2-2a.48.48,0,0,0-.71,0,.52.52,0,0,0,0,.73.49.49,0,0,0,.7,0A.54.54,0,0,0,20.25,17.3Z"/><path class="cls-3" d="M28.7,9.71l1.41,3c-.63.84-1.22,1.66-1.79,2.46a23.5,23.5,0,0,0-3,.34l-1.84-2.71A27.17,27.17,0,0,1,25.37,10C26.51,9.88,27.62,9.79,28.7,9.71ZM26,13a.48.48,0,0,0-.69-.15.51.51,0,0,0-.15.71.49.49,0,0,0,.69.16A.54.54,0,0,0,26,13Zm2.5-1.36a.51.51,0,1,0-.9.48.52.52,0,0,0,.69.22A.54.54,0,0,0,28.54,11.65Z"/><path class="cls-3" d="M38.65,6.5l.6,3.23c-.83.63-1.63,1.21-2.38,1.86-1-.15-2-.31-3-.45L32.79,8.05c.82-.72,1.67-1.45,2.56-2.18C36.47,6,37.58,6.28,38.65,6.5ZM35.23,9a.5.5,0,0,0-.63-.34.52.52,0,0,0-.34.64.51.51,0,1,0,1-.3ZM38,8.32a.51.51,0,0,0-.61-.4.5.5,0,0,0-.38.6.52.52,0,0,0,.61.4A.5.5,0,0,0,38,8.32Z"/><path class="cls-3" d="M49.08,6l-.26,3.27-1.41.53c-.46.21-.92.45-1.36.67-.9-.4-1.83-.91-2.78-1.24L43,5.92c1-.55,2-.94,3-1.41.52.22,1,.42,1.54.66ZM45.13,7.48a.51.51,0,0,0-.52-.5.49.49,0,0,0-.49.51.54.54,0,0,0,.53.51A.49.49,0,0,0,45.13,7.48Zm2.84,0a.51.51,0,1,0-1,0,.49.49,0,0,0,.49.51A.47.47,0,0,0,48,7.51Z"/><path class="cls-3" d="M59.32,8.09l-1.1,3.1c-1,.15-2,.31-3,.48a20.46,20.46,0,0,0-2.37-1.89l.62-3.23a26.23,26.23,0,0,1,3.3-.6C57.64,6.67,58.5,7.39,59.32,8.09Zm-4.22.46a.49.49,0,0,0-.38-.61.53.53,0,0,0-.61.41.49.49,0,0,0,.38.59A.53.53,0,0,0,55.1,8.55Zm2.72.81a.5.5,0,0,0-.33-.64.52.52,0,0,0-.64.35.5.5,0,0,0,.34.63A.51.51,0,0,0,57.82,9.36Z"/><circle class="cls-1" cx="45.95" cy="45.96" r="24.98"/><path class="cls-3" d="M76.81,47.3Q70.91,46.39,65,46l-.09,1.67Q70.84,47.72,76.81,47.3Z"/><path class="cls-3" d="M76.58,50c-3.86-1-7.72-1.74-11.67-2.36,0,.55-.16,1.09-.22,1.64Q70.59,49.89,76.58,50Z"/><path class="cls-3" d="M76.12,52.64c-3.73-1.28-7.58-2.41-11.43-3.37a12.65,12.65,0,0,1-.36,1.62Q70.16,52,76.12,52.64Z"/><path class="cls-3" d="M75.44,55.25c-3.64-1.61-7.36-3.07-11.11-4.36-.07.26-.13.54-.21.8l-.29.78Q69.55,54.11,75.44,55.25Z"/><path class="cls-3" d="M74.51,57.79c-3.49-1.94-7.06-3.71-10.68-5.32A10.7,10.7,0,0,1,63.2,54C66.9,55.42,70.7,56.7,74.51,57.79Z"/><path class="cls-3" d="M73.36,60.23Q68.4,56.89,63.2,54a13.7,13.7,0,0,1-.77,1.47C66,57.21,69.67,58.81,73.36,60.23Z"/><path class="cls-3" d="M72,62.56q-4.65-3.77-9.58-7.09a15.65,15.65,0,0,1-.88,1.4Q66.66,60,72,62.56Z"/><path class="cls-3" d="M70.46,64.77q-4.3-4.15-8.91-7.9c-.35.44-.65.9-1,1.32C63.76,60.54,67,62.71,70.46,64.77Z"/><path class="cls-3" d="M68.72,66.83q-3.91-4.52-8.18-8.64l-1.12,1.24C62.4,62,65.51,64.49,68.72,66.83Z"/><path class="cls-3" d="M66.82,68.73q-3.51-4.83-7.4-9.3l-1.23,1.12Q62.32,64.81,66.82,68.73Z"/><path class="cls-3" d="M64.76,70.46c-2.06-3.41-4.23-6.69-6.57-9.91-.43.35-.89.66-1.32,1C59.36,64.62,62,67.6,64.76,70.46Z"/><path class="cls-3" d="M62.56,72c-1.75-3.57-3.64-7-5.69-10.46-.44.35-.95.58-1.41.89Q58.79,67.36,62.56,72Z"/><path class="cls-3" d="M60.23,73.37c-1.42-3.7-3-7.36-4.77-10.93A11.35,11.35,0,0,1,54,63.2Q56.87,68.41,60.23,73.37Z"/><path class="cls-3" d="M57.79,74.52C56.69,70.7,55.41,66.9,54,63.2a10.75,10.75,0,0,1-1.53.64Q54.88,69.27,57.79,74.52Z"/><path class="cls-3" d="M55.25,75.44q-1.16-5.88-2.79-11.6l-.78.29c-.26.08-.53.13-.8.2C52.17,68.08,53.63,71.81,55.25,75.44Z"/><path class="cls-3" d="M52.64,76.13q-.63-6-1.76-11.8a10.1,10.1,0,0,1-1.61.36C50.22,68.55,51.35,72.39,52.64,76.13Z"/><path class="cls-3" d="M50,76.59q-.1-6-.71-11.9c-.55.07-1.09.21-1.65.23C48.24,68.86,49,72.73,50,76.59Z"/><path class="cls-3" d="M47.3,76.81q.42-6,.32-11.89L46,65Q46.37,70.91,47.3,76.81Z"/><path class="cls-3" d="M44.61,76.81Q45.54,70.91,46,65l-1.66-.09Q44.2,70.85,44.61,76.81Z"/><path class="cls-3" d="M41.93,76.59c1-3.86,1.74-7.73,2.36-11.67-.56,0-1.1-.16-1.65-.23Q42,70.6,41.93,76.59Z"/><path class="cls-3" d="M39.27,76.13c1.29-3.74,2.42-7.58,3.37-11.44A9.86,9.86,0,0,1,41,64.33Q39.89,70.16,39.27,76.13Z"/><path class="cls-3" d="M36.66,75.44c1.62-3.63,3.08-7.36,4.37-11.11-.27-.07-.54-.12-.8-.2l-.78-.29C38.36,67.65,37.42,71.52,36.66,75.44Z"/><path class="cls-3" d="M34.12,74.52Q37,69.27,39.45,63.84a10.29,10.29,0,0,1-1.53-.64C36.5,66.9,35.22,70.7,34.12,74.52Z"/><path class="cls-3" d="M31.68,73.37q3.36-5,6.24-10.17a11.35,11.35,0,0,1-1.47-.76C34.7,66,33.1,69.67,31.68,73.37Z"/><path class="cls-3" d="M29.35,72q3.76-4.65,7.1-9.57c-.46-.31-1-.54-1.41-.89C33,65,31.1,68.44,29.35,72Z"/><path class="cls-3" d="M27.15,70.46c2.77-2.86,5.4-5.84,7.89-8.91-.43-.34-.9-.65-1.32-1C31.38,63.77,29.21,67.05,27.15,70.46Z"/><path class="cls-3" d="M25.09,68.73q4.5-3.92,8.63-8.18l-1.23-1.12Q28.6,63.9,25.09,68.73Z"/><path class="cls-3" d="M23.19,66.83c3.21-2.34,6.32-4.81,9.3-7.4l-1.12-1.24Q27.11,62.32,23.19,66.83Z"/><path class="cls-3" d="M21.45,64.77c3.42-2.06,6.7-4.23,9.92-6.58-.36-.42-.66-.88-1-1.32Q25.76,60.61,21.45,64.77Z"/><path class="cls-3" d="M19.9,62.56c3.57-1.74,7-3.63,10.46-5.69-.35-.43-.58-.94-.89-1.4C26.2,57.68,23,60.05,19.9,62.56Z"/><path class="cls-3" d="M18.55,60.23c3.69-1.42,7.35-3,10.92-4.76A12,12,0,0,1,28.71,54Q23.52,56.88,18.55,60.23Z"/><path class="cls-3" d="M17.4,57.79C21.21,56.7,25,55.42,28.71,54a9.66,9.66,0,0,1-.63-1.53C24.46,54.08,20.89,55.85,17.4,57.79Z"/><path class="cls-3" d="M16.47,55.25c3.92-.76,7.8-1.69,11.61-2.78l-.29-.78c-.08-.26-.14-.54-.21-.8C23.83,52.18,20.11,53.64,16.47,55.25Z"/><path class="cls-3" d="M15.78,52.64q6-.62,11.8-1.75a12.65,12.65,0,0,1-.36-1.62C23.37,50.23,19.52,51.36,15.78,52.64Z"/><path class="cls-3" d="M15.33,50q6-.1,11.89-.72c-.06-.55-.2-1.09-.22-1.64C23.05,48.25,19.19,49,15.33,50Z"/><path class="cls-3" d="M15.1,47.3q6,.42,11.9.33L26.91,46Q21,46.38,15.1,47.3Z"/><path class="cls-3" d="M15.1,44.62Q21,45.54,26.91,46L27,44.29Q21.08,44.2,15.1,44.62Z"/><path class="cls-3" d="M15.33,41.94c3.86,1,7.72,1.73,11.67,2.35,0-.55.16-1.09.22-1.64Q21.31,42,15.33,41.94Z"/><path class="cls-3" d="M15.78,39.28c3.74,1.28,7.59,2.41,11.44,3.37A12.65,12.65,0,0,1,27.58,41Q21.75,39.91,15.78,39.28Z"/><path class="cls-3" d="M16.47,36.67c3.64,1.61,7.36,3.08,11.11,4.36.07-.26.13-.54.21-.8l.29-.78C24.27,38.36,20.39,37.43,16.47,36.67Z"/><path class="cls-3" d="M17.4,34.13c3.49,1.94,7.06,3.71,10.68,5.32a9.66,9.66,0,0,1,.63-1.53C25,36.5,21.21,35.22,17.4,34.13Z"/><path class="cls-3" d="M18.55,31.69q5,3.35,10.16,6.23a12,12,0,0,1,.76-1.47C25.9,34.71,22.24,33.11,18.55,31.69Z"/><path class="cls-3" d="M19.9,29.36c3.1,2.51,6.3,4.88,9.57,7.09.31-.46.54-1,.89-1.4C26.94,33,23.47,31.1,19.9,29.36Z"/><path class="cls-3" d="M21.45,27.15q4.31,4.16,8.91,7.9c.35-.44.65-.9,1-1.32C28.15,31.38,24.87,29.21,21.45,27.15Z"/><path class="cls-3" d="M23.19,25.09q3.91,4.52,8.18,8.64l1.12-1.24C29.51,29.9,26.4,27.44,23.19,25.09Z"/><path class="cls-3" d="M25.09,23.19q3.51,4.83,7.4,9.3l1.23-1.11C31,28.54,28.09,25.8,25.09,23.19Z"/><path class="cls-3" d="M27.15,21.46c2.06,3.41,4.23,6.69,6.57,9.92.42-.36.89-.67,1.32-1Q31.3,25.77,27.15,21.46Z"/><path class="cls-3" d="M29.35,19.91C31.1,23.48,33,27,35,30.37c.44-.35,1-.58,1.41-.89Q33.12,24.56,29.35,19.91Z"/><path class="cls-3" d="M31.68,18.55c1.42,3.7,3,7.36,4.77,10.93a11.35,11.35,0,0,1,1.47-.76Q35,23.52,31.68,18.55Z"/><path class="cls-3" d="M34.12,17.4c1.1,3.82,2.38,7.62,3.8,11.32a9.29,9.29,0,0,1,1.53-.63Q37,22.65,34.12,17.4Z"/><path class="cls-3" d="M36.66,16.48c.76,3.92,1.7,7.79,2.79,11.61l.78-.3c.26-.08.53-.13.8-.2C39.74,23.84,38.28,20.12,36.66,16.48Z"/><path class="cls-3" d="M39.27,15.79q.63,6,1.76,11.8a9.86,9.86,0,0,1,1.61-.36C41.69,23.37,40.56,19.53,39.27,15.79Z"/><path class="cls-3" d="M41.93,15.33q.1,6,.71,11.9c.55-.07,1.09-.21,1.65-.23C43.67,23.06,42.89,19.19,41.93,15.33Z"/><path class="cls-3" d="M44.61,15.11q-.42,6-.32,11.89L46,26.91Q45.55,21,44.61,15.11Z"/><path class="cls-3" d="M47.3,15.11Q46.37,21,46,26.91l1.67.09Q47.71,21.08,47.3,15.11Z"/><path class="cls-3" d="M50,15.33c-1,3.86-1.74,7.73-2.36,11.67.56,0,1.1.16,1.65.23Q49.87,21.32,50,15.33Z"/><path class="cls-3" d="M52.64,15.79c-1.29,3.74-2.42,7.58-3.37,11.44a10.1,10.1,0,0,1,1.61.36Q52,21.76,52.64,15.79Z"/><path class="cls-3" d="M55.25,16.48c-1.62,3.64-3.08,7.36-4.37,11.11.27.07.54.12.8.2l.78.3Q54.1,22.36,55.25,16.48Z"/><path class="cls-3" d="M57.79,17.4q-2.91,5.25-5.33,10.69a9.66,9.66,0,0,1,1.53.63C55.41,25,56.69,21.22,57.79,17.4Z"/><path class="cls-3" d="M60.23,18.55q-3.36,5-6.24,10.17a11.35,11.35,0,0,1,1.47.76C57.21,25.91,58.81,22.25,60.23,18.55Z"/><path class="cls-3" d="M62.56,19.91q-3.77,4.65-7.1,9.57c.46.31,1,.54,1.41.89C58.92,27,60.81,23.48,62.56,19.91Z"/><path class="cls-3" d="M64.76,21.46q-4.16,4.3-7.89,8.91c.43.34.89.65,1.32,1C60.53,28.15,62.7,24.87,64.76,21.46Z"/><path class="cls-3" d="M66.82,23.19c-3,2.61-5.88,5.35-8.63,8.19l1.23,1.11Q63.3,28,66.82,23.19Z"/><path class="cls-3" d="M68.72,25.09c-3.21,2.35-6.32,4.81-9.3,7.4l1.12,1.24Q64.8,29.61,68.72,25.09Z"/><path class="cls-3" d="M70.46,27.15c-3.42,2.06-6.7,4.23-9.92,6.58.36.42.66.88,1,1.32Q66.16,31.32,70.46,27.15Z"/><path class="cls-3" d="M72,29.36Q66.66,32,61.55,35.05a15.65,15.65,0,0,1,.88,1.4Q67.35,33.14,72,29.36Z"/><path class="cls-3" d="M73.36,31.69c-3.69,1.42-7.36,3-10.93,4.76a13.7,13.7,0,0,1,.77,1.47Q68.39,35,73.36,31.69Z"/><path class="cls-3" d="M74.51,34.13C70.7,35.22,66.9,36.5,63.2,37.92a10.7,10.7,0,0,1,.63,1.53C67.45,37.84,71,36.07,74.51,34.13Z"/><path class="cls-3" d="M75.44,36.67q-5.89,1.14-11.61,2.78l.29.78c.08.26.14.54.21.8C68.08,39.75,71.8,38.28,75.44,36.67Z"/><path class="cls-3" d="M76.12,39.28q-6,.61-11.79,1.75a12.65,12.65,0,0,1,.36,1.62C68.54,41.69,72.39,40.56,76.12,39.28Z"/><path class="cls-3" d="M76.58,41.94q-6,.09-11.89.71c.06.55.2,1.09.22,1.64C68.86,43.67,72.72,42.89,76.58,41.94Z"/><path class="cls-3" d="M76.81,44.62q-6-.42-11.9-.33L65,46Q70.91,45.54,76.81,44.62Z"/><path class="cls-1" d="M46,14.63A31.23,31.23,0,1,0,77.18,45.86,31.26,31.26,0,0,0,46,14.63Zm0,61.64A30.31,30.31,0,1,1,76.26,46,30.31,30.31,0,0,1,46,76.27Z"/><path class="cls-2" d="M46,13.22A32.65,32.65,0,1,0,78.6,45.86,32.64,32.64,0,0,0,46,13.22Zm0,63.87A31.23,31.23,0,1,1,77.18,45.86,31.26,31.26,0,0,1,46,77.09Z"/><path class="cls-2" d="M46,15.65A30.31,30.31,0,1,0,76.26,46,30.31,30.31,0,0,0,46,15.65Zm0,59.2A28.89,28.89,0,1,1,74.84,46,28.92,28.92,0,0,1,46,74.85Z"/><circle class="cls-2" cx="45.95" cy="45.96" r="19.11"/><polygon class="cls-4" points="62.6 55.11 62.6 36.89 46.24 29.55 29.87 36.89 29.87 55.11 46.24 62.45 62.6 55.11"/><circle class="cls-2" cx="38.2" cy="46" r="2.85"/><circle class="cls-2" cx="54.2" cy="46" r="2.85"/><rect class="cls-1" x="22.31" y="9.2" width="7.92" height="6.45"/><rect class="cls-1" x="22.88" y="75.64" width="7.92" height="6.45"/><rect class="cls-1" x="61.31" y="9.2" width="7.92" height="6.45"/><rect class="cls-1" x="61.88" y="75.64" width="7.92" height="6.45"/><rect class="cls-1" x="28.8" y="78.87" width="33.95" height="7.59"/><rect class="cls-1" x="40.47" y="81.47" width="15.37" height="6.88"/><rect class="cls-1" x="31.97" y="5.55" width="28.24" height="6.88"/><rect class="cls-1" x="41.35" y="2.58" width="11.59" height="9.85"/><path class="cls-2" d="M25.12,9.54l.71-.35,3.09,6.33-.7.35ZM27,12.39l1.61-.79a.73.73,0,0,0,.34-.33,1,1,0,0,0,.08-.52,1.55,1.55,0,0,0-.18-.62,1.75,1.75,0,0,0-.38-.52A1,1,0,0,0,28,9.35a.75.75,0,0,0-.47.06l-1.62.8-.42-.85,1.6-.78A1.46,1.46,0,0,1,28,8.43a1.77,1.77,0,0,1,.87.42,2.82,2.82,0,0,1,.69.93,2.82,2.82,0,0,1,.31,1.11,1.78,1.78,0,0,1-.21.93,1.44,1.44,0,0,1-.68.63l-1.59.78Z"/><path class="cls-2" d="M32.41,13.65a2.1,2.1,0,0,1-1-.62,3.32,3.32,0,0,1-.69-1.2L30.07,10a3.48,3.48,0,0,1-.24-1.37,2,2,0,0,1,.35-1.09A1.84,1.84,0,0,1,31,6.84a1.77,1.77,0,0,1,1.09,0,2.07,2.07,0,0,1,1,.62,3.49,3.49,0,0,1,.7,1.2l.68,1.88a3.41,3.41,0,0,1,.23,1.36,2,2,0,0,1-.34,1.09,1.7,1.7,0,0,1-.87.66A1.74,1.74,0,0,1,32.41,13.65Zm1.26-1.36a1.26,1.26,0,0,0,.2-.66,2.2,2.2,0,0,0-.15-.84L33,8.85a2.23,2.23,0,0,0-.42-.73A1.33,1.33,0,0,0,32,7.73a1,1,0,0,0-.64,0,1.08,1.08,0,0,0-.52.39,1.25,1.25,0,0,0-.19.66,2.2,2.2,0,0,0,.15.84l.7,1.94a2.39,2.39,0,0,0,.42.74,1.25,1.25,0,0,0,.58.38,1.08,1.08,0,0,0,.64,0A1,1,0,0,0,33.67,12.29Z"/><path class="cls-2" d="M33.92,6l.77-.19,1.66,6.85-.77.18Zm1.19,3.18,1.75-.43a.67.67,0,0,0,.4-.25A.9.9,0,0,0,37.45,8a1.77,1.77,0,0,0,0-.64,1.65,1.65,0,0,0-.26-.6,1,1,0,0,0-.39-.35.76.76,0,0,0-.47,0l-1.75.43-.23-.92L36,5.44a1.44,1.44,0,0,1,.92,0,1.72,1.72,0,0,1,.76.59,2.81,2.81,0,0,1,.47,1,2.71,2.71,0,0,1,.07,1.15,1.83,1.83,0,0,1-.4.88,1.57,1.57,0,0,1-.8.46L35.33,10Z"/><path class="cls-2" d="M41.57,11.6l-.78.1-.93-7,.79-.1Z"/><path class="cls-2" d="M41.66,4.46l.71,0,3,5.29-.09.13L45,4.28l.78,0,.37,7-.72,0-3-5.21L42.52,6l.29,5.48-.78,0Z"/><path class="cls-2" d="M50.12,4.47l.67.07,1.37,7.21-.85-.08-1-5.81-2.12,5.5-.84-.09ZM48.56,8.9l2.95.29-.1.94-2.95-.3Z"/><path class="cls-2" d="M55,5.16l.76.19-1.71,6.83L53.29,12Zm-1,6.05,1.48.37a1.16,1.16,0,0,0,.92-.06,1.13,1.13,0,0,0,.47-.71v0a1.71,1.71,0,0,0,.05-.62.84.84,0,0,0-.2-.46,1,1,0,0,0-.5-.26L54.51,9l.22-.87,1.67.42a.83.83,0,0,0,.7-.09,1.13,1.13,0,0,0,.4-.68,1.14,1.14,0,0,0,0-.83,1,1,0,0,0-.66-.43l-1.56-.39.22-.89,1.7.43a1.58,1.58,0,0,1,.83.44,1.44,1.44,0,0,1,.38.78,2.67,2.67,0,0,1-.07,1,2,2,0,0,1-.28.63,1.38,1.38,0,0,1-.46.44,1.23,1.23,0,0,1-.63.16,1.1,1.1,0,0,1,.5.43,1.65,1.65,0,0,1,.22.68,2.09,2.09,0,0,1-.06.78h0a2.36,2.36,0,0,1-.44.93,1.59,1.59,0,0,1-.72.52,1.56,1.56,0,0,1-.91,0l-1.77-.44Z"/><path class="cls-2" d="M58.07,13A2,2,0,0,1,57.73,12,3.85,3.85,0,0,1,58,10.58l.69-1.87a3.5,3.5,0,0,1,.71-1.2,2.07,2.07,0,0,1,1-.61A1.68,1.68,0,0,1,61.42,7a1.64,1.64,0,0,1,.86.66,2,2,0,0,1,.34,1.09,3.48,3.48,0,0,1-.24,1.37L61.69,12a3.44,3.44,0,0,1-.7,1.19,2,2,0,0,1-1,.62,1.71,1.71,0,0,1-1.09-.06A1.73,1.73,0,0,1,58.07,13Zm1.84-.22a1.28,1.28,0,0,0,.58-.38,2.22,2.22,0,0,0,.43-.74l.71-1.93a2.44,2.44,0,0,0,.16-.84,1.26,1.26,0,0,0-.2-.66,1,1,0,0,0-.51-.4,1,1,0,0,0-.64,0,1.3,1.3,0,0,0-.58.38,2.28,2.28,0,0,0-.42.74l-.72,1.93a2.2,2.2,0,0,0-.15.84,1.25,1.25,0,0,0,.19.66,1,1,0,0,0,.51.4A1,1,0,0,0,59.91,12.82Z"/><path class="cls-2" d="M64,11.39l2.6-2.09.79.39L64,12.3l-2.77,2.24-.8-.39Zm-.38.86V12l0-4.14.8.39,0,3.18v4.65l-.8-.39Z"/><path class="cls-2" d="M61.79,83.69l2.77-1.26.37.8-2.78,1.26Zm-1.18-2.6L63,80l.36.8L61,81.9Zm-1.2-2.63,2.78-1.26.36.8-2.77,1.26Zm-.33.15.68-.31,2.74,6-.67.3Z"/><path class="cls-2" d="M54.83,80l.77-.25,2.82,4.55L58,79l.77-.25.42,6.84-.68.22Z"/><path class="cls-2" d="M56,86.52l-.72.18-1.56-6.45.73-.17Z"/><path class="cls-2" d="M51.5,87.38a2.26,2.26,0,0,1-.68-.17,3,3,0,0,1-.62-.36l.35-.78a2,2,0,0,0,.73.38,1.84,1.84,0,0,0,.81,0,1.39,1.39,0,0,0,.85-.4.93.93,0,0,0,.19-.79h0a.87.87,0,0,0-.23-.52.82.82,0,0,0-.41-.24,3.81,3.81,0,0,0-.61-.09h0a0,0,0,0,1,0,0h-.06a4.68,4.68,0,0,1-.89-.12,1.33,1.33,0,0,1-.65-.43,2.1,2.1,0,0,1-.4-1h0a2.34,2.34,0,0,1,.06-1.07,1.51,1.51,0,0,1,.53-.76A2.28,2.28,0,0,1,52,80.63a2.49,2.49,0,0,1,.57.14,3.57,3.57,0,0,1,.58.3l-.3.8a2.15,2.15,0,0,0-.67-.32,1.42,1.42,0,0,0-.61,0,1.25,1.25,0,0,0-.8.4,1,1,0,0,0-.17.81h0a.81.81,0,0,0,.23.51,1,1,0,0,0,.43.23,5.49,5.49,0,0,0,.67.09H52a4.19,4.19,0,0,1,.84.16,1.35,1.35,0,0,1,.62.46,2,2,0,0,1,.37,1h0a2.17,2.17,0,0,1-.07,1.06,1.5,1.5,0,0,1-.56.75,2.15,2.15,0,0,1-1,.39A2.57,2.57,0,0,1,51.5,87.38Z"/><path class="cls-2" d="M46.17,87.58a1.77,1.77,0,0,1-.66-.82,3.59,3.59,0,0,1-.27-1.32l-.15-4.23.75,0L46,85.44a1.75,1.75,0,0,0,.33,1.11,1.06,1.06,0,0,0,1.65,0,1.91,1.91,0,0,0,.26-1.14l-.16-4.26.75,0L49,85.3a3.73,3.73,0,0,1-.17,1.35,1.78,1.78,0,0,1-.61.86,1.88,1.88,0,0,1-2,.07Z"/><path class="cls-2" d="M41.22,86.69l3,.24-.07.88-3-.24Zm.08-5.76L42,81l-.52,6.61-.75-.06Z"/><path class="cls-2" d="M36.71,86.61a1.89,1.89,0,0,1-.47-1,3.28,3.28,0,0,1,0-1.32l.34-1.79a3.4,3.4,0,0,1,.48-1.23,1.92,1.92,0,0,1,.8-.73,1.62,1.62,0,0,1,1.79.28,2.08,2.08,0,0,1,.49.8,3.14,3.14,0,0,1,.15,1.08l-.75-.14a1.88,1.88,0,0,0-.12-.59,1.2,1.2,0,0,0-.31-.44.86.86,0,0,0-1-.13,1.2,1.2,0,0,0-.48.47,2.31,2.31,0,0,0-.29.78L37,84.47a2.36,2.36,0,0,0,0,.83,1.37,1.37,0,0,0,.27.61.89.89,0,0,0,.52.3.84.84,0,0,0,.47,0,1.21,1.21,0,0,0,.45-.28,1.78,1.78,0,0,0,.33-.52l.75.14a2.75,2.75,0,0,1-.54.95,2,2,0,0,1-.76.56,1.52,1.52,0,0,1-.87.08A1.54,1.54,0,0,1,36.71,86.61Z"/><path class="cls-2" d="M33.88,82.18,36,79.87l.79.24L34.05,83,31.79,85.5l-.8-.24Zm-.23.85,0-.25L33,78.93l.8.25.42,3,0,.27.64,4.06-.8-.25Z"/><path class="cls-2" d="M30.12,77.68l2.79,1.21-.35.81-2.79-1.21ZM29,80.33l2.43,1.06L31,82.2l-2.43-1.06ZM27.83,83l2.79,1.21-.35.81-2.79-1.21Zm2-5.42.68.3-2.64,6.08-.69-.29Z"/></g></g></svg>