<svg xmlns="http://www.w3.org/2000/svg" viewBox="0 0 134.87 151.67"><defs><style>.cls-1{isolation:isolate;}.cls-2{fill:#76b144;}.cls-3,.cls-6{font-size:14.94px;}.cls-3,.cls-6,.cls-8{fill:#1d1d1b;stroke-width:0.5px;}.cls-13,.cls-16,.cls-3,.cls-6,.cls-8{stroke:#000;}.cls-13,.cls-15,.cls-16,.cls-18,.cls-3,.cls-6,.cls-8{stroke-miterlimit:10;font-family:Roboto-Regular, Roboto;}.cls-3{letter-spacing:-0.04em;}.cls-4{letter-spacing:-0.16em;}.cls-5{letter-spacing:-0.04em;}.cls-6{letter-spacing:-0.04em;}.cls-7{letter-spacing:-0.05em;}.cls-8{font-size:17.32px;letter-spacing:-0.04em;}.cls-9{letter-spacing:-0.05em;}.cls-10{letter-spacing:-0.04em;}.cls-11{letter-spacing:-0.07em;}.cls-12{mix-blend-mode:multiply;opacity:0.25;}.cls-13,.cls-15,.cls-16,.cls-18{font-size:20.59px;stroke-width:2px;}.cls-13,.cls-15{letter-spacing:0.08em;}.cls-14{letter-spacing:0.07em;}.cls-15,.cls-18{fill:#fff;stroke:#fff;}.cls-16,.cls-18{letter-spacing:0.08em;}.cls-17{letter-spacing:0.07em;}.cls-19{fill-rule:evenodd;}</style></defs><g class="cls-1"><g id="Calque_2" data-name="Calque 2"><g id="Calque_5" data-name="Calque 5"><rect class="cls-2" x="2.5" y="2.5" width="129.87" height="146.67" rx="8.36"/><path d="M124,5a5.87,5.87,0,0,1,5.86,5.86v130a5.87,5.87,0,0,1-5.86,5.86H10.86A5.87,5.87,0,0,1,5,140.81V10.86A5.87,5.87,0,0,1,10.86,5H124m0-5H10.86A10.86,10.86,0,0,0,0,10.86v130a10.86,10.86,0,0,0,10.86,10.86H124a10.86,10.86,0,0,0,10.86-10.86V10.86A10.86,10.86,0,0,0,124,0Z"/><text class="cls-3" transform="translate(20.38 54.71) scale(1.16 1)">2021<tspan class="cls-4" x="31.17" y="0"> </tspan><tspan class="cls-5" x="32.48" y="0">SPRING</tspan></text><text class="cls-6" transform="translate(15.68 69.54) scale(1.2 1)">CONVE<tspan class="cls-7" x="45.66" y="0">N</tspan><tspan x="55.5" y="0">TION</tspan></text><text class="cls-8" transform="translate(13.8 139.83) scale(1.28 1)">E<tspan class="cls-9" x="9.15" y="0">X</tspan><tspan class="cls-10" x="19.1" y="0">C</tspan><tspan class="cls-11" x="29.68" y="0">L</tspan><tspan class="cls-10" x="37.85" y="0">USIVE</tspan></text><g class="cls-12"><text class="cls-13" transform="translate(10.89 95.51) scale(1.25 1)">LIM<tspan class="cls-14" x="39.6" y="0">I</tspan><tspan x="46.56" y="0">TED</tspan></text></g><text class="cls-15" transform="translate(13.89 93.51) scale(1.25 1)">LIM<tspan class="cls-14" x="39.6" y="0">I</tspan><tspan x="46.56" y="0">TED</tspan></text><g class="cls-12"><text class="cls-16" transform="translate(8.61 119.46) scale(1.3 1)">ED<tspan class="cls-17" x="28.5" y="0">I</tspan><tspan x="35.46" y="0">TION</tspan></text></g><text class="cls-18" transform="translate(11.61 117.46) scale(1.3 1)">ED<tspan class="cls-17" x="28.5" y="0">I</tspan><tspan x="35.46" y="0">TION</tspan></text><g id="Calque_2-2" data-name="Calque 2-2"><g id="Calque_4-2" data-name="Calque 4-2"><path class="cls-19" d="M53.79,24.41c-.46-.42-1.79-.26-4.57-.1a18.21,18.21,0,0,1,1.91-5.69c4.64.25,10.37.9,16.92.88,12.87,0,13-4.78,13-4.78-5.47,1.55-13,1.11-18.71.58C55.18,14.65,48,13,42.15,14.59c-7,1.77-7.65,7-7.39,9.17,2.79-3.64,6.57-4.93,11.43-5.21h1.44a11.81,11.81,0,0,0-2.28,4.61c-.15.49-.31.95-.45,1.43-6,.49-7.14,3.2-6.73,3.9s2.5-.23,5.12-.51h.5a10.34,10.34,0,0,1-4,5.62,6.58,6.58,0,0,1-6.32.42c.24,3.09,4.91,4.77,8.93,2.67,3.17-1.77,5-5.81,6-8.83A25.2,25.2,0,0,0,51,27.77c2.4-.16,3.44-2.58,2.87-3.13m48.19-3.53a1,1,0,0,0-1.2.6h0a.86.86,0,0,0,0,.67c-.89.81-1.78,1.43-2.18,1.34s-.12-1.76.43-3.1a1,1,0,1,0,.53-2l-.21,0a1,1,0,0,0-1.14.69h0a1,1,0,0,0,.25,1c-.75,1.35-1.5,2.51-2.18,2.32h0c-.67-.22-.64-1.61-.46-3.15a1.21,1.21,0,0,0,.16-2.24h0a1,1,0,0,0-1.3.54l0,0h0a1,1,0,0,0,.5,1.22c-.34,1.47-.89,3-1.46,2.77s-.77-1.11-1-2.29a.94.94,0,0,0,.4-1.27h0a.79.79,0,0,0-.52-.44.94.94,0,0,0-1.19.59h0a.92.92,0,0,0,.6,1.18h.11l.18,4L99,25.79l2.45-3.14a.92.92,0,0,0,1.22-.39l0-.05V22.1a.94.94,0,0,0-.61-1.18h0"/><path class="cls-19" d="M94.38,32c-1.24,2.13-3,3.23-3.9,2.43s-.67-3.18.52-5.3,3-3.23,3.89-2.43.7,3.18-.51,5.3m-1.66-7.37A9.29,9.29,0,0,0,90,26.25a13.53,13.53,0,0,0-1,1.11h0a7.89,7.89,0,0,0-.81,1.2,9.69,9.69,0,0,0-.87,1.77h0c-.34.67-.71,1.33-1.11,2a7.12,7.12,0,0,1-1.62,1.48,9.06,9.06,0,0,1-1.23.45c-2.81.81-3.31-1.17-2.7-2.12a32.94,32.94,0,0,1,2.84-2.28c2-1.68,3.42-2.74,4.39-3.71s.36-1.57-.43-1.77A3.8,3.8,0,0,0,84,25c-.7.59-4.82,5.51-4.82,5.51S85.92,17.67,87,15.46c.9-1.77-3.46-2.07-4.67.55-.7,1.51-5.5,12.55-6.09,13.91-1.07,2.49-1.14,2.88-1.68,3.32h0a3.17,3.17,0,0,1-1.78.78c-.3,0-.48-.16-.52-.51a3.72,3.72,0,0,1,.13-1.33,8.2,8.2,0,0,1,.32-1.07c.12-.37.28-.78.44-1.19s.33-.77.5-1.14l.45-1.06c.14-.3.25-.59.36-.82a1.91,1.91,0,0,0,.18-.47,2.67,2.67,0,0,0,0-1.63.91.91,0,0,0-.91-.55,2.6,2.6,0,0,0-1.25.34,4.34,4.34,0,0,0-1.2,1l-1,1.25-.69.91-.7.9-1,1.2h-.28a.69.69,0,0,1,.14-.36,3.06,3.06,0,0,0,.25-.63c.22-.53.45-1.08.66-1.63l.29-.74a3.24,3.24,0,0,0,.16-.53,1.91,1.91,0,0,0,0-1.16c-.13-.29-.39-.45-.89-.45a2,2,0,0,0-1.24.43,2.83,2.83,0,0,0-.8,1c-.3.61-.59,1.23-.86,1.87-.64,1.52-1.23,3.05-1.78,4.62a8.62,8.62,0,0,0-.32,1,13.84,13.84,0,0,1-2,.79,1,1,0,0,1-.77,0,.75.75,0,0,1-.11-.56,9.44,9.44,0,0,1,1-3c.72-1.61,1.34-3.25,2-4.89a1,1,0,0,0,0-.64.89.89,0,0,0-.84-.49A2.21,2.21,0,0,0,60.5,25a2.7,2.7,0,0,0-.36.64l-2.26,5.58a4.63,4.63,0,0,1-2.36,2.84.79.79,0,0,1-.64,0,.7.7,0,0,1-.47-.68,2.32,2.32,0,0,1,.22-.82c1-2.45,1.78-4.17,2.76-6.64a3.66,3.66,0,0,0,.31-1,.45.45,0,0,0-.27-.39,2.06,2.06,0,0,0-2,.28,6.2,6.2,0,0,0-1.78,2.65c-.5,1.1-1,2.19-1.47,3.29a23.71,23.71,0,0,0-1.34,3.85,2.4,2.4,0,0,0,.4,2.07,1.8,1.8,0,0,0,1.26.42,7.24,7.24,0,0,0,5-2.17,2.25,2.25,0,0,0,.71,1.76,1.94,1.94,0,0,0,1.25.18,9.17,9.17,0,0,0,2.48-.65l1-.45a1.41,1.41,0,0,0,0,.41,1,1,0,0,0,.36.62,1.2,1.2,0,0,0,.8.23,1.77,1.77,0,0,0,.82-.2,2.19,2.19,0,0,0,.79-.72l5.23-6.92h.21c-.25.65-.52,1.32-.75,2a13.19,13.19,0,0,0-.52,1.76A7.17,7.17,0,0,0,69.39,36c.16.7.5,1.06,1,1.06a5.47,5.47,0,0,0,1.45-.16,10.44,10.44,0,0,0,1.41-.53l.94-.5v.44c0,.39,0,.46.22.62a1,1,0,0,0,.73.18.92.92,0,0,0,.64-.19c.61-.76,1.16-1.54,1.78-2.35l.34-.46a2.44,2.44,0,0,0,1.78,3h0c1.5.27,3.94-.08,7.14-2.52a3.83,3.83,0,0,0,.27,1,2.87,2.87,0,0,0,1.08,1.4,3.2,3.2,0,0,0,2,.54,4.69,4.69,0,0,0,1.66-.22,7.58,7.58,0,0,0,1.62-.85,8.45,8.45,0,0,0,1.34-1.19,11,11,0,0,0,2.07-3,12.69,12.69,0,0,0,1-3,11.5,11.5,0,0,0,.14-1.76s0-1.26-.23-1.33l-5-1.55"/></g></g></g></g></g></svg>