<svg xmlns="http://www.w3.org/2000/svg" viewBox="0 0 101.44 145.5"><defs><style>.cls-1{fill:#1d1d1b;}.cls-2{fill:#c64b5a;}.cls-3{fill:#e2c571;}.cls-4{fill:#b94b3a;}.cls-5{fill:#d9804d;stroke:#d9804d;}.cls-12,.cls-5,.cls-9{stroke-miterlimit:10;}.cls-6{fill:#b94c3a;}.cls-10,.cls-7,.cls-9{fill:#e1a762;}.cls-8{fill:#d67261;}.cls-10,.cls-9{stroke:#e1a762;}.cls-10,.cls-12,.cls-9{stroke-width:2.83px;}.cls-10,.cls-13{stroke-linejoin:round;}.cls-11,.cls-12{fill:#e8c589;}.cls-12{stroke:#e8c589;}.cls-13{fill:#f5f2e8;stroke:#1d1d1b;stroke-linecap:round;stroke-width:5.67px;}.cls-14{fill:#fff;}.cls-15{fill:none;}</style></defs><g id="Calque_2" data-name="Calque 2"><g id="LA_COMIC_CON" data-name="LA COMIC CON"><path class="cls-1" d="M98.25,56.41h0a42.26,42.26,0,0,0-2.82-4.36h0c.25-8.75.09-19.27-8.25-24.71-2.62-3.12-1.85-7.65-4.24-11.64-1.06-1.22-2.17-2.37-3.3-3.47a17.73,17.73,0,0,0-3.76-2C65,9.89,64.89.46,51.9,0,37.07-.67,37.21,9.77,25.72,10.25a17.2,17.2,0,0,0-4.44,2.49c-.75.74-1.47,1.5-2.19,2.3-2.89,4.11-1.88,8.93-4.67,12.3-8.34,5.44-8.5,16-8.25,24.71h0a40.59,40.59,0,0,0-2.81,4.36h0C1.34,60,.61,64.3.32,68.65.13,71.9.2,75.21.07,78.4h0a22,22,0,0,1,.1,3.53c.05.49,0,1,0,1.56h0C.24,85.8,0,88.16,0,90.58v45.83a9.09,9.09,0,0,0,9.09,9.09H92.35a9.09,9.09,0,0,0,9.09-9.09V74.22C101.36,68.09,101.28,61.82,98.25,56.41Z"/><path class="cls-2" d="M17.78,110.5a6,6,0,0,0,.75-1.37,4.1,4.1,0,0,0,.27-1.42,3.7,3.7,0,0,0-.42-1.81,2.91,2.91,0,0,0-1.25-1.18,4.31,4.31,0,0,0-1.91-.39,3.61,3.61,0,0,0-1.76.42,3.25,3.25,0,0,0-1.27,1.2,4.63,4.63,0,0,0-.63,1.9v.35h2l.36,0v-.36a1.53,1.53,0,0,1,.42-1,1.19,1.19,0,0,1,.89-.32,1.24,1.24,0,0,1,.89.28,1.09,1.09,0,0,1,.3.84,2.3,2.3,0,0,1-.17.8,3.89,3.89,0,0,1-.5.88l-4.06,5.49v1.88h7.17V114.5h-4Z"/><path class="cls-2" d="M23.83,104.31a3.6,3.6,0,0,0-2.69,1,3.72,3.72,0,0,0-.93,2.68v5.27a3.73,3.73,0,0,0,.92,2.67,3.59,3.59,0,0,0,2.7,1,3.62,3.62,0,0,0,2.69-1,3.73,3.73,0,0,0,.93-2.68V108a3.7,3.7,0,0,0-.93-2.68A3.56,3.56,0,0,0,23.83,104.31ZM22.52,108a1.6,1.6,0,0,1,.31-1.06,1.3,1.3,0,0,1,1-.34,1.27,1.27,0,0,1,1,.34,1.54,1.54,0,0,1,.32,1.06v5.27a1.54,1.54,0,0,1-.32,1.06,1.28,1.28,0,0,1-1,.33,1.28,1.28,0,0,1-1-.33,1.54,1.54,0,0,1-.32-1.06Z"/><path class="cls-2" d="M35,110.5a6.3,6.3,0,0,0,.74-1.37,4.1,4.1,0,0,0,.27-1.42,3.7,3.7,0,0,0-.42-1.81,2.91,2.91,0,0,0-1.25-1.18,4.31,4.31,0,0,0-1.91-.39,3.61,3.61,0,0,0-1.76.42,3.25,3.25,0,0,0-1.27,1.2,4.78,4.78,0,0,0-.63,1.9v.35h2l.35,0v-.36a1.53,1.53,0,0,1,.42-1,1.19,1.19,0,0,1,.89-.32,1.24,1.24,0,0,1,.89.28,1.09,1.09,0,0,1,.3.84,2.3,2.3,0,0,1-.17.8,3.89,3.89,0,0,1-.5.88l-4.06,5.49v1.88H36.1V114.5h-4Z"/><polygon class="cls-2" points="36.96 105.72 36.96 108.23 38.59 107.22 38.59 116.76 40.91 116.76 40.91 104.45 38.84 104.45 36.96 105.72"/><path class="cls-2" d="M53.87,110.07a10.28,10.28,0,0,0-1.87-.54l-.06.35h0l0-.37-.14,0a12.86,12.86,0,0,1-1.34-.32,1.64,1.64,0,0,1-.7-.42,1,1,0,0,1-.23-.7A1.22,1.22,0,0,1,50,107a2.71,2.71,0,0,1,1.61-.41,3.51,3.51,0,0,1,1.18.22,4.89,4.89,0,0,1,1.22.69l.29.21,1.32-1.87-.28-.21a7.41,7.41,0,0,0-1.2-.71,6.25,6.25,0,0,0-1.24-.42,5.55,5.55,0,0,0-1.29-.15,5.92,5.92,0,0,0-2.34.43,3.37,3.37,0,0,0-1.55,1.3,3.76,3.76,0,0,0-.53,2,3.42,3.42,0,0,0,.59,2.12,3,3,0,0,0,1.39,1,12.66,12.66,0,0,0,1.92.46h.07l.16,0a8,8,0,0,1,1.22.3,1.47,1.47,0,0,1,.65.42,1.07,1.07,0,0,1,.22.74,1.14,1.14,0,0,1-.53,1,3,3,0,0,1-1.73.41,4.48,4.48,0,0,1-1.58-.27,4,4,0,0,1-1.33-.79l-.28-.24-1.45,1.8.26.22a6.06,6.06,0,0,0,1.28.85,6.29,6.29,0,0,0,1.46.5,7.93,7.93,0,0,0,1.64.17,6.26,6.26,0,0,0,2.41-.42,3.48,3.48,0,0,0,1.6-1.28,3.61,3.61,0,0,0,.55-2,3.41,3.41,0,0,0-.53-2A3.06,3.06,0,0,0,53.87,110.07Z"/><polygon class="cls-2" points="63.65 109.56 59.46 109.56 59.46 104.45 57.14 104.45 57.14 116.76 59.46 116.76 59.46 111.82 63.65 111.82 63.65 116.76 65.96 116.76 65.96 104.45 63.65 104.45 63.65 109.56"/><path class="cls-2" d="M74.52,104.91a4.83,4.83,0,0,0-4.58,0,4,4,0,0,0-1.55,1.64,5.21,5.21,0,0,0-.54,2.41v3.29a5.16,5.16,0,0,0,.54,2.41,4,4,0,0,0,1.55,1.64,4.81,4.81,0,0,0,4.58,0,4,4,0,0,0,1.55-1.64,5.16,5.16,0,0,0,.54-2.41V109a5.21,5.21,0,0,0-.54-2.41A4,4,0,0,0,74.52,104.91Zm-2.29,1.73a2,2,0,0,1,1.07.28,1.81,1.81,0,0,1,.7.77,2.71,2.71,0,0,1,.25,1.22v3.4a2.7,2.7,0,0,1-.25,1.21,1.9,1.9,0,0,1-.7.78,2.26,2.26,0,0,1-2.14,0,1.9,1.9,0,0,1-.7-.78,2.7,2.7,0,0,1-.25-1.21v-3.4a2.71,2.71,0,0,1,.25-1.22,1.81,1.81,0,0,1,.7-.77A2.05,2.05,0,0,1,72.23,106.64Z"/><polygon class="cls-2" points="88.9 104.45 87.14 112.39 85.09 104.45 83.44 104.45 81.39 112.39 79.63 104.45 77.22 104.45 80.19 116.76 82.38 116.76 84.3 109.68 86.15 116.76 88.34 116.76 91.31 104.45 88.9 104.45"/><polygon class="cls-3" points="9.43 136.76 17.5 136.76 17.5 134.12 11.75 134.12 11.75 130.53 16.63 130.53 16.63 127.89 11.75 127.89 11.75 124.19 17.5 124.19 17.5 121.55 9.43 121.55 9.43 136.76"/><polygon class="cls-3" points="27.39 121.55 24.8 121.55 22.56 126.4 20.29 121.55 17.69 121.55 21.33 129.01 17.6 136.76 20.2 136.76 22.57 131.62 24.97 136.76 27.57 136.76 23.8 129 27.39 121.55"/><path class="cls-3" d="M30.14,125.5a2.35,2.35,0,0,1,.71-1,1.49,1.49,0,0,1,1.79-.12,2.47,2.47,0,0,1,.72.72,3.34,3.34,0,0,1,.45,1.09l.06.28h2.34l-.06-.41a6.83,6.83,0,0,0-.8-2.38A4.65,4.65,0,0,0,33.86,122a3.66,3.66,0,0,0-2-.59,3.73,3.73,0,0,0-2.3.75,4.6,4.6,0,0,0-1.51,2,7.79,7.79,0,0,0-.53,3v4a7.88,7.88,0,0,0,.53,3,4.62,4.62,0,0,0,1.51,2,3.79,3.79,0,0,0,2.3.74,3.65,3.65,0,0,0,2-.59,4.74,4.74,0,0,0,1.5-1.63,7,7,0,0,0,.8-2.39l.06-.41H33.86l0,.29a3.51,3.51,0,0,1-.45,1.13,2.15,2.15,0,0,1-.7.68,1.57,1.57,0,0,1-1.81-.12,2.35,2.35,0,0,1-.71-1.05,4.76,4.76,0,0,1-.27-1.67v-4A4.68,4.68,0,0,1,30.14,125.5Z"/><polygon class="cls-3" points="39.89 121.55 37.57 121.55 37.57 136.76 45.63 136.76 45.63 134.12 39.89 134.12 39.89 121.55"/><path class="cls-3" d="M52.78,131.23a3.8,3.8,0,0,1-.56,2.24,1.75,1.75,0,0,1-1.51.73,1.71,1.71,0,0,1-1.49-.73,3.8,3.8,0,0,1-.56-2.24v-9.68H46.34v9.61a8.47,8.47,0,0,0,.5,3.05,4.24,4.24,0,0,0,1.5,2h0a4,4,0,0,0,2.37.7,4,4,0,0,0,2.39-.7,4.17,4.17,0,0,0,1.5-2,8.44,8.44,0,0,0,.5-3.05v-9.61H52.78Z"/><path class="cls-3" d="M63.29,128.58a8.75,8.75,0,0,0-1.81-.66l-.16,0-.14,0a9.46,9.46,0,0,1-1.34-.4,1.65,1.65,0,0,1-.69-.53,1.55,1.55,0,0,1-.26-1,1.79,1.79,0,0,1,.53-1.42A2.26,2.26,0,0,1,61,124a2.69,2.69,0,0,1,1.15.27,4.47,4.47,0,0,1,1.21.85l.33.3L65,123.2l-.2-.19a7.73,7.73,0,0,0-1.2-.89,5.73,5.73,0,0,0-1.26-.53,4.45,4.45,0,0,0-1.3-.19,5,5,0,0,0-2.37.54,3.69,3.69,0,0,0-1.54,1.61,5.48,5.48,0,0,0-.51,2.46,5,5,0,0,0,.56,2.56,3.13,3.13,0,0,0,1.4,1.29,11.45,11.45,0,0,0,1.92.58l.08,0,.15,0a7.08,7.08,0,0,1,1.21.37,1.55,1.55,0,0,1,.65.54,2.05,2.05,0,0,1-.31,2.39,2.57,2.57,0,0,1-1.7.5A3.67,3.67,0,0,1,59,134a4.12,4.12,0,0,1-1.33-1l-.31-.34L56,134.8l.19.2a6.28,6.28,0,0,0,1.27,1.06,5.72,5.72,0,0,0,1.48.64,6.4,6.4,0,0,0,1.66.21,5.29,5.29,0,0,0,2.44-.53,3.68,3.68,0,0,0,1.58-1.59,5.13,5.13,0,0,0,.54-2.45,4.84,4.84,0,0,0-.52-2.43A3.33,3.33,0,0,0,63.29,128.58Z"/><rect class="cls-3" x="66.53" y="121.55" width="2.32" height="15.21"/><polygon class="cls-3" points="74.95 131.77 72.48 121.55 70 121.55 73.92 136.76 75.99 136.76 79.91 121.55 77.42 121.55 74.95 131.77"/><polygon class="cls-3" points="80.83 136.76 88.89 136.76 88.89 134.12 83.14 134.12 83.14 130.53 88.03 130.53 88.03 127.89 83.14 127.89 83.14 124.19 88.89 124.19 88.89 121.55 80.83 121.55 80.83 136.76"/><rect class="cls-3" x="90.43" y="121.55" width="2.32" height="11.49"/><rect class="cls-3" x="90.39" y="133.92" width="2.39" height="2.84"/><path class="cls-4" d="M26.69,35c-7,4.24-8.53,9.76-5,16.49-1.67,4.33-6.74,11-1.2,16.27,5.1,7.2,3.77-.51,5.14-3.34a16.29,16.29,0,0,0,1.6-8c1.14.06,1.87,3.2,2,.43,4.78-5.28-9.64-5.35-5.68-14.46C24.82,37,31.42,36.45,34,32c2.44-3.52-2.15-12.07-6.17-7.32-1.69,3.75,4.42,3.19,4.31.93C35.85,30.51,29.9,33.1,26.69,35ZM23.22,58.77c.71,1.35.42,7-1.41,4.84C19.76,61.5,20.89,53.76,23.22,58.77Zm6.14-32.4a.77.77,0,0,1-1-.72C28.56,23.42,32.18,25.23,29.36,26.37Z"/><path class="cls-4" d="M34.84,42.1c4.9,3.51-.73,9.33-1.73,13.28,1.42,2.09,4.71-8.44,2.76-.07-2.38,5.93.85,3.31,1.88,6-2.79,9.19,6.88,3.09,6.12-2.79.07,2.54.68-1.69.66-2.05,1.7-1.85,3.5-5.56,2.89-8.82-2,2.44-5.19-2.32-2.88-3.08-.54-1.22-2.75-1.49-3.07-3.26-1.59-.93,2.09-2.36.2-3.91-.2-.18.56.23.95,0,1.31-1.73.45-2.55-.75-.87.72-1.59.4-1.94-.63-3.25-.27,2.93-1.23-.14-1.9.35-2.58-.29,3,9,3.39,12,.54,4,.47,7.72-4.59,7.89-3.92-.91,2.16-7.14,0-9.65-4.23-8.72-11.62,4.56-5.92,3.06C31.59,44.1,32.8,42.76,34.84,42.1Z"/><path class="cls-4" d="M80.06,56.33c-2.54.89-5.44.27-8,.71-7.88-.8-14.2-6.68-10.14-14.45a5.83,5.83,0,0,0-3.16,2.31c2.44-.61.28,4.26-1.91,3.48-1.81-3.15-1.69,2.36.72.67-1.45.65-1.33,2.93-.94,3.86A15.55,15.55,0,0,1,60,62.06c-1.31.65-1.44,1.46-1,4,2.25,3.33.6.28,2.48-.69,6.52-1,3.9-2.7,2.48-8.06,1.62.13,2.11,3.48,3.05,4.63-1-2.36,3.76-3.69,1.61-.12,1.34,6.07,5.19.14,8-.34,1.57-.05,2.72.09,1.22-1.06C78,58.53,81.06,58.81,80.06,56.33Z"/><path class="cls-4" d="M69,50.2c-3.48.17-4.4-3.77-3.73-6-2,1.38-1.78,6.68.51,7.1C72.59,54,72.07,51.15,76.47,54c6.08.53,4.72-13.74,1.25-3.22-.09-1-.22-3.36.8-4.33-1-.22-1.75-2.17-1.2-3.74-2.87-2.59-8.33-6.44-5.51-10.07-2.58-5.93-4.22,3.78-.8,5.88C77.11,42.76,76,48.29,69,50.2Zm4.85-.93c.38.25.18.36,0,.72C73.45,49.61,73.6,49.55,73.88,49.27Z"/><path class="cls-5" d="M20.36,71.42c6.5,1.17-3.82-4.94-2.71-10.24-.77-4.06,3-6.45,3.93-9.25-5.8-6.65,1-12.77,1.82-16.27-7,3.87-6,11.74-3.46,17.86C14.18,58.44,15.54,66.37,20.36,71.42Z"/><path class="cls-5" d="M30.64,55.11c-3,4.87-2.47,9.94.71,10.28-2.64-8.09,6.84-14.7,4.26-22.25-1.44-1.71.6,4.07-1.15,5.32C33.74,51,31.24,52.65,30.64,55.11Z"/><path class="cls-5" d="M85,55.42c4.21-4.88-2.47-14.56-2.18-4.89,4.09.4-2.11,3.67-2.08,5.89C78.9,59.3,83.5,57.6,85,55.42Z"/><path class="cls-4" d="M74.9,27.15c1.76-2.67-.25-.79.4-3.79,0-4.46-1.38,2.13-4.3,2.83-.21.41.49.93-.23,2.24,1.44-1.89,1.37,1.28-.15,1.5,1.74,1.91.62,3.65,2.41,1.32C73.3,29.68,77.67,27.08,74.9,27.15Zm-1.63,3.61s-.11,0-.08-.08S73.31,30.7,73.27,30.76Z"/><path class="cls-5" d="M73,36.73c-2.43-6-1.94-.16.47,1.87,2.58,2.13,3.82,4.57,5.21,6.36-1.54,1.45.2.51,0,1.74-.81.83-.49,2-1,2.94.77-.67,1-4.29,2.31-3.07C82.57,45,73.53,36.13,73,36.73Zm5.14,9.14c-.19-.1.09-.32.23-.1A.84.84,0,0,1,78.18,45.87Z"/><path class="cls-5" d="M77.5,38.7c-1.2-.39-5-3.22-2.35-.68,5.87,3.84,6.37,8.76,5.7,14,2.74-.17,2.49-9.4-1.28-11.17"/><path class="cls-4" d="M64.53,33.59c-1.3,1.37-1.81-1.69-3,1.12-.81-3-1.35.61-2.66-.06,1.32,1.7-1.23,5.83,3.42,5.42C63.27,35.4,65.64,37.45,64.53,33.59Zm-1.69,3.53c-.25-.21-.18-.29,0-.56C63.09,36.85,63.09,36.93,62.84,37.12Z"/><path class="cls-6" d="M76.62,61.75c-6.33,4.18,4.34.92,5.88,4.1C83.8,61.19,79.23,61.57,76.62,61.75Z"/><path class="cls-7" d="M62.38,40.22c-5,2.11-2.28-5.62-4.67-5.44-.79,5.29.33,5.75,1.82,9.06C59.81,41.25,62.77,43.51,62.38,40.22Z"/><path class="cls-5" d="M82.61,44c5,1.58,6,8.31,2.26,12.14C85.89,59.07,90.26,42.58,82.61,44Z"/><path class="cls-5" d="M63.62,52.62c1.07,1.58,7.66,5.8,6.83,2.72-1.34.61-1.34-.21-2-1.33,0,1.82-1.72-.76-3.35-.43C67.06,50.52,63.14,51.31,63.62,52.62Z"/><path class="cls-6" d="M64.19,45.15c.54-3.69,8.24-3.06,6.51-.1-.76-2.33-3.35-2.53-4.86-.82,1.41-.53,4.06-1.82,5.1,2,2.2-4.58-5-5.41-6.68-2h0C63.73,44.73,63.43,46.36,64.19,45.15Z"/><path class="cls-5" d="M48.62,15.2c1.62-1.08-.35-3.16,3.63-2.11,2.29-1.17-5.16-2.05-4.9,3.08"/><path class="cls-8" d="M47.77,12.92c1.71-.32,3.51-.56,5.23-.83C51.9,11.83,48.28,12,47.77,12.92Z"/><path class="cls-4" d="M61.23,23.71c0,4.08,2.94-1.25,3.38,1.54,2.68,2.94.89,2.11,1.2-1.38C64.65,25.42,62,20.71,61.23,23.71Z"/><path class="cls-6" d="M65.8,23.87a13.5,13.5,0,0,0,.48,3.81C66.69,28.32,66.14,23.67,65.8,23.87Z"/><path class="cls-7" d="M29.22,32.76c2.15-.37,5.22-4.4,3.05-6.35C34.16,28.83,30.39,32,29.22,32.76Z"/><path class="cls-4" d="M38,28.5c2.5,2.11-.72-1.94,1.14-2.3C38.8,20,37.79,25,38,28.5Z"/><path class="cls-6" d="M63.78,36.92a21.74,21.74,0,0,0-1.24,4.58C62.66,39.91,64.31,38.23,63.78,36.92Z"/><path class="cls-8" d="M46.46,14.67c2.37,1.2.33.62,1.18-1.73C46.27,13.56,43.91,14.32,46.46,14.67Z"/><path class="cls-5" d="M45.38,14c.69-.49,2-.75,2.31-1.41C47,12.39,44.66,13.92,45.38,14Z"/><path class="cls-5" d="M60.5,16.21c-.91-.05-.91,1.5-.32,1.73C62.24,18.2,61.9,14.54,60.5,16.21Z"/><path class="cls-5" d="M42.17,18.18c.6,1.53,1.95-.94,2.13-1.53C44.69,15.71,39.61,17.68,42.17,18.18Z"/><path class="cls-5" d="M44.8,16.67c-.07-.48.23-1.54.31-.52C49.39,16,42.21,12.62,44.8,16.67Z"/><path class="cls-8" d="M66,27.68c-1.16-.67-.37,3.84-.52,4.26C65.54,30.51,66.65,29,66,27.68Z"/><path class="cls-4" d="M66.23,28c.23,1.44-1.08,3.08-.52,4.36C65.46,30.76,67.47,28.63,66.23,28Z"/><path class="cls-8" d="M43.09,16.47c.44,0,.66-1.47,1.21-.48C44.34,13.77,41.57,16.65,43.09,16.47Z"/><path class="cls-4" d="M40.07,21.49c.21-1.29.65-1.76.5-2.89C39.59,19.31,38,23.28,40.07,21.49Z"/><path class="cls-5" d="M64,21.33c-.53-2.53,1.09.91.67-2.21C63.06,19.21,63.46,22.25,64,21.33Z"/><path class="cls-5" d="M45,64.68c4.19,0-.24-.82,1.91-4.37a1.93,1.93,0,0,1,1.17-3c-1.45,2.2,2.69,3.1,1.66,5.74.9-.63,1.87,1.87.8,2.59,3.1-1,2-1,1.35-3.35-3-2.48-1.32-2-2.5-6.27-.66-1.77-1.79,1-2.19-3.72C46.78,55.67,39.56,64.75,45,64.68Zm4.11-8.07c.06.09,0,.15-.09.16S49,56.64,49.12,56.61Zm-3.31,6.94c.13.06.12.15,0,.25C45.74,63.72,45.69,63.66,45.81,63.55Z"/><path class="cls-5" d="M33.23,62.33c-1.16,6.18,8.87,6.76,7.79,4-1.88.69-5.61-.79-4.85-3.15-2.57-2.87-.86-7.31-.07-10.34A13.71,13.71,0,0,0,33.23,62.33ZM38,67c.2.22.12.29,0,.61C37.84,67.26,37.79,67.2,38,67Z"/><path class="cls-9" d="M45.23,45.22c-.47-1.51.7-6.22.88-9.2.3-4.15-2.76,1.62-2,3.62C39.09,41,43.69,41.89,45.23,45.22Z"/><path class="cls-10" d="M48,53.78c1.72,4.73.85-7.57-1.51-8.29C47.78,47.44,47.54,50.63,48,53.78Zm-.77-6.89-.05,0C47.33,46.79,47.48,46.83,47.27,46.89Zm1.25,6.34c.18.17.08.22-.06.44C48.31,53.42,48.35,53.39,48.52,53.23Z"/><path class="cls-5" d="M33,62.19a11.18,11.18,0,0,1,.67-5.81C31.48,57.52,31.33,60.25,33,62.19Z"/><path class="cls-9" d="M55.94,51.74c-.18-1.45-.72-4.34-1.07-3.3-.06.23-.25,1.12-.12.81.87,3.57-1.2,7.33-3.28,9.69.83-3-3.43-6.95-1-.56-.54,1.28,2.26,6.18,4.08,5.74.68,1.75.78-5-.63-6.58,1.58.17-.2-2,2.6-2.49-.65-.55-1-.11-.11-1.78C55.9,52.61,55.12,53.09,55.94,51.74ZM53,62.44l0,0S53,62.44,53,62.44Zm0,1.12c-.44-.32,0-.72.42-.39Zm.41-6.82c-.07-.06-.08-.1,0-.15S53.55,56.69,53.48,56.74Zm.73,6.4c.61.17-.18.77-.33,1.1C53.37,63.86,54,63.51,54.21,63.14Zm.26-7.79c-.19-.18-.08-.23.09-.44C54.71,55.16,54.65,55.2,54.47,55.35Zm.71-1.28c-.33-.34,0-.49.36-.19A2.59,2.59,0,0,1,55.18,54.07Z"/><path class="cls-5" d="M56.7,54.37c1.09,1.87-2.18,1-1.62,2.57-.17,2.1.43,4.35.12,6.54.5,2,.4-2.21.37-2.4.68.38,1.56,1.17.86,1.88.74.47,2.08,1-.64,1.57.78,0,4.14,1.71,2.56.62-1-1.63.47-2.15.88-3.58.86-.75-1.27-2.11.11-3.25C59.61,57.66,55.55,52.29,56.7,54.37Z"/><path class="cls-7" d="M58.48,42.21c-2.23-.81-1.31-3.8-1.22-5.42-1.35-1.36-1.33,6.54-2.27,8.61C53.14,50.74,60.86,43.75,58.48,42.21Z"/><path class="cls-5" d="M78.54,55.87c-.56.2-7.93-1.41-7,.72,2.15.09,6.08.06,8.29-.64S79.5,54.06,78.54,55.87Z"/><path class="cls-5" d="M65.89,52.6c2,1.42,5.81,3.64,10,2.47,2,.29,3.73-.59,5.47-.49,1-.67,3.63-3.85,1.29-3.14-.38-.54-.74,1.4-1.55,1.6-1.12.43-1-3.88-.85-1.07C78.5,58.46,69.65,50.67,65.89,52.6Z"/><path class="cls-4" d="M46.55,32.43c-4.19-1.2.45,2,2.44,1.63,4.23-1.41,2.4,1.56,5.07.93.64-1.74.9-.83,2.56-.38,1.28.47,1.83-2.24,2.92-.53,1.78-.72-.64-5.49-1.32-2.41"/><path class="cls-11" d="M52.71,49.6c.6-.89,1.15-1.86-.45-1.06-2.65.12-1.07-3.28-2.73.05-.76-4.25-3.7-10-.52-13.24-3.46.06-2.36,1.16-2.77,3.9-2,6-.71,3.21,2.08,8C47.87,52.15,51,54.06,52,57.83,51.72,56.89,57.44,49.13,52.71,49.6ZM48.45,47a.07.07,0,0,1,0-.13A.07.07,0,0,1,48.45,47Z"/><path class="cls-12" d="M54.05,35.11c-7.58.47-6.23,3.57-4.91,11,.45,2.23.81-.6,2.55,2,3.43-.4,1,.91,2.73,1a68.71,68.71,0,0,1,1.41-10.93C57.93,35.65,53.71,36.71,54.05,35.11Z"/><polygon class="cls-13" points="14.4 65.41 11.85 65.41 11.85 79.63 20.37 79.63 20.37 76.92 14.4 76.92 14.4 65.41"/><path class="cls-13" d="M22.71,76.67A1.92,1.92,0,0,0,22.24,78a2,2,0,0,0,.46,1.29,1.56,1.56,0,0,0,2.41,0A2,2,0,0,0,25.56,78a1.86,1.86,0,0,0-.46-1.28A1.56,1.56,0,0,0,22.71,76.67Z"/><path class="cls-13" d="M30.4,65.41,26.86,79.63h2.66l.75-3.24H33.6l.75,3.24H37L33.47,65.41Zm1.53,3.83,1,4.44H30.9Z"/><path class="cls-13" d="M38.77,76.67a2,2,0,0,0,0,2.58,1.55,1.55,0,0,0,2.4,0,2,2,0,0,0,0-2.57A1.57,1.57,0,0,0,38.77,76.67Z"/><path class="cls-13" d="M49,67.88a1.79,1.79,0,0,1,1,.28,2.29,2.29,0,0,1,.76.81l.33.57,1.83-2.11-.14-.28a3.23,3.23,0,0,0-1.5-1.44,5.43,5.43,0,0,0-6.44,1.48,8.66,8.66,0,0,0-1.45,5.31c0,4.86,2,7.32,5.81,7.32a7.56,7.56,0,0,0,3.15-.68l.35-.16-.59-2.6-.53.27a4.74,4.74,0,0,1-2.1.51c-2.31,0-3.42-1.55-3.42-4.75A5.78,5.78,0,0,1,46.9,69,2.46,2.46,0,0,1,49,67.88Z"/><path class="cls-13" d="M57.69,65.22c-3.12,0-4.7,2.49-4.7,7.39s1.58,7.21,4.7,7.21,4.69-2.43,4.69-7.21S60.8,65.22,57.69,65.22Zm0,11.94c-1.38,0-2.07-1.53-2.07-4.55s.69-4.73,2.07-4.73,2.06,1.59,2.06,4.73S59.06,77.16,57.69,77.16Z"/><polygon class="cls-13" points="67.37 69.77 66.37 65.41 63.09 65.41 63.09 79.63 65.58 79.63 65.58 71.34 66.26 74.2 68.48 74.2 69.16 71.34 69.16 79.63 71.65 79.63 71.65 65.41 68.37 65.41 67.37 69.77"/><polygon class="cls-13" points="73.1 68.12 75.77 68.12 75.77 76.92 73.1 76.92 73.1 79.63 81.01 79.63 81.01 76.92 78.32 76.92 78.32 68.12 81.01 68.12 81.01 65.41 73.1 65.41 73.1 68.12"/><path class="cls-13" d="M90.31,76.65a4.74,4.74,0,0,1-2.1.51c-2.3,0-3.42-1.55-3.42-4.75A5.78,5.78,0,0,1,85.64,69a2.46,2.46,0,0,1,2.12-1.11,1.77,1.77,0,0,1,1,.28,2.13,2.13,0,0,1,.76.81l.33.57,1.83-2.11-.14-.28A3.23,3.23,0,0,0,90,65.71a5.43,5.43,0,0,0-6.44,1.48,8.66,8.66,0,0,0-1.45,5.31c0,4.86,2,7.32,5.82,7.32a7.55,7.55,0,0,0,3.14-.68l.35-.16-.59-2.6Z"/><polygon class="cls-14" points="14.4 65.41 11.85 65.41 11.85 79.63 20.37 79.63 20.37 76.92 14.4 76.92 14.4 65.41"/><path class="cls-14" d="M22.71,76.67A1.92,1.92,0,0,0,22.24,78a2,2,0,0,0,.46,1.29,1.56,1.56,0,0,0,2.41,0A2,2,0,0,0,25.56,78a1.86,1.86,0,0,0-.46-1.28A1.56,1.56,0,0,0,22.71,76.67Z"/><path class="cls-14" d="M30.4,65.41,26.86,79.63h2.66l.75-3.24H33.6l.75,3.24H37L33.47,65.41Zm1.53,3.83,1,4.44H30.9Z"/><path class="cls-14" d="M38.77,76.67a2,2,0,0,0,0,2.58,1.55,1.55,0,0,0,2.4,0,2,2,0,0,0,0-2.57A1.57,1.57,0,0,0,38.77,76.67Z"/><path class="cls-14" d="M49,67.88a1.79,1.79,0,0,1,1,.28,2.29,2.29,0,0,1,.76.81l.33.57,1.83-2.11-.14-.28a3.23,3.23,0,0,0-1.5-1.44,5.43,5.43,0,0,0-6.44,1.48,8.66,8.66,0,0,0-1.45,5.31c0,4.86,2,7.32,5.81,7.32a7.56,7.56,0,0,0,3.15-.68l.35-.16-.59-2.6-.53.27a4.74,4.74,0,0,1-2.1.51c-2.31,0-3.42-1.55-3.42-4.75A5.78,5.78,0,0,1,46.9,69,2.46,2.46,0,0,1,49,67.88Z"/><path class="cls-14" d="M57.69,65.22c-3.12,0-4.7,2.49-4.7,7.39s1.58,7.21,4.7,7.21,4.69-2.43,4.69-7.21S60.8,65.22,57.69,65.22Zm0,11.94c-1.38,0-2.07-1.53-2.07-4.55s.69-4.73,2.07-4.73,2.06,1.59,2.06,4.73S59.06,77.16,57.69,77.16Z"/><polygon class="cls-14" points="67.37 69.77 66.37 65.41 63.09 65.41 63.09 79.63 65.58 79.63 65.58 71.34 66.26 74.2 68.48 74.2 69.16 71.34 69.16 79.63 71.65 79.63 71.65 65.41 68.37 65.41 67.37 69.77"/><polygon class="cls-14" points="73.1 68.12 75.77 68.12 75.77 76.92 73.1 76.92 73.1 79.63 81.01 79.63 81.01 76.92 78.32 76.92 78.32 68.12 81.01 68.12 81.01 65.41 73.1 65.41 73.1 68.12"/><path class="cls-14" d="M90.31,76.65a4.74,4.74,0,0,1-2.1.51c-2.3,0-3.42-1.55-3.42-4.75A5.78,5.78,0,0,1,85.64,69a2.46,2.46,0,0,1,2.12-1.11,1.77,1.77,0,0,1,1,.28,2.13,2.13,0,0,1,.76.81l.33.57,1.83-2.11-.14-.28A3.23,3.23,0,0,0,90,65.71a5.43,5.43,0,0,0-6.44,1.48,8.66,8.66,0,0,0-1.45,5.31c0,4.86,2,7.32,5.82,7.32a7.55,7.55,0,0,0,3.14-.68l.35-.16-.59-2.6Z"/><path class="cls-15" d="M38.24,87H40a7.07,7.07,0,0,1,1.39-1.47H38.91l1.07.76Z"/><polygon class="cls-15" points="74.82 91.57 74.82 93.04 77.15 93.04 75.7 91.57 74.82 91.57"/><path class="cls-15" d="M52.06,94.84a12.35,12.35,0,0,0,2.78-.27H49.28A12.35,12.35,0,0,0,52.06,94.84Z"/><path class="cls-15" d="M65.36,91.57A8.57,8.57,0,0,1,65.18,93h2.44V91.57Z"/><polygon class="cls-15" points="83.79 91.62 83.79 91.57 83.74 91.57 83.79 91.62"/><path class="cls-15" d="M19.48,91.57A2.58,2.58,0,0,0,20.36,93H38.94a8.57,8.57,0,0,1-.18-1.47Z"/><path class="cls-15" d="M46.35,91.57A3,3,0,0,0,46.76,93h10.6a3,3,0,0,0,.41-1.47Z"/><path class="cls-15" d="M46.47,90H57.65a2.7,2.7,0,0,0-1-1.47H47.45A2.75,2.75,0,0,0,46.47,90Z"/><path class="cls-15" d="M67.62,90V88.57h-2.7A6.57,6.57,0,0,1,65.28,90Z"/><path class="cls-15" d="M39.2,88.57H34.51l-.95.39-.62-.39H21.39l-.11,0A3.41,3.41,0,0,0,19.64,90h19.2A7.16,7.16,0,0,1,39.2,88.57Z"/><polygon class="cls-15" points="74.82 94.57 74.82 96.04 80.12 96.04 78.66 94.57 74.82 94.57"/><path class="cls-15" d="M36.4,94.57,37.34,96h3.15a6.31,6.31,0,0,1-1-1.47Z"/><polygon class="cls-15" points="83.79 87.04 83.79 85.57 77.81 85.57 79.26 87.04 83.79 87.04"/><path class="cls-15" d="M64.13,87h3.49V85.57H62.74A7.07,7.07,0,0,1,64.13,87Z"/><path class="cls-15" d="M64.64,94.57a6.31,6.31,0,0,1-1,1.47h4V94.57Z"/><path class="cls-15" d="M29,94.84a36,36,0,0,0,4.41-.27H24.58A30.77,30.77,0,0,0,29,94.84Z"/><polygon class="cls-15" points="82.23 90.04 83.79 90.04 83.79 88.57 80.77 88.57 82.23 90.04"/><polygon class="cls-14" points="33.56 88.96 34.51 88.57 32.94 88.57 32.94 88.57 33.56 88.96"/><path class="cls-14" d="M33.36,94.57a36,36,0,0,1-4.41.27,30.77,30.77,0,0,1-4.37-.27H20.05A12.15,12.15,0,0,0,25,96h8c.84-.09,1.68-.2,2.51-.34l.22.34h1.68l-.94-1.47Z"/><path class="cls-14" d="M13.89,88.57H12.28A5.91,5.91,0,0,0,11.82,90h1.46A4.72,4.72,0,0,1,13.89,88.57Z"/><path class="cls-14" d="M13.18,91.57H11.76A6.36,6.36,0,0,0,12,93h1.52A5.08,5.08,0,0,1,13.18,91.57Z"/><path class="cls-14" d="M21.28,88.61l.11,0H19A3.59,3.59,0,0,0,18.14,90h1.5A3.41,3.41,0,0,1,21.28,88.61Z"/><path class="cls-14" d="M19.48,91.57H18A3.66,3.66,0,0,0,18.53,93h1.83A2.58,2.58,0,0,1,19.48,91.57Z"/><path class="cls-14" d="M16.94,86.1c.42-.19.87-.37,1.34-.53H15A8.26,8.26,0,0,0,13.26,87h2.09A9.53,9.53,0,0,1,16.94,86.1Z"/><path class="cls-14" d="M28.18,98a45.13,45.13,0,0,1-6.45-.41H16.42c2.73,1.21,6.65,1.83,11.76,1.83a53.07,53.07,0,0,0,8.53-.66l2.12-.34-.52-.83H34.87A53.42,53.42,0,0,1,28.18,98Z"/><path class="cls-14" d="M31.09,86.39A15.94,15.94,0,0,0,27.68,86a17.22,17.22,0,0,0-6.27,1H33.08A8.94,8.94,0,0,0,31.09,86.39Z"/><path class="cls-14" d="M14.47,94.57h-1.8A6.45,6.45,0,0,0,13.94,96h2.53A7,7,0,0,1,14.47,94.57Z"/><path class="cls-14" d="M34.5,87h3.74L40,86.33l-1.07-.76H36.29a4.47,4.47,0,0,1,.76.42Z"/><path class="cls-14" d="M33.69,83.36a35.79,35.79,0,0,0-6.06-.46A31.68,31.68,0,0,0,18.38,84H36.3A15.33,15.33,0,0,0,33.69,83.36Z"/><path class="cls-14" d="M20.05,94.57H14.47a7,7,0,0,0,2,1.47H25A12.15,12.15,0,0,1,20.05,94.57Z"/><path class="cls-14" d="M32.93,96h2.73l-.22-.34C34.61,95.84,33.77,96,32.93,96Z"/><path class="cls-14" d="M19,88.57H13.89A4.72,4.72,0,0,0,13.28,90h4.86A3.59,3.59,0,0,1,19,88.57Z"/><path class="cls-14" d="M28.18,98a53.42,53.42,0,0,0,6.69-.41H21.73A45.13,45.13,0,0,0,28.18,98Z"/><path class="cls-14" d="M18,91.57H13.18A5.08,5.08,0,0,0,13.51,93h5A3.66,3.66,0,0,1,18,91.57Z"/><path class="cls-14" d="M27.68,86a15.94,15.94,0,0,1,3.41.35,8.94,8.94,0,0,1,2,.65H34.5L37.05,86a4.47,4.47,0,0,0-.76-.42h-18c-.47.16-.92.34-1.34.53a9.53,9.53,0,0,0-1.59.94h6.06A17.22,17.22,0,0,1,27.68,86Z"/><path class="cls-14" d="M57.65,90h1.43a4.66,4.66,0,0,0-.58-1.47H56.67A2.7,2.7,0,0,1,57.65,90Z"/><path class="cls-14" d="M63,94.57A5.69,5.69,0,0,1,61.38,96h2.25a6.31,6.31,0,0,0,1-1.47Z"/><path class="cls-14" d="M52.06,82.9A22.88,22.88,0,0,0,44.19,84H59.93A22.88,22.88,0,0,0,52.06,82.9Z"/><path class="cls-14" d="M52.06,86a9.92,9.92,0,0,0-4.82,1h9.64A9.92,9.92,0,0,0,52.06,86Z"/><path class="cls-14" d="M40.28,90a5.37,5.37,0,0,1,.46-1.47H39.2A7.16,7.16,0,0,0,38.84,90Z"/><path class="cls-14" d="M41.17,94.57H39.48a6.31,6.31,0,0,0,1,1.47h2.25A5.84,5.84,0,0,1,41.17,94.57Z"/><path class="cls-14" d="M52.06,94.84a12.35,12.35,0,0,1-2.78-.27H46.23A6.17,6.17,0,0,0,49.53,96h5.06a6.17,6.17,0,0,0,3.3-1.47h-3A12.35,12.35,0,0,1,52.06,94.84Z"/><path class="cls-14" d="M45,91.57A5.12,5.12,0,0,0,45.25,93h1.51a3,3,0,0,1-.41-1.47Z"/><path class="cls-14" d="M46.47,90a2.75,2.75,0,0,1,1-1.47H45.63A4.45,4.45,0,0,0,45,90Z"/><path class="cls-14" d="M57.77,91.57A3,3,0,0,1,57.36,93h1.51a5.12,5.12,0,0,0,.29-1.47Z"/><path class="cls-14" d="M52.06,98a28.89,28.89,0,0,1-5.15-.41H42.5c2.21,1.21,5.4,1.83,9.56,1.83s7.35-.62,9.56-1.83H57.21A28.89,28.89,0,0,1,52.06,98Z"/><path class="cls-14" d="M38.76,91.57A8.57,8.57,0,0,0,38.94,93h1.48a6.84,6.84,0,0,1-.24-1.47Z"/><path class="cls-14" d="M63.94,91.57A6.27,6.27,0,0,1,63.7,93h1.48a8.57,8.57,0,0,0,.18-1.47Z"/><path class="cls-14" d="M62.3,87h1.83a7.07,7.07,0,0,0-1.39-1.47H60A7.4,7.4,0,0,1,62.3,87Z"/><path class="cls-14" d="M40,87h1.83a7.4,7.4,0,0,1,2.3-1.47H41.38A7.07,7.07,0,0,0,40,87Z"/><path class="cls-14" d="M65.28,90a6.57,6.57,0,0,0-.36-1.47H63.38A5.75,5.75,0,0,1,63.85,90Z"/><path class="cls-14" d="M59.16,91.57A5.12,5.12,0,0,1,58.87,93H63.7a6.27,6.27,0,0,0,.24-1.47Z"/><path class="cls-14" d="M63,94.57H57.89A6.17,6.17,0,0,1,54.59,96h6.79A5.69,5.69,0,0,0,63,94.57Z"/><path class="cls-14" d="M63.85,90a5.75,5.75,0,0,0-.47-1.47H58.5A4.66,4.66,0,0,1,59.08,90Z"/><path class="cls-14" d="M45,90a4.45,4.45,0,0,1,.59-1.47H40.74A5.37,5.37,0,0,0,40.28,90Z"/><path class="cls-14" d="M52.06,98a28.89,28.89,0,0,0,5.15-.41H46.91A28.89,28.89,0,0,0,52.06,98Z"/><path class="cls-14" d="M46.23,94.57H41.17A5.84,5.84,0,0,0,42.74,96h6.79A6.17,6.17,0,0,1,46.23,94.57Z"/><path class="cls-14" d="M41.82,87h5.42a9.92,9.92,0,0,1,4.82-1,9.92,9.92,0,0,1,4.82,1H62.3A7.4,7.4,0,0,0,60,85.57H44.12A7.4,7.4,0,0,0,41.82,87Z"/><path class="cls-14" d="M40.18,91.57A6.84,6.84,0,0,0,40.42,93h4.83A5.12,5.12,0,0,1,45,91.57Z"/><rect class="cls-14" x="67.62" y="85.57" width="1.42" height="1.47"/><polygon class="cls-14" points="84.75 94.61 85.21 94.61 85.21 94.57 84.71 94.57 84.75 94.61"/><polygon class="cls-14" points="82.23 90.04 80.77 88.57 78.78 88.57 80.23 90.04 82.23 90.04"/><polygon class="cls-14" points="76.18 90.04 74.72 88.57 73.4 88.57 73.4 90.04 76.18 90.04"/><polygon class="cls-14" points="75.35 83.09 67.62 83.09 67.62 84.04 76.29 84.04 75.35 83.09"/><rect class="cls-14" x="67.62" y="88.57" width="1.42" height="1.47"/><rect class="cls-14" x="83.79" y="83.09" width="7.19" height="0.95"/><polygon class="cls-14" points="75.7 91.57 77.15 93.04 79.15 93.04 77.69 91.57 75.7 91.57"/><polygon class="cls-14" points="83.79 91.62 83.74 91.57 81.74 91.57 83.2 93.04 85.21 93.04 85.21 91.57 83.79 91.57 83.79 91.62"/><rect class="cls-14" x="67.62" y="91.57" width="1.42" height="1.47"/><rect class="cls-14" x="83.79" y="85.57" width="1.42" height="1.47"/><rect class="cls-14" x="83.79" y="88.57" width="1.42" height="1.47"/><rect class="cls-14" x="73.4" y="91.57" width="1.42" height="1.47"/><polygon class="cls-14" points="79.26 87.04 77.81 85.57 75.81 85.57 77.27 87.04 79.26 87.04"/><polygon class="cls-14" points="73.4 97.79 69.04 97.79 69.04 97.57 67.62 97.57 67.62 99.21 74.82 99.21 74.82 97.57 73.4 97.57 73.4 97.79"/><rect class="cls-14" x="67.62" y="94.57" width="1.42" height="1.47"/><rect class="cls-14" x="73.4" y="94.57" width="1.42" height="1.47"/><rect class="cls-14" x="89.56" y="85.57" width="1.42" height="1.47"/><polygon class="cls-14" points="89.56 97.79 85.89 97.79 85.21 97.79 83.84 97.79 83.62 97.57 81.63 97.57 83.25 99.21 90.98 99.21 90.98 97.57 89.56 97.57 89.56 97.79"/><rect class="cls-14" x="89.56" y="91.57" width="1.42" height="1.47"/><rect class="cls-14" x="89.56" y="88.57" width="1.42" height="1.47"/><rect class="cls-14" x="89.56" y="94.57" width="1.42" height="1.47"/><polygon class="cls-14" points="78.66 94.57 80.12 96.04 82.11 96.04 80.66 94.57 78.66 94.57"/><rect class="cls-14" x="85.21" y="97.57" width="0.68" height="0.22"/><rect class="cls-14" x="69.04" y="97.57" width="4.36" height="0.22"/><rect class="cls-14" x="85.21" y="94.61" width="0.68" height="1.43"/><rect class="cls-14" x="85.89" y="97.57" width="3.68" height="0.22"/><rect class="cls-14" x="85.21" y="85.57" width="4.36" height="1.47"/><polygon class="cls-14" points="85.21 94.61 85.89 94.61 85.89 96.04 89.56 96.04 89.56 94.57 85.21 94.57 85.21 94.61"/><polygon class="cls-14" points="80.23 90.04 78.78 88.57 74.72 88.57 76.18 90.04 80.23 90.04"/><rect class="cls-14" x="71.77" y="85.57" width="1.63" height="1.47"/><rect class="cls-14" x="69.04" y="88.57" width="4.36" height="1.47"/><rect class="cls-14" x="85.21" y="91.57" width="4.36" height="1.47"/><rect class="cls-14" x="85.21" y="88.57" width="4.36" height="1.47"/><rect class="cls-14" x="69.04" y="91.57" width="4.36" height="1.47"/><polygon class="cls-14" points="79.15 93.04 83.2 93.04 81.74 91.57 77.69 91.57 79.15 93.04"/><polygon class="cls-14" points="73.4 87.04 77.27 87.04 75.81 85.57 73.4 85.57 73.4 87.04"/><polygon class="cls-14" points="85.21 94.61 84.75 94.61 84.71 94.57 80.66 94.57 82.11 96.04 85.21 96.04 85.21 94.61"/><rect class="cls-14" x="69.04" y="85.57" width="2.72" height="1.47"/><polygon class="cls-14" points="83.62 97.57 83.84 97.79 85.21 97.79 85.21 97.57 83.62 97.57"/><rect class="cls-14" x="69.04" y="94.57" width="4.36" height="1.47"/><path class="cls-3" d="M35.2,94.3c-.61.11-1.22.19-1.84.27h3l-.27-.43Z"/><path class="cls-3" d="M32.93,96H25a33.8,33.8,0,0,0,4,.22A37.62,37.62,0,0,0,32.93,96Z"/><path class="cls-3" d="M52.06,96.26A14.71,14.71,0,0,0,54.59,96H49.53A14.71,14.71,0,0,0,52.06,96.26Z"/></g></g></svg>