<svg xmlns="http://www.w3.org/2000/svg" viewBox="0 0 135.4 135.4"><defs><style>.cls-1{fill:#343430;}.cls-2{fill:#fff;}.cls-3{fill:#b95244;}</style></defs><g id="Calque_2" data-name="Calque 2"><g id="CHALICE_COLLECTIBLES" data-name="CHALICE COLLECTIBLES"><rect class="cls-1" width="135.4" height="135.4" rx="8.2"/><rect class="cls-2" y="21.64" width="135.4" height="1.21"/><rect class="cls-2" y="117.92" width="135.4" height="7.66"/><path class="cls-2" d="M19.53,19a1.86,1.86,0,0,1-.66-.84,3.06,3.06,0,0,1-.24-1.25V15a3,3,0,0,1,.24-1.25,1.86,1.86,0,0,1,.66-.84,1.7,1.7,0,0,1,1-.3,1.66,1.66,0,0,1,1,.3,2,2,0,0,1,.67.84A3.2,3.2,0,0,1,22.41,15v1.84a3.24,3.24,0,0,1-.23,1.25,2,2,0,0,1-.67.84,1.72,1.72,0,0,1-1,.29A1.77,1.77,0,0,1,19.53,19Zm1.58-.78a1.11,1.11,0,0,0,.39-.52,2,2,0,0,0,.14-.76V15a2,2,0,0,0-.14-.77,1.13,1.13,0,0,0-.39-.51,1,1,0,0,0-.59-.18,1,1,0,0,0-.58.18,1.22,1.22,0,0,0-.4.51,2,2,0,0,0-.13.77v1.9a2,2,0,0,0,.13.76,1.19,1.19,0,0,0,.4.52,1,1,0,0,0,.58.18A1,1,0,0,0,21.11,18.17Z"/><path class="cls-2" d="M23.18,12.7h.76v6.48h-.76Zm.37,0h3v.86h-3Zm0,2.89h2.61v.86H23.55Z"/><path class="cls-2" d="M27.11,12.7h.76v6.48h-.76Zm.37,0h3v.86h-3Zm0,2.89h2.61v.86H27.48Z"/><path class="cls-2" d="M31.8,19.18h-.75V12.7h.75Z"/><path class="cls-2" d="M33.53,18.94a1.85,1.85,0,0,1-.65-.84,3.16,3.16,0,0,1-.24-1.27V15.05a3.16,3.16,0,0,1,.24-1.27,1.94,1.94,0,0,1,.65-.85,1.68,1.68,0,0,1,1-.3,1.61,1.61,0,0,1,.85.24,2,2,0,0,1,.65.67,2.93,2.93,0,0,1,.35,1H35.6a1.48,1.48,0,0,0-.24-.54,1.14,1.14,0,0,0-.39-.37.84.84,0,0,0-.45-.13.9.9,0,0,0-.58.19,1.22,1.22,0,0,0-.39.54,2.2,2.2,0,0,0-.13.8v1.78a2.2,2.2,0,0,0,.13.8,1.22,1.22,0,0,0,.39.54,1,1,0,0,0,1,.07,1.17,1.17,0,0,0,.38-.36,1.58,1.58,0,0,0,.24-.56h.77a2.7,2.7,0,0,1-.36,1,1.82,1.82,0,0,1-.65.67,1.57,1.57,0,0,1-.84.24A1.68,1.68,0,0,1,33.53,18.94Z"/><path class="cls-2" d="M37.74,19.18H37V12.7h.75Z"/><path class="cls-2" d="M40.09,12.7h.64l2,6.48H41.9L40.41,14l-1.49,5.23h-.81ZM39,16.89h2.83v.86H39Z"/><path class="cls-2" d="M43.15,12.7h.76v6.48h-.76Zm.38,5.61h3.08v.87H43.53Z"/><path class="cls-2" d="M47.12,12.7h.75v6.48h-.75Zm.37,5.61h3.08v.87H47.49Z"/><path class="cls-2" d="M52.44,16.54v2.64h-.75V16.54L50.05,12.7h.84l1.17,2.92,1.18-2.92h.84Z"/><path class="cls-2" d="M55.91,12.7h.76v6.48h-.76Zm.38,5.61h3.08v.87H56.29Z"/><path class="cls-2" d="M60.63,19.18h-.75V12.7h.75Z"/><path class="cls-2" d="M62.36,18.94a1.85,1.85,0,0,1-.65-.84,3.16,3.16,0,0,1-.24-1.27V15.05a3.16,3.16,0,0,1,.24-1.27,1.94,1.94,0,0,1,.65-.85,1.68,1.68,0,0,1,1-.3,1.58,1.58,0,0,1,.85.24,2,2,0,0,1,.65.67,2.93,2.93,0,0,1,.35,1h-.77a1.48,1.48,0,0,0-.24-.54,1.21,1.21,0,0,0-.38-.37.93.93,0,0,0-1,.06,1.3,1.3,0,0,0-.39.54,2.2,2.2,0,0,0-.13.8v1.78a2.2,2.2,0,0,0,.13.8,1.3,1.3,0,0,0,.39.54,1,1,0,0,0,1,.07,1.17,1.17,0,0,0,.38-.36,1.58,1.58,0,0,0,.24-.56h.77a2.88,2.88,0,0,1-.35,1,1.93,1.93,0,0,1-.66.67,1.57,1.57,0,0,1-.84.24A1.68,1.68,0,0,1,62.36,18.94Z"/><path class="cls-2" d="M65.82,12.7h.76v6.48h-.76Zm.37,0h3.09v.86H66.19Zm0,2.83h2.68v.86H66.19Zm0,2.78h3.09v.87H66.19Z"/><path class="cls-2" d="M70,12.7h.69l2.63,5-.09.11V12.7H74v6.47h-.7l-2.62-4.93.09-.12v5.05H70Z"/><path class="cls-2" d="M75.78,19.15a2.85,2.85,0,0,1-.65-.26,2.64,2.64,0,0,1-.56-.45l.47-.69a1.95,1.95,0,0,0,1.48.64,1.4,1.4,0,0,0,.9-.26.89.89,0,0,0,.32-.74h0a.85.85,0,0,0-.14-.53,1,1,0,0,0-.38-.3,3.48,3.48,0,0,0-.6-.17h-.1a5,5,0,0,1-.88-.26,1.22,1.22,0,0,1-.58-.51,2,2,0,0,1-.24-1.06h0a2.34,2.34,0,0,1,.22-1,1.53,1.53,0,0,1,.66-.65,2.3,2.3,0,0,1,1-.22,2.24,2.24,0,0,1,.57.08,2.53,2.53,0,0,1,.55.22,3.06,3.06,0,0,1,.53.38L78,14a2.46,2.46,0,0,0-.62-.41,1.46,1.46,0,0,0-.61-.13,1.32,1.32,0,0,0-.86.26,1,1,0,0,0-.3.75h0a.75.75,0,0,0,.16.52,1,1,0,0,0,.39.29,4.29,4.29,0,0,0,.65.18h.14a3.79,3.79,0,0,1,.81.28,1.39,1.39,0,0,1,.55.53,1.94,1.94,0,0,1,.22,1h0a2.12,2.12,0,0,1-.23,1,1.51,1.51,0,0,1-.68.64,2.31,2.31,0,0,1-1.06.22A2.94,2.94,0,0,1,75.78,19.15Z"/><path class="cls-2" d="M79.11,12.7h.76v6.48h-.76Zm.37,0h3.09v.86H79.48Zm0,2.83h2.68v.86H79.48Zm0,2.78h3.09v.87H79.48Z"/><path class="cls-2" d="M83.26,12.7H84v6.48h-.76Zm.51,5.61H85a1.14,1.14,0,0,0,.92-.37,1.54,1.54,0,0,0,.33-1.05V15a1.49,1.49,0,0,0-.33-1,1.14,1.14,0,0,0-.92-.38H83.77V12.7H85a2.11,2.11,0,0,1,1.1.27,1.74,1.74,0,0,1,.7.79A3,3,0,0,1,87,15v1.84a3,3,0,0,1-.24,1.25,1.69,1.69,0,0,1-.7.79,2,2,0,0,1-1.11.28H83.77Z"/><path class="cls-2" d="M89.51,12.7h.76v6.48h-.76Zm.39,3.1h1.72a.69.69,0,0,0,.43-.14.84.84,0,0,0,.29-.39,1.5,1.5,0,0,0,.1-.58,1.52,1.52,0,0,0-.1-.59.92.92,0,0,0-.29-.4.69.69,0,0,0-.43-.14H89.9V12.7h1.7a1.41,1.41,0,0,1,.84.25,1.5,1.5,0,0,1,.57.69,2.83,2.83,0,0,1,0,2.09,1.61,1.61,0,0,1-.57.69,1.48,1.48,0,0,1-.84.24H89.9Z"/><path class="cls-2" d="M93.78,12.69h.75v6.49h-.75Zm.33,2.88h1.83a.62.62,0,0,0,.38-.12.82.82,0,0,0,.26-.36,1.42,1.42,0,0,0,.09-.52,1.44,1.44,0,0,0-.09-.53.8.8,0,0,0-.25-.36.65.65,0,0,0-.39-.12H94.11v-.87h1.8a1.41,1.41,0,0,1,.82.24,1.47,1.47,0,0,1,.55.65,2.53,2.53,0,0,1,0,2,1.63,1.63,0,0,1-.55.66,1.51,1.51,0,0,1-.82.23h-1.8Zm1.46.67.75-.21,1.38,3.15h-.89Z"/><path class="cls-2" d="M99,19a1.86,1.86,0,0,1-.66-.84,3.06,3.06,0,0,1-.24-1.25V15a3,3,0,0,1,.24-1.25,1.86,1.86,0,0,1,.66-.84,1.7,1.7,0,0,1,1-.3,1.66,1.66,0,0,1,1,.3,2,2,0,0,1,.67.84,3.2,3.2,0,0,1,.23,1.25v1.84a3.24,3.24,0,0,1-.23,1.25A2,2,0,0,1,101,19a1.72,1.72,0,0,1-1,.29A1.77,1.77,0,0,1,99,19Zm1.58-.78a1.11,1.11,0,0,0,.39-.52,2,2,0,0,0,.14-.76V15a2,2,0,0,0-.14-.77,1.13,1.13,0,0,0-.39-.51,1.06,1.06,0,0,0-1.18,0,1.2,1.2,0,0,0-.39.51,2,2,0,0,0-.14.77v1.9a2,2,0,0,0,.14.76,1.17,1.17,0,0,0,.39.52,1.06,1.06,0,0,0,1.18,0Z"/><path class="cls-2" d="M102.63,12.7h.76v6.48h-.76Zm.51,5.61h1.22a1.15,1.15,0,0,0,.92-.37,1.54,1.54,0,0,0,.33-1.05V15a1.49,1.49,0,0,0-.33-1,1.16,1.16,0,0,0-.92-.38h-1.22V12.7h1.2a2.11,2.11,0,0,1,1.1.27,1.74,1.74,0,0,1,.7.79,3,3,0,0,1,.24,1.26v1.84a3,3,0,0,1-.24,1.25,1.69,1.69,0,0,1-.7.79,2.08,2.08,0,0,1-1.11.28h-1.19Z"/><path class="cls-2" d="M107.87,19a1.8,1.8,0,0,1-.65-.82,3.66,3.66,0,0,1-.22-1.31V12.7h.76v4.16a1.82,1.82,0,0,0,.29,1.1,1.1,1.1,0,0,0,1.68,0,1.76,1.76,0,0,0,.3-1.1V12.7h.75v4.13a3.46,3.46,0,0,1-.22,1.31,1.73,1.73,0,0,1-.65.82,2,2,0,0,1-2,0Z"/><path class="cls-2" d="M112.29,18.94a1.85,1.85,0,0,1-.65-.84,3.16,3.16,0,0,1-.24-1.27V15.05a3.16,3.16,0,0,1,.24-1.27,1.94,1.94,0,0,1,.65-.85,1.68,1.68,0,0,1,1-.3,1.58,1.58,0,0,1,.85.24,2,2,0,0,1,.65.67,2.93,2.93,0,0,1,.35,1h-.77a1.48,1.48,0,0,0-.24-.54,1.21,1.21,0,0,0-.38-.37.89.89,0,0,0-.46-.13.92.92,0,0,0-.58.19,1.3,1.3,0,0,0-.39.54,2.2,2.2,0,0,0-.13.8v1.78a2.2,2.2,0,0,0,.13.8,1.3,1.3,0,0,0,.39.54,1,1,0,0,0,.58.19,1,1,0,0,0,.46-.12,1.17,1.17,0,0,0,.38-.36,1.58,1.58,0,0,0,.24-.56h.77a2.88,2.88,0,0,1-.35,1,1.93,1.93,0,0,1-.66.67,1.55,1.55,0,0,1-.84.24A1.68,1.68,0,0,1,112.29,18.94Z"/><path class="cls-2" d="M115.08,12.7h3.8v.86h-3.8Zm1.53.53h.75v5.95h-.75Z"/><path class="cls-2" d="M27.22,101.26a2.27,2.27,0,0,1-.76-1,4.24,4.24,0,0,1-.26-1.54V96.54A4.24,4.24,0,0,1,26.46,95a2.27,2.27,0,0,1,.76-1,1.83,1.83,0,0,1,2.09-.08,2.27,2.27,0,0,1,.74.82,3.5,3.5,0,0,1,.41,1.23h-.89a1.77,1.77,0,0,0-.27-.66,1.46,1.46,0,0,0-.44-.45,1,1,0,0,0-.52-.15,1,1,0,0,0-.66.23,1.42,1.42,0,0,0-.44.65,2.69,2.69,0,0,0-.16,1v2.15a2.69,2.69,0,0,0,.16,1,1.42,1.42,0,0,0,.44.65,1,1,0,0,0,.66.23,1,1,0,0,0,.52-.15,1.2,1.2,0,0,0,.44-.43,1.8,1.8,0,0,0,.27-.68h.89a3.64,3.64,0,0,1-.41,1.23,2.46,2.46,0,0,1-.74.82,1.77,1.77,0,0,1-1,.28A1.81,1.81,0,0,1,27.22,101.26Z"/><path class="cls-2" d="M31.17,93.68H32v7.86h-.86Zm.53,3.47h3.42v1H31.7Zm3-3.47h.86v7.86h-.86Z"/><path class="cls-2" d="M38.2,93.68h.74l2.26,7.86h-.93l-1.7-6.34-1.7,6.34h-.94ZM37,98.77h3.24v1H37Z"/><path class="cls-2" d="M41.7,93.68h.86v7.86H41.7Zm.43,6.81h3.52v1.05H42.13Z"/><path class="cls-2" d="M47.1,101.54h-.87V93.68h.87Z"/><path class="cls-2" d="M49.08,101.26a2.18,2.18,0,0,1-.75-1,4,4,0,0,1-.27-1.54V96.54A4,4,0,0,1,48.33,95a2.18,2.18,0,0,1,.75-1,1.83,1.83,0,0,1,2.09-.08,2.19,2.19,0,0,1,.74.82,3.5,3.5,0,0,1,.41,1.23h-.89a1.94,1.94,0,0,0-.26-.66,1.61,1.61,0,0,0-.45-.45,1,1,0,0,0-1.18.08,1.42,1.42,0,0,0-.44.65,2.92,2.92,0,0,0-.16,1v2.15a2.92,2.92,0,0,0,.16,1,1.42,1.42,0,0,0,.44.65,1,1,0,0,0,1.19.08,1.38,1.38,0,0,0,.44-.43,2,2,0,0,0,.26-.68h.89a3.64,3.64,0,0,1-.41,1.23,2.46,2.46,0,0,1-.74.82,1.77,1.77,0,0,1-1,.28A1.81,1.81,0,0,1,49.08,101.26Z"/><path class="cls-2" d="M53,93.68h.86v7.86H53Zm.42,0H57v1H53.45Zm0,3.44h3.06v1H53.45Zm0,3.37H57v1.05H53.45Z"/><path class="cls-2" d="M60.55,101.26a2.32,2.32,0,0,1-.75-1,4.24,4.24,0,0,1-.26-1.54V96.54A4.24,4.24,0,0,1,59.8,95a2.32,2.32,0,0,1,.75-1,1.8,1.8,0,0,1,1.13-.37,1.78,1.78,0,0,1,1,.29,2.27,2.27,0,0,1,.74.82,3.5,3.5,0,0,1,.41,1.23h-.89a1.77,1.77,0,0,0-.27-.66,1.46,1.46,0,0,0-.44-.45,1,1,0,0,0-.52-.15,1,1,0,0,0-.66.23,1.42,1.42,0,0,0-.44.65,2.69,2.69,0,0,0-.16,1v2.15a2.69,2.69,0,0,0,.16,1,1.42,1.42,0,0,0,.44.65,1,1,0,0,0,.66.23,1,1,0,0,0,.52-.15,1.2,1.2,0,0,0,.44-.43,1.8,1.8,0,0,0,.27-.68h.89a3.64,3.64,0,0,1-.41,1.23,2.46,2.46,0,0,1-.74.82,1.77,1.77,0,0,1-1,.28A1.86,1.86,0,0,1,60.55,101.26Z"/><path class="cls-2" d="M65.32,101.27a2.35,2.35,0,0,1-.76-1,4,4,0,0,1-.27-1.52V96.5A3.93,3.93,0,0,1,64.56,95a2.29,2.29,0,0,1,.76-1,2,2,0,0,1,2.27,0,2.29,2.29,0,0,1,.76,1,3.93,3.93,0,0,1,.27,1.52v2.23a4,4,0,0,1-.27,1.52,2.35,2.35,0,0,1-.76,1,2,2,0,0,1-2.27,0Zm1.81-1a1.37,1.37,0,0,0,.44-.62,2.47,2.47,0,0,0,.16-.94v-2.3a2.45,2.45,0,0,0-.16-.93,1.32,1.32,0,0,0-.44-.62,1.09,1.09,0,0,0-.68-.22,1,1,0,0,0-.66.22,1.27,1.27,0,0,0-.45.62,2.45,2.45,0,0,0-.16.93v2.3a2.47,2.47,0,0,0,.16.94,1.32,1.32,0,0,0,.45.62,1.09,1.09,0,0,0,.66.22A1.15,1.15,0,0,0,67.13,100.32Z"/><path class="cls-2" d="M69.49,93.68h.87v7.86h-.87Zm.44,6.81h3.51v1.05H69.93Z"/><path class="cls-2" d="M74,93.68h.86v7.86H74Zm.43,6.81H78v1.05H74.46Z"/><path class="cls-2" d="M78.56,93.68h.86v7.86h-.86Zm.42,0h3.53v1H79Zm0,3.44H82v1H79Zm0,3.37h3.53v1.05H79Z"/><path class="cls-2" d="M84.19,101.26a2.32,2.32,0,0,1-.75-1,4,4,0,0,1-.26-1.54V96.54A4,4,0,0,1,83.44,95a2.32,2.32,0,0,1,.75-1,1.8,1.8,0,0,1,1.13-.37,1.78,1.78,0,0,1,1,.29,2.37,2.37,0,0,1,.74.82,3.49,3.49,0,0,1,.4,1.23h-.88a1.77,1.77,0,0,0-.27-.66,1.46,1.46,0,0,0-.44-.45,1,1,0,0,0-.52-.15,1,1,0,0,0-.66.23,1.42,1.42,0,0,0-.44.65,2.69,2.69,0,0,0-.16,1v2.15a2.69,2.69,0,0,0,.16,1,1.42,1.42,0,0,0,.44.65,1,1,0,0,0,1.18.08,1.2,1.2,0,0,0,.44-.43,1.8,1.8,0,0,0,.27-.68h.88a3.63,3.63,0,0,1-.4,1.23,2.38,2.38,0,0,1-.75.82,1.73,1.73,0,0,1-1,.28A1.86,1.86,0,0,1,84.19,101.26Z"/><path class="cls-2" d="M87.38,93.68h4.34v1H87.38Zm1.74.65H90v7.21h-.86Z"/><path class="cls-2" d="M93,101.54h-.87V93.68H93Z"/><path class="cls-2" d="M94.09,93.68h.85v7.86h-.85Zm.5,6.84h1.67a1.09,1.09,0,0,0,1.26-1.21v0a2,2,0,0,0-.11-.69.89.89,0,0,0-.34-.44,1.11,1.11,0,0,0-.6-.15H94.59V97h1.88a.89.89,0,0,0,.72-.28,1.32,1.32,0,0,0,.25-.85,1.24,1.24,0,0,0-.27-.88,1.07,1.07,0,0,0-.82-.3H94.59v-1h1.92a1.83,1.83,0,0,1,1,.26,1.53,1.53,0,0,1,.6.74,2.93,2.93,0,0,1,.2,1.13,2.09,2.09,0,0,1-.13.76,1.52,1.52,0,0,1-.37.61,1.31,1.31,0,0,1-.62.34,1.24,1.24,0,0,1,.64.33,1.68,1.68,0,0,1,.41.67,2.49,2.49,0,0,1,.15.87h0a2.85,2.85,0,0,1-.22,1.13,1.79,1.79,0,0,1-.63.75,1.71,1.71,0,0,1-1,.26h-2Z"/><path class="cls-2" d="M99.24,93.68h.87v7.86h-.87Zm.44,6.81h3.51v1.05H99.68Z"/><path class="cls-2" d="M103.78,93.68h.86v7.86h-.86Zm.42,0h3.53v1H104.2Zm0,3.44h3.06v1H104.2Zm0,3.37h3.53v1.05H104.2Z"/><path class="cls-2" d="M109.53,101.52a2.81,2.81,0,0,1-.75-.33,2.92,2.92,0,0,1-.64-.54l.54-.84a2.34,2.34,0,0,0,.77.58,2.17,2.17,0,0,0,.92.2,1.53,1.53,0,0,0,1-.32,1.1,1.1,0,0,0,.37-.89h0a1.14,1.14,0,0,0-.16-.65,1.1,1.1,0,0,0-.44-.36,3.25,3.25,0,0,0-.68-.21h0l-.07,0a5.79,5.79,0,0,1-1-.3,1.53,1.53,0,0,1-.66-.63,2.41,2.41,0,0,1-.28-1.28h0a2.77,2.77,0,0,1,.26-1.24,1.77,1.77,0,0,1,.74-.79,2.42,2.42,0,0,1,1.18-.27,2.37,2.37,0,0,1,.65.09,2.53,2.53,0,0,1,.63.28,3.54,3.54,0,0,1,.61.45l-.49.88a2.6,2.6,0,0,0-.7-.5,1.59,1.59,0,0,0-.7-.16,1.43,1.43,0,0,0-1,.32,1.19,1.19,0,0,0-.34.91h0a1,1,0,0,0,.18.64,1.07,1.07,0,0,0,.44.34,6.41,6.41,0,0,0,.75.23h.16a4.14,4.14,0,0,1,.93.34,1.56,1.56,0,0,1,.62.65,2.46,2.46,0,0,1,.26,1.22h0a2.6,2.6,0,0,1-.27,1.23,1.81,1.81,0,0,1-.77.78,2.58,2.58,0,0,1-1.22.26A3.22,3.22,0,0,1,109.53,101.52Z"/><path class="cls-2" d="M50.06,105.68h.86v7.86h-.86Zm.42,0H54v1H50.48Zm0,3.44h3.07v1H50.48Zm0,3.37H54v1.05H50.48Z"/><path class="cls-2" d="M56.27,109.05l1.54-3.37h1l-2,4.26-1.65,3.6h-1Zm0,1-.13-.27-2-4.14h1l1.48,3.2.14.3,2.1,4.36h-1Z"/><path class="cls-2" d="M59.92,113.26a2.32,2.32,0,0,1-.75-1,4,4,0,0,1-.26-1.54v-2.15a4,4,0,0,1,.26-1.54,2.32,2.32,0,0,1,.75-1,1.8,1.8,0,0,1,1.13-.37,1.78,1.78,0,0,1,1,.29,2.37,2.37,0,0,1,.74.82,3.49,3.49,0,0,1,.4,1.23h-.88a1.77,1.77,0,0,0-.27-.66,1.46,1.46,0,0,0-.44-.45,1,1,0,0,0-.52-.15,1,1,0,0,0-.66.23,1.42,1.42,0,0,0-.44.65,2.69,2.69,0,0,0-.16,1v2.15a2.69,2.69,0,0,0,.16,1,1.42,1.42,0,0,0,.44.65,1,1,0,0,0,.66.23,1,1,0,0,0,.52-.15A1.2,1.2,0,0,0,62,112a1.8,1.8,0,0,0,.27-.68h.88a3.63,3.63,0,0,1-.4,1.23,2.38,2.38,0,0,1-.75.82,1.71,1.71,0,0,1-1,.28A1.86,1.86,0,0,1,59.92,113.26Z"/><path class="cls-2" d="M63.87,105.68h.87v7.86h-.87Zm.44,6.81h3.51v1.05H64.31Z"/><path class="cls-2" d="M69.14,113.28a2.13,2.13,0,0,1-.73-1,4.35,4.35,0,0,1-.26-1.58v-5H69v5.06a2.31,2.31,0,0,0,.33,1.33,1.22,1.22,0,0,0,1.92,0,2.24,2.24,0,0,0,.34-1.33v-5.06h.86v5a4.37,4.37,0,0,1-.25,1.58,2.08,2.08,0,0,1-.74,1,2,2,0,0,1-1.17.34A2,2,0,0,1,69.14,113.28Z"/><path class="cls-2" d="M74.32,113.52a2.81,2.81,0,0,1-.75-.33,2.92,2.92,0,0,1-.64-.54l.54-.84a2.34,2.34,0,0,0,.77.58,2.17,2.17,0,0,0,.92.2,1.53,1.53,0,0,0,1-.32,1.1,1.1,0,0,0,.37-.89h0a1.14,1.14,0,0,0-.16-.65,1.1,1.1,0,0,0-.44-.36,3.25,3.25,0,0,0-.68-.21h0l-.07,0a5.79,5.79,0,0,1-1-.3,1.53,1.53,0,0,1-.66-.63,2.41,2.41,0,0,1-.28-1.28h0a2.77,2.77,0,0,1,.26-1.24,1.77,1.77,0,0,1,.74-.79,2.42,2.42,0,0,1,1.18-.27,2.37,2.37,0,0,1,.65.09,2.53,2.53,0,0,1,.63.28,3.54,3.54,0,0,1,.61.45l-.49.88a2.6,2.6,0,0,0-.7-.5,1.59,1.59,0,0,0-.7-.16,1.43,1.43,0,0,0-1,.32,1.19,1.19,0,0,0-.34.91h0a1,1,0,0,0,.18.64,1.07,1.07,0,0,0,.44.34,6.41,6.41,0,0,0,.75.23h.16a4.14,4.14,0,0,1,.93.34,1.56,1.56,0,0,1,.62.65,2.46,2.46,0,0,1,.26,1.22h0a2.6,2.6,0,0,1-.27,1.23,1.81,1.81,0,0,1-.77.78,2.58,2.58,0,0,1-1.22.26A3.22,3.22,0,0,1,74.32,113.52Z"/><path class="cls-2" d="M79,113.54h-.86v-7.86H79Z"/><path class="cls-2" d="M79.61,105.68h.94L82,111.85l1.47-6.17h.94l-2,7.86h-.82Z"/><path class="cls-2" d="M84.94,105.68h.86v7.86h-.86Zm.42,0h3.53v1H85.36Zm0,3.44h3.06v1H85.36Zm0,3.37h3.53v1.05H85.36Z"/><polygon class="cls-3" points="68.97 88.41 42.88 73.4 42.88 43.72 68.97 28.6 68.97 88.41"/><polygon class="cls-3" points="70.16 88.41 96.25 73.4 96.25 43.72 70.16 28.6 70.16 88.41"/><rect class="cls-1" x="52.54" y="46.88" width="37.61" height="23.68"/><polygon class="cls-2" points="61.67 70.06 56.01 66.7 56.01 51.43 61.67 48.13 61.67 55.64 68.97 55.64 68.97 35.47 48.65 46.14 48.65 71 68.97 81.71 68.97 62.29 61.67 62.29 61.67 70.06"/><polygon class="cls-2" points="90.15 55.64 90.15 46.14 70.16 35.47 70.16 81.71 90.15 71 90.15 62.29 83.26 62.29 83.26 66.36 77.01 70.57 77.01 47.48 83.26 51.67 83.26 55.64 90.15 55.64"/></g></g></svg>