<svg xmlns="http://www.w3.org/2000/svg" viewBox="0 0 199.32 76.28"><defs><style>.cls-1{fill:#057cc1;}.cls-2{fill:#fff;}.cls-3{fill:#fab621;}</style></defs><g id="Calque_2" data-name="Calque 2"><g id="Calque_8" data-name="Calque 8"><rect class="cls-1" width="199.32" height="76.28" rx="17.7"/><path class="cls-2" d="M105,14.3c0,3.74-2.27,5.73-5,5.73S95,17.8,95,14.51c0-3.45,2.14-5.71,5-5.71S105,11.08,105,14.3Zm-8.43.18c0,2.32,1.26,4.4,3.46,4.4s3.49-2.05,3.49-4.51c0-2.17-1.13-4.42-3.47-4.42S96.54,12.09,96.54,14.48Z"/><path class="cls-2" d="M106.75,14.16c0-.81,0-1.47-.06-2.12h1.25l.08,1.29h0a2.86,2.86,0,0,1,2.58-1.46c1.08,0,2.75.64,2.75,3.32v4.66H112v-4.5c0-1.26-.47-2.31-1.81-2.31a2,2,0,0,0-1.9,1.45,1.93,1.93,0,0,0-.1.67v4.69h-1.42Z"/><path class="cls-2" d="M115.7,8.4h1.42V19.85H115.7Z"/><path class="cls-2" d="M120,12l1.71,4.62c.17.51.37,1.12.5,1.59h0c.14-.47.31-1.06.5-1.63L124.32,12h1.5l-2.13,5.57c-1,2.67-1.71,4.05-2.68,4.88a3.73,3.73,0,0,1-1.74.92l-.36-1.19a3.76,3.76,0,0,0,1.25-.69A4.43,4.43,0,0,0,121.35,20a1.17,1.17,0,0,0,.11-.34,1.26,1.26,0,0,0-.09-.37L118.48,12Z"/><path class="cls-2" d="M134.85,19.85l-.11-1h-.05A2.92,2.92,0,0,1,132.3,20a2.22,2.22,0,0,1-2.38-2.25c0-1.88,1.67-2.91,4.69-2.9v-.16a1.61,1.61,0,0,0-1.77-1.81,4,4,0,0,0-2,.58l-.32-.93a4.85,4.85,0,0,1,2.57-.69c2.38,0,3,1.62,3,3.19V18a11.67,11.67,0,0,0,.13,1.87Zm-.21-4c-1.55,0-3.3.24-3.3,1.75A1.26,1.26,0,0,0,132.67,19a1.94,1.94,0,0,0,1.89-1.31,1.38,1.38,0,0,0,.08-.45Z"/><path class="cls-2" d="M140,9.8V12h2v1.08h-2v4.21c0,1,.27,1.52,1.06,1.52a3.09,3.09,0,0,0,.83-.1l.06,1.07a3.54,3.54,0,0,1-1.26.19,2,2,0,0,1-1.53-.6,2.9,2.9,0,0,1-.55-2V13.12h-1.21V12h1.21V10.17Z"/><path class="cls-2" d="M15,64.24a3.34,3.34,0,0,0,1.78.52c1,0,1.61-.55,1.61-1.36S18,62.22,17,61.8c-1.26-.46-2-1.14-2-2.27a2.25,2.25,0,0,1,2.48-2.18,3.39,3.39,0,0,1,1.7.39l-.27.85a3,3,0,0,0-1.46-.38c-1.05,0-1.45.65-1.45,1.2,0,.75.47,1.12,1.53,1.55,1.3.52,2,1.17,2,2.35s-.88,2.31-2.69,2.31a3.8,3.8,0,0,1-2-.51Z"/><path class="cls-2" d="M16.74,65.8a4,4,0,0,1-2.06-.54l-.11-.08L14.93,64l.2.13a3.23,3.23,0,0,0,1.68.5c.88,0,1.43-.46,1.43-1.19s-.35-1-1.34-1.43c-1.46-.54-2.14-1.32-2.14-2.44a2.42,2.42,0,0,1,2.66-2.36,3.42,3.42,0,0,1,1.79.42l.12.07L19,58.85l-.19-.11a2.82,2.82,0,0,0-1.37-.36c-.94,0-1.27.56-1.27,1s.34,1,1.42,1.38c1.45.59,2.07,1.34,2.07,2.52S18.86,65.8,16.74,65.8ZM15,65a3.9,3.9,0,0,0,1.75.42c1.53,0,2.51-.84,2.51-2.14,0-1-.53-1.66-1.85-2.19-1-.42-1.64-.83-1.64-1.71A1.44,1.44,0,0,1,17.39,58a3.17,3.17,0,0,1,1.35.3l.17-.5a3.28,3.28,0,0,0-1.49-.3,2.07,2.07,0,0,0-2.3,2c0,.95.6,1.62,1.91,2.11.94.37,1.56.81,1.56,1.76a1.57,1.57,0,0,1-1.78,1.54,3.49,3.49,0,0,1-1.67-.43Z"/><path class="cls-2" d="M24.52,65.5l-.08-.72h0a2,2,0,0,1-1.69.85A1.6,1.6,0,0,1,21,64c0-1.39,1.19-2.15,3.32-2.14v-.12a1.17,1.17,0,0,0-1.25-1.34,2.68,2.68,0,0,0-1.44.43l-.23-.69a3.34,3.34,0,0,1,1.82-.51c1.68,0,2.09,1.2,2.09,2.36v2.15a9.49,9.49,0,0,0,.09,1.38Zm-.15-2.94c-1.09,0-2.33.18-2.33,1.3a.9.9,0,0,0,.94,1,1.39,1.39,0,0,0,1.34-1,1.33,1.33,0,0,0,.05-.34Z"/><path class="cls-2" d="M22.72,65.81A1.79,1.79,0,0,1,20.86,64a2,2,0,0,1,.57-1.46,3.91,3.91,0,0,1,2.74-.86c0-.74-.37-1.1-1.07-1.1a2.48,2.48,0,0,0-1.34.4l-.19.13-.35-1,.11-.07a3.47,3.47,0,0,1,1.92-.55c1.46,0,2.27.9,2.27,2.54v2.15a8.09,8.09,0,0,0,.09,1.35l0,.21H24.36l-.05-.51A2.24,2.24,0,0,1,22.72,65.81ZM24.3,62a3.71,3.71,0,0,0-2.62.77,1.63,1.63,0,0,0-.47,1.2,1.43,1.43,0,0,0,1.51,1.48,1.87,1.87,0,0,0,1.54-.78l0-.08h.26l.05.16.06.57h.55a10.25,10.25,0,0,1-.06-1.21V62c0-1.45-.65-2.18-1.92-2.18a3.26,3.26,0,0,0-1.61.41l.12.35a2.84,2.84,0,0,1,1.34-.34,1.33,1.33,0,0,1,1.43,1.51V62H24.3ZM23,65a1.08,1.08,0,0,1-1.12-1.18,1.22,1.22,0,0,1,.37-.92,2.88,2.88,0,0,1,2.15-.55h.17v1.17a1.33,1.33,0,0,1-.06.39A1.58,1.58,0,0,1,23,65Zm1.22-2.3a2.51,2.51,0,0,0-1.73.45.92.92,0,0,0-.26.67.73.73,0,0,0,.77.82,1.21,1.21,0,0,0,1.17-.84,1,1,0,0,0,.05-.28Z"/><path class="cls-2" d="M27.94,59.74,29,63c.18.52.33,1,.45,1.47h0c.13-.47.29-1,.47-1.47L31,59.74h1.05L29.92,65.5H29l-2.1-5.76Z"/><path class="cls-2" d="M30.05,65.68H28.84l-2.23-6.11h1.46l1.12,3.35q.18.51.3.93c.09-.29.19-.59.31-.93l1.11-3.35h1.43Zm-1-.35h.71l2-5.41h-.66l-1,3.11c-.2.56-.35,1-.47,1.47l0,.13h-.28l-.07-.13A13.24,13.24,0,0,0,28.85,63l-1-3.12h-.69Z"/><path class="cls-2" d="M34.16,62.81a1.8,1.8,0,0,0,1.89,2,3.46,3.46,0,0,0,1.53-.3l.17.75a4.23,4.23,0,0,1-1.83.36,2.63,2.63,0,0,1-2.72-2.9c0-1.74,1-3.11,2.59-3.11,1.8,0,2.28,1.66,2.28,2.72a4.45,4.45,0,0,1,0,.48Zm2.94-.75c0-.66-.26-1.7-1.39-1.7s-1.46,1-1.54,1.7Z"/><path class="cls-2" d="M35.92,65.8A2.8,2.8,0,0,1,33,62.72c0-1.94,1.13-3.29,2.76-3.29,1.81,0,2.46,1.56,2.46,2.9,0,.18,0,.34,0,.45l0,.21H34.35a1.6,1.6,0,0,0,1.7,1.65,3.25,3.25,0,0,0,1.46-.29l.19-.08L38,65.36l-.12.06A4.31,4.31,0,0,1,35.92,65.8Zm-.13-6c-1.42,0-2.41,1.2-2.41,2.93a2.45,2.45,0,0,0,2.54,2.73,4.31,4.31,0,0,0,1.63-.29l-.1-.4a3.83,3.83,0,0,1-1.4.23A2,2,0,0,1,34,62.82v-.18h3.9c0-.09,0-.19,0-.31S37.83,59.79,35.79,59.79Zm1.49,2.45H34l0-.2a1.86,1.86,0,0,1,1.71-1.86,1.4,1.4,0,0,1,1.06.42,2.13,2.13,0,0,1,.51,1.47Zm-2.9-.35h2.54a1.69,1.69,0,0,0-.4-1,1.06,1.06,0,0,0-.81-.31A1.46,1.46,0,0,0,34.38,61.89Z"/><path class="cls-2" d="M43.09,61.3c0-.59,0-1.08,0-1.56h.87l0,.93h0a1.91,1.91,0,0,1,1.74-1.06,1.64,1.64,0,0,1,1.56,1.16h0a2.15,2.15,0,0,1,.62-.75,1.78,1.78,0,0,1,1.22-.41c.73,0,1.81.5,1.81,2.5V65.5H50V62.24c0-1.11-.39-1.77-1.2-1.77a1.3,1.3,0,0,0-1.18,1,1.62,1.62,0,0,0-.08.52V65.5h-1V62.05c0-.92-.39-1.58-1.15-1.58a1.39,1.39,0,0,0-1.25,1.05,1.65,1.65,0,0,0-.08.51V65.5h-1Z"/><path class="cls-2" d="M51.15,65.68H49.81V62.24c0-.73-.18-1.59-1-1.59a1.14,1.14,0,0,0-1,.83,1.77,1.77,0,0,0-.07.46v3.74H46.37V62.05c0-.33-.07-1.4-1-1.4a1.22,1.22,0,0,0-1.08.92,1.27,1.27,0,0,0-.07.46v3.65H42.92V61.3c0-.64,0-1.11-.05-1.55v-.18h1.23l0,.61a2,2,0,0,1,1.62-.75,1.77,1.77,0,0,1,1.59,1,2.31,2.31,0,0,1,.5-.53,2,2,0,0,1,1.33-.45c.33,0,2,.13,2,2.68Zm-1-.35h.62V62.11c0-1.71-.84-2.32-1.63-2.32a1.62,1.62,0,0,0-1.11.37,2,2,0,0,0-.57.69l0,.09H47.2l-.07-.12a1.46,1.46,0,0,0-1.39-1,1.71,1.71,0,0,0-1.58,1l0,.09h-.27l-.05-.17,0-.76h-.52c0,.39,0,.82,0,1.38v4h.63V62a1.72,1.72,0,0,1,.09-.58,1.54,1.54,0,0,1,1.41-1.16c.81,0,1.32.68,1.32,1.76v3.28h.63V61.94a1.79,1.79,0,0,1,.09-.57,1.48,1.48,0,0,1,1.35-1.08c.52,0,1.38.25,1.38,2Z"/><path class="cls-2" d="M58.27,62.58a2.76,2.76,0,0,1-2.75,3,2.69,2.69,0,0,1-2.64-3,2.76,2.76,0,0,1,2.74-3.06A2.68,2.68,0,0,1,58.27,62.58Zm-4.37.05c0,1.27.69,2.22,1.67,2.22s1.68-.94,1.68-2.24c0-1-.47-2.21-1.66-2.21S53.9,61.54,53.9,62.63Z"/><path class="cls-2" d="M55.52,65.81a2.86,2.86,0,0,1-2.82-3.14,3,3,0,0,1,2.92-3.24,2.88,2.88,0,0,1,2.83,3.15A3,3,0,0,1,55.52,65.81Zm.1-6a2.59,2.59,0,0,0-2.56,2.88,2.53,2.53,0,0,0,2.46,2.79,2.58,2.58,0,0,0,2.57-2.88A2.5,2.5,0,0,0,55.62,59.79Zm0,5.24c-1.07,0-1.85-1-1.85-2.4,0-1.2.58-2.41,1.87-2.41s1.83,1.24,1.83,2.39C57.42,64,56.64,65,55.57,65Zm0-4.46c-1.05,0-1.52,1-1.52,2.06,0,1.18.63,2,1.5,2s1.5-.87,1.5-2.06C57.07,61.91,56.76,60.57,55.59,60.57Z"/><path class="cls-2" d="M60.22,61.3c0-.59,0-1.08,0-1.56h.89l.06.95h0A2,2,0,0,1,63,59.61c.77,0,1.95.48,1.95,2.45V65.5h-1V62.18c0-.93-.33-1.7-1.28-1.7a1.43,1.43,0,0,0-1.34,1.07,1.45,1.45,0,0,0-.07.49V65.5h-1Z"/><path class="cls-2" d="M65.09,65.68H63.73v-3.5c0-.69-.19-1.52-1.1-1.52a1.25,1.25,0,0,0-1.17.94,1.42,1.42,0,0,0-.06.44v3.64H60V61.3c0-.64,0-1.11,0-1.55l0-.18h1.25l0,.62A2.18,2.18,0,0,1,63,59.43c1,0,2.13.69,2.13,2.63Zm-1-.35h.65V62.06c0-1.67-.92-2.27-1.78-2.27a1.84,1.84,0,0,0-1.66,1l0,.1H61l0-.17,0-.78h-.53c0,.39,0,.82,0,1.38v4H61V62a1.77,1.77,0,0,1,.08-.55,1.6,1.6,0,0,1,1.51-1.19c.93,0,1.46.69,1.46,1.88Z"/><path class="cls-2" d="M67.78,62.81a1.81,1.81,0,0,0,1.9,2,3.41,3.41,0,0,0,1.52-.3l.17.75a4.2,4.2,0,0,1-1.83.36,2.62,2.62,0,0,1-2.71-2.9c0-1.74,1-3.11,2.58-3.11,1.8,0,2.28,1.66,2.28,2.72a4.45,4.45,0,0,1,0,.48Zm2.94-.75a1.47,1.47,0,0,0-1.39-1.7c-1,0-1.45,1-1.53,1.7Z"/><path class="cls-2" d="M69.54,65.8a2.8,2.8,0,0,1-2.89-3.08c0-1.94,1.14-3.29,2.76-3.29,1.82,0,2.46,1.56,2.46,2.9,0,.18,0,.34,0,.45l0,.21H68a1.61,1.61,0,0,0,1.71,1.65,3.2,3.2,0,0,0,1.45-.29l.2-.08.25,1.09-.13.06A4.31,4.31,0,0,1,69.54,65.8Zm-.13-6C68,59.79,67,61,67,62.72a2.45,2.45,0,0,0,2.54,2.73,4.23,4.23,0,0,0,1.63-.29l-.09-.4a3.92,3.92,0,0,1-1.4.23,2,2,0,0,1-2.07-2.17v-.18h3.9a2.69,2.69,0,0,0,0-.31C71.52,62.07,71.46,59.79,69.41,59.79Zm1.49,2.45H67.6l0-.2a1.86,1.86,0,0,1,1.71-1.86,1.42,1.42,0,0,1,1.07.42,2.07,2.07,0,0,1,.5,1.47ZM68,61.89h2.54a1.61,1.61,0,0,0-.39-1,1.1,1.1,0,0,0-.82-.31C68.49,60.54,68.12,61.31,68,61.89Z"/><path class="cls-2" d="M74,59.74l1.21,3.41c.13.38.26.83.35,1.17h0c.1-.34.21-.78.35-1.2L77,59.74h1.06l-1.5,4.11c-.72,2-1.21,3-1.89,3.6a2.54,2.54,0,0,1-1.23.68l-.25-.88a2.51,2.51,0,0,0,.87-.51,3.13,3.13,0,0,0,.85-1.17.87.87,0,0,0,.08-.25,1.18,1.18,0,0,0-.07-.27l-2-5.31Z"/><path class="cls-2" d="M73.32,68.34,73,67.14l.16-.06a2.51,2.51,0,0,0,.82-.47,3.15,3.15,0,0,0,.79-1.11.6.6,0,0,0,.07-.18,1,1,0,0,0-.06-.21l-2.13-5.54h1.48l1.25,3.52c.06.2.13.42.2.63.06-.21.12-.44.19-.65l1.14-3.5h1.44l-1.59,4.34a9.31,9.31,0,0,1-1.94,3.68,2.81,2.81,0,0,1-1.32.72Zm.09-1,.16.56a2.83,2.83,0,0,0,1-.59c.62-.57,1.09-1.46,1.84-3.54l1.42-3.87h-.68l-1,3.26c-.09.27-.17.55-.24.81l-.11.38,0,.13h-.27l-.06-.13c-.08-.32-.22-.77-.35-1.17l-1.16-3.28h-.71L75.09,65a.9.9,0,0,1,.08.33.74.74,0,0,1-.09.32,3.3,3.3,0,0,1-.89,1.24A2.57,2.57,0,0,1,73.41,67.36Z"/><path class="cls-2" d="M79,64.88a.69.69,0,0,1,.69-.75.75.75,0,0,1,0,1.5A.69.69,0,0,1,79,64.88Z"/><path class="cls-2" d="M79.66,65.81a.93.93,0,1,1,.86-.93A.86.86,0,0,1,79.66,65.81Zm0-1.5a.51.51,0,0,0-.51.57.52.52,0,0,0,.5.58.58.58,0,0,0,0-1.15Z"/><path class="cls-2" d="M85.4,57.48h1v7.15h3.28v.87H85.4Z"/><path class="cls-2" d="M89.85,65.68H85.22V57.3h1.35v7.16h3.28Zm-4.27-.35H89.5v-.52H86.21V57.66h-.63Z"/><path class="cls-2" d="M92.54,58.12a.62.62,0,1,1-1.24,0,.62.62,0,0,1,.63-.65A.6.6,0,0,1,92.54,58.12ZM91.43,65.5V59.74h1V65.5Z"/><path class="cls-2" d="M92.61,65.68H91.25V59.57h1.36Zm-1-.35h.65V59.92H91.6Zm.3-6.39a.78.78,0,0,1-.78-.82.81.81,0,0,1,.81-.83.78.78,0,0,1,.79.83.75.75,0,0,1-.22.58A.8.8,0,0,1,91.9,58.94Zm0-1.29a.45.45,0,0,0-.45.47.44.44,0,0,0,.42.47.48.48,0,0,0,.35-.13.46.46,0,0,0,.12-.33h0A.44.44,0,0,0,91.93,57.65Z"/><path class="cls-2" d="M95.16,59.74,96.25,63a14.88,14.88,0,0,1,.44,1.47h0c.13-.47.29-1,.47-1.47l1.07-3.24h1L97.15,65.5h-1l-2.1-5.76Z"/><path class="cls-2" d="M97.27,65.68h-1.2l-2.23-6.11h1.45l1.12,3.35q.18.51.3.93c.09-.29.2-.59.31-.93l1.12-3.35h1.43Zm-1-.35H97l2-5.41h-.67l-1,3.11c-.19.56-.34,1-.46,1.47l0,.13h-.27l-.07-.13c-.1-.43-.25-.9-.44-1.46l-1-3.12h-.7Z"/><path class="cls-2" d="M101.38,62.81a1.81,1.81,0,0,0,1.9,2,3.41,3.41,0,0,0,1.52-.3l.17.75a4.2,4.2,0,0,1-1.83.36,2.62,2.62,0,0,1-2.71-2.9c0-1.74,1-3.11,2.58-3.11,1.81,0,2.28,1.66,2.28,2.72a4.45,4.45,0,0,1,0,.48Zm3-.75a1.48,1.48,0,0,0-1.4-1.7c-1,0-1.45,1-1.53,1.7Z"/><path class="cls-2" d="M103.14,65.8a2.8,2.8,0,0,1-2.89-3.08c0-1.94,1.14-3.29,2.76-3.29,1.82,0,2.46,1.56,2.46,2.9a4.59,4.59,0,0,1,0,.46l0,.16-.16,0h-3.69a1.61,1.61,0,0,0,1.71,1.65,3.2,3.2,0,0,0,1.45-.29l.2-.08.25,1.09-.13.06A4.31,4.31,0,0,1,103.14,65.8Zm-.13-6c-1.41,0-2.41,1.2-2.41,2.93a2.45,2.45,0,0,0,2.54,2.73,4.27,4.27,0,0,0,1.63-.29l-.09-.4a3.92,3.92,0,0,1-1.4.23,2,2,0,0,1-2.07-2.17v-.18h3.9a3,3,0,0,0,0-.31C105.12,62.07,105.06,59.79,103,59.79Zm1.49,2.45h-3.3l0-.2a1.86,1.86,0,0,1,1.71-1.86,1.42,1.42,0,0,1,1.07.42,2.07,2.07,0,0,1,.5,1.47Zm-2.9-.35h2.54a1.59,1.59,0,0,0-.39-1,1.1,1.1,0,0,0-.82-.31C102.09,60.54,101.72,61.31,101.6,61.89Z"/><path class="cls-2" d="M110.27,65.5c0-.39,0-1,0-1.48v-7h1v3.62h0a2,2,0,0,1,1.88-1.06c1.37,0,2.34,1.19,2.33,2.94,0,2.06-1.24,3.08-2.48,3.08a2,2,0,0,1-1.84-1.08h0l0,1Zm1-2.31a2.34,2.34,0,0,0,0,.39,1.57,1.57,0,0,0,1.51,1.22c1,0,1.67-.89,1.67-2.21,0-1.16-.57-2.15-1.64-2.15a1.61,1.61,0,0,0-1.52,1.29,1.71,1.71,0,0,0-.06.43Z"/><path class="cls-2" d="M113.06,65.81a2.12,2.12,0,0,1-1.72-.76l0,.63h-1.23v-.19c0-.37,0-.95,0-1.47V56.88h1.35v3.27a2.22,2.22,0,0,1,1.72-.72,2.28,2.28,0,0,1,1.64.68,3.39,3.39,0,0,1,.86,2.44C115.71,64.79,114.34,65.81,113.06,65.81Zm-2-1.44h.28l.08.1a1.78,1.78,0,0,0,1.69,1c1.11,0,2.3-.91,2.3-2.91a3.05,3.05,0,0,0-.76-2.19,1.94,1.94,0,0,0-1.39-.57,1.85,1.85,0,0,0-1.72,1l0,.09h-.29l0-.18V57.23h-.64V64c0,.45,0,.94,0,1.31H111Zm1.85.61a1.73,1.73,0,0,1-1.68-1.36,3,3,0,0,1-.05-.43v-1a2.18,2.18,0,0,1,.05-.41v0a1.79,1.79,0,0,1,1.7-1.43c1.09,0,1.82.93,1.82,2.32S114,65,112.86,65Zm0-4.36a1.43,1.43,0,0,0-1.35,1.15v0a1.67,1.67,0,0,0,0,.34v1a2,2,0,0,0,0,.35,1.38,1.38,0,0,0,1.33,1.08c.92,0,1.5-.78,1.5-2C114.36,61.61,113.9,60.62,112.89,60.62Z"/><path class="cls-2" d="M118,62.81a1.8,1.8,0,0,0,1.89,2,3.43,3.43,0,0,0,1.53-.3l.17.75a4.23,4.23,0,0,1-1.83.36,2.62,2.62,0,0,1-2.71-2.9c0-1.74,1-3.11,2.58-3.11,1.8,0,2.28,1.66,2.28,2.72a4.45,4.45,0,0,1,0,.48Zm2.94-.75c0-.66-.26-1.7-1.39-1.7s-1.46,1-1.54,1.7Z"/><path class="cls-2" d="M119.8,65.8a2.8,2.8,0,0,1-2.89-3.08c0-1.94,1.13-3.29,2.76-3.29,1.82,0,2.46,1.56,2.46,2.9a4.59,4.59,0,0,1,0,.46l0,.16-.16,0h-3.69a1.6,1.6,0,0,0,1.7,1.65,3.25,3.25,0,0,0,1.46-.29l.2-.08.25,1.09-.13.06A4.31,4.31,0,0,1,119.8,65.8Zm-.13-6c-1.42,0-2.41,1.2-2.41,2.93a2.45,2.45,0,0,0,2.54,2.73,4.27,4.27,0,0,0,1.63-.29l-.09-.4a3.94,3.94,0,0,1-1.41.23,2,2,0,0,1-2.06-2.17v-.18h3.9c0-.1,0-.2,0-.31S121.71,59.79,119.67,59.79Zm1.49,2.45h-3.3l0-.2a1.86,1.86,0,0,1,1.71-1.86,1.42,1.42,0,0,1,1.07.42,2.12,2.12,0,0,1,.5,1.47Zm-2.9-.35h2.54a1.63,1.63,0,0,0-.4-1,1.06,1.06,0,0,0-.81-.31C118.75,60.54,118.38,61.31,118.26,61.89Z"/><path class="cls-2" d="M125.08,58.09v1.65h1.44v.8h-1.44v3.11c0,.71.2,1.11.76,1.11a2,2,0,0,0,.58-.07l0,.79a2.42,2.42,0,0,1-.89.14,1.35,1.35,0,0,1-1.08-.44,2.23,2.23,0,0,1-.39-1.5V60.54h-.85v-.8h.85V58.36Z"/><path class="cls-2" d="M125.57,65.8a1.57,1.57,0,0,1-1.22-.5,2.37,2.37,0,0,1-.42-1.62v-3h-.86V59.57h.86V58.23l1.33-.38v1.72h1.44v1.15h-1.44v2.93c0,.82.28.94.58.94a1.86,1.86,0,0,0,.53-.07l.21-.06.07,1.13-.12,0A2.52,2.52,0,0,1,125.57,65.8Zm-2.15-5.44h.86v3.32a2,2,0,0,0,.34,1.38,1.2,1.2,0,0,0,.95.39,2.86,2.86,0,0,0,.71-.09l0-.45a2.37,2.37,0,0,1-.41,0c-.93,0-.93-1-.93-1.29V60.36h1.43v-.44h-1.43v-1.6l-.63.18v1.42h-.86Z"/><path class="cls-2" d="M129.54,58.09v1.65H131v.8h-1.43v3.11c0,.71.19,1.11.75,1.11a2,2,0,0,0,.58-.07l0,.79a2.46,2.46,0,0,1-.89.14,1.32,1.32,0,0,1-1.08-.44,2.17,2.17,0,0,1-.39-1.5V60.54h-.86v-.8h.86V58.36Z"/><path class="cls-2" d="M130,65.8a1.57,1.57,0,0,1-1.22-.5,2.37,2.37,0,0,1-.43-1.62v-3h-.85V59.57h.85V58.23l1.33-.38v1.72h1.44v1.15h-1.44v2.93c0,.82.28.94.58.94a1.8,1.8,0,0,0,.53-.07l.22-.06.06,1.13-.11,0A2.6,2.6,0,0,1,130,65.8Zm-2.15-5.44h.85v3.32a2,2,0,0,0,.35,1.38,1.2,1.2,0,0,0,.95.39,2.71,2.71,0,0,0,.7-.09l0-.45a2.42,2.42,0,0,1-.42,0c-.93,0-.93-1-.93-1.29V60.36h1.44v-.44h-1.44v-1.6l-.63.18v1.42h-.85Z"/><path class="cls-2" d="M133.28,62.81a1.8,1.8,0,0,0,1.89,2,3.46,3.46,0,0,0,1.53-.3l.17.75a4.29,4.29,0,0,1-1.84.36,2.62,2.62,0,0,1-2.71-2.9c0-1.74,1-3.11,2.59-3.11,1.8,0,2.27,1.66,2.27,2.72a4.45,4.45,0,0,1,0,.48Zm2.94-.75c0-.66-.27-1.7-1.39-1.7s-1.46,1-1.54,1.7Z"/><path class="cls-2" d="M135,65.8a2.8,2.8,0,0,1-2.89-3.08c0-1.94,1.14-3.29,2.77-3.29,1.81,0,2.45,1.56,2.45,2.9a4.59,4.59,0,0,1,0,.46l0,.16-.16,0h-3.69a1.61,1.61,0,0,0,1.71,1.65,3.2,3.2,0,0,0,1.45-.29l.2-.08.25,1.09-.13.06A4.27,4.27,0,0,1,135,65.8Zm-.12-6c-1.42,0-2.41,1.2-2.41,2.93A2.45,2.45,0,0,0,135,65.45a4.23,4.23,0,0,0,1.63-.29l-.09-.4a3.92,3.92,0,0,1-1.4.23,2,2,0,0,1-2.07-2.17v-.18H137a3,3,0,0,0,0-.31C137,62.07,137,59.79,134.91,59.79Zm1.48,2.45h-3.3l0-.2a1.87,1.87,0,0,1,1.72-1.86,1.42,1.42,0,0,1,1.06.42,2.07,2.07,0,0,1,.5,1.47Zm-2.9-.35H136a1.61,1.61,0,0,0-.39-1,1.08,1.08,0,0,0-.81-.31C134,60.54,133.61,61.31,133.49,61.89Z"/><path class="cls-2" d="M139.11,61.54c0-.68,0-1.26-.05-1.8h.88l0,1.13H140a1.68,1.68,0,0,1,1.53-1.26.82.82,0,0,1,.28,0v1a1.65,1.65,0,0,0-.34,0,1.42,1.42,0,0,0-1.34,1.34,2.46,2.46,0,0,0-.05.49V65.5h-1Z"/><path class="cls-2" d="M140.28,65.68h-1.35V61.54c0-.74,0-1.29,0-1.79l0-.18h1.24l0,.67a1.73,1.73,0,0,1,1.42-.81,1.2,1.2,0,0,1,.33,0l.13,0v1.35l-.22,0a1.32,1.32,0,0,0-.3,0c-.59,0-1,.46-1.17,1.19a3.42,3.42,0,0,0,0,.46Zm-1-.35h.63v-2.9a4,4,0,0,1,.05-.51,1.61,1.61,0,0,1,1.52-1.5h.17v-.64h-.11a1.5,1.5,0,0,0-1.36,1.14l0,.12h-.35l0-1.13h-.52c0,.45,0,1,0,1.62Z"/><path class="cls-2" d="M142.67,64.88a.69.69,0,0,1,.69-.75.75.75,0,0,1,0,1.5A.69.69,0,0,1,142.67,64.88Z"/><path class="cls-2" d="M143.35,65.81a.93.93,0,1,1,.86-.93A.86.86,0,0,1,143.35,65.81Zm0-1.5a.52.52,0,0,0-.51.57.52.52,0,0,0,.5.58c.31,0,.5-.23.5-.58A.5.5,0,0,0,143.36,64.31Z"/><path class="cls-2" d="M116.25,40.58c0-4.27-1.83-8-8-8a14.61,14.61,0,0,0-7.06,1.69l1,3.44a10.43,10.43,0,0,1,5.16-1.45c3.14,0,3.65,1.77,3.65,2.91v.28c-6.84,0-11.16,2.35-11.16,7.16a5.69,5.69,0,0,0,6,5.7,6.9,6.9,0,0,0,5.5-2.43h.12s.77,3.26,5.08,2a28.29,28.29,0,0,1-.3-4.55Zm-5.1,4.52a3.37,3.37,0,0,1-.13,1,3.59,3.59,0,0,1-3.45,2.42A2.33,2.33,0,0,1,105,46c0-2.59,2.86-3.31,6.12-3.29"/><path class="cls-2" d="M11.52,26.71S16,45,16.7,48c.83,3.46,2.33,4.74,6.66,3.89L26.15,40.5a77.1,77.1,0,0,0,1.64-7.68h.08a75.33,75.33,0,0,0,1.35,7.69s1.14,5.15,1.73,7.85,2.2,4.4,6.44,3.48L44,26.71H38.67L36.39,37.58c-.61,3.15-1.16,5.63-1.58,8.52h-.08c-.39-2.86-.87-5.24-1.5-8.32L30.86,26.71h-5.6L22.74,37.49c-.72,3.3-1.39,5.94-1.81,8.73h-.08c-.43-2.62-1-6-1.65-9.13,0,0-1.5-7.72-2-10.38"/><path class="cls-2" d="M59,40.58c0-4.27-1.83-8-8-8a14.61,14.61,0,0,0-7.06,1.69l1,3.44a10.37,10.37,0,0,1,5.16-1.45c3.14,0,3.65,1.77,3.65,2.91v.28c-6.84,0-11.17,2.35-11.17,7.16a5.7,5.7,0,0,0,6,5.7,6.87,6.87,0,0,0,5.5-2.43h.12s.79,3.26,5.09,2a28.29,28.29,0,0,1-.3-4.55Zm-5.1,4.52a3.37,3.37,0,0,1-.13,1,3.6,3.6,0,0,1-3.45,2.42A2.34,2.34,0,0,1,47.76,46c0-2.59,2.86-3.31,6.13-3.29"/><polygon class="cls-2" points="61.78 26.71 61.78 51.83 66.89 51.83 66.89 46.5 66.89 26.71 61.78 26.71"/><path class="cls-2" d="M131.93,26.71V45.25c0,2.55.48,4.34,1.51,5.43a5.7,5.7,0,0,0,4.16,1.58,12.58,12.58,0,0,0,3.71-.54l-.06-4a8.39,8.39,0,0,1-1.95.22c-1.74,0-2.32-1.1-2.32-3.4v-7.1h4.45v-4.8H137V26.71"/><path class="cls-2" d="M118.73,33V51.84H124V42.17a7.21,7.21,0,0,1,.11-1.38,4,4,0,0,1,4.17-3.33,9.28,9.28,0,0,1,1.52.14v-5a5.76,5.76,0,0,0-1.15-.11,5.56,5.56,0,0,0-5.16,4h-.13V33"/><path class="cls-2" d="M69.85,33V51.84H75V40.76a4.38,4.38,0,0,1,.24-1.53,3.46,3.46,0,0,1,3.12-2.42c2.07,0,3,1.75,3,4.27V51.84h5.13V40.63a5.15,5.15,0,0,1,.22-1.53,3.21,3.21,0,0,1,3.09-2.29c2.09,0,3.1,1.71,3.1,4.68V51.84h5.13V40.71c0-5.85-3-8.17-6.35-8.17a6.86,6.86,0,0,0-3.73,1,8,8,0,0,0-2.39,2.35h-.08a5.39,5.39,0,0,0-5.21-3.37,5.93,5.93,0,0,0-5.5,3h-.08V33"/><path class="cls-3" d="M169.06,32.12a1.87,1.87,0,0,0,2-1.21l1-11.33c0-1.12-1.32-2-3-2s-3,.92-3,2l1,11.33a1.86,1.86,0,0,0,2,1.21"/><path class="cls-3" d="M162.93,35.66a1.85,1.85,0,0,0-.07-2.3l-9.34-6.54c-1-.56-2.43.11-3.26,1.54s-.66,3,.29,3.59l10.34,4.79a1.85,1.85,0,0,0,2-1.09"/><path class="cls-3" d="M175.2,35.65a1.89,1.89,0,0,0,2,1.1L187.58,32c1-.57,1.1-2.16.29-3.58s-2.29-2.1-3.26-1.55l-9.34,6.53a1.89,1.89,0,0,0-.06,2.31"/><path class="cls-3" d="M169.06,46.27a1.87,1.87,0,0,1,2,1.2l1,11.34c0,1.12-1.32,2-3,2s-3-.91-3-2l1-11.34a1.87,1.87,0,0,1,2-1.2"/><path class="cls-3" d="M175.2,42.73c.53-.87,1.4-1.34,2-1.09l10.34,4.8c1,.56,1.1,2.16.29,3.59s-2.29,2.09-3.26,1.53L175.27,45a1.88,1.88,0,0,1-.06-2.3"/><path class="cls-3" d="M162.93,42.73a1.85,1.85,0,0,1-.07,2.3l-9.34,6.52c-1,.57-2.43-.11-3.26-1.53s-.66-3,.29-3.58l10.34-4.8a1.85,1.85,0,0,1,2,1.09"/><path class="cls-3" d="M190.61,50.57h.12c.18,0,.25,0,.27.19a1.55,1.55,0,0,0,.09.31h.34a.63.63,0,0,1-.09-.32.35.35,0,0,0-.25-.29v0a.31.31,0,0,0,.27-.29.43.43,0,0,0-.11-.28,1,1,0,0,0-.46-.09,2.87,2.87,0,0,0-.48,0v1.26h.3Zm0-.57.15,0c.18,0,.28.08.28.19s-.13.19-.3.19h-.13Zm.19-.85a1.27,1.27,0,1,0,1.29,1.26,1.26,1.26,0,0,0-1.29-1.26m0,.25a1,1,0,0,1,0,2,1,1,0,0,1-1-1,1,1,0,0,1,1-1"/></g></g></svg>