<svg xmlns="http://www.w3.org/2000/svg" viewBox="0 0 99.72 101.82"><defs><style>.cls-1{fill:#366db4;}.cls-2,.cls-3{fill:#fff;}.cls-3{stroke:#fff;stroke-miterlimit:10;stroke-width:0.85px;}</style></defs><g id="Calque_2" data-name="Calque 2"><g id="Calque_12_-_copie" data-name="Calque 12 - copie"><rect class="cls-1" width="99.72" height="101.82" rx="7.05"/><rect class="cls-2" x="22.68" y="17.7" width="54.08" height="54.08" rx="5.73"/><polygon class="cls-2" points="5.8 13.88 13.2 13.88 13.2 12.23 8.78 12.23 8.78 10.17 12.29 10.17 12.29 8.52 8.78 8.52 8.78 6.82 13.2 6.82 13.2 5.17 5.8 5.17 5.8 13.88"/><polygon class="cls-2" points="24.88 5.17 21.93 5.17 20.24 7.7 18.61 5.17 15.37 5.17 18.35 9.43 15.23 13.88 18.19 13.88 20.01 11.13 21.78 13.88 25.02 13.88 21.91 9.43 24.88 5.17"/><path class="cls-2" d="M33.78,5.61a6.09,6.09,0,0,0-2.89-.56,6.14,6.14,0,0,0-2.9.56,1.86,1.86,0,0,0-1.08,1.7v4.42A1.87,1.87,0,0,0,28,13.44a6.15,6.15,0,0,0,2.9.55,6.1,6.1,0,0,0,2.89-.55,1.88,1.88,0,0,0,1.09-1.71v-1.4H32v1.5c0,.34-.36.52-1.07.52s-1.07-.18-1.07-.52V7.23c0-.35.36-.53,1.07-.53S32,6.88,32,7.23V8.42h2.84V7.31A1.87,1.87,0,0,0,33.78,5.61Z"/><polygon class="cls-2" points="40.82 5.17 37.84 5.17 37.84 13.88 45.02 13.88 45.02 12.23 40.82 12.23 40.82 5.17"/><path class="cls-2" d="M52.76,11.78a.41.41,0,0,1-.22.4,1.83,1.83,0,0,1-.87.17,1.81,1.81,0,0,1-.87-.17.41.41,0,0,1-.22-.4V5.17h-3v6.52a1.9,1.9,0,0,0,1.09,1.74,6.27,6.27,0,0,0,2.93.56,6.22,6.22,0,0,0,2.93-.56,1.9,1.9,0,0,0,1.1-1.74V5.17H52.76Z"/><path class="cls-2" d="M63.56,8.81a8.39,8.39,0,0,1-1.69-.91.87.87,0,0,1-.39-.65c0-.13,0-.55,1.07-.55a1.69,1.69,0,0,1,.85.17.43.43,0,0,1,.22.41v.66h2.84V7.36A1.9,1.9,0,0,0,65.4,5.62a5.82,5.82,0,0,0-2.87-.57,6.22,6.22,0,0,0-2.93.56,1.89,1.89,0,0,0-1.1,1.73,2,2,0,0,0,.71,1.47,8.82,8.82,0,0,0,2.26,1.31,7.82,7.82,0,0,1,1.67.91.93.93,0,0,1,.38.73.44.44,0,0,1-.22.42,1.84,1.84,0,0,1-.89.17c-1.11,0-1.11-.43-1.11-.57V11H58.46v.71a1.9,1.9,0,0,0,1.07,1.74,6.08,6.08,0,0,0,2.9.56,6.4,6.4,0,0,0,3-.56,1.93,1.93,0,0,0,1.1-1.77,2.06,2.06,0,0,0-.67-1.53A8.64,8.64,0,0,0,63.56,8.81Z"/><rect class="cls-2" x="69.41" y="5.17" width="2.98" height="8.7"/><polygon class="cls-2" points="79.54 11.04 78 5.17 74.97 5.17 77.58 13.88 81.28 13.88 83.88 5.17 81.08 5.17 79.54 11.04"/><polygon class="cls-2" points="93.86 6.82 93.86 5.17 86.47 5.17 86.47 13.88 93.86 13.88 93.86 12.23 89.45 12.23 89.45 10.17 92.96 10.17 92.96 8.52 89.45 8.52 89.45 6.82 93.86 6.82"/><polygon class="cls-2" points="29.48 84.88 26.45 84.88 26.45 80.31 24.33 80.31 24.33 85.91 29.48 85.91 29.48 84.88"/><polygon class="cls-2" points="35.37 84.88 32.2 84.88 32.2 83.51 34.72 83.51 34.72 82.48 32.2 82.48 32.2 81.34 35.37 81.34 35.37 80.31 30.07 80.31 30.07 85.91 35.37 85.91 35.37 84.88"/><path class="cls-2" d="M41,85.63a1.21,1.21,0,0,0,.78-1.12V82.63H38.83v1h.91v.91c0,.1,0,.38-.8.38s-.81-.28-.81-.38V81.65c0-.09,0-.39.81-.39s.8.3.8.39v.65h2v-.59A1.21,1.21,0,0,0,41,80.59a4.9,4.9,0,0,0-2.1-.36,5,5,0,0,0-2.11.36A1.21,1.21,0,0,0,36,81.71v2.8a1.21,1.21,0,0,0,.78,1.12,5,5,0,0,0,2.11.36A4.9,4.9,0,0,0,41,85.63Z"/><rect class="cls-2" x="42.67" y="80.3" width="2.13" height="5.61"/><path class="cls-2" d="M51.61,84.51v-2.8a1.23,1.23,0,0,0-.8-1.12,5.07,5.07,0,0,0-2.14-.36,5,5,0,0,0-2.13.36,1.23,1.23,0,0,0-.8,1.12v2.8a1.22,1.22,0,0,0,.8,1.11,4.85,4.85,0,0,0,2.13.37,4.93,4.93,0,0,0,2.14-.37A1.22,1.22,0,0,0,51.61,84.51Zm-3.74-2.86c0-.09,0-.39.8-.39s.81.3.81.39v2.91c0,.1,0,.39-.81.39s-.8-.29-.8-.39Z"/><polygon class="cls-2" points="58.61 85.91 58.61 80.31 56.68 80.31 56.68 83.14 55.09 80.31 52.55 80.31 52.55 85.91 54.48 85.91 54.48 82.36 56.49 85.91 58.61 85.91"/><path class="cls-2" d="M68.09,81.71a1.22,1.22,0,0,0-.79-1.12,6.54,6.54,0,0,0-4.28,0,1.22,1.22,0,0,0-.79,1.12v2.8A1.21,1.21,0,0,0,63,85.62a6.37,6.37,0,0,0,4.28,0,1.21,1.21,0,0,0,.79-1.11Zm-3.74-.06c0-.09,0-.39.81-.39s.81.3.81.39v2.91c0,.1,0,.39-.81.39s-.81-.29-.81-.39Z"/><polygon class="cls-2" points="69.04 85.91 71.17 85.91 71.17 83.59 73.54 83.59 73.54 82.55 71.17 82.55 71.17 81.34 74.19 81.34 74.19 80.31 69.04 80.31 69.04 85.91"/><path class="cls-2" d="M23,86.7a5,5,0,0,0-2.08-.36,5,5,0,0,0-2.08.36,1.2,1.2,0,0,0-.77,1.09v2.87a1.2,1.2,0,0,0,.77,1.09,5,5,0,0,0,2.08.35A5,5,0,0,0,23,91.75a1.2,1.2,0,0,0,.77-1.09v-.89h-2v1c0,.08,0,.35-.77.35s-.78-.27-.78-.35v-3c0-.09,0-.36.78-.36s.77.27.77.36v.75h2v-.7A1.2,1.2,0,0,0,23,86.7Z"/><path class="cls-2" d="M29.57,86.71a5,5,0,0,0-2.13-.37,5,5,0,0,0-2.14.37,1.22,1.22,0,0,0-.8,1.11v2.81a1.22,1.22,0,0,0,.8,1.11,5.07,5.07,0,0,0,2.14.36,5,5,0,0,0,2.13-.36,1.22,1.22,0,0,0,.8-1.11V87.82A1.22,1.22,0,0,0,29.57,86.71Zm-2.94,1.06c0-.1,0-.39.81-.39s.8.29.8.39v2.91c0,.1,0,.39-.8.39s-.81-.29-.81-.39Z"/><polygon class="cls-2" points="33.44 86.42 31.32 86.42 31.32 92.03 36.47 92.03 36.47 90.99 33.44 90.99 33.44 86.42"/><polygon class="cls-2" points="39.19 86.42 37.06 86.42 37.06 92.03 42.21 92.03 42.21 90.99 39.19 90.99 39.19 86.42"/><polygon class="cls-2" points="42.81 92.03 48.11 92.03 48.11 90.99 44.94 90.99 44.94 89.63 47.46 89.63 47.46 88.59 44.94 88.59 44.94 87.45 48.11 87.45 48.11 86.42 42.81 86.42 42.81 92.03"/><path class="cls-2" d="M53.68,86.7a6.16,6.16,0,0,0-4.15,0,1.2,1.2,0,0,0-.78,1.09v2.87a1.2,1.2,0,0,0,.78,1.09,6.33,6.33,0,0,0,4.15,0,1.2,1.2,0,0,0,.78-1.09v-.89h-2v1c0,.08,0,.35-.77.35s-.78-.27-.78-.35v-3c0-.09,0-.36.78-.36s.77.27.77.36v.75h2v-.7A1.2,1.2,0,0,0,53.68,86.7Z"/><polygon class="cls-2" points="54.78 87.45 56.71 87.45 56.71 92.03 58.83 92.03 58.83 87.45 60.75 87.45 60.75 86.42 54.78 86.42 54.78 87.45"/><path class="cls-2" d="M66.22,86.71a5.08,5.08,0,0,0-2.14-.37,5,5,0,0,0-2.13.37,1.22,1.22,0,0,0-.8,1.11v2.81a1.22,1.22,0,0,0,.8,1.11,5,5,0,0,0,2.13.36,5.1,5.1,0,0,0,2.14-.36,1.22,1.22,0,0,0,.8-1.11V87.82A1.22,1.22,0,0,0,66.22,86.71Zm-2.95,1.06c0-.1,0-.39.81-.39s.81.29.81.39v2.91c0,.1,0,.39-.81.39s-.81-.29-.81-.39Z"/><path class="cls-2" d="M73.74,91.58a1.46,1.46,0,0,1,0-.34v-.93a1.11,1.11,0,0,0-.82-1.15,1.09,1.09,0,0,0,.81-1v-.33a1.1,1.1,0,0,0-.73-1,5.21,5.21,0,0,0-2.14-.32H68V92h2.13V89.74h.49a1.72,1.72,0,0,1,.82.13.4.4,0,0,1,.19.39v1a1.54,1.54,0,0,0,0,.44.81.81,0,0,0,.15.29l0,.06H74.1l-.22-.23A.54.54,0,0,1,73.74,91.58Zm-3.65-4.12h.69a1.34,1.34,0,0,1,.64.11.31.31,0,0,1,.15.3v.41a.31.31,0,0,1-.19.31,1.87,1.87,0,0,1-.77.12h-.52Z"/><path class="cls-2" d="M79.66,89.63A5.91,5.91,0,0,0,78,88.78a6,6,0,0,1-1.22-.59.58.58,0,0,1-.28-.44c0-.09,0-.37.77-.37a1.4,1.4,0,0,1,.62.11.28.28,0,0,1,.16.28v.41h2v-.36a1.2,1.2,0,0,0-.75-1.11,4.7,4.7,0,0,0-2.07-.37,4.91,4.91,0,0,0-2.1.37,1.14,1.14,0,0,0-.28,2,6.52,6.52,0,0,0,1.63.85,6.14,6.14,0,0,1,1.2.6.59.59,0,0,1,.28.48.29.29,0,0,1-.17.29,1.47,1.47,0,0,1-.64.11c-.81,0-.81-.29-.81-.38v-.5h-2v.44a1.2,1.2,0,0,0,.76,1.11,4.79,4.79,0,0,0,2.09.36,5,5,0,0,0,2.13-.36,1.24,1.24,0,0,0,.79-1.13A1.28,1.28,0,0,0,79.66,89.63Z"/><polygon class="cls-3" points="11.26 19.43 12.59 22.25 15.56 22.7 13.41 24.89 13.92 27.99 11.26 26.53 8.61 27.99 9.11 24.89 6.96 22.7 9.94 22.25 11.26 19.43"/><polygon class="cls-3" points="11.26 33.9 12.59 36.71 15.56 37.16 13.41 39.36 13.92 42.46 11.26 40.99 8.61 42.46 9.11 39.36 6.96 37.16 9.94 36.71 11.26 33.9"/><polygon class="cls-3" points="11.26 48.75 12.59 51.57 15.56 52.02 13.41 54.21 13.92 57.31 11.26 55.85 8.61 57.31 9.11 54.21 6.96 52.02 9.94 51.57 11.26 48.75"/><polygon class="cls-3" points="11.26 63.22 12.59 66.03 15.56 66.49 13.41 68.68 13.92 71.78 11.26 70.31 8.61 71.78 9.11 68.68 6.96 66.49 9.94 66.03 11.26 63.22"/><polygon class="cls-3" points="87.26 19.43 88.59 22.25 91.56 22.7 89.41 24.89 89.92 27.99 87.26 26.53 84.61 27.99 85.11 24.89 82.97 22.7 85.94 22.25 87.26 19.43"/><polygon class="cls-3" points="87.26 33.9 88.59 36.71 91.56 37.16 89.41 39.36 89.92 42.46 87.26 40.99 84.61 42.46 85.11 39.36 82.97 37.16 85.94 36.71 87.26 33.9"/><polygon class="cls-3" points="87.26 48.75 88.59 51.57 91.56 52.02 89.41 54.21 89.92 57.31 87.26 55.85 84.61 57.31 85.11 54.21 82.97 52.02 85.94 51.57 87.26 48.75"/><polygon class="cls-3" points="87.26 63.22 88.59 66.03 91.56 66.49 89.41 68.68 89.92 71.78 87.26 70.31 84.61 71.78 85.11 68.68 82.97 66.49 85.94 66.03 87.26 63.22"/><path class="cls-1" d="M49.86,22.44A22.37,22.37,0,1,0,72.23,44.81,22.37,22.37,0,0,0,49.86,22.44ZM29.14,44.81a20.56,20.56,0,0,1,1.2-7l2.15,1.49V56.12a21.45,21.45,0,0,1-1.72-3.25A20.55,20.55,0,0,1,29.14,44.81ZM64.51,59.46a20.71,20.71,0,0,1-29.3,0,21.41,21.41,0,0,1-1.68-1.89H45l4.51-3.27V36.53L45,33.18H32.71a20.7,20.7,0,0,1,31.8-3,20,20,0,0,1,2.5,3H63.74L63,34.8l-2.18-1.62H55.73l-4.47,3.35V54.3l4.45,3.27H66.19A21.41,21.41,0,0,1,64.51,59.46ZM37.07,38.76h4.09a2.08,2.08,0,0,1,2.08,2.07V50a2.08,2.08,0,0,1-2.08,2.07H38.71V40Zm30.7,16.47V48.9H62v3.19h-2.5a2,2,0,0,1-2-2V40l-1.64-1.19H62v3.48h5.31l1.06-6.8c.21.42.42.86.6,1.3a20.77,20.77,0,0,1,0,16.13A17.92,17.92,0,0,1,67.77,55.23Z"/><rect class="cls-2" x="5.8" y="75.64" width="88.06" height="2.06"/><rect class="cls-2" x="5.8" y="94.6" width="88.06" height="2.06"/><polygon class="cls-3" points="13.7 82.5 14.63 84.38 16.7 84.68 15.2 86.14 15.55 88.21 13.7 87.23 11.84 88.21 12.2 86.14 10.7 84.68 12.77 84.38 13.7 82.5"/><polygon class="cls-3" points="85.7 82.5 86.63 84.38 88.7 84.68 87.2 86.14 87.55 88.21 85.7 87.23 83.84 88.21 84.2 86.14 82.7 84.68 84.77 84.38 85.7 82.5"/></g></g></svg>