<svg xmlns="http://www.w3.org/2000/svg" viewBox="0 0 91.84 59.45"><defs><style>.cls-1{fill:#221f1f;}.cls-2{fill:#30b6ea;}.cls-3{fill:#e5242a;}.cls-4,.cls-5,.cls-6{fill:#fff;}.cls-4{fill-rule:evenodd;}.cls-5,.cls-6{stroke:#fff;stroke-miterlimit:10;}.cls-5{stroke-width:0.25px;}.cls-6{stroke-width:0.5px;}.cls-7{fill:none;}.cls-8{fill:#6cb646;}.cls-9{fill:#36b2df;}.cls-10{fill:#30b5ea;}.cls-11{fill:#088eb7;}.cls-12{fill:#545455;}</style></defs><g id="Calque_2" data-name="Calque 2"><g id="Calque_3" data-name="Calque 3"><rect class="cls-1" x="1.39" y="1.37" width="89.08" height="56.7" rx="3.83"/><path class="cls-2" d="M86.63,2.75a2.46,2.46,0,0,1,2.46,2.46v49a2.46,2.46,0,0,1-2.46,2.45H5.22a2.46,2.46,0,0,1-2.46-2.45v-49A2.46,2.46,0,0,1,5.22,2.75H86.63m0-2.75H5.22A5.21,5.21,0,0,0,0,5.21v49a5.2,5.2,0,0,0,5.21,5.2H86.63a5.2,5.2,0,0,0,5.21-5.2v-49A5.21,5.21,0,0,0,86.63,0Z"/><rect class="cls-3" x="0.01" y="13.85" width="69.47" height="21.05"/><path class="cls-3" d="M69.47,13.86v21H0v-21H69.47m0,0H0v21H69.48v-21Z"/><g id="Calque_2-2" data-name="Calque 2-2"><g id="Calque_4-2" data-name="Calque 4-2"><path class="cls-4" d="M13.45,8c-.16-.15-.62-.1-1.58,0a6.31,6.31,0,0,1,.66-2c1.61.09,3.59.32,5.86.31,4.45,0,4.49-1.67,4.49-1.67a19.53,19.53,0,0,1-6.48.2c-2.47-.23-4.94-.8-7-.25A3,3,0,0,0,6.87,7.79a4.85,4.85,0,0,1,4-1.82h.5a4,4,0,0,0-.79,1.61l-.15.5C8.31,8.25,7.91,9.2,8.05,9.44s.86-.08,1.77-.18H10a3.61,3.61,0,0,1-1.39,2,2.28,2.28,0,0,1-2.19.15c.08,1.08,1.7,1.66,3.09.93a5.49,5.49,0,0,0,2.08-3.09,9,9,0,0,0,.91,0c.83-.06,1.19-.9,1-1.09M30.16,6.86a.34.34,0,0,0-.42.21h0a.33.33,0,0,0,0,.24c-.3.28-.61.5-.75.47s0-.62.15-1.09a.37.37,0,0,0,.44-.26A.36.36,0,0,0,29.32,6l-.07,0a.35.35,0,0,0-.39.25h0a.33.33,0,0,0,.08.36c-.26.47-.52.88-.75.81h0C28,7.32,28,6.84,28,6.3a.44.44,0,0,0,.27-.54.43.43,0,0,0-.22-.24h0a.34.34,0,0,0-.45.18v0h0a.38.38,0,0,0,.17.43c-.12.51-.31,1-.51,1s-.26-.38-.35-.8a.33.33,0,0,0,.14-.44h0a.31.31,0,0,0-.18-.16.34.34,0,0,0-.42.21h0a.34.34,0,0,0,.21.42h0l.06,1.39,2.29.77.85-1.1a.31.31,0,0,0,.42-.14v0a.33.33,0,0,0-.21-.42h0"/><path class="cls-4" d="M27.5,10.68c-.43.75-1,1.13-1.35.85s-.23-1.11.18-1.85,1-1.13,1.35-.85.24,1.11-.18,1.85M26.92,8.1a3.16,3.16,0,0,0-.93.56,4.49,4.49,0,0,0-.36.39h0a3.07,3.07,0,0,0-.28.42,3.23,3.23,0,0,0-.3.62h0a6.52,6.52,0,0,1-.38.68,2.51,2.51,0,0,1-.56.52,3.12,3.12,0,0,1-.43.15c-1,.29-1.14-.4-.93-.74a10.58,10.58,0,0,1,1-.79c.7-.59,1.18-1,1.52-1.3s.12-.55-.15-.62a1.31,1.31,0,0,0-1.19.24c-.24.2-1.67,1.92-1.67,1.92S24.57,5.66,25,4.89c.3-.62-1.2-.73-1.62.19-.24.53-1.9,4.39-2.11,4.86-.37.87-.39,1-.58,1.16h0a1.1,1.1,0,0,1-.62.28q-.15,0-.18-.18a1.48,1.48,0,0,1,.05-.47,2.59,2.59,0,0,1,.11-.37c0-.13.1-.27.15-.42s.11-.27.18-.4l.15-.37a2.93,2.93,0,0,0,.12-.28.87.87,0,0,0,.07-.17.92.92,0,0,0,0-.57A.33.33,0,0,0,20.35,8a.82.82,0,0,0-.43.12,1.53,1.53,0,0,0-.42.34l-.35.44-.24.31-.24.32-.33.42h-.1a.25.25,0,0,1,.05-.13,1.12,1.12,0,0,0,.09-.22L18.61,9l.1-.26a1.21,1.21,0,0,0,.05-.18.58.58,0,0,0,0-.41c0-.1-.13-.15-.31-.15a.65.65,0,0,0-.42.14,1,1,0,0,0-.28.36l-.3.65c-.22.53-.42,1.07-.61,1.62a1.93,1.93,0,0,0-.11.34,5.72,5.72,0,0,1-.68.28.42.42,0,0,1-.27,0,.28.28,0,0,1,0-.2,3.53,3.53,0,0,1,.34-1c.25-.56.47-1.14.7-1.71a.28.28,0,0,0,0-.22A.3.3,0,0,0,16.49,8a.74.74,0,0,0-.72.19.78.78,0,0,0-.12.22l-.78,2a1.62,1.62,0,0,1-.82,1,.22.22,0,0,1-.22,0,.23.23,0,0,1-.16-.24.72.72,0,0,1,.07-.28c.35-.86.62-1.46,1-2.32a1.33,1.33,0,0,0,.1-.34.15.15,0,0,0-.09-.14.72.72,0,0,0-.69.1,2.18,2.18,0,0,0-.62.93c-.17.38-.34.76-.5,1.15a7.88,7.88,0,0,0-.47,1.34.83.83,0,0,0,.14.73.63.63,0,0,0,.44.14,2.46,2.46,0,0,0,1.71-.76.79.79,0,0,0,.25.62.64.64,0,0,0,.43.06,3,3,0,0,0,.86-.23L16.6,12v.14a.34.34,0,0,0,.13.22.38.38,0,0,0,.27.08.59.59,0,0,0,.29-.07.81.81,0,0,0,.27-.25L19.37,9.7h.07c-.08.22-.18.46-.26.68A6.32,6.32,0,0,0,19,11a2.6,2.6,0,0,0-.15,1.07c.06.25.17.37.34.37a1.67,1.67,0,0,0,.5,0,2.92,2.92,0,0,0,.49-.19l.33-.17v.16c0,.13,0,.16.07.21a.32.32,0,0,0,.25.06.33.33,0,0,0,.22-.06c.21-.27.41-.54.62-.83l.12-.16a.85.85,0,0,0,.61,1h0a3.27,3.27,0,0,0,2.47-.88,2,2,0,0,0,.09.33,1,1,0,0,0,.38.49,1.1,1.1,0,0,0,.68.19,1.58,1.58,0,0,0,.57-.08,2,2,0,0,0,.56-.3,3.07,3.07,0,0,0,.47-.41,3.91,3.91,0,0,0,.71-1,4.67,4.67,0,0,0,.33-1,4.32,4.32,0,0,0,0-.62s0-.44-.08-.46l-1.72-.55"/></g></g><polygon class="cls-5" points="32.3 10.43 34.27 10.43 34.27 9.99 32.3 9.99 32.3 8.68 34.55 8.68 34.55 8.24 31.71 8.24 31.71 12.31 34.58 12.31 34.58 11.87 32.3 11.87 32.3 10.43"/><polygon class="cls-5" points="38.59 8.24 37.89 8.24 36.8 9.8 35.71 8.24 35.01 8.24 36.45 10.25 34.98 12.31 35.68 12.31 36.8 10.72 37.92 12.31 38.63 12.31 37.16 10.25 38.59 8.24"/><path class="cls-5" d="M40,9a1.14,1.14,0,0,1,.9-.38A.94.94,0,0,1,42,9.54h.61a1.47,1.47,0,0,0-.51-1,1.77,1.77,0,0,0-1.16-.36,2,2,0,0,0-1,.23,1.63,1.63,0,0,0-.64.66,2.14,2.14,0,0,0-.22,1v.39a1.93,1.93,0,0,0,.48,1.38,1.66,1.66,0,0,0,1.29.52A1.86,1.86,0,0,0,42,12a1.46,1.46,0,0,0,.54-1H42a1,1,0,0,1-.35.71,1.21,1.21,0,0,1-.76.2,1,1,0,0,1-.86-.39,1.62,1.62,0,0,1-.31-1v-.4A1.64,1.64,0,0,1,40,9Z"/><polygon class="cls-5" points="43.99 8.24 43.39 8.24 43.39 12.31 46.14 12.31 46.14 11.87 43.99 11.87 43.99 8.24"/><path class="cls-5" d="M49.24,11a.87.87,0,0,1-.27.68,1.37,1.37,0,0,1-1.55,0,.87.87,0,0,1-.27-.69V8.24h-.59V11A1.2,1.2,0,0,0,47,12a1.81,1.81,0,0,0,1.18.36h.16A1.76,1.76,0,0,0,49.44,12a1.26,1.26,0,0,0,.4-.95V8.24h-.6Z"/><path class="cls-5" d="M53.17,10.33a3.91,3.91,0,0,0-.89-.31,2.34,2.34,0,0,1-.79-.32.49.49,0,0,1-.24-.42.56.56,0,0,1,.25-.49,1.21,1.21,0,0,1,.69-.17,1.13,1.13,0,0,1,.73.21.7.7,0,0,1,.27.58h.6a1.09,1.09,0,0,0-.2-.62A1.43,1.43,0,0,0,53,8.34a2,2,0,0,0-.83-.16,1.81,1.81,0,0,0-1.11.32.92.92,0,0,0-.43.79A.87.87,0,0,0,51,10a2.74,2.74,0,0,0,1.12.49,3.27,3.27,0,0,1,.84.32.53.53,0,0,1,.23.47.54.54,0,0,1-.25.47,1.24,1.24,0,0,1-.72.17,1.39,1.39,0,0,1-.81-.21.69.69,0,0,1-.31-.58h-.6a1,1,0,0,0,.22.63,1.49,1.49,0,0,0,.63.44,2.28,2.28,0,0,0,.87.16,2,2,0,0,0,1.15-.3.92.92,0,0,0,.43-.79,1,1,0,0,0-.16-.54A1.36,1.36,0,0,0,53.17,10.33Z"/><rect class="cls-5" x="54.6" y="8.24" width="0.6" height="4.07"/><polygon class="cls-5" points="57.79 11.59 56.51 8.24 55.85 8.24 57.53 12.31 58.06 12.31 59.74 8.24 59.09 8.24 57.79 11.59"/><polygon class="cls-5" points="60.94 11.87 60.94 10.43 62.91 10.43 62.91 9.99 60.94 9.99 60.94 8.68 63.19 8.68 63.19 8.24 60.35 8.24 60.35 12.31 63.22 12.31 63.22 11.87 60.94 11.87"/><path class="cls-5" d="M8.32,27.52A1.68,1.68,0,0,1,9.64,27a1.63,1.63,0,0,1,1.07.31,1.57,1.57,0,0,1,.5,1h.88a2.07,2.07,0,0,0-.74-1.43,2.62,2.62,0,0,0-1.71-.52,2.94,2.94,0,0,0-1.41.33,2.24,2.24,0,0,0-.94.94A3,3,0,0,0,7,29.05v.56a2.7,2.7,0,0,0,.71,2,2.52,2.52,0,0,0,1.89.74,2.84,2.84,0,0,0,1.75-.5,2,2,0,0,0,.78-1.43h-.88a1.55,1.55,0,0,1-.52,1,1.83,1.83,0,0,1-1.13.29,1.54,1.54,0,0,1-1.27-.56,2.32,2.32,0,0,1-.45-1.51v-.56A2.27,2.27,0,0,1,8.32,27.52Z"/><path class="cls-5" d="M17.16,26.69a3.09,3.09,0,0,0-2.82,0,2.31,2.31,0,0,0-.94,1,3.05,3.05,0,0,0-.34,1.48v.42A3.08,3.08,0,0,0,13.41,31a2.29,2.29,0,0,0,.94,1,3.07,3.07,0,0,0,2.81,0,2.2,2.2,0,0,0,.94-1,3.18,3.18,0,0,0,.33-1.49v-.37a3.18,3.18,0,0,0-.33-1.49A2.28,2.28,0,0,0,17.16,26.69Zm.39,2.89a2.38,2.38,0,0,1-.48,1.56,1.65,1.65,0,0,1-1.32.54,1.63,1.63,0,0,1-1.33-.58,2.36,2.36,0,0,1-.48-1.57V29.1a2.33,2.33,0,0,1,.49-1.54A1.64,1.64,0,0,1,15.74,27a1.68,1.68,0,0,1,1.34.55,2.41,2.41,0,0,1,.47,1.59Z"/><polygon class="cls-5" points="24 30.93 20.63 26.43 19.75 26.43 19.75 32.25 20.63 32.25 20.63 27.76 23.99 32.25 24.87 32.25 24.87 26.43 24 26.43 24 30.93"/><polygon class="cls-5" points="28.65 31.23 26.75 26.43 25.79 26.43 28.26 32.25 29.04 32.25 31.51 26.43 30.55 26.43 28.65 31.23"/><polygon class="cls-5" points="33.29 29.56 36.18 29.56 36.18 28.93 33.29 28.93 33.29 27.06 36.6 27.06 36.6 26.43 32.41 26.43 32.41 32.25 36.65 32.25 36.65 31.62 33.29 31.62 33.29 29.56"/><polygon class="cls-5" points="41.99 30.93 38.63 26.43 37.74 26.43 37.74 32.25 38.63 32.25 38.63 27.76 41.99 32.25 42.87 32.25 42.87 26.43 41.99 26.43 41.99 30.93"/><polygon class="cls-5" points="43.75 27.06 45.89 27.06 45.89 32.25 46.77 32.25 46.77 27.06 48.91 27.06 48.91 26.43 43.75 26.43 43.75 27.06"/><rect class="cls-5" x="49.96" y="26.43" width="0.88" height="5.82"/><path class="cls-5" d="M56.31,26.69a3.07,3.07,0,0,0-2.81,0,2.39,2.39,0,0,0-1,1,3.17,3.17,0,0,0-.33,1.48v.42A3.08,3.08,0,0,0,52.57,31a2.29,2.29,0,0,0,.94,1,3.07,3.07,0,0,0,2.81,0,2.26,2.26,0,0,0,.94-1,3.18,3.18,0,0,0,.33-1.49v-.37a3.18,3.18,0,0,0-.33-1.49A2.25,2.25,0,0,0,56.31,26.69Zm.4,2.89a2.38,2.38,0,0,1-.48,1.56,1.65,1.65,0,0,1-1.32.54,1.62,1.62,0,0,1-1.33-.58,2.36,2.36,0,0,1-.49-1.57V29.1a2.33,2.33,0,0,1,.5-1.54,1.86,1.86,0,0,1,2.64,0,2.36,2.36,0,0,1,.48,1.59Z"/><polygon class="cls-5" points="63.16 26.43 63.16 30.93 59.79 26.43 58.91 26.43 58.91 32.25 59.79 32.25 59.79 27.76 63.15 32.25 64.03 32.25 64.03 26.43 63.16 26.43"/><path class="cls-5" d="M10.75,20.68a4,4,0,0,0,1.62-2.6,1.72,1.72,0,0,0-.7-1.44,3,3,0,0,0-1.9-.55,3.11,3.11,0,0,0-2,.63A2.07,2.07,0,0,0,7,18.38H8.05a1.36,1.36,0,0,1,.46-1.11,1.82,1.82,0,0,1,1.26-.4,1.53,1.53,0,0,1,1.09.37,1.23,1.23,0,0,1,.41,1A1.55,1.55,0,0,1,11,19a6.34,6.34,0,0,1-.91,1l-3,2.85v.67h5.64v-.76H8.44Z"/><path class="cls-5" d="M16.6,16.09a2.5,2.5,0,0,0-2.05.8,3.74,3.74,0,0,0-.66,2.42v1.26a3.64,3.64,0,0,0,.69,2.35,2.53,2.53,0,0,0,2,.79,2.49,2.49,0,0,0,2.05-.81,3.87,3.87,0,0,0,.65-2.46V19.22a3.61,3.61,0,0,0-.67-2.36A2.56,2.56,0,0,0,16.6,16.09Zm1.63,4.61a3,3,0,0,1-.41,1.7,1.38,1.38,0,0,1-1.2.54,1.41,1.41,0,0,1-1.23-.57A3.14,3.14,0,0,1,15,20.59v-1.5a3,3,0,0,1,.4-1.68,1.4,1.4,0,0,1,1.22-.54,1.42,1.42,0,0,1,1.24.54,3.08,3.08,0,0,1,.39,1.75Z"/><path class="cls-5" d="M24.35,20.68A4,4,0,0,0,26,18.08a1.72,1.72,0,0,0-.7-1.44,3,3,0,0,0-1.9-.55,3.14,3.14,0,0,0-2.05.63,2.06,2.06,0,0,0-.76,1.66h1.09a1.36,1.36,0,0,1,.46-1.11,1.82,1.82,0,0,1,1.26-.4,1.53,1.53,0,0,1,1.09.37,1.23,1.23,0,0,1,.41,1,1.55,1.55,0,0,1-.25.84,6,6,0,0,1-.92,1l-3,2.85v.67h5.65v-.76H22Z"/><path class="cls-5" d="M31.15,20.68a4,4,0,0,0,1.62-2.6,1.72,1.72,0,0,0-.7-1.44,3,3,0,0,0-1.9-.55,3.14,3.14,0,0,0-2.05.63,2.06,2.06,0,0,0-.76,1.66h1.09a1.39,1.39,0,0,1,.45-1.11,1.86,1.86,0,0,1,1.27-.4,1.53,1.53,0,0,1,1.09.37,1.23,1.23,0,0,1,.41,1,1.64,1.64,0,0,1-.25.84,6,6,0,0,1-.92,1l-3,2.85v.67h5.64v-.76H28.84Z"/><polygon class="cls-5" points="38.74 17 42.94 17 42.94 16.2 37.6 16.2 37.6 23.6 38.74 23.6 38.74 20.33 42.35 20.33 42.35 19.53 38.74 19.53 38.74 17"/><path class="cls-5" d="M45.75,16.2l-3.29,7.4h1.17l.81-1.93h3.61l.82,1.93H50l-3.29-7.4Zm-1,4.67,1.46-3.47,1.47,3.47Z"/><polygon class="cls-5" points="52.33 16.2 51.19 16.2 51.19 23.6 56.41 23.6 56.41 22.81 52.33 22.81 52.33 16.2"/><polygon class="cls-5" points="58.85 22.81 58.85 16.2 57.71 16.2 57.71 23.6 62.93 23.6 62.93 22.81 58.85 22.81"/><polygon class="cls-6" points="14.36 43.45 9.51 43.45 9.51 37.13 8.15 37.13 8.15 44.22 14.36 44.22 14.36 43.45"/><rect class="cls-6" x="15.99" y="37.13" width="1.35" height="7.08"/><polygon class="cls-6" points="28.64 41.46 28.64 44.22 29.99 44.22 29.99 37.13 28.24 37.13 24.89 42.91 21.55 37.13 19.81 37.13 19.81 44.22 21.16 44.22 21.16 41.46 21.02 38.49 24.37 44.22 25.41 44.22 28.76 38.48 28.64 41.46"/><rect class="cls-6" x="32.47" y="37.13" width="1.35" height="7.08"/><polygon class="cls-6" points="43.14 37.13 35.23 37.13 35.23 37.9 38.51 37.9 38.51 44.22 39.86 44.22 39.86 37.9 43.14 37.9 43.14 37.13"/><polygon class="cls-6" points="46.01 40.94 50.44 40.94 50.44 40.18 46.01 40.18 46.01 37.9 51.09 37.9 51.09 37.13 44.66 37.13 44.66 44.22 51.16 44.22 51.16 43.45 46.01 43.45 46.01 40.94"/><path class="cls-6" d="M59.67,38.7a3.51,3.51,0,0,0-1.59-1.16,6.37,6.37,0,0,0-2.36-.41H52.84v7.09h2.83a6.78,6.78,0,0,0,2.41-.42,3.52,3.52,0,0,0,1.6-1.16,2.85,2.85,0,0,0,.55-1.75v-.45A2.87,2.87,0,0,0,59.67,38.7Zm-.77,2.17A2.28,2.28,0,0,1,58,42.78a3.88,3.88,0,0,1-2.43.67H54.19V37.9h1.57a3.56,3.56,0,0,1,2.32.68,2.26,2.26,0,0,1,.82,1.87Z"/><polygon class="cls-6" points="9.5 50.79 13.94 50.79 13.94 50.02 9.5 50.02 9.5 47.74 14.58 47.74 14.58 46.98 8.15 46.98 8.15 54.06 14.65 54.06 14.65 53.3 9.5 53.3 9.5 50.79"/><path class="cls-6" d="M21.58,47.39A6.21,6.21,0,0,0,19.22,47H16.33v7.08h2.83a6.79,6.79,0,0,0,2.41-.41,3.54,3.54,0,0,0,1.6-1.16,2.89,2.89,0,0,0,.56-1.76v-.45a2.92,2.92,0,0,0-.57-1.73A3.53,3.53,0,0,0,21.58,47.39Zm.81,3.32a2.28,2.28,0,0,1-.86,1.91,3.88,3.88,0,0,1-2.43.68H17.68V47.74h1.57a3.6,3.6,0,0,1,2.32.68,2.28,2.28,0,0,1,.82,1.88Z"/><rect class="cls-6" x="25.86" y="46.98" width="1.35" height="7.08"/><polygon class="cls-6" points="28.63 47.74 31.91 47.74 31.91 54.06 33.25 54.06 33.25 47.74 36.54 47.74 36.54 46.98 28.63 46.98 28.63 47.74"/><rect class="cls-6" x="38.16" y="46.98" width="1.35" height="7.08"/><path class="cls-6" d="M47.89,47.29a5.45,5.45,0,0,0-2.17-.41,5.17,5.17,0,0,0-2.14.42,3.12,3.12,0,0,0-2,3v.51a3.15,3.15,0,0,0,.53,1.76,3.4,3.4,0,0,0,1.45,1.18,5.87,5.87,0,0,0,4.31,0,3.15,3.15,0,0,0,1.94-3V50.3a3.26,3.26,0,0,0-.51-1.82A3.2,3.2,0,0,0,47.89,47.29Zm.61,3.53a2.52,2.52,0,0,1-.74,1.89,2.87,2.87,0,0,1-2,.66,2.91,2.91,0,0,1-2.05-.7A2.54,2.54,0,0,1,43,50.75v-.52a2.49,2.49,0,0,1,.76-1.87,2.86,2.86,0,0,1,2-.68,2.91,2.91,0,0,1,2.05.68,2.52,2.52,0,0,1,.73,1.93Z"/><polygon class="cls-6" points="58.38 52.46 53.22 46.98 51.86 46.98 51.86 54.06 53.22 54.06 53.22 48.6 58.37 54.06 59.72 54.06 59.72 46.98 58.38 46.98 58.38 52.46"/><path class="cls-7" d="M89.12,23.05h0Z"/><path class="cls-7" d="M89.64,28.46l-.54-.41v.53A1.47,1.47,0,0,0,89.64,28.46Z"/><path class="cls-8" d="M78.59,31.6l-1.1,1.09h0Z"/><path class="cls-8" d="M80.36,30.36l-.17-.07.17.07.6-.08h0Z"/><path class="cls-8" d="M85.1,36.79a1.84,1.84,0,0,1,.25-.09A1.84,1.84,0,0,0,85.1,36.79Z"/><path class="cls-8" d="M85.8,40.36c.26-.79.51-1.58.78-2.42-.27.84-.52,1.63-.78,2.42Z"/><path class="cls-8" d="M78.71,16.29a.77.77,0,0,1,.41-.25A.77.77,0,0,0,78.71,16.29Z"/><path class="cls-8" d="M86.09,36.35a1.1,1.1,0,0,0-.37.25h0A1.1,1.1,0,0,1,86.09,36.35Z"/><path class="cls-8" d="M85,36.83a1.53,1.53,0,0,0-.87,1.69l-.84.18.84-.18A1.53,1.53,0,0,1,85,36.83Z"/><path class="cls-8" d="M82.62,42.28c0-.12-.06-.24-.09-.36C82.56,42,82.6,42.16,82.62,42.28Z"/><path class="cls-8" d="M86.2,36.32l.06,0Z"/><path class="cls-8" d="M82.53,41.92a2,2,0,0,1-.07-.51A2,2,0,0,0,82.53,41.92Z"/><path class="cls-8" d="M76.88,44.82h5.28l6.34-.49-6.34.49Z"/><path class="cls-8" d="M88,39l-1.44-1.08L88,39c.14.43,0,1.06.9,1.07C88.05,40.08,88.16,39.45,88,39Z"/><path class="cls-8" d="M78.58,32.69h0l.63-.57h0Z"/><path class="cls-8" d="M75.38,30a1.17,1.17,0,0,0-.52-.7A1.17,1.17,0,0,1,75.38,30Z"/><path class="cls-8" d="M82.37,34.75a1.49,1.49,0,0,1-.46.29A1.49,1.49,0,0,0,82.37,34.75Z"/><path class="cls-8" d="M77.49,32.69h0l1.06-.07h0Z"/><path class="cls-8" d="M79.91,33.53,81,35.09h0Z"/><path class="cls-8" d="M79.63,32.1l-.42,0h0Z"/><path class="cls-8" d="M85.25,29.67l-.12-1.09c.05.45.08.77.12,1.09Z"/><path class="cls-8" d="M85.17,30.52a3.34,3.34,0,0,1,0-.43A3.56,3.56,0,0,0,85.17,30.52Z"/><path class="cls-8" d="M84.77,32.15,85.85,31h0Z"/><path class="cls-8" d="M81.28,34.13c-.47-.15-.88-.59-1.37-.6l.11-.68c0,.23-.08.46-.11.68C80.4,33.54,80.81,34,81.28,34.13Z"/><polygon class="cls-9" points="80.96 30.28 80.96 30.29 80.96 30.28 80.96 30.28"/><path class="cls-9" d="M86.85,28.56l-1,2.47h0l-1.08,1.12-1,2.92-.83-1a3,3,0,0,1-.54.69,1.49,1.49,0,0,1-.46.29,1.72,1.72,0,0,1-.89.08,1.94,1.94,0,0,1-1.81,1.19s0,0,0,0a3.22,3.22,0,0,0-1.08,3.55c.52.41,2.56-1.55,1.85,1.2-1.64-.46-2.57.46-3.3,1.75h1.84v.61H75.61c0,1.38-2.65,1.09-1.9,3h14l0,.69H72.77c-.68,1.56,1.23,1.52,1.48,2.31v7.44H89.1V40.08a1.15,1.15,0,0,1-.18,0c-.87,0-.76-.64-.9-1.07l-1.44-1.08c-.27.84-.52,1.63-.78,2.42h0l-.63,1c.38,1.24,1.82.43,2.48,1.25-1.88,1-3.84.79-6.05.61,1.06-.06,1.12-.48,1-.95,0-.12-.06-.24-.09-.36a2,2,0,0,1-.07-.51.51.51,0,0,1,.24-.4h0c.64-2.14-1.17-.07-1.37-.79a2.23,2.23,0,0,1,2-1.52l.84-.18A1.53,1.53,0,0,1,85,36.83l.09,0a1.84,1.84,0,0,1,.25-.09l.37-.1a1.1,1.1,0,0,1,.37-.25l.11,0,.06,0a.6.6,0,0,1,.32.07,1.08,1.08,0,0,1,.31.23l.14.18,1,1.4c.07-1,.14-2.08.24-3.6a4.11,4.11,0,0,1,.81,1.24V28.58C88,28.63,87.55,27.29,86.85,28.56Zm-4.47,15.5h6.13v.27l-6.34.49H76.88v-.76Zm-1.24-6.27c-.15-1,0-1.33.67-1.3C82.64,37.36,81.86,37.41,81.14,37.79ZM86,34.9V33A1.17,1.17,0,0,1,86,34.9Zm3-1.54-2.16-1.17L88.7,30C88.8,31.23,88.87,32,89,33.36Z"/><path class="cls-10" d="M86.22,12.52c-.61-2.08-1.22-4.17-2-7l-1.34,7.35-2.71.23L74.7,8.29,78,14.75c-1.78,3.11-4-.95-6,.45.72,1.45,3,1,3.5,3.19,0,.73-1.63.6-1,2.76-.81-1.43-1-1.79-1.22-2.16h0l-2.38.1,1.69.92c.17,1-1.89,2.18.15,3.11h2.06c.64-.49-.34-1.86,1.16-2,.9.94.07,2.11.26,3.16.83,1.51,1.5,3.19,4,3.12-1.52,1.7-2.8,1.22-4,.76-.23-1.39-.41-2.57-.6-3.75l-2.87-.59a.4.4,0,0,0-.17.48c.24.23.48.46.71.7l1.63.73c.31,1.29-.53,1-1.14,1.07a1.77,1.77,0,0,1-.17.52c0,.43-.09.86-.13,1.3h0a.89.89,0,0,1,.11.48.3.3,0,0,1,.26.18,1.34,1.34,0,0,1,1,0,1.17,1.17,0,0,1,.52.7,4.64,4.64,0,0,1,.16.78l-1-.37c-.16,2.12.23,3.59,2.82,2.34v-.08h.11l1.1-1.09.11-1.34.41,0c0,.6.06,1.21.1,1.81h0l0,0,.42,0,.52,0c-.05.28-.09.53-.13.78l-.11.68c.49,0,.9.45,1.37.6a.91.91,0,0,0,.92-.21l1.71-2.46a5.13,5.13,0,0,1,.26-2.11,3.65,3.65,0,0,1,.9-1.27l.06.5.12,1.09c.29-.37.58-.74.88-1.1.89-1.48,1.68-1.45,3-.52V23.83c-1.77-.77-1.21-2.29.06-2.75l.48.16a2.81,2.81,0,0,0,0,.29l-.54,1.33V12.2A1.86,1.86,0,0,1,86.22,12.52ZM77.56,30.91l-1.41,2c-.62-1.56.39-1.58.66-2l1-.39ZM86,15c.59.8.15,1.13-.53,1.47C85,15.52,85.64,15.39,86,15Zm-7.31,1.28a.77.77,0,0,1,.41-.25,4,4,0,0,1,1.3,0l.67-.64c.59.57.58.92,0,1.19l-2.56,1.22A1.92,1.92,0,0,1,78.71,16.29Zm-.43,6.53a1.63,1.63,0,0,1,1.8-1.74c1.18.86,1.1,1.61.3,2.3S78.8,23.73,78.28,22.82Zm2.73,7a1.48,1.48,0,0,1-.05.51h0l.2.14L81,30.29h0l-.6.08-.17-.07a.37.37,0,0,1-.17-.15c-.06-.14.08-.3.27-.47s.4-.43.59-.65h0l1.81-1C82.67,29.46,81.85,29.63,81,29.77Zm2.87-13.65h-.69l-.8.56c-.21-.67-.36-1.13.37-1.2l1-.09c.46-.56.73-.38.75.24C84.57,16,84.61,16.68,83.88,16.12Zm.35,1.61v-.26h3l.08.26Z"/><path class="cls-9" d="M81,30.28h0l.2.14Z"/><rect class="cls-9" x="80.96" y="30.28"/><polygon class="cls-9" points="80.97 30.28 80.97 30.28 80.96 30.29 80.97 30.28"/><path class="cls-11" d="M85.78,38.53a1.06,1.06,0,0,0-1.64,0l-.84.18-.23,2.62a.65.65,0,0,1-.21-.07A1.25,1.25,0,0,1,82.7,41h0a.51.51,0,0,0-.24.4,2,2,0,0,0,.07.51c0,.12.07.24.09.36.1.47,0,.89-1,.95,2.21.18,4.17.43,6.05-.61-.66-.82-2.1,0-2.48-1.25C85.27,40.4,84.85,39.32,85.78,38.53Z"/><path class="cls-11" d="M82.7,41h0a.51.51,0,0,0-.24.4A.51.51,0,0,1,82.7,41Z"/><path class="cls-11" d="M87.66,46.34h-14l-.94.69H87.7Z"/><path class="cls-11" d="M89.35,40.06c-.3-1.31.38-2.72-.25-4.24v4.26A1.14,1.14,0,0,0,89.35,40.06Z"/><path class="cls-11" d="M88.05,38.18,88,39c.14.43,0,1.06.9,1.07a1.15,1.15,0,0,0,.18,0V35.82a4.11,4.11,0,0,0-.81-1.24C88.19,36.1,88.12,37.14,88.05,38.18Z"/><path class="cls-12" d="M88.05,38.18l-1-1.4-1.31-.18h0l-.37.1a1.84,1.84,0,0,0-.25.09l-.09,0a1.53,1.53,0,0,0-.87,1.69,1.06,1.06,0,0,1,1.64,0c0,.61,0,1.22,0,1.83h0c.26-.79.51-1.58.78-2.42L88,39Z"/><path class="cls-12" d="M85,36.83l.09,0Z"/><path class="cls-12" d="M85.72,36.6l-.37.1.37-.1Z"/><polygon class="cls-12" points="85.8 40.36 85.81 40.36 85.8 40.36 85.8 40.36"/><path class="cls-11" d="M81,35.09l-1.09-1.56c0-.22.07-.45.11-.68s.08-.5.13-.78l-.52,0-.42,0-.63.57,0,.6c2,.6-1.88,2.47.63,3A1.87,1.87,0,0,1,81,35.09Z"/><polygon class="cls-11" points="79.21 32.12 79.21 32.12 79.21 32.12 79.21 32.12 79.21 32.12"/><path class="cls-11" d="M80.15,32.07c-.05.28-.09.53-.13.78C80.06,32.6,80.1,32.35,80.15,32.07Z"/><path class="cls-11" d="M79.21,32.12l0,0h0l0,0Z"/><path class="cls-11" d="M76.26,24.3c-.19-1.05.64-2.22-.26-3.16-1.5.12-.52,1.49-1.16,2H72.78v.72l2.87.59Z"/><path class="cls-12" d="M88.5,44.33v-.27H82.38c-.07.25-.14.51-.22.76Z"/><path class="cls-11" d="M83.91,31.46l.86.69L85.85,31c-.54,0-.67-.24-.68-.51a3.56,3.56,0,0,1,0-.43,2.08,2.08,0,0,0,0-.42c0-.32-.07-.64-.12-1.09l-.06-.5a3.65,3.65,0,0,0-.9,1.27A5.13,5.13,0,0,0,83.91,31.46Z"/><polygon class="cls-11" points="85.86 31.03 85.86 31.03 85.86 31.03 85.86 31.03"/><path class="cls-11" d="M76.88,44.82h5.28c.08-.25.15-.51.22-.76H76.89Z"/><path class="cls-12" d="M81,35.09h0l0,0a1.72,1.72,0,0,0,.89-.08,1.49,1.49,0,0,0,.46-.29,3,3,0,0,0,.54-.69h0l-.71-.14a.91.91,0,0,1-.92.21c-.47-.15-.88-.59-1.37-.6Z"/><path class="cls-12" d="M82.37,34.75a3,3,0,0,0,.54-.69h0A3,3,0,0,1,82.37,34.75Z"/><path class="cls-11" d="M81.09,16.59,80.42,16a4,4,0,0,0-1.3,0,.77.77,0,0,0-.41.25,1.92,1.92,0,0,0-.18,1.52Z"/><path class="cls-11" d="M84.22,17.47v.26h3.1l-.08-.26Z"/><path class="cls-11" d="M73.11,26.75,73.32,25c-.23-.24-.47-.47-.71-.7-.4.84-1.11,1.7.13,2.46A.32.32,0,0,1,73.11,26.75Z"/><path class="cls-11" d="M78.54,42.77H76.7l-1.09.61h2.92Z"/><polygon class="cls-12" points="85.86 31.03 85.86 31.03 85.86 31.03 85.86 31.03"/><path class="cls-12" d="M85.22,30.09a3.34,3.34,0,0,0,0,.43c0,.27.15.48.69.51l1-2.47h-.72c-.3.36-.59.73-.88,1.1h0A2.08,2.08,0,0,1,85.22,30.09Z"/><polygon class="cls-12" points="85.86 31.03 85.86 31.03 85.86 31.03 85.86 31.03"/><path class="cls-12" d="M86.13,28.57c-.3.36-.59.73-.88,1.1h0C85.54,29.3,85.83,28.93,86.13,28.57Z"/><path class="cls-12" d="M85.86,31h0l1-2.47h0Z"/><path class="cls-12" d="M85.86,31c-.54,0-.68-.24-.69-.51,0,.27.14.48.68.51Z"/><polygon class="cls-12" points="85.86 31.03 85.86 31.03 85.86 31.03 85.86 31.03 85.86 31.03"/><path class="cls-12" d="M75.38,30a1.17,1.17,0,0,0-.52-.7,1.34,1.34,0,0,0-1,0h0c.23.37.45.75.68,1.13l1,.37A4.64,4.64,0,0,0,75.38,30Z"/><path class="cls-12" d="M74.86,29.32a1.34,1.34,0,0,0-1,0h0A1.34,1.34,0,0,1,74.86,29.32Z"/><path class="cls-11" d="M70.94,19.09l2.38-.1C72.49,18.29,71.69,18.12,70.94,19.09Z"/><path class="cls-11" d="M73.32,19l-2.38.1,2.38-.1Z"/><path class="cls-12" d="M86,34.9A1.17,1.17,0,0,0,86,33Z"/><path class="cls-12" d="M79.21,36.31A1.94,1.94,0,0,0,81,35.12h0l0,0a1.87,1.87,0,0,0-1.76,1.17h0Z"/><path class="cls-12" d="M81,35.09l0,0h0l0,0Z"/><path class="cls-12" d="M79.24,36.26h0Z"/><path class="cls-12" d="M79.25,36.26h0s0,0,0,0Z"/><polygon class="cls-12" points="81.02 35.12 81.02 35.12 81.04 35.09 81.02 35.12"/><path class="cls-12" d="M81,35.12h0l0,0Z"/><path class="cls-12" d="M81,35.09l0,0,0,0Z"/><path class="cls-12" d="M81.14,37.79c.72-.38,1.5-.43.67-1.3C81.18,36.46,81,36.78,81.14,37.79Z"/><path class="cls-11" d="M79.21,32.1c0-.6-.07-1.21-.1-1.81l-.41,0-.11,1.34a1.41,1.41,0,0,0,0,.54Z"/><polygon class="cls-12" points="77.49 32.69 77.49 32.69 77.49 32.69 77.49 32.69 77.49 32.69"/><path class="cls-12" d="M78.55,32.62a.77.77,0,0,1,.08-.47,1.48,1.48,0,0,1,0-.55l-1.1,1.09Z"/><path class="cls-12" d="M77.49,32.69Z"/><path class="cls-12" d="M78.63,32.14a1.41,1.41,0,0,1,0-.54,1.48,1.48,0,0,0,0,.55Z"/><path class="cls-11" d="M87,36.78l-.14-.18a1.08,1.08,0,0,0-.31-.23.6.6,0,0,0-.32-.07l-.06,0-.11,0a1.1,1.1,0,0,0-.37.25Z"/><path class="cls-11" d="M86.58,36.37a1.08,1.08,0,0,1,.31.23A1.08,1.08,0,0,0,86.58,36.37Z"/><path class="cls-11" d="M86.09,36.35l.11,0Z"/><path class="cls-11" d="M86.26,36.3a.6.6,0,0,1,.32.07A.6.6,0,0,0,86.26,36.3Z"/><path class="cls-12" d="M80.88,29l-.59.65c0,.23,0,.46.07.69l.6-.08a1.48,1.48,0,0,0,.05-.51h0C81,29.52,80.93,29.27,80.88,29Z"/><path class="cls-12" d="M80.88,29c-.19.22-.39.43-.59.65l.59-.65Z"/><polygon class="cls-12" points="80.96 30.29 80.97 30.28 80.96 30.28 80.96 30.29"/><polygon class="cls-12" points="80.97 30.28 80.97 30.28 80.96 30.28 80.96 30.28 80.97 30.28"/><path class="cls-12" d="M81,30.28h0a1.48,1.48,0,0,0,.05-.51h0A1.48,1.48,0,0,1,81,30.28Z"/><path class="cls-12" d="M73.81,26.82h0l-.7-.07a.3.3,0,0,0-.36,0h0l.9.56a1.77,1.77,0,0,0,.17-.52Z"/><path class="cls-12" d="M73.81,26.82a1.77,1.77,0,0,1-.17.52,1.77,1.77,0,0,0,.17-.52Z"/><path class="cls-12" d="M73.11,26.75a.32.32,0,0,0-.37,0h0A.3.3,0,0,1,73.11,26.75Z"/><path class="cls-11" d="M77.56,30.91l.2-.48-1,.39Z"/><path class="cls-11" d="M83.81,15.4l-1,.09.43.64h.69C83.85,15.88,83.83,15.64,83.81,15.4Z"/><path class="cls-11" d="M83.19,16.13Z"/><path class="cls-12" d="M73.51,28.64c-.06.05-.17.14-.16.15s.18.22.27.33a.89.89,0,0,0-.11-.48Z"/><path class="cls-12" d="M73.51,28.64h0a.89.89,0,0,1,.11.48.89.89,0,0,0-.11-.48Z"/><path class="cls-11" d="M81.17,30.42l-.2-.14h0Z"/><path class="cls-11" d="M80.29,29.67c-.19.17-.33.33-.27.47a.37.37,0,0,0,.17.15l.17.07C80.34,30.13,80.31,29.9,80.29,29.67Z"/><path class="cls-11" d="M80,30.14a.37.37,0,0,0,.17.15A.37.37,0,0,1,80,30.14Z"/><polygon class="cls-9" points="78.58 32.69 78.58 32.69 78.58 32.69 78.58 32.69 78.58 32.69"/><path class="cls-9" d="M78.56,32.7s0-.05,0-.08l-1.06.07-.06.06h0l-.05,0c0,.34.07.69.12,1.16l1.11-.64,0-.6Z"/><path class="cls-9" d="M77.38,32.69v.08l.05,0Z"/><path class="cls-9" d="M78.58,32.69l0,.6,0-.6Z"/><path class="cls-9" d="M78.56,32.7h0Z"/><path class="cls-9" d="M77.43,32.75h0l.06-.06h0Z"/><path class="cls-9" d="M77.43,32.75l.06-.06h-.11l.05.06Z"/><path class="cls-9" d="M78.57,32.62h0v.07l.63-.57h0v0l-.58,0h0a.77.77,0,0,0-.08.47Z"/><polygon class="cls-9" points="79.21 32.12 79.23 32.1 79.23 32.1 79.21 32.12 79.21 32.12"/><path class="cls-9" d="M79.23,32.1h0Z"/><polygon class="cls-9" points="78.57 32.62 78.57 32.62 78.57 32.62 78.57 32.62"/><polygon class="cls-9" points="79.21 32.12 79.21 32.12 79.21 32.12 79.21 32.12 79.21 32.12"/><path class="cls-9" d="M79.21,32.12l0,0,0,0Z"/><path class="cls-9" d="M78.63,32.15h0l.58,0h0l-.58,0Z"/><path class="cls-9" d="M79.21,32.12l0,0h0Z"/><polygon class="cls-9" points="78.57 32.62 78.57 32.62 78.57 32.62 78.57 32.62"/><path class="cls-9" d="M78.57,32.62h0Z"/><polygon class="cls-9" points="78.57 32.62 78.57 32.62 78.57 32.62 78.57 32.62 78.57 32.62"/><path class="cls-9" d="M78.57,32.62v.07h0v-.07Z"/><path class="cls-9" d="M78.57,32.62v.08h0Z"/><polygon class="cls-9" points="78.57 32.62 78.57 32.62 78.57 32.62 78.57 32.62"/><path class="cls-9" d="M78.55,32.62s0,.05,0,.08v-.08Z"/><polygon class="cls-9" points="78.57 32.62 78.57 32.62 78.56 32.7 78.57 32.62 78.57 32.62"/><rect class="cls-1" x="78.96" y="49.36" width="2.01" height="2.51"/><rect class="cls-1" x="82.29" y="49.36" width="2.01" height="2.51"/><rect class="cls-1" x="85.57" y="49.36" width="2.01" height="2.51"/></g></g></svg>