<svg xmlns="http://www.w3.org/2000/svg" viewBox="0 0 203.17 84.42"><defs><style>.cls-1{fill:#1563ad;}.cls-2{fill:#fff;}.cls-3{fill:#1163ad;}.cls-4{fill:#f08224;}.cls-5{fill:#76b947;}.cls-6{fill:#e7215d;}</style></defs><g id="Calque_2" data-name="Calque 2"><g id="Calque_10" data-name="Calque 10"><path class="cls-1" d="M.09,46.05C.73,63.9-1.06,82.56,26,83.18c76.05,1.75,98.15,2,148.07-1.44,30.1-2,29.08-15.63,29.08-41.64C203.16-6.21,185.75.73,168.55.17,134.89-.94,77.87,3.58,31.75,9.09-3,13.24,0,16.31.09,46.05Z"/><path class="cls-2" d="M4.68,41c0,34.35-1.52,37.5,61.48,39.07,51,1.28,80.13.09,103.46-.59,28.91-.85,29.38-13.16,29.74-37.59.6-42.14-11.93-37-53.11-36.19-45.68.85-68.14.64-111.1,5.74C11.71,14.21,4.68,11.64,4.68,41Z"/><path class="cls-2" d="M103.73,74.27c4.13,1.75,6,1.44,9.29-1.52,1.51-1.37,4.24-4.7,7.61-10.07-.17,1.65-.42,4-.5,4.65-.25,1.87-.4,3.83.94,5.31a5.54,5.54,0,0,0,4.27,1.55h.17c.24,0,6-.33,8-.61,3.61-.48,4.54-1.61,5.37-4.15l.19-.56A69.23,69.23,0,0,0,141.68,58a10.7,10.7,0,0,0,5,6.67c3.9,2.3,8.88,2.15,13.32-.39a15.75,15.75,0,0,0,4.7-4.15c.12.2.25.38.37.55l.1.13c1.49,2.13,6.29,6.28,13.8,6.82,2.65.2,7.62,0,11.17-3.16a12.46,12.46,0,0,0,3.8-6.44,9.3,9.3,0,0,0-1.29-7.16,14.61,14.61,0,0,0-3.45-3.52,5.44,5.44,0,0,0,1.3-.9c2-1.85,3-4.93,1.24-6.92-4.87-5.49-13.06-6.19-17.86-3.7a13.22,13.22,0,0,0-4.66,3.79,4.46,4.46,0,0,0-4-2.58,27.13,27.13,0,0,0-2.87.12,4.52,4.52,0,0,0-4.22,4.12,4.1,4.1,0,0,0-1.8-1.74,27.3,27.3,0,0,0-2.92-1.15L152.21,38h0a5,5,0,0,0-6.3,2,26.69,26.69,0,0,0-2.85,5.73c.38-5,.45-8.72.46-9.07,0,0,0,.08,0,.11.23-3.55-1.09-5.71-4.55-7.45-11.44-5.71-22.21-5.81-28.47-4A17.38,17.38,0,0,0,98.05,38.61c-5.43-3-10.43-2.68-13.87-1.08a3.35,3.35,0,0,0-.6-2.29A4.4,4.4,0,0,0,80.1,33.7c-2-.1-3.78-.1-4.66-.1H75a4.5,4.5,0,0,0-4.51,2.08l0,.06c-1,1.9-2.23,4-3.12,5.53l-4.43-5.6-.1-.1,0-.07c-1.27-1.46-2.86-1.76-5-.94-1.49.58-3.61,1.47-5,2.17a4,4,0,0,0-2.33,2.47,3.26,3.26,0,0,0-.1,1.06,15,15,0,0,0-4.11-1.19,15.34,15.34,0,0,0-6.7.55,17.39,17.39,0,0,0-1-5.17l-.06-.12c-1-2.11-2.7-3-5.22-2.56-8.72,1.44-11.85,1.6-21.46,1.68-3.46,0-4.32,2.09-4.53,3a46.48,46.48,0,0,0-.11,8.5c.54,3.53,3.89,3.46,5,3.44,1.64,0,2.79-.1,3.71-.16l.43,0A104.56,104.56,0,0,0,18.86,64l0,.06a4.35,4.35,0,0,0,5.45,3.54c1.21-.25,5.43-1.39,7-2a3.64,3.64,0,0,0,2.43-3.37,2.16,2.16,0,0,0,0-.36,13.87,13.87,0,0,0,2.95,2.21,14.65,14.65,0,0,0,10.76,1.35,17.9,17.9,0,0,0,5.84-2.78,7.07,7.07,0,0,0,1,1.46c.66.76,4.13,4.6,7.61,5.07a4.38,4.38,0,0,0,2.66-.38l.08,0c2.55-1,6.14-5.33,10.69-12.72l.57-.93a6.51,6.51,0,0,0-.44,1.66A4.16,4.16,0,0,0,77.1,60.7s.27.23.27.23a18.7,18.7,0,0,0,12.38,5.16,15.42,15.42,0,0,0,5.36-.79,4.82,4.82,0,0,0,1.36,3.19l0,.06c.41.44,4.09,4.38,7.21,5.72"/><polyline class="cls-2" points="114.47 37.7 114.47 37.7 114.47 37.7 114.47 37.7"/><path class="cls-3" d="M137.79,31.56c-10.18-5.1-20.24-5.64-26.5-3.82-11.57,3.37-15.15,17.63-4.44,24.61.65.43.25,1.31-.57,2.74a24.41,24.41,0,0,1-6.15,7.75c-2,1.51-3.27,2.14-1.64,4,0,0,3.62,3.94,6.3,5.08,3.22,1.37,4,1.14,6.43-1,1.51-1.37,4.51-5.12,8.12-11.09,1.87-3.1,4.38-3.16,4,1.94,0,0-.5,4.92-.63,5.93-.41,2.93-.09,4,2.61,4,0,0,5.81-.31,7.83-.58,2.84-.38,2.68-.82,3.43-3,4-11.59,4.3-31.48,4.3-31.48.17-2.66-.7-3.8-3.13-5m-7.43,10.72-3.7,2.46a1.76,1.76,0,0,0-.78,1.62c0,.46-.17,3.74-.17,4.14s-.21,1.69-1.68.43l-2.83-2.4a2,2,0,0,0-2.23-.44l-3.85,1.49s-2.32.91-1.45-1.1,1.39-3.6,1.58-4.12a2,2,0,0,0-.35-1.86c-.21-.24-2.06-2.61-2.48-3.19,0,0-1.52-1.75,1-1.64l4.39.11a1.68,1.68,0,0,0,1.46-.83c.71-1.08,2.79-3.62,2.36-3.08.36-.45,1.21-1.55,1.77.28,0,0,.79,2.42,1.17,3.44.26.68.42,1.15,1.71,1.55l4,1.39s1.86.56.11,1.75"/><path class="cls-4" d="M54.19,47a11.51,11.51,0,0,0-8.35-5.38,12,12,0,0,0-11.39,4.66A10.36,10.36,0,0,0,32.78,55c1.86,7.34,9.3,9.39,13.95,8.06,5.26-1.51,8.19-4.5,9-9.11A10.21,10.21,0,0,0,54.19,47M41.4,56.9c-1.47-.48-2.57-2.75-2-5.22s2.31-4.18,4-3.67c1.48.46,2.57,2.87,2,5.35-.55,2.63-2.31,4.09-4,3.54"/><path class="cls-5" d="M148.16,41.36A26.79,26.79,0,0,0,144,54.54a8.5,8.5,0,0,0,4.1,8c3.05,1.79,7,1.65,10.6-.41,7.7-4.42,8.56-15.55,8.35-20.57a1.85,1.85,0,0,0-1.94-1.91,22.31,22.31,0,0,0-2.52.11,2,2,0,0,0-1.85,2.07v.33c-.05,4.66-.37,8.81-2.46,11.35-1.37,1.68-3,2.35-4.08,1.92a2.77,2.77,0,0,1-1.43-2.92,19.79,19.79,0,0,1,2.61-7.29l.37-.7a1.93,1.93,0,0,0-.62-2.67c-.51-.26-1.62-.66-2.61-1l-1.19-.43a2.35,2.35,0,0,0-3.12,1"/><path class="cls-6" d="M175.14,38.11c-3.34,1.74-5.06,4.1-5.41,7.46-.48,4.52,5.86,7.67,7.37,8.46,1.81,1,1.88,2.07,1.41,2.73-.74,1-2.8.74-4.32.15a9.05,9.05,0,0,1-3.88-3c-.81-.91-3.25,1.69-3.63,3.5-.18.82.15,1.22.67,2,1.33,1.89,5.62,5.25,11.83,5.71,1.71.12,6.17.22,9.18-2.5a9.83,9.83,0,0,0,3-5.07,6.77,6.77,0,0,0-.91-5.25c-1.69-2.52-4.51-4.18-7.64-5.61-4.57-2.09-3.68-3.32-2.66-3.89s4.2-.16,6.75,2.19c1.29,1.18,4-2.51,2.85-3.76-4.06-4.58-11-5-14.61-3.12"/><path class="cls-5" d="M81.3,38.43c-2.55,8-13.4,26.27-17.64,28a2,2,0,0,1-1.34.23c-2.25-.32-5.06-3.14-6-4.19C56,62,55.09,61,55.79,60.41c2.64-2.12,5.93-5.35,6.09-7.25a1.72,1.72,0,0,0-.25-1.06c-.24-.33-7.12-9.43-7.82-10.4C52.64,40,52.65,39.64,54,39s3.36-1.51,4.81-2.07,1.67-.16,2.07.3L67,45a.79.79,0,0,0,1.17-.16c.79-.93,4.12-7,4.64-7.92s1.63-.77,2.65-.77,2.76,0,4.51.09,1.84.56,1.33,2.17"/><path class="cls-6" d="M84.38,40.33c-2.77,1.74-4.09,3.92-4.16,6.85-.09,4,5.38,6.59,6.76,7.18,1.64.71,1.87,1.56,1.58,2.2-.43.95-1.41,1.13-2.56.89-2.1-.43-3.73-2.26-5.37-3.19-.93-.51-2.3,1.27-2.5,2.87a1.62,1.62,0,0,0,.73,1.65,16.33,16.33,0,0,0,11,4.76c1.5.06,5.39-.24,7.8-2.8a7.64,7.64,0,0,0,2.25-4.33,6.76,6.76,0,0,0-1.17-4.49,11.05,11.05,0,0,0-5.23-3.79c-4.5-1.85-3.08-3.73-2-4.08S94,44,96.68,45.59c1.44.87,3.36-2.56,2.16-3.41-6-4.32-11.42-3.74-14.46-1.85"/><path class="cls-6" d="M11.78,36c9.76-.07,13.06-.26,21.87-1.72,2-.33,2.15.67,2.48,1.3a17,17,0,0,1,.75,4c0,.7.31,1.73-.88,2.07-3.71,1-4.68,1.36-7.14,2.09-1.14.35-1.07.82-1,1.7a64.63,64.63,0,0,0,2.92,14.82c.48,1.51.7,2.59-.35,3-1.46.54-5.53,1.65-6.62,1.88-1.89.39-2.16-1-2.34-1.71A101.08,101.08,0,0,1,18.87,48c-.08-1.25-.48-2.42-1.65-2.39s-2.55.17-5.17.22c-1.4,0-2.15-.06-2.33-1.26A46.88,46.88,0,0,1,9.79,37c.2-.87,1.2-1,2-1"/><path class="cls-2" d="M194.09,40a1.92,1.92,0,1,1-1.92-1.86A1.88,1.88,0,0,1,194.09,40"/><path class="cls-3" d="M193.75,40a1.58,1.58,0,1,0-1.58,1.53A1.55,1.55,0,0,0,193.75,40"/><path class="cls-2" d="M193.56,40a1.39,1.39,0,1,1-1.39-1.35A1.37,1.37,0,0,1,193.56,40"/><path class="cls-3" d="M191.54,41V38.93h.64a.73.73,0,0,1,.47.13.44.44,0,0,1,.16.38.61.61,0,0,1-.43.59l.71,1h-.37l-.6-.87h-.28V41h-.3m.3-1.09h.1c.38,0,.56-.15.56-.44s-.16-.32-.47-.32h-.19Z"/><path class="cls-1" d="M45,25.49a5.67,5.67,0,0,1-5.94,6,5.51,5.51,0,0,1-5.71-5.81,5.65,5.65,0,0,1,5.91-6A5.48,5.48,0,0,1,45,25.49Zm-9.46.12c0,2.47,1.5,4.34,3.62,4.34s3.62-1.84,3.62-4.39c0-1.91-1-4.33-3.57-4.33S35.58,23.47,35.58,25.61Z"/><path class="cls-1" d="M47.77,23c0-1.17,0-2.12-.1-3.06h1.92l.12,1.87h0a4.43,4.43,0,0,1,3.94-2.12c1.65,0,4.21.93,4.21,4.8v6.74H55.75V24.72c0-1.81-.72-3.33-2.76-3.33a3.06,3.06,0,0,0-2.91,2.1,3,3,0,0,0-.14,1v6.79H47.77Z"/><path class="cls-1" d="M61.43,14.68H63.6V31.23H61.43Z"/><path class="cls-1" d="M68,19.94l2.61,6.67c.27.75.57,1.64.77,2.31h0c.23-.67.47-1.54.77-2.35l2.36-6.63h2.29l-3.25,8c-1.55,3.87-2.61,5.85-4.09,7.06a5.89,5.89,0,0,1-2.66,1.33l-.54-1.72a5.89,5.89,0,0,0,1.9-1,6.2,6.2,0,0,0,1.82-2.28,1.35,1.35,0,0,0,.17-.49,1.71,1.71,0,0,0-.15-.54l-4.4-10.4Z"/><path class="cls-1" d="M90.66,31.23l-.17-1.42h-.08a4.52,4.52,0,0,1-3.64,1.68,3.32,3.32,0,0,1-3.65-3.24c0-2.73,2.56-4.23,7.17-4.2v-.23a2.38,2.38,0,0,0-2.71-2.62,6.18,6.18,0,0,0-3.1.84L84,20.69a7.71,7.71,0,0,1,3.92-1c3.64,0,4.53,2.35,4.53,4.61v4.22a14.9,14.9,0,0,0,.2,2.71Zm-.32-5.76c-2.37,0-5,.35-5,2.54a1.87,1.87,0,0,0,2,2,3,3,0,0,0,2.89-1.89,2.13,2.13,0,0,0,.12-.65Z"/><path class="cls-1" d="M98.44,16.7v3.24h3.1v1.57h-3.1v6.08c0,1.4.42,2.19,1.62,2.19a5.08,5.08,0,0,0,1.26-.14l.1,1.54a5.44,5.44,0,0,1-1.92.28,3.08,3.08,0,0,1-2.34-.86,4,4,0,0,1-.84-2.94V21.51H94.47V19.94h1.85v-2.7Z"/></g></g></svg>