<svg xmlns="http://www.w3.org/2000/svg" viewBox="0 0 117.92 117.92"><defs><style>.cls-1,.cls-4{fill:#fff;}.cls-2{fill:#3777b7;}.cls-3{fill:#3777b8;}.cls-4{fill-rule:evenodd;}</style></defs><g id="Calque_2" data-name="Calque 2"><g id="Calque_4" data-name="Calque 4"><path class="cls-1" d="M117.92,59A59,59,0,1,0,3,77.55H114.92A58.92,58.92,0,0,0,117.92,59Z"/><path class="cls-1" d="M59,117.92A58.78,58.78,0,0,0,103,98.1H14.88A58.78,58.78,0,0,0,59,117.92Z"/><path class="cls-2" d="M3,77.55A58.78,58.78,0,0,0,14.88,98.1H103a59,59,0,0,0,11.88-20.55Z"/><path class="cls-3" d="M100,24.22A6.81,6.81,0,0,0,94.16,21h0a6.67,6.67,0,0,0-6.26,3.73,6,6,0,0,0,1.28,6.91c-4.33,7.08-8.5,9.18-11.73,9.3-4.25,0-4.87-7.32-4.11-17.37a7,7,0,0,0,6.13-6.85,7,7,0,0,0-6.2-6.8,7.34,7.34,0,0,0-8.06,4.74A6.78,6.78,0,0,0,68.88,23C66.78,33.06,64,36.26,59,36.39h0c-5.05,0-7.85-3.21-10-13.33A6.82,6.82,0,0,0,52.8,14.8a7.35,7.35,0,0,0-8-4.87,7.07,7.07,0,0,0-6.32,6.75,7,7,0,0,0,6.07,7c.71,10.07.34,17.26-3.91,17.25-3.27,0-7.59-2.11-11.92-9.14a6,6,0,0,0,.56-7.9,6.85,6.85,0,0,0-8-2.14,6.2,6.2,0,0,0-3.87,7,6.56,6.56,0,0,0,6.47,5l.82,0,8.64,29.2H85l8.25-29.23.92.06A6.8,6.8,0,0,0,100,30.57,6.07,6.07,0,0,0,100,24.22Z"/><path class="cls-4" d="M49.54,50.35c-.34-.32-1.38-.19-3.4-.08A14,14,0,0,1,47.56,46c3.46.19,7.71.68,12.58.66,9.58,0,9.66-3.59,9.66-3.59-4.07,1.17-9.67.83-13.91.44-5.31-.49-10.63-1.72-15-.54-5.19,1.39-5.69,5.24-5.5,6.89,2.08-2.73,4.89-3.7,8.5-3.91.34,0,.7,0,1.07,0a8.77,8.77,0,0,0-1.69,3.46c-.11.37-.23.72-.34,1.07-4.43.38-5.29,2.41-5,2.94s1.85-.17,3.81-.39l.37,0c-.77,2-1.62,3.4-3,4.23a4.86,4.86,0,0,1-4.7.32c.17,2.32,3.65,3.58,6.61,2,2.36-1.29,3.72-4.37,4.47-6.68q1,0,1.95-.06c1.79-.12,2.57-1.94,2.14-2.35m35.79-2.59a.7.7,0,0,0-.88.45h0a.69.69,0,0,0,0,.51c-.67.61-1.29,1.07-1.62,1s-.1-1.28.31-2.33a.77.77,0,1,0-.61-1h0a.78.78,0,0,0,.19.79c-.55,1-1.12,1.88-1.62,1.73h0c-.5-.16-.47-1.21-.34-2.36A.79.79,0,0,0,81.4,46a.78.78,0,0,0-.5-1,.76.76,0,0,0-1,.49h0a.77.77,0,0,0,.37.92c-.26,1.1-.67,2.22-1.09,2.08s-.57-.83-.76-1.72a.71.71,0,0,0,.27-1,.64.64,0,0,0-.39-.33.71.71,0,0,0-.89.45h0a.71.71,0,0,0,.46.89l.08,0,.12,3L83,51.43l1.82-2.36a.7.7,0,0,0,.93-.33l0-.09a.71.71,0,0,0-.46-.89"/><path class="cls-4" d="M79.72,56.07c-.91,1.61-2.2,2.43-2.89,1.83s-.51-2.38.39-4,2.2-2.43,2.89-1.83.52,2.38-.39,4m-1.23-5.53a6.87,6.87,0,0,0-2,1.2,8.79,8.79,0,0,0-.78.83h0a7,7,0,0,0-.59.9,8,8,0,0,0-.66,1.39h0a14,14,0,0,1-.81,1.48,5.32,5.32,0,0,1-1.22,1.11,5.85,5.85,0,0,1-.91.34c-2.08.61-2.46-.88-2-1.59a23.73,23.73,0,0,1,2.1-1.78c1.51-1.26,2.55-2.06,3.27-2.79s.27-1.19-.32-1.29a2.78,2.78,0,0,0-2.56.5c-.52.44-3.58,4.14-3.58,4.14s5-9.66,5.81-11.32c.67-1.36-2.57-1.55-3.47.41-.52,1.15-4.09,9.44-4.53,10.46-.8,1.88-.85,2.17-1.25,2.5h0l0,0h0a2.42,2.42,0,0,1-1.28.59c-.22,0-.35-.13-.38-.39a2.74,2.74,0,0,1,.09-1c.06-.24.14-.51.24-.8s.21-.59.33-.89.24-.59.37-.87l.34-.79c.11-.23.19-.44.27-.61s.11-.3.13-.37a1.93,1.93,0,0,0,0-1.21.68.68,0,0,0-.68-.42,1.81,1.81,0,0,0-.93.26,3.08,3.08,0,0,0-.89.73c-.26.31-.5.63-.75.94s-.34.44-.52.68-.36.46-.52.67l-.71.91h-.2s.05-.13.1-.27.11-.29.19-.48c.16-.4.33-.81.49-1.22.07-.2.14-.39.21-.56a2.72,2.72,0,0,0,.12-.4,1.51,1.51,0,0,0,0-.87c-.09-.22-.3-.33-.66-.33a1.42,1.42,0,0,0-.92.31,2.14,2.14,0,0,0-.6.76q-.33.7-.63,1.41c-.48,1.14-.92,2.3-1.31,3.47-.09.25-.17.49-.24.74a9.63,9.63,0,0,1-1.45.6c-.19.05-.43.09-.57,0a.58.58,0,0,1-.09-.43,7.21,7.21,0,0,1,.73-2.23c.53-1.21,1-2.44,1.5-3.68a.73.73,0,0,0,.06-.48c-.08-.25-.37-.34-.62-.37a1.68,1.68,0,0,0-1.54.41,2,2,0,0,0-.27.48l-1.82,4.16a3.54,3.54,0,0,1-1.75,2.14.62.62,0,0,1-.48,0A.56.56,0,0,1,50,57.1a1.62,1.62,0,0,1,.16-.61c.75-1.85,1.31-3.14,2.06-5a2.77,2.77,0,0,0,.23-.72.36.36,0,0,0-.2-.3,1.52,1.52,0,0,0-1.49.21,4.65,4.65,0,0,0-1.39,2c-.37.82-.75,1.64-1.09,2.47a17.4,17.4,0,0,0-1,2.89,1.79,1.79,0,0,0,.3,1.55,1.36,1.36,0,0,0,.94.32,5.27,5.27,0,0,0,3.68-1.63,1.68,1.68,0,0,0,.53,1.36,1.37,1.37,0,0,0,.92.14,6.68,6.68,0,0,0,1.85-.5l.74-.32a1.45,1.45,0,0,0,0,.3.8.8,0,0,0,.27.47.91.91,0,0,0,.6.17,1.28,1.28,0,0,0,.61-.15,1.83,1.83,0,0,0,.58-.55L62.19,54h.16c-.19.49-.38,1-.56,1.48s-.28.85-.39,1.29a5.56,5.56,0,0,0-.2,2.31c.12.53.36.79.72.79A3.89,3.89,0,0,0,63,59.75a7.83,7.83,0,0,0,1.05-.4c.23-.11.46-.24.7-.37,0,.09,0,.25,0,.33,0,.29,0,.35.16.47s.27.13.55.13a.63.63,0,0,0,.47-.15A21.24,21.24,0,0,0,67.19,58c.08-.11.16-.22.26-.34a1.83,1.83,0,0,0,1.36,2.24c1.12.19,2.94-.07,5.29-1.9a3.31,3.31,0,0,0,.19.72,2.34,2.34,0,0,0,.81,1.05,2.39,2.39,0,0,0,1.46.4A3.57,3.57,0,0,0,77.8,60,5.58,5.58,0,0,0,79,59.37,6.49,6.49,0,0,0,80,58.48a8.43,8.43,0,0,0,1.54-2.24A9.33,9.33,0,0,0,82.24,54a7.52,7.52,0,0,0,.11-1.27s0-.94-.17-1-3.69-1.17-3.69-1.17"/><path class="cls-3" d="M36.65,72.91V69h-.74v-.63h.74v-.21a2,2,0,0,1,.61-1.59,2,2,0,0,1,1.28-.42,2.35,2.35,0,0,1,.81.13l-.13.64a1.49,1.49,0,0,0-.6-.11c-.82,0-1,.62-1,1.32v.24h1.26V69H37.6v3.92Z"/><path class="cls-3" d="M44.11,71.67a11.52,11.52,0,0,0,0,1.24h-.85l-.05-.75h0A2,2,0,0,1,41.5,73c-.83,0-1.81-.4-1.81-2V68.36h1v2.52c0,.86.31,1.44,1.17,1.44a1.38,1.38,0,0,0,1.26-.75,1,1,0,0,0,.09-.42V68.36h1Z"/><path class="cls-3" d="M45.7,69.59c0-.47,0-.85-.05-1.23h.85l0,.75h0a2,2,0,0,1,1.74-.85,1.76,1.76,0,0,1,1.86,1.93v2.72h-1V70.29c0-.74-.31-1.35-1.21-1.35a1.34,1.34,0,0,0-1.28.85.89.89,0,0,0-.07.38v2.74H45.7Z"/><path class="cls-3" d="M52.66,70.45h0c.13-.16.31-.36.47-.52l1.54-1.57h1.15l-2,1.87,2.31,2.68H55l-1.81-2.18-.49.47v1.71h-.95V66.24h.95Z"/><path class="cls-3" d="M61.55,70.6A2.4,2.4,0,0,1,58.94,73a2.33,2.33,0,0,1-2.52-2.34A2.39,2.39,0,0,1,59,68.26,2.32,2.32,0,0,1,61.55,70.6Zm-4.16,0A1.62,1.62,0,0,0,59,72.39a1.64,1.64,0,0,0,1.6-1.77,1.6,1.6,0,1,0-3.19,0Z"/><path class="cls-3" d="M62.27,72.42a.6.6,0,0,1,.65-.59.59.59,0,1,1-.65.59Z"/><path class="cls-3" d="M68.48,72.74A4,4,0,0,1,67,73a2.33,2.33,0,0,1-2.61-2.32c0-1.4,1.11-2.41,2.82-2.41a3.69,3.69,0,0,1,1.32.23l-.21.64a2.58,2.58,0,0,0-1.11-.21,1.71,1.71,0,1,0,0,3.41,3.14,3.14,0,0,0,1.17-.22Z"/><path class="cls-3" d="M74.28,70.6A2.4,2.4,0,0,1,71.67,73a2.33,2.33,0,0,1-2.52-2.34,2.39,2.39,0,0,1,2.61-2.41A2.31,2.31,0,0,1,74.28,70.6Zm-4.16,0a1.62,1.62,0,0,0,1.59,1.75,1.64,1.64,0,0,0,1.6-1.77,1.6,1.6,0,1,0-3.19,0Z"/><path class="cls-3" d="M75.49,69.59c0-.47,0-.85,0-1.23h.84l0,.73h0A1.87,1.87,0,0,1,78,68.26a1.55,1.55,0,0,1,1.49.91h0a2,2,0,0,1,1.75-.91,1.71,1.71,0,0,1,1.72,2v2.68h-.93V70.33c0-.87-.37-1.39-1.14-1.39a1.21,1.21,0,0,0-1.13.75,1.25,1.25,0,0,0-.07.41v2.81h-.94V70.18c0-.72-.37-1.24-1.09-1.24a1.29,1.29,0,0,0-1.19.82,1.05,1.05,0,0,0-.07.4v2.75h-.93Z"/><polygon class="cls-1" points="18.3 88.11 23.24 88.11 23.24 86.32 18.3 86.32 18.3 83.82 23.52 83.82 23.52 82.01 15.96 82.01 15.96 92.86 23.81 92.86 23.81 91.06 18.3 91.06 18.3 88.11"/><path class="cls-1" d="M35.07,82H32.28l-1.84,2.53c-.34.47-.62.86-.9,1.3-.27-.42-.57-.83-.9-1.3L26.86,82h-2.8l4,5.37-4.15,5.48h2.78l1.62-2.37c.52-.69.85-1.17,1.13-1.61.34.48.71,1,1.19,1.59l1.72,2.39h2.8l-4.22-5.55Z"/><path class="cls-1" d="M41.73,83.66a7.07,7.07,0,0,1,2.43.39l.34.13.64-1.72-.32-.13a8.27,8.27,0,0,0-3.15-.48c-4.11,0-7,2.33-7,5.68S37.29,93,41.31,93a10.4,10.4,0,0,0,3.49-.5l.31-.13-.56-1.71-.35.14a7.8,7.8,0,0,1-2.55.4c-2.83,0-4.52-1.4-4.52-3.73S38.85,83.66,41.73,83.66Z"/><polygon class="cls-1" points="48.71 82.01 46.37 82.01 46.37 92.86 54.14 92.86 54.14 91.06 48.71 91.06 48.71 82.01"/><path class="cls-1" d="M62.27,88.37c0,1.91-.92,2.88-2.74,2.88-1.19,0-2.6-.5-2.6-2.88V82H54.56v6.33c0,3,1.75,4.69,4.91,4.69s5.16-1.73,5.16-4.75V82H62.27Z"/><path class="cls-1" d="M71,86.42c-1.92-.59-2.27-1-2.27-1.61s.63-1.17,2-1.17a5.84,5.84,0,0,1,2.27.45l.33.14.72-1.71-.31-.14a7.19,7.19,0,0,0-3-.53c-2.62,0-4.46,1.28-4.46,3.11s2.06,2.77,3.61,3.21c1.79.55,2.14,1,2.14,1.68,0,.84-.88,1.37-2.3,1.37a6.66,6.66,0,0,1-2.79-.62l-.35-.18L66,92.18l.27.14a8.19,8.19,0,0,0,3.41.69c3.55,0,4.8-1.76,4.8-3.27C74.52,87.76,72.76,87,71,86.42Z"/><rect class="cls-1" x="76.06" y="82.01" width="2.35" height="10.85"/><path class="cls-1" d="M85.83,87.24c-.38.88-.79,1.86-1.14,2.82-.28-.86-.64-1.78-1-2.83L81.57,82H79l4.43,10.85h2.28L90.6,82H88.07Z"/><polygon class="cls-1" points="93.42 88.11 98.36 88.11 98.36 86.32 93.42 86.32 93.42 83.82 98.64 83.82 98.64 82.01 91.07 82.01 91.07 92.86 98.92 92.86 98.92 91.06 93.42 91.06 93.42 88.11"/><polygon class="cls-1" points="102.41 89.94 102.7 82.01 100.16 82.01 100.45 89.94 102.41 89.94"/><path class="cls-1" d="M101.43,90.45a1.3,1.3,0,1,0,0,2.58,1.3,1.3,0,1,0,0-2.58Z"/></g></g></svg>