<svg xmlns="http://www.w3.org/2000/svg" viewBox="0 0 160.37 80.67"><defs><style>.cls-1{fill:#fff;}.cls-2{fill:#f4991a;}.cls-3{fill:#1d1d1b;}</style></defs><g id="Calque_2" data-name="Calque 2"><g id="Calque_11" data-name="Calque 11"><rect class="cls-1" width="160.37" height="80.67" rx="19.25"/><path id="path8" class="cls-2" d="M97.88,44.12c-8.46,6.24-20.72,9.57-31.28,9.57A56.61,56.61,0,0,1,28.38,39.1c-.79-.71-.08-1.69.87-1.13A76.94,76.94,0,0,0,67.49,48.11a76.09,76.09,0,0,0,29.16-6c1.44-.61,2.63.93,1.23,2"/><path id="path10" class="cls-2" d="M101.4,40.1c-1.08-1.38-7.15-.65-9.87-.33-.83.1-1-.62-.21-1.14,4.83-3.4,12.77-2.42,13.69-1.28s-.24,9.1-4.78,12.9c-.7.58-1.36.27-1-.5,1-2.55,3.31-8.26,2.22-9.65"/><path id="path12" class="cls-3" d="M91.72,14.6V11.29a.81.81,0,0,1,.83-.83h14.82a.82.82,0,0,1,.85.83v2.84a4.74,4.74,0,0,1-1.11,2.08l-7.68,11A16.35,16.35,0,0,1,107.88,29a1.49,1.49,0,0,1,.78,1.28v3.53c0,.48-.53,1.05-1.09.76a17.06,17.06,0,0,0-15.64,0c-.52.28-1.06-.28-1.06-.76V30.46a4,4,0,0,1,.55-2.28l8.89-12.75H92.57a.81.81,0,0,1-.85-.83"/><path id="path14" class="cls-3" d="M37.69,35.24H33.18a.84.84,0,0,1-.8-.76V11.35a.84.84,0,0,1,.86-.83h4.21a.85.85,0,0,1,.81.77v3h.09A5.94,5.94,0,0,1,44.28,10c2.82,0,4.58,1.37,5.85,4.29a6.65,6.65,0,0,1,11.44-1.76c1.42,1.95,1.13,4.77,1.13,7.25v14.6a.85.85,0,0,1-.87.83h-4.5a.85.85,0,0,1-.81-.83V22.15a28.25,28.25,0,0,0-.13-4.33,2.34,2.34,0,0,0-2.65-2,3,3,0,0,0-2.69,1.89,13.81,13.81,0,0,0-.42,4.43V34.41a.85.85,0,0,1-.87.83h-4.5a.84.84,0,0,1-.81-.83V22.15c0-2.58.43-6.38-2.77-6.38s-3.12,3.71-3.12,6.38V34.41a.84.84,0,0,1-.86.83"/><path id="path16" class="cls-3" d="M121,10c6.69,0,10.31,5.74,10.31,13.05,0,7.05-4,12.65-10.31,12.65-6.56,0-10.14-5.75-10.14-12.9S114.45,10,121,10m0,4.72c-3.32,0-3.53,4.53-3.53,7.35S117.44,31,121,31s3.66-4.87,3.66-7.83A21.36,21.36,0,0,0,124,17,2.83,2.83,0,0,0,121,14.75"/><path id="path18" class="cls-3" d="M140,35.24h-4.49a.85.85,0,0,1-.81-.83V11.27a.86.86,0,0,1,.87-.75h4.18a.87.87,0,0,1,.8.65V14.7h.09c1.26-3.16,3-4.67,6.14-4.67A5.91,5.91,0,0,1,152,12.76c1.18,1.85,1.18,5,1.18,7.2V34.52a.87.87,0,0,1-.87.72h-4.52a.85.85,0,0,1-.8-.72V22c0-2.52.29-6.23-2.82-6.23a2.94,2.94,0,0,0-2.6,1.85,10.16,10.16,0,0,0-.72,4.38V34.41a.87.87,0,0,1-.88.83"/><g id="use28"><path id="path30" class="cls-3" d="M79.91,24.2v-1c-3.26,0-6.7.7-6.7,4.54,0,1.95,1,3.26,2.74,3.26a3.66,3.66,0,0,0,3.12-2,8.9,8.9,0,0,0,.84-4.78m4.54,11a.92.92,0,0,1-1.06.11,11.06,11.06,0,0,1-2.59-3c-2.47,2.53-4.22,3.28-7.42,3.28-3.79,0-6.75-2.34-6.75-7a7.67,7.67,0,0,1,4.81-7.37c2.44-1.07,5.86-1.26,8.47-1.56V19a5.79,5.79,0,0,0-.55-3.27,3,3,0,0,0-2.52-1.17,3.43,3.43,0,0,0-3.63,2.71,1,1,0,0,1-.78.82l-4.37-.47a.79.79,0,0,1-.67-.94c1-5.3,5.79-6.9,10.07-6.9,2.2,0,5.06.58,6.79,2.24,2.19,2,2,4.78,2,7.76v7A6.16,6.16,0,0,0,87.93,31a.84.84,0,0,1,0,1.2c-.92.77-2.55,2.2-3.45,3h0"/></g><path id="path30-2" data-name="path30" class="cls-3" d="M20.83,24.2v-1c-3.25,0-6.69.7-6.69,4.54,0,1.95,1,3.26,2.73,3.26A3.65,3.65,0,0,0,20,29c.89-1.56.84-3,.84-4.78m4.55,11a.94.94,0,0,1-1.07.11,11,11,0,0,1-2.58-3c-2.47,2.53-4.22,3.28-7.43,3.28-3.79,0-6.74-2.34-6.74-7a7.66,7.66,0,0,1,4.8-7.37c2.45-1.07,5.86-1.26,8.47-1.56V19a5.79,5.79,0,0,0-.54-3.27,3,3,0,0,0-2.53-1.17,3.42,3.42,0,0,0-3.62,2.71,1,1,0,0,1-.78.82L9,17.65a.79.79,0,0,1-.67-.94c1-5.3,5.79-6.9,10.08-6.9,2.19,0,5.06.58,6.79,2.24,2.19,2,2,4.78,2,7.76v7A6.12,6.12,0,0,0,28.86,31a.86.86,0,0,1,0,1.2c-.92.77-2.56,2.2-3.46,3h0"/><polygon class="cls-3" points="36.59 68.65 36.59 66.13 43.95 66.13 43.95 63.22 36.59 63.22 36.59 61.3 44.32 61.3 44.32 58.38 33.35 58.38 33.35 71.56 44.29 71.56 44.9 68.65 36.59 68.65"/><polygon class="cls-3" points="60.58 58.38 56.41 58.38 52.67 62.57 49.01 58.38 44.89 58.38 50.54 64.87 44.67 71.56 48.8 71.56 52.65 67.13 56.52 71.56 60.68 71.56 54.74 64.82 60.58 58.38"/><path class="cls-3" d="M70.66,67.05c-.46.85-1.21,1.72-3.33,1.72-3,0-4.12-2-4.12-3.8a3.65,3.65,0,0,1,4-3.83c2.29,0,3,.89,3.41,1.77l.29.61H74.1l-.34-1.32c-.64-2.49-3.05-4-6.46-4-5.09,0-7.41,3.51-7.41,6.77s2.28,6.7,7.39,6.7c4.32,0,5.88-2.36,6.42-3.76l.56-1.45H71Z"/><polygon class="cls-3" points="79.66 58.38 76.42 58.38 76.42 71.56 86.97 71.56 87.73 68.65 79.66 68.65 79.66 58.38"/><path class="cls-3" d="M98.17,66.14c0,1.94-.83,2.63-3.15,2.63-3.15,0-3.15-1.91-3.15-2.63V58.38H88.59v7.86c0,3.41,2.39,5.45,6.39,5.45,5.61,0,6.45-3.51,6.45-5.6V58.38H98.17Z"/><path class="cls-3" d="M110.1,63.2c-2.75-.52-2.75-.88-2.75-1.15,0-.84,1.65-.91,2.16-.91,2.24,0,2.49.92,2.59,1.26l.21.78h3.19L115.33,62c-.24-1.73-1.89-3.75-5.76-3.75s-5.54,2-5.54,3.88c0,2.62,2.52,3.46,5.24,4,3,.57,3,1.15,3,1.58,0,1-1.81,1.14-2.59,1.14-2.33,0-2.86-.89-3.06-1.57l-.23-.76H103.2l.23,1.25c.17.93,1.11,4,6.24,4,4.4,0,6-2.21,6-4.1C115.63,65.25,114,63.94,110.1,63.2Z"/><rect class="cls-3" x="118.31" y="58.38" width="3.24" height="13.18"/><path class="cls-3" d="M131.18,65.8l-.65,1.31c-.26-.57-.56-1.19-.86-1.81l-3.36-6.92h-3.56l6.4,13.18h2.64l6.64-13.18h-3.56Z"/><polygon class="cls-3" points="142.99 68.65 142.99 66.13 150.36 66.13 150.36 63.22 142.99 63.22 142.99 61.3 150.73 61.3 150.73 58.38 139.75 58.38 139.75 71.56 150.7 71.56 151.31 68.65 142.99 68.65"/></g></g></svg>