<svg xmlns="http://www.w3.org/2000/svg" xmlns:xlink="http://www.w3.org/1999/xlink" viewBox="0 0 175 108"><defs><style>.cls-1{fill:#221e1f;}.cls-2{fill:#1d1d1b;}.cls-3{fill:url(#Dégradé_sans_nom_15);}.cls-4,.cls-5{fill:#f6f6f6;}.cls-5{stroke:#f6f6f6;stroke-linecap:round;}.cls-5,.cls-6{stroke-linejoin:round;stroke-width:1.42px;}.cls-6{fill:#fff;stroke:#fff;}</style><linearGradient id="Dégradé_sans_nom_15" x1="87.43" y1="0.99" x2="87.43" y2="71.45" gradientUnits="userSpaceOnUse"><stop offset="0" stop-color="#fff"/><stop offset="0.19" stop-color="#fcfcfc"/><stop offset="0.33" stop-color="#f3f3f3"/><stop offset="0.45" stop-color="#e3e3e3"/><stop offset="0.56" stop-color="#cdcdcc"/><stop offset="0.67" stop-color="#b0b0b0"/><stop offset="0.77" stop-color="#8d8d8c"/><stop offset="0.87" stop-color="#636362"/><stop offset="0.96" stop-color="#343432"/><stop offset="1" stop-color="#1d1d1b"/></linearGradient></defs><g id="Calque_2" data-name="Calque 2"><g id="Calque_3" data-name="Calque 3"><rect class="cls-1" width="175" height="108"/><path class="cls-2" d="M174,1V107H1V1H174m1-1H0V108H175V0Z"/><rect class="cls-2" x="0.99" y="0.99" width="173.02" height="68.43"/><path class="cls-3" d="M135.89,71.45h2.36Q153.66,36.22,169.54,1h-3.82Q150.58,36.23,135.89,71.45Z"/><path class="cls-3" d="M130.67,71.45H133Q146.86,36.22,161.1,1h-3.82Q143.78,36.23,130.67,71.45Z"/><path class="cls-3" d="M125.45,71.45h2.36Q140.05,36.22,152.67,1h-3.81Q137,36.23,125.45,71.45Z"/><path class="cls-3" d="M120.23,71.45h2.37Q133.25,36.22,144.25,1h-3.82Q130.19,36.23,120.23,71.45Z"/><path class="cls-3" d="M115,71.45h2.36Q126.46,36.22,135.81,1H132Q123.38,36.23,115,71.45Z"/><path class="cls-3" d="M88.93,71.45h2.36Q92.45,36.22,93.63,1H89.82Q89.39,36.23,88.93,71.45Z"/><path class="cls-3" d="M109.8,71.45h2.36Q119.65,36.22,127.37,1h-3.82Q116.58,36.23,109.8,71.45Z"/><path class="cls-3" d="M104.58,71.45h2.36q5.91-35.23,12-70.46h-3.82Q109.76,36.23,104.58,71.45Z"/><path class="cls-3" d="M99.36,71.45h2.37Q106,36.22,110.5,1h-3.82Q103,36.23,99.36,71.45Z"/><path class="cls-3" d="M94.14,71.45h2.37Q99.24,36.22,102.07,1H98.25Q96.17,36.23,94.14,71.45Z"/><path class="cls-3" d="M83.71,71.45h2.36Q85.64,36.22,85.18,1H81.37Q82.56,36.23,83.71,71.45Z"/><path class="cls-3" d="M78.49,71.45h2.37Q78.84,36.22,76.75,1H72.93Q75.75,36.23,78.49,71.45Z"/><path class="cls-3" d="M73.27,71.45h2.37Q72,36.22,68.32,1H64.5Q69,36.23,73.27,71.45Z"/><path class="cls-3" d="M68.06,71.45h2.36Q65.23,36.22,59.88,1H56.06Q62.15,36.23,68.06,71.45Z"/><path class="cls-3" d="M62.84,71.45H65.2Q58.43,36.22,51.45,1H47.63Q55.34,36.23,62.84,71.45Z"/><path class="cls-3" d="M57.62,71.45H60Q51.64,36.22,43,1H39.19Q48.54,36.23,57.62,71.45Z"/><path class="cls-3" d="M52.4,71.45h2.37Q44.83,36.22,34.57,1H30.75Q41.73,36.23,52.4,71.45Z"/><path class="cls-3" d="M47.19,71.45h2.36Q38,36.22,26.14,1H22.33Q34.95,36.23,47.19,71.45Z"/><path class="cls-3" d="M42,71.45h2.36Q31.24,36.22,17.72,1H13.9Q28.14,36.23,42,71.45Z"/><path class="cls-3" d="M36.75,71.45h2.36Q24.43,36.22,9.28,1H5.46Q21.35,36.23,36.75,71.45Z"/><path class="cls-3" d="M31.53,71.45H33.9Q17.7,36.38,1,1.3V9Q16.45,40.23,31.53,71.45Z"/><path class="cls-3" d="M26.31,71.45h2.37Q15,44.47,1,17.48v6.46Q13.78,47.69,26.31,71.45Z"/><path class="cls-3" d="M21.1,71.45h2.36Q12.33,51.28,1,31.11v5.47Q11.12,54,21.1,71.45Z"/><path class="cls-3" d="M15.88,71.45h2.36Q9.68,57.1,1,42.74v4.73Q8.48,59.46,15.88,71.45Z"/><path class="cls-3" d="M10.66,71.45H13Q7,62.12,1,52.78V56.9Q5.83,64.18,10.66,71.45Z"/><path class="cls-3" d="M5.44,71.45H7.81L1,61.56v3.62C2.47,67.27,4,69.36,5.44,71.45Z"/><path class="cls-3" d="M2.59,71.45,1,69.28v2.17Z"/><path class="cls-3" d="M1,1H.85c.05.1.09.21.14.31Z"/><path class="cls-3" d="M172.41,71.45H174V69.28Z"/><path class="cls-3" d="M146.32,71.45h2.37Q161.2,47.69,174,23.94V17.48Q160,44.47,146.32,71.45Z"/><path class="cls-3" d="M167.19,71.45h2.37c1.47-2.09,3-4.18,4.45-6.27V61.56Z"/><path class="cls-3" d="M162,71.45h2.36q4.82-7.28,9.67-14.55V52.78Q168,62.11,162,71.45Z"/><path class="cls-3" d="M156.76,71.45h2.36q7.4-12,14.89-24V42.74Q165.33,57.1,156.76,71.45Z"/><path class="cls-3" d="M151.54,71.45h2.36Q163.88,54,174,36.59V31.11Q162.67,51.29,151.54,71.45Z"/><path class="cls-3" d="M141.1,71.45h2.37Q158.53,40.22,174,9V1.3Q157.32,36.37,141.1,71.45Z"/><path class="cls-2" d="M35.39,59.91A23.5,23.5,0,1,1,59,36.41,23.57,23.57,0,0,1,35.39,59.91Z"/><path class="cls-4" d="M35.39,13.76A22.65,22.65,0,1,1,12.66,36.41,22.72,22.72,0,0,1,35.39,13.76m0-1.7A24.35,24.35,0,1,0,59.83,36.41,24.39,24.39,0,0,0,35.39,12.06Z"/><path class="cls-2" d="M87.39,59.91A23.5,23.5,0,1,1,111,36.41,23.57,23.57,0,0,1,87.39,59.91Z"/><path class="cls-4" d="M87.39,13.76A22.65,22.65,0,1,1,64.66,36.41,22.72,22.72,0,0,1,87.39,13.76m0-1.7a24.35,24.35,0,1,0,24.44,24.35A24.39,24.39,0,0,0,87.39,12.06Z"/><path class="cls-2" d="M139.39,59.91A23.5,23.5,0,1,1,163,36.41,23.57,23.57,0,0,1,139.39,59.91Z"/><path class="cls-4" d="M139.39,13.76a22.65,22.65,0,1,1-22.73,22.65,22.72,22.72,0,0,1,22.73-22.65m0-1.7a24.35,24.35,0,1,0,24.44,24.35,24.39,24.39,0,0,0-24.44-24.35Z"/><rect class="cls-4" x="0.99" y="69.42" width="173.02" height="4.05"/><path class="cls-5" d="M22.43,83.78v3.07H21.37A9.11,9.11,0,0,0,21,86a3.77,3.77,0,0,0-.36-.62,1.6,1.6,0,0,0-.41-.41,1.42,1.42,0,0,0-.52-.21,5.12,5.12,0,0,0-.73,0H15.57V90H17.9a1.87,1.87,0,0,0,.75-.13,1,1,0,0,0,.45-.43,3.82,3.82,0,0,0,.34-1h1v3.89h-1a3.63,3.63,0,0,0-.33-.92,1.16,1.16,0,0,0-.44-.44,1.75,1.75,0,0,0-.77-.13H15.57v5.85H19a3.41,3.41,0,0,0,.87-.09,1.54,1.54,0,0,0,.57-.29,1.86,1.86,0,0,0,.42-.55,4.28,4.28,0,0,0,.31-.69c.08-.24.2-.59.34-1h1.08l-.21,3.56H12.27v-.5a2.33,2.33,0,0,0,.9-.36,1,1,0,0,0,.3-.56,6.25,6.25,0,0,0,.07-1.12V86.32a7.86,7.86,0,0,0,0-1,1.38,1.38,0,0,0-.18-.5,1,1,0,0,0-.33-.28,4.32,4.32,0,0,0-.71-.24v-.5Z"/><path class="cls-5" d="M34.77,83.78v.5a1.58,1.58,0,0,0-.75.26.67.67,0,0,0-.23.53,1.67,1.67,0,0,0,.21.71,9.39,9.39,0,0,0,.59,1l1.57,2.47,1.56-2.34c.23-.36.4-.64.52-.85a2.82,2.82,0,0,0,.24-.52,1.31,1.31,0,0,0,.07-.44.77.77,0,0,0-.19-.53,1.13,1.13,0,0,0-.65-.3v-.5h4v.5a2.37,2.37,0,0,0-.73.36,3.84,3.84,0,0,0-.68.67c-.24.3-.59.77-1,1.41l-2.45,3.55,2.76,4.24q.59.9.84,1.26a7.26,7.26,0,0,0,.48.61,3.8,3.8,0,0,0,.47.43,2.93,2.93,0,0,0,.64.31v.5H37.26v-.5a1.67,1.67,0,0,0,.74-.26.61.61,0,0,0,.24-.53,1.47,1.47,0,0,0-.16-.63,7.53,7.53,0,0,0-.48-.85l-2-3.06L33.55,95A2.7,2.7,0,0,0,33,96.28a.81.81,0,0,0,.2.55,1.13,1.13,0,0,0,.65.29v.5H29.77v-.5a2.26,2.26,0,0,0,.66-.27,2.1,2.1,0,0,0,.5-.4,7.73,7.73,0,0,0,.54-.62c.19-.25.5-.68.93-1.3L35,90.8,31.9,86.1c-.29-.44-.51-.75-.66-.95a3.36,3.36,0,0,0-.41-.47,1.33,1.33,0,0,0-.34-.26,2.32,2.32,0,0,0-.35-.14v-.5Z"/><path class="cls-5" d="M58.85,84.08v2.81H57.77a4.21,4.21,0,0,0-.66-1.41,2.28,2.28,0,0,0-.94-.74,3.25,3.25,0,0,0-1.28-.23,3.14,3.14,0,0,0-2,.7,4.53,4.53,0,0,0-1.38,2.09,10.06,10.06,0,0,0-.5,3.37,12,12,0,0,0,.42,3.39,4.4,4.4,0,0,0,1.21,2.11,2.87,2.87,0,0,0,2,.72,3.77,3.77,0,0,0,1.46-.24,2.31,2.31,0,0,0,.95-.76,5.52,5.52,0,0,0,.73-1.52h1.08v2.9a16,16,0,0,1-2.09.38,19.07,19.07,0,0,1-2.36.13A5.05,5.05,0,0,1,50.23,96a8.16,8.16,0,0,1-1.41-5.2,9.17,9.17,0,0,1,.73-3.8,5.65,5.65,0,0,1,2.16-2.53,6.31,6.31,0,0,1,3.4-.89,14.85,14.85,0,0,1,1.83.1A14.51,14.51,0,0,1,58.85,84.08Z"/><path class="cls-5" d="M70.45,96.68H73.3a4.37,4.37,0,0,0,.78-.05,1.92,1.92,0,0,0,.54-.15,1.27,1.27,0,0,0,.4-.3,2.2,2.2,0,0,0,.34-.49,4.75,4.75,0,0,0,.31-.76c.1-.31.22-.77.37-1.39h1.09l-.21,4.08H67.15v-.5a2.4,2.4,0,0,0,.9-.36,1,1,0,0,0,.3-.56,7.37,7.37,0,0,0,.07-1.12V86.32a6.09,6.09,0,0,0-.06-1,1.09,1.09,0,0,0-.18-.5.83.83,0,0,0-.33-.28,4.13,4.13,0,0,0-.7-.24v-.5h4.57v.5a3.6,3.6,0,0,0-.68.22.93.93,0,0,0-.33.26,1.19,1.19,0,0,0-.2.49,6.81,6.81,0,0,0-.06,1.07Z"/><path class="cls-5" d="M95.2,92.83A7.11,7.11,0,0,1,95,94.74a4,4,0,0,1-.62,1.35,3.47,3.47,0,0,1-.94.89,4.92,4.92,0,0,1-1.37.59,7.58,7.58,0,0,1-1.89.21,8.28,8.28,0,0,1-2.26-.27,3.55,3.55,0,0,1-2.44-2.37A7.18,7.18,0,0,1,85.19,93V86.32a7.78,7.78,0,0,0,0-1.07,1.31,1.31,0,0,0-.16-.44.9.9,0,0,0-.3-.28,2.92,2.92,0,0,0-.73-.25v-.5h4.57v.5a2.51,2.51,0,0,0-.85.32.93.93,0,0,0-.33.53,5.62,5.62,0,0,0-.08,1.19v7.17a5.19,5.19,0,0,0,.22,1.65,2.44,2.44,0,0,0,.62,1,2.4,2.4,0,0,0,1,.54,4.9,4.9,0,0,0,1.38.17,3.48,3.48,0,0,0,1.34-.25,2.44,2.44,0,0,0,1-.76,2.92,2.92,0,0,0,.53-1.24,11.59,11.59,0,0,0,.14-2V86.32a4.68,4.68,0,0,0-.1-1.21.93.93,0,0,0-.3-.49,2.36,2.36,0,0,0-.87-.34v-.5h4.33v.5a2.18,2.18,0,0,0-.86.34.89.89,0,0,0-.32.52,5.28,5.28,0,0,0-.09,1.18Z"/><path class="cls-5" d="M105.49,94.47a4.07,4.07,0,0,0,.58,1.4,2.26,2.26,0,0,0,1,.77,4,4,0,0,0,1.51.25,2.8,2.8,0,0,0,1.95-.62,2.31,2.31,0,0,0,.68-1.8,2.61,2.61,0,0,0-.28-1.28,2.92,2.92,0,0,0-.93-1A12.54,12.54,0,0,0,108,91.15,10.43,10.43,0,0,1,106,90a3.94,3.94,0,0,1-1.11-1.22,3,3,0,0,1-.36-1.44,3.41,3.41,0,0,1,.57-2,3.61,3.61,0,0,1,1.67-1.29,6.49,6.49,0,0,1,2.53-.46c.55,0,1.09,0,1.61.08a16.73,16.73,0,0,1,2,.37V86.8h-1.08a4.24,4.24,0,0,0-.63-1.38,2,2,0,0,0-.89-.7,3.76,3.76,0,0,0-1.33-.2,3.15,3.15,0,0,0-1.26.25,1.94,1.94,0,0,0-.89.73,2.05,2.05,0,0,0-.32,1.17,2.53,2.53,0,0,0,.27,1.22,3,3,0,0,0,.87.92,10.67,10.67,0,0,0,1.74,1A14.31,14.31,0,0,1,111.52,91a4.36,4.36,0,0,1,1.2,1.27,3.24,3.24,0,0,1,.43,1.67,4.07,4.07,0,0,1-.36,1.8,3.06,3.06,0,0,1-1,1.19,4.14,4.14,0,0,1-1.52.67,8.36,8.36,0,0,1-1.94.21,16.94,16.94,0,0,1-3.93-.54V94.47Z"/><path class="cls-5" d="M124.64,95.08a7.61,7.61,0,0,0,0,1,1.34,1.34,0,0,0,.16.49.93.93,0,0,0,.34.31,3.29,3.29,0,0,0,.72.24v.5h-4.58v-.5a2.4,2.4,0,0,0,.9-.36,1,1,0,0,0,.3-.56,7.37,7.37,0,0,0,.07-1.12V86.32a6.09,6.09,0,0,0-.06-1,1.09,1.09,0,0,0-.18-.5.83.83,0,0,0-.33-.28,4.13,4.13,0,0,0-.7-.24v-.5h4.58v.5a3.75,3.75,0,0,0-.69.22,1.19,1.19,0,0,0-.34.28,1.25,1.25,0,0,0-.18.5,6.54,6.54,0,0,0-.06,1Z"/><path class="cls-5" d="M138.16,83.78v.5a3.53,3.53,0,0,0-.76.2.89.89,0,0,0-.39.35,1.27,1.27,0,0,0-.13.6,3.39,3.39,0,0,0,.09.74,9,9,0,0,0,.25.9l2.54,8.27L142.88,87c0-.13.09-.27.13-.41l.12-.41a3.35,3.35,0,0,0,.06-.36c0-.1,0-.19,0-.28a1.17,1.17,0,0,0-.3-.89,2,2,0,0,0-1-.38v-.5h4.57v.5a2,2,0,0,0-.72.3,2.08,2.08,0,0,0-.54.61,10.52,10.52,0,0,0-.65,1.36L140,97.78h-1.42L135,86.48a9,9,0,0,0-.51-1.31,2,2,0,0,0-.48-.59,1.86,1.86,0,0,0-.72-.3v-.5Z"/><path class="cls-5" d="M163.71,83.78v3.07h-1.07a7.17,7.17,0,0,0-.33-.88,3.77,3.77,0,0,0-.36-.62,1.77,1.77,0,0,0-.41-.41,1.4,1.4,0,0,0-.53-.21,4.87,4.87,0,0,0-.72,0h-3.44V90h2.33a1.87,1.87,0,0,0,.75-.13,1,1,0,0,0,.45-.43,3.82,3.82,0,0,0,.34-1h1v3.89h-1a3.25,3.25,0,0,0-.34-.92,1.09,1.09,0,0,0-.44-.44,1.67,1.67,0,0,0-.76-.13h-2.33v5.85h3.38a3.47,3.47,0,0,0,.87-.09,1.54,1.54,0,0,0,.57-.29,2,2,0,0,0,.42-.55,4.28,4.28,0,0,0,.31-.69c.08-.24.2-.59.34-1h1.08l-.21,3.56H153.55v-.5a2.33,2.33,0,0,0,.9-.36,1,1,0,0,0,.3-.56,6.25,6.25,0,0,0,.07-1.12V86.32a6.09,6.09,0,0,0-.06-1,1.22,1.22,0,0,0-.17-.5.93.93,0,0,0-.34-.28,3.83,3.83,0,0,0-.7-.24v-.5Z"/><path class="cls-6" d="M26.22,21.76h4.4V51.28h-4.4Zm2.16,0H46v3.93H28.38Zm0,13.15H43.6v3.94H28.38Z"/><path class="cls-6" d="M89.53,39.28v12h-4.4v-12L75.56,21.76h4.9l6.87,13.32L94.2,21.76h4.9Z"/><path class="cls-6" d="M130,21.76h4.41V51.28H130Zm2.14,0h18v3.93h-18Zm0,12.89h15.66v3.94H132.12Zm0,12.69h18v3.94h-18Z"/></g></g></svg>