<svg xmlns="http://www.w3.org/2000/svg" viewBox="0 0 123.97 74.27"><defs><style>.cls-1{fill:#fff;}.cls-2{fill:#f8e928;}.cls-3{fill:#010101;}.cls-4{fill:#1d1d1b;}</style></defs><g id="Calque_2" data-name="Calque 2"><g id="Calque_6" data-name="Calque 6"><rect class="cls-1" width="123.97" height="74.27" rx="5.69"/><rect x="3.29" y="3.64" width="116.49" height="67.14" rx="3.08"/><rect class="cls-2" x="3.29" y="25.15" width="116.49" height="29.67"/><path class="cls-1" d="M28.81,58.39h.71v8.43h2.33v1h-3Z"/><path class="cls-1" d="M32.1,68.09H28.56v-10h1.21v8.43H32.1Zm-3-.5H31.6v-.52H29.27V58.64h-.21Z"/><path class="cls-1" d="M34.07,58.39v9.45h-.71V58.39Z"/><path class="cls-1" d="M34.32,68.09H33.11v-10h1.21Zm-.71-.5h.21v-9h-.21Z"/><path class="cls-1" d="M40.63,63.69c0-1.32-.09-2.9-.08-4.08h0c-.19,1.11-.42,2.29-.69,3.59l-1,4.59h-.53l-.88-4.5c-.26-1.34-.48-2.56-.64-3.68h0c0,1.18-.06,2.76-.11,4.18l-.14,4.05h-.68l.38-9.45h.9L38.1,63c.22,1.17.41,2.2.55,3.19h0c.14-1,.33-2,.58-3.19l1-4.57h.9l.34,9.45h-.69Z"/><path class="cls-1" d="M41.72,68.09H40.53l-.15-4.39h.25l-.25,0c0-.5,0-1.06-.05-1.61-.07.39-.16.8-.25,1.22l-1,4.79h-.95l-.92-4.71c-.08-.39-.15-.76-.21-1.1,0,.53,0,1.06,0,1.57l-.15,4.29H35.62l.4-10h1.35l1,4.77c.13.65.23,1.22.32,1.74.1-.5.2-1.07.34-1.74l1-4.77h1.34Zm-.71-.5h.19l-.32-9h-.46L39.49,63c-.28,1.37-.45,2.32-.57,3.17l0,.22h-.44l-.05-.22c-.13-.89-.3-1.87-.55-3.17L37,58.64H36.5l-.36,9h.17l.14-3.81c0-1.41.09-3,.11-4.17v-.25H37l0,.22c.14,1,.33,2.12.63,3.66l.84,4.3h.13l.92-4.39c.29-1.34.51-2.51.69-3.58l0-.21h.47l0,.25c0,1.16,0,2.74.08,4l-.25.07h.25Z"/><path class="cls-1" d="M44,58.39v9.45h-.71V58.39Z"/><path class="cls-1" d="M44.23,68.09H43v-10h1.21Zm-.71-.5h.21v-9h-.21Z"/><path class="cls-1" d="M47,59.43H45.31v-1h4v1H47.69v8.41H47Z"/><path class="cls-1" d="M47.94,68.09H46.72V59.68H45.06V58.14h4.55v1.54H47.94Zm-.72-.5h.22V59.18h1.67v-.54H45.56v.54h1.66Z"/><path class="cls-1" d="M53.52,63.41H51.4v3.41h2.36v1H50.69V58.39h3v1H51.4v3h2.12Z"/><path class="cls-1" d="M54,68.09H50.44v-10h3.45v1.53H51.65v2.48h2.12v1.51H51.65v2.91H54Zm-3.07-.5h2.57v-.52H51.15V63.16h2.12v-.51H51.15V59.17h2.24v-.53H50.94Z"/><path class="cls-1" d="M55.41,58.52a6,6,0,0,1,1.49-.2,2.43,2.43,0,0,1,2.22,1.18,6.33,6.33,0,0,1,.77,3.39,7.39,7.39,0,0,1-.79,3.68,2.66,2.66,0,0,1-2.41,1.36,6.47,6.47,0,0,1-1.28-.12Zm.7,8.35a2.44,2.44,0,0,0,.71.08c1.51,0,2.33-1.46,2.33-4,0-2.22-.72-3.64-2.21-3.64a2.17,2.17,0,0,0-.83.13Z"/><path class="cls-1" d="M56.69,68.18a6.7,6.7,0,0,1-1.33-.12l-.2,0v-9.7l.18,0a6,6,0,0,1,1.56-.21,2.68,2.68,0,0,1,2.43,1.3,6.53,6.53,0,0,1,.81,3.52,7.68,7.68,0,0,1-.82,3.8A2.93,2.93,0,0,1,56.69,68.18Zm-1-.58a6.43,6.43,0,0,0,1,.08,2.39,2.39,0,0,0,2.19-1.24,7.06,7.06,0,0,0,.76-3.55,6.2,6.2,0,0,0-.73-3.26,2.2,2.2,0,0,0-2-1.06,5.82,5.82,0,0,0-1.24.14Zm1.16-.4a2.47,2.47,0,0,1-.78-.09l-.18,0V59.24l.16-.06a2.73,2.73,0,0,1,.92-.14,2,2,0,0,1,1.49.6,4.65,4.65,0,0,1,1,3.3C59.4,65.64,58.46,67.2,56.82,67.2Zm-.46-.53a3.8,3.8,0,0,0,.46,0c1.81,0,2.08-2.36,2.08-3.77A4.22,4.22,0,0,0,58.08,60a1.54,1.54,0,0,0-1.14-.45,2.56,2.56,0,0,0-.58.06Z"/><path class="cls-1" d="M66.8,63.41H64.68v3.41h2.37v1H64V58.39h3v1H64.68v3H66.8Z"/><path class="cls-1" d="M67.3,68.09H63.73v-10h3.45v1.53H64.93v2.48h2.12v1.51H64.93v2.91H67.3Zm-3.07-.5H66.8v-.52H64.43V63.16h2.12v-.51H64.43V59.17h2.25v-.53H64.23Z"/><path class="cls-1" d="M68.69,58.52a6.05,6.05,0,0,1,1.5-.2A2.42,2.42,0,0,1,72.4,59.5a6.24,6.24,0,0,1,.77,3.39,7.4,7.4,0,0,1-.78,3.68A2.67,2.67,0,0,1,70,67.93a6.63,6.63,0,0,1-1.28-.12Zm.71,8.35a2.35,2.35,0,0,0,.71.08c1.51,0,2.32-1.46,2.32-4,0-2.22-.72-3.64-2.21-3.64a2.12,2.12,0,0,0-.82.13Z"/><path class="cls-1" d="M70,68.18a6.78,6.78,0,0,1-1.33-.12l-.2,0v-9.7l.19,0a6,6,0,0,1,1.56-.21,2.69,2.69,0,0,1,2.43,1.3,6.53,6.53,0,0,1,.8,3.52,7.57,7.57,0,0,1-.82,3.8A2.92,2.92,0,0,1,70,68.18Zm-1-.58a6.53,6.53,0,0,0,1,.08,2.41,2.41,0,0,0,2.2-1.24,7.18,7.18,0,0,0,.75-3.55,6.1,6.1,0,0,0-.73-3.26,2.18,2.18,0,0,0-2-1.06,6,6,0,0,0-1.25.14Zm1.17-.4a2.54,2.54,0,0,1-.79-.09l-.17,0V59.24l.16-.06a2.71,2.71,0,0,1,.91-.14,2,2,0,0,1,1.5.6,4.6,4.6,0,0,1,1,3.3C72.68,65.64,71.75,67.2,70.11,67.2Zm-.46-.53a3.67,3.67,0,0,0,.46,0c1.81,0,2.07-2.36,2.07-3.77A4.17,4.17,0,0,0,71.37,60a1.57,1.57,0,0,0-1.15-.45,2.53,2.53,0,0,0-.57.06Z"/><path class="cls-1" d="M75.52,58.39v9.45h-.7V58.39Z"/><path class="cls-1" d="M75.77,68.09h-1.2v-10h1.2Zm-.7-.5h.2v-9h-.2Z"/><path class="cls-1" d="M78.52,59.43H76.86v-1h4v1H79.23v8.41h-.71Z"/><path class="cls-1" d="M79.48,68.09H78.27V59.68H76.61V58.14h4.54v1.54H79.48Zm-.71-.5H79V59.18h1.67v-.54H77.11v.54h1.66Z"/><path class="cls-1" d="M82.94,58.39v9.45h-.7V58.39Z"/><path class="cls-1" d="M83.19,68.09H82v-10h1.2Zm-.7-.5h.2v-9h-.2Z"/><path class="cls-1" d="M89.57,63c0,3.25-1.14,5-2.54,5s-2.45-1.94-2.45-4.8,1.07-5,2.53-5S89.57,60.21,89.57,63Zm-4.24.15c0,2,.63,3.83,1.74,3.83s1.75-1.78,1.75-3.92c0-1.88-.57-3.85-1.74-3.85S85.33,61.1,85.33,63.17Z"/><path class="cls-1" d="M87,68.25c-1.62,0-2.7-2-2.7-5S85.45,58,87.11,58s2.71,2,2.71,5C89.82,66.19,88.72,68.25,87,68.25Zm.08-9.76c-1.34,0-2.28,1.94-2.28,4.71s.9,4.55,2.2,4.55c1.14,0,2.29-1.46,2.29-4.73C89.32,60.35,88.41,58.49,87.11,58.49Zm0,8.76c-1.37,0-2-2.11-2-4.08s.52-4.19,2-4.19,2,2.06,2,4.1S88.45,67.25,87.07,67.25Zm0-7.77c-.88,0-1.5,1.52-1.5,3.69s.64,3.58,1.49,3.58,1.5-1.54,1.5-3.67C88.57,61.33,88.05,59.48,87.08,59.48Z"/><path class="cls-1" d="M91.21,67.84V58.39H92l1.75,4.78c.41,1.11.72,2.11,1,3.07h0c-.07-1.26-.08-2.41-.08-3.88v-4h.66v9.45H94.6l-1.74-4.79c-.38-1-.74-2.13-1-3.16l0,0c0,1.19.06,2.32.06,3.89v4Z"/><path class="cls-1" d="M95.56,68.09H94.42l-1.79-5c-.2-.54-.37-1-.52-1.49,0,.65,0,1.35,0,2.16v4.29H91v-10h1.2l1.81,5c.16.44.3.86.44,1.28,0-.65,0-1.31,0-2V58.14h1.16Zm-.79-.5h.29v-9H94.9v3.71c0,1.37,0,2.56.08,3.87v.12l-.39.34-.12-.37c-.26-1-.58-2-1-3.05l-1.69-4.62h-.35v9h.17V63.8c0-1.56,0-2.69-.06-3.88v-.15l.41-.25.11.31c.24.88.57,1.88,1,3.13Z"/><path class="cls-1" d="M117,18.63a.72.72,0,1,1,.72.74A.72.72,0,0,1,117,18.63Zm.72.89a.89.89,0,1,0-.9-.89A.89.89,0,0,0,117.69,19.52Zm-.19-.83h.17l.26.43h.17l-.28-.45c.15,0,.27-.09.27-.28s-.12-.28-.36-.28h-.38v1h.15Zm0-.11v-.32h.21c.09,0,.22,0,.22.15s-.11.17-.24.17ZM26.34,8.51h3.73v1.65H28v2.89h1.51v1.76H28v3h2.09V19.5H26.34Zm6.13,5.27-.14-.51h-.09v6.25H30.75v-11h1.43l1.59,5.74.13.5H34V8.51h1.49v11H34l-1.56-5.74Zm3.42-3.62V8.51h4.7v1.65H39v9.36H37.42V10.16ZM41,8.51h3.73v1.65H42.62v2.89h1.51v1.76H42.62v3h2.09V19.5H41Zm7.31,11-.84-4.63H47v4.63H45.39v-11H47c1.94,0,2.77,1.09,2.77,3.17a3,3,0,0,1-.9,2.49l1,5.33H48.29ZM47,13.37a1.14,1.14,0,0,0,.77-.25,1.69,1.69,0,0,0,.44-1.38,1.75,1.75,0,0,0-.44-1.41,1.11,1.11,0,0,0-.77-.22Zm3-3.21V8.51h4.69v1.65H53.17v9.36H51.55V10.16Zm4.31,9.36L56,8.51h2l1.65,11H58.09l-.3-2.25H56.23l-.31,2.25Zm2.75-7.45L57,11.79h-.1l0,.28-.47,3.47h1.11S57.09,12.07,57.09,12.07ZM60.2,8.51h1.62v11H60.2Zm4.32,5.27-.14-.51h-.09v6.25H62.8v-11h1.45l1.59,5.72.13.51h.09V8.49h1.49v11H66.1l-1.58-5.72Zm6.69,5.74-1-6.92-.06-.47H70v7.39H68.51v-11h2l1,5,.07.58h0l.08-.58,1-5h2v11H73.11V12.15H73l-.06.47-1,6.91Zm4.37-11h3.73v1.65H77.22v2.89h1.5v1.76h-1.5v3h2.09V19.5H75.58v-11Zm6.12,5.27-.13-.51h-.1v6.25H80v-11h1.43L83,14.25l.13.5h.1V8.51h1.49v11H83.26Zm3.43-3.62V8.51h4.69v1.65H88.28v9.36H86.66V10.16Zm7.18-1.65H96v1.65H94v2.89h1.51v1.76H94v3H96V19.5H92.31Zm4,11L98,8.51h2l1.66,11H100l-.31-2.25H98.15l-.3,2.25ZM99,12.07l0-.28h-.1l0,.28-.47,3.47h1.11S99,12.07,99,12.07Zm6,7.45-.85-4.63h-.43v4.63h-1.63v-11h1.63c1.94,0,2.77,1.09,2.77,3.17a3,3,0,0,1-.91,2.49l1,5.33h-1.62Zm-1.28-6.15a1.17,1.17,0,0,0,.77-.25,1.8,1.8,0,0,0,.43-1.38,1.79,1.79,0,0,0-.43-1.41,1.13,1.13,0,0,0-.77-.22Zm3-3.21V8.51h4.69v1.65h-1.54v9.36h-1.62V10.16Zm8,4.56h-1.26V19.5h-1.62v-11h1.62v4.56h1.26V8.49h1.62v11h-1.62Z"/><path class="cls-1" d="M23.29,14a8,8,0,0,0-3.94-7.26,9.41,9.41,0,0,0-9.06,0A7.89,7.89,0,0,0,6.37,14a7.87,7.87,0,0,0,3.92,7.23,9.35,9.35,0,0,0,9.06,0A7.92,7.92,0,0,0,23.29,14Zm-8.52,7.57a8.28,8.28,0,0,1-4.44-1.39h6a1.58,1.58,0,1,0,0-3.15H7.76a7.1,7.1,0,0,1-.45-1.39h5.82a1.57,1.57,0,1,0,0-3.14H7.29a9.52,9.52,0,0,1,.44-1.39h8.68a1.58,1.58,0,1,0,0-3.15H10.17a8.3,8.3,0,0,1,4.58-1.48A7.62,7.62,0,0,1,22.4,14,7.62,7.62,0,0,1,14.77,21.58Z"/><path class="cls-3" d="M19.75,6.06a10.26,10.26,0,0,0-9.88,0,8.6,8.6,0,0,0-4.33,7.63V14a4.61,4.61,0,0,0,0,.52A8.64,8.64,0,0,0,9.87,22,9.11,9.11,0,0,0,12.7,23a10.1,10.1,0,0,0,4.24,0A9.52,9.52,0,0,0,19.75,22,8.73,8.73,0,0,0,24.1,14a8.75,8.75,0,0,0-4.35-7.95Zm-9.48,15.2A7.92,7.92,0,0,1,6.35,14a8,8,0,0,1,3.92-7.25,9.35,9.35,0,0,1,9.06,0A7.94,7.94,0,0,1,23.27,14v0a7.9,7.9,0,0,1-3.94,7.24A9.46,9.46,0,0,1,10.27,21.26Z"/><path class="cls-4" d="M14,41H8v8.88h7V52.6H6.12V27.53h8.77v2.7H8V38.3H14Z"/><path d="M15.36,53H5.75V27.15h9.52V30.6H8.34v7.33h6.05v3.45H8.34v8.14h7ZM6.5,52.22h8.11V50.27h-7V40.63h6.05v-2H7.59V29.85h6.93v-2h-8Z"/><path class="cls-4" d="M23.6,37.13l3.34-9.6H29.1L24.7,40,29.21,52.6H27L23.6,42.82,20.15,52.6H18L22.49,40,18.08,27.53h2.15Z"/><path d="M29.74,53h-3l-3.17-9-3.18,9h-3L22.1,40,17.54,27.15h3L23.59,36l3.08-8.85h3L25.1,40Zm-2.45-.75h1.39L24.3,40l0-.13L28.57,27.9H27.21L23.6,38.27,20,27.9H18.61L22.89,40,18.5,52.22h1.38L23.6,41.69Z"/><path class="cls-4" d="M43.14,44.64a13.13,13.13,0,0,1-1.64,6.14,4.15,4.15,0,0,1-3.65,2.16q-2.48,0-4-3.19a20.38,20.38,0,0,1-1.49-8.52V38.82a24.55,24.55,0,0,1,.7-6.15,9.73,9.73,0,0,1,2-4.07A3.85,3.85,0,0,1,38,27.18a4,4,0,0,1,3.56,2.23,13.48,13.48,0,0,1,1.57,6.17H41.29a10.66,10.66,0,0,0-1-4.35A2.49,2.49,0,0,0,38,29.88c-1.18,0-2.1.79-2.76,2.35a17.45,17.45,0,0,0-1,6.67v2.43a18.16,18.16,0,0,0,.95,6.49c.63,1.61,1.52,2.42,2.66,2.42A2.66,2.66,0,0,0,40.2,49a9.93,9.93,0,0,0,1.09-4.35Z"/><path d="M37.85,53.32c-1.8,0-3.25-1.15-4.31-3.41A20.82,20.82,0,0,1,32,41.23V38.82a24.8,24.8,0,0,1,.71-6.24,10,10,0,0,1,2.05-4.23A4.26,4.26,0,0,1,38,26.81a4.41,4.41,0,0,1,3.89,2.41,13.9,13.9,0,0,1,1.61,6.34l0,.4H40.94l0-.35a10.33,10.33,0,0,0-1-4.19A2.13,2.13,0,0,0,38,30.26c-1,0-1.81.69-2.42,2.12a17.34,17.34,0,0,0-1,6.52v2.43a18,18,0,0,0,.92,6.36c.58,1.46,1.33,2.17,2.31,2.17a2.28,2.28,0,0,0,2-1.08,9.81,9.81,0,0,0,1-4.17l0-.34h2.6l0,.4A13.38,13.38,0,0,1,41.82,51,4.55,4.55,0,0,1,37.85,53.32ZM38,27.56a3.46,3.46,0,0,0-2.67,1.29,9.44,9.44,0,0,0-1.89,3.92,24.24,24.24,0,0,0-.68,6v2.41a20.23,20.23,0,0,0,1.45,8.37c.94,2,2.12,3,3.63,3a3.8,3.8,0,0,0,3.34-2A12.31,12.31,0,0,0,42.73,45h-1.1a9.58,9.58,0,0,1-1.12,4.17,3,3,0,0,1-2.66,1.42c-1.3,0-2.32-.89-3-2.65a18.76,18.76,0,0,1-1-6.63V38.9a18.09,18.09,0,0,1,1-6.82c.73-1.71,1.78-2.57,3.11-2.57A2.84,2.84,0,0,1,40.57,31a10.24,10.24,0,0,1,1.06,4.17h1.11a12.69,12.69,0,0,0-1.49-5.61A3.66,3.66,0,0,0,38,27.56Z"/><path class="cls-4" d="M49.26,49.89h6.61V52.6H47.41V27.53h1.85Z"/><path d="M56.25,53H47V27.15h2.6V49.52h6.61Zm-8.46-.75H55.5V50.27H48.89V27.9h-1.1Z"/><path class="cls-4" d="M69,27.53v17a12,12,0,0,1-1.24,5.8,4.42,4.42,0,0,1-3.34,2.54l-.49,0a4.14,4.14,0,0,1-3.65-2.22,11.94,11.94,0,0,1-1.38-6.11V27.53h1.82v17a8.75,8.75,0,0,0,.84,4.23,2.63,2.63,0,0,0,4.76,0,8.75,8.75,0,0,0,.83-4.22v-17Z"/><path d="M64,53.31a4.5,4.5,0,0,1-4-2.4,12.14,12.14,0,0,1-1.43-6.3V27.15h2.57V44.5a8.46,8.46,0,0,0,.79,4,2.22,2.22,0,0,0,2,1.31A2.25,2.25,0,0,0,66,48.56a8.52,8.52,0,0,0,.78-4V27.15h2.6V44.57a12.52,12.52,0,0,1-1.29,6,4.79,4.79,0,0,1-3.62,2.73l-.51,0ZM59.32,27.9V44.61a11.5,11.5,0,0,0,1.32,5.91,3.74,3.74,0,0,0,3.33,2l.47,0a4,4,0,0,0,3-2.34,11.8,11.8,0,0,0,1.2-5.62V27.9h-1.1V44.52a9.22,9.22,0,0,1-.88,4.4,3,3,0,0,1-5.42,0,9.17,9.17,0,0,1-.88-4.41V27.9Z"/><path class="cls-4" d="M77.82,41.42a8.41,8.41,0,0,1-3.44-3A8.37,8.37,0,0,1,73.3,34a8.5,8.5,0,0,1,1.32-4.9A4,4,0,0,1,78,27.18a3.75,3.75,0,0,1,2.57,1,6.45,6.45,0,0,1,1.74,2.75A11.62,11.62,0,0,1,83,34.77H81.12a6.76,6.76,0,0,0-.81-3.58A2.52,2.52,0,0,0,78,29.88,2.46,2.46,0,0,0,75.92,31a5.12,5.12,0,0,0-.76,3,4.51,4.51,0,0,0,.72,2.59,6.4,6.4,0,0,0,2.47,1.94,9.61,9.61,0,0,1,2.72,1.94,6.75,6.75,0,0,1,1.45,2.47A10.33,10.33,0,0,1,83,46.22a8.21,8.21,0,0,1-1.32,4.89,4.16,4.16,0,0,1-3.54,1.83,4.22,4.22,0,0,1-2.68-1,6.3,6.3,0,0,1-1.92-2.71,10.65,10.65,0,0,1-.68-3.91h1.85a6.14,6.14,0,0,0,.93,3.59,2.93,2.93,0,0,0,2.5,1.32,2.6,2.6,0,0,0,2.23-1.07,4.83,4.83,0,0,0,.78-2.91,4.84,4.84,0,0,0-.72-2.85A7.41,7.41,0,0,0,77.82,41.42Z"/><path d="M78.14,53.32a4.6,4.6,0,0,1-2.92-1.08,6.66,6.66,0,0,1-2-2.87,10.9,10.9,0,0,1-.71-4V45h2.6v.38A5.79,5.79,0,0,0,76,48.7a2.54,2.54,0,0,0,2.19,1.16A2.23,2.23,0,0,0,80.07,49a4.5,4.5,0,0,0,.7-2.69,4.44,4.44,0,0,0-.65-2.63,7,7,0,0,0-2.47-1.88h0a8.74,8.74,0,0,1-3.59-3.14A8.77,8.77,0,0,1,72.93,34a8.89,8.89,0,0,1,1.38-5.11A4.34,4.34,0,0,1,78,26.81a4.13,4.13,0,0,1,2.82,1.09,6.82,6.82,0,0,1,1.84,2.91,11.79,11.79,0,0,1,.64,4v.38h-2.6v-.38A6.58,6.58,0,0,0,80,31.38a2.18,2.18,0,0,0-2-1.12,2.08,2.08,0,0,0-1.81.92,4.77,4.77,0,0,0-.7,2.78,4.19,4.19,0,0,0,.66,2.38,6.23,6.23,0,0,0,2.32,1.82,9.71,9.71,0,0,1,2.83,2,7,7,0,0,1,1.54,2.6,10.86,10.86,0,0,1,.49,3.44A8.63,8.63,0,0,1,82,51.33,4.51,4.51,0,0,1,78.14,53.32Zm-4.9-7.62a10,10,0,0,0,.65,3.4,6,6,0,0,0,1.8,2.56,3.84,3.84,0,0,0,2.45.91,3.75,3.75,0,0,0,3.23-1.68,7.86,7.86,0,0,0,1.25-4.67,10.21,10.21,0,0,0-.45-3.2,6.3,6.3,0,0,0-1.38-2.33,9,9,0,0,0-2.61-1.86,6.9,6.9,0,0,1-2.61-2.07,4.88,4.88,0,0,1-.79-2.8,5.51,5.51,0,0,1,.83-3.21A2.82,2.82,0,0,1,78,29.51,2.89,2.89,0,0,1,80.63,31a6.8,6.8,0,0,1,.86,3.41h1.1A10.82,10.82,0,0,0,82,31.06a6.09,6.09,0,0,0-1.64-2.6,3.37,3.37,0,0,0-2.32-.9,3.6,3.6,0,0,0-3.11,1.77A8.21,8.21,0,0,0,73.68,34a8,8,0,0,0,1,4.2A8.07,8.07,0,0,0,78,41.09h0a7.49,7.49,0,0,1,2.73,2.1,5.21,5.21,0,0,1,.79,3.07,5.25,5.25,0,0,1-.84,3.13,3,3,0,0,1-2.54,1.22,3.26,3.26,0,0,1-2.8-1.47,6.2,6.2,0,0,1-1-3.44Z"/><path class="cls-4" d="M89.1,52.6H87.26V27.53H89.1Z"/><path d="M89.47,53H86.88V27.15h2.59Zm-1.84-.75h1.09V27.9H87.63Z"/><path class="cls-4" d="M98.84,48.21l4-20.68h2L99.67,52.6H98L92.87,27.53h2Z"/><path d="M100,53H97.73L92.41,27.15h2.78l3.66,19.07,3.67-19.07h2.78Zm-1.62-.75h1l5-24.32h-1.24l-4.3,22.29L94.57,27.9H93.33Z"/><path class="cls-4" d="M116.36,41h-6v8.88h7V52.6h-8.86V27.53h8.76v2.7h-6.92V38.3h6Z"/><path d="M117.72,53H108.1V27.15h9.52V30.6h-6.93v7.33h6v3.45h-6v8.14h7Zm-8.87-.75H117V50.27h-7V40.63h6v-2h-6V29.85h6.93v-2h-8Z"/></g></g></svg>