<svg xmlns="http://www.w3.org/2000/svg" viewBox="0 0 139.22 157.34"><defs><style>.cls-1{fill:#344395;}.cls-10,.cls-11,.cls-2,.cls-9{fill:#e52421;}.cls-3,.cls-4,.cls-8{fill:#fff;}.cls-4{font-size:22.11px;stroke:#fff;}.cls-10,.cls-11,.cls-4,.cls-9{stroke-miterlimit:10;font-family:Roboto-Regular, Roboto;}.cls-5{letter-spacing:-0.01em;}.cls-6{letter-spacing:0em;}.cls-7{letter-spacing:-0.01em;}.cls-8{fill-rule:evenodd;}.cls-10,.cls-9{font-size:21.3px;}.cls-10,.cls-11,.cls-9{stroke:#e52421;}.cls-9{stroke-width:2px;letter-spacing:0.4em;}.cls-10{letter-spacing:0.04em;}.cls-11{font-size:16.27px;letter-spacing:0.04em;}.cls-12{letter-spacing:0.03em;}</style></defs><g id="Calque_2" data-name="Calque 2"><g id="Calque_6" data-name="Calque 6"><rect class="cls-1" width="139.22" height="157.34" rx="12.34"/><path class="cls-2" d="M126.88,7a5.35,5.35,0,0,1,5.34,5.34V145a5.34,5.34,0,0,1-5.34,5.33H12.34A5.34,5.34,0,0,1,7,145V12.34A5.34,5.34,0,0,1,12.34,7H126.88m0-7H12.34A12.33,12.33,0,0,0,0,12.34V145a12.33,12.33,0,0,0,12.34,12.33H126.88A12.33,12.33,0,0,0,139.22,145V12.34A12.33,12.33,0,0,0,126.88,0Z"/><rect class="cls-3" x="7" y="35.24" width="125.22" height="61.77"/><text class="cls-4" transform="translate(12.78 119.03) scale(1.35 1)">LIM<tspan class="cls-5" x="37.21" y="0">I</tspan><tspan class="cls-6" x="42.91" y="0">TED</tspan></text><text class="cls-4" transform="translate(11.55 143.93) scale(1.39 1)">ED<tspan class="cls-7" x="27.06" y="0">I</tspan><tspan x="32.76" y="0">TION</tspan></text><g id="Calque_2-2" data-name="Calque 2-2"><g id="Calque_4-2" data-name="Calque 4-2"><path class="cls-8" d="M58,19.21c-.37-.34-1.41-.21-3.62-.09a14.41,14.41,0,0,1,1.51-4.5c3.68.19,8.22.71,13.41.69,10.2,0,10.28-3.79,10.28-3.79-4.33,1.23-10.29.88-14.82.46-5.66-.51-11.31-1.8-16-.56-5.53,1.4-6.07,5.52-5.86,7.27,2.21-2.89,5.21-3.91,9.06-4.13h1.14a9.48,9.48,0,0,0-1.81,3.65c-.11.39-.24.76-.35,1.14-4.73.39-5.66,2.53-5.33,3.09s2-.18,4.05-.41h.4a8.2,8.2,0,0,1-3.2,4.45,5.18,5.18,0,0,1-5,.34c.18,2.45,3.89,3.78,7.07,2.11,2.52-1.4,4-4.6,4.77-7a20.06,20.06,0,0,0,2.07-.07c1.91-.12,2.73-2,2.28-2.47m38.19-2.8a.75.75,0,0,0-1,.47h0a.72.72,0,0,0,0,.54c-.71.64-1.42,1.13-1.73,1.06s-.1-1.4.34-2.46a.84.84,0,0,0,1-.58.81.81,0,0,0-.59-1,.45.45,0,0,0-.16,0,.81.81,0,0,0-.91.55h0a.78.78,0,0,0,.2.82c-.59,1.07-1.19,2-1.72,1.84h0c-.54-.17-.51-1.28-.37-2.5A1,1,0,0,0,92,14.09a1,1,0,0,0-.49-.55h0a.78.78,0,0,0-1,.43v0h0a.83.83,0,0,0,.39,1c-.26,1.16-.7,2.33-1.16,2.19s-.6-.88-.8-1.82a.73.73,0,0,0,.31-1h0a.65.65,0,0,0-.41-.35.75.75,0,0,0-.95.47h0a.75.75,0,0,0,.48.94h.09l.14,3.16,5.25,1.74,1.93-2.49a.72.72,0,0,0,1-.31l0,0v-.09a.73.73,0,0,0-.47-.93h0"/><path class="cls-8" d="M90.19,25.24c-1,1.69-2.35,2.56-3.08,1.93s-.54-2.52.41-4.2S89.87,20.41,90.6,21s.55,2.52-.41,4.2M88.88,19.4a7.69,7.69,0,0,0-2.14,1.26,11.38,11.38,0,0,0-.82.88h0a7.52,7.52,0,0,0-.64.95,8.66,8.66,0,0,0-.69,1.4h0a14.88,14.88,0,0,1-.88,1.56,5.7,5.7,0,0,1-1.28,1.17,5.72,5.72,0,0,1-1,.35c-2.22.65-2.62-.92-2.13-1.68a25.94,25.94,0,0,1,2.24-1.8c1.6-1.33,2.72-2.17,3.48-2.94s.29-1.25-.34-1.4a3,3,0,0,0-2.73.53c-.55.46-3.81,4.37-3.81,4.37s5.33-10.19,6.19-11.94c.71-1.4-2.74-1.64-3.71.43-.55,1.21-4.35,10-4.82,11-.85,2-.9,2.28-1.33,2.63h0a2.48,2.48,0,0,1-1.41.62c-.24,0-.38-.13-.41-.41a2.87,2.87,0,0,1,.1-1.05,6.36,6.36,0,0,1,.25-.85c.1-.29.23-.62.36-.94s.25-.61.39-.91l.36-.84c.11-.24.19-.46.28-.64a1.34,1.34,0,0,0,.14-.38,2,2,0,0,0,0-1.29.71.71,0,0,0-.72-.43,1.91,1.91,0,0,0-1,.27,3.19,3.19,0,0,0-1,.77l-.81,1-.55.71-.55.72-.75.95H69a.52.52,0,0,1,.11-.28,3,3,0,0,0,.2-.51c.17-.42.35-.85.52-1.28l.23-.59a3.31,3.31,0,0,0,.12-.42,1.45,1.45,0,0,0,0-.92c-.1-.23-.31-.35-.7-.35a1.51,1.51,0,0,0-1,.33,2.27,2.27,0,0,0-.64.8c-.24.49-.46,1-.67,1.48-.51,1.21-1,2.42-1.42,3.67a6.91,6.91,0,0,0-.25.77,10.6,10.6,0,0,1-1.56.63.81.81,0,0,1-.61,0,.63.63,0,0,1-.08-.45A7,7,0,0,1,64.06,24c.56-1.27,1.06-2.58,1.59-3.88a.72.72,0,0,0,0-.5c-.08-.27-.39-.36-.66-.39a1.75,1.75,0,0,0-1.64.43,2.12,2.12,0,0,0-.28.51l-1.8,4.42a3.67,3.67,0,0,1-1.87,2.25.65.65,0,0,1-.51,0,.54.54,0,0,1-.36-.54,1.61,1.61,0,0,1,.17-.65c.79-1.94,1.41-3.3,2.19-5.26a3.44,3.44,0,0,0,.24-.77.37.37,0,0,0-.21-.31,1.63,1.63,0,0,0-1.59.23,4.89,4.89,0,0,0-1.41,2.09c-.4.87-.79,1.74-1.16,2.61a17.2,17.2,0,0,0-1.06,3A1.89,1.89,0,0,0,56,29a1.46,1.46,0,0,0,1,.33,5.67,5.67,0,0,0,3.92-1.72A1.77,1.77,0,0,0,61.5,29a1.47,1.47,0,0,0,1,.14,7.11,7.11,0,0,0,2-.52l.79-.35a1.71,1.71,0,0,0,0,.32.74.74,0,0,0,.29.49,1,1,0,0,0,.63.19,1.45,1.45,0,0,0,.65-.16,1.92,1.92,0,0,0,.63-.57L71.58,23h.17c-.2.52-.41,1-.59,1.56a9.43,9.43,0,0,0-.42,1.4,5.73,5.73,0,0,0-.35,2.43c.13.56.4.84.78.84a4,4,0,0,0,1.14-.13,7.16,7.16,0,0,0,1.12-.42l.75-.39v.35c0,.31,0,.37.17.49a.8.8,0,0,0,.58.14.72.72,0,0,0,.51-.15c.48-.6.92-1.22,1.41-1.86l.27-.37a1.94,1.94,0,0,0,1.41,2.35h0c1.19.21,3.12-.07,5.65-2a3.9,3.9,0,0,0,.22.76,2.22,2.22,0,0,0,.86,1.1,2.54,2.54,0,0,0,1.56.44,4.15,4.15,0,0,0,1.31-.18,5.68,5.68,0,0,0,1.29-.68,6.67,6.67,0,0,0,1.06-.93,9.11,9.11,0,0,0,1.64-2.35A9.9,9.9,0,0,0,92.88,23a9.33,9.33,0,0,0,.11-1.4s0-1-.18-1.05l-3.93-1.23"/></g></g><polygon class="cls-8" points="25.43 13.76 27.61 18.19 32.5 18.9 28.96 22.35 29.8 27.21 25.43 24.92 21.05 27.21 21.89 22.35 18.35 18.9 23.24 18.19 25.43 13.76"/><polygon class="cls-8" points="113.39 14.11 115.57 18.54 120.46 19.25 116.92 22.69 117.76 27.56 113.39 25.26 109.02 27.56 109.85 22.69 106.32 19.25 111.2 18.54 113.39 14.11"/><text class="cls-9" transform="translate(19.55 54.65) scale(1.42 1)">2021</text><text class="cls-10" transform="translate(12.98 76.05) scale(1.2 1)">SUMMER</text><text class="cls-11" transform="translate(12.86 92.63) scale(1.06 1)">CONVE<tspan class="cls-12" x="56.24" y="0">N</tspan><tspan x="68.26" y="0">TION</tspan></text></g></g></svg>