<svg xmlns="http://www.w3.org/2000/svg" viewBox="0 0 124.12 112.38"><defs><style>.cls-1{fill:#f5f2e8;}.cls-2{fill:#e94c2e;}.cls-3{fill:#020202;}.cls-4{fill:#1d1d1b;stroke:#020202;stroke-miterlimit:10;stroke-width:0.71px;}</style></defs><g id="Calque_2" data-name="Calque 2"><g id="TOY_STOP" data-name="TOY STOP"><ellipse class="cls-1" cx="64.9" cy="56.19" rx="55.39" ry="56.19"/><ellipse class="cls-2" cx="64.9" cy="56.36" rx="49.2" ry="49.9"/><ellipse class="cls-1" cx="61.46" cy="57.85" rx="45.74" ry="41.63"/><path class="cls-3" d="M15.85,75.32a2.83,2.83,0,0,1-2.77-2.27l-3-14.59-2.88.59a2.76,2.76,0,0,1-.57.06,2.83,2.83,0,0,1-2.77-2.27l-1-4.75A2.84,2.84,0,0,1,5.1,48.74l16.21-3.32a2.76,2.76,0,0,1,.57-.06,2.82,2.82,0,0,1,1.4.38,11.67,11.67,0,0,1,4.36-1.83,12.52,12.52,0,0,1,2.48-.26,10.71,10.71,0,0,1,3.4.54,10.24,10.24,0,0,1,4.8,3.33,12.3,12.3,0,0,1,2.47,5.38L42,58.58a12.24,12.24,0,0,1-.15,5.91,10.28,10.28,0,0,1-3.11,5A11.41,11.41,0,0,1,33.39,72a12.54,12.54,0,0,1-2.49.26,11,11,0,0,1-3.39-.54,10.28,10.28,0,0,1-4.41-2.87l.42,2.06a2.78,2.78,0,0,1-.41,2.13,2.84,2.84,0,0,1-1.79,1.21l-4.9,1A2.76,2.76,0,0,1,15.85,75.32ZM30,54.29l-.2,0a1.21,1.21,0,0,0-.23.07,1.91,1.91,0,0,0,0,.7L30.78,61a1.44,1.44,0,0,0,.24.64l.1,0,.15,0a1.34,1.34,0,0,0,.22-.07,1.84,1.84,0,0,0,0-.71L30.25,55a1.67,1.67,0,0,0-.24-.64Z"/><path class="cls-1" d="M30.12,46.49a8,8,0,0,1,2.51.39,7.4,7.4,0,0,1,3.49,2.43A9.38,9.38,0,0,1,38,53.47l1.16,5.68a9.44,9.44,0,0,1-.1,4.56,7.45,7.45,0,0,1-2.26,3.6,8.47,8.47,0,0,1-4,1.92,9.79,9.79,0,0,1-1.92.2A8,8,0,0,1,28.4,69a7.48,7.48,0,0,1-3.49-2.43A9.38,9.38,0,0,1,23,62.45l-1.16-5.68a9.94,9.94,0,0,1-.11-3.59l-4.56.93,3.56,17.38-4.89,1L12.3,55.12,6.64,56.27l-1-4.75L21.88,48.2,22.44,51a7.28,7.28,0,0,1,1.78-2.35,8.47,8.47,0,0,1,4-1.92,9.05,9.05,0,0,1,1.91-.2m.93,18a4.3,4.3,0,0,0,.78-.08,3.22,3.22,0,0,0,1.56-.76,2.68,2.68,0,0,0,.83-1.37,4.3,4.3,0,0,0,0-2L33,54.38a4.28,4.28,0,0,0-.8-1.82,2.69,2.69,0,0,0-1.29-.94,2.86,2.86,0,0,0-1-.16,4.29,4.29,0,0,0-.77.08,3.29,3.29,0,0,0-1.57.75,2.81,2.81,0,0,0-.82,1.38,4.3,4.3,0,0,0,0,2L28,61.53a4.27,4.27,0,0,0,.8,1.83,2.79,2.79,0,0,0,2.25,1.1m-.93-23.64a15.25,15.25,0,0,0-3.05.31,14.8,14.8,0,0,0-4.14,1.5,5.19,5.19,0,0,0-1.05-.1,5.59,5.59,0,0,0-1.14.12L4.53,46A5.66,5.66,0,0,0,.12,52.65l1,4.76a5.65,5.65,0,0,0,5.55,4.53,5.51,5.51,0,0,0,1.14-.11l.1,0L10.3,73.62a5.67,5.67,0,0,0,5.55,4.54A5.52,5.52,0,0,0,17,78l4.89-1a5.68,5.68,0,0,0,3.6-2.43,5,5,0,0,0,.29-.5l.85.31a13.65,13.65,0,0,0,4.28.68A15.39,15.39,0,0,0,34,74.78a14.07,14.07,0,0,0,6.6-3.22,13,13,0,0,0,4-6.28A15.08,15.08,0,0,0,44.73,58l-1.17-5.68a15.09,15.09,0,0,0-3-6.6,13,13,0,0,0-6.11-4.23,13.71,13.71,0,0,0-4.29-.68Z"/><path class="cls-3" d="M45.11,69.33a2.83,2.83,0,0,1-2.77-2.26l-1.7-8.27-9-11.27A2.84,2.84,0,0,1,33.26,43l5.48-1.12a2.74,2.74,0,0,1,.56-.06,2.85,2.85,0,0,1,2.26,1.11l1.74,2.28L44,42.41a2.83,2.83,0,0,1,2.18-2.08l5.48-1.12a2.76,2.76,0,0,1,.57-.06A2.84,2.84,0,0,1,55,42.75L51.09,56.66l1.69,8.27a2.82,2.82,0,0,1-2.21,3.34l-4.89,1A3.66,3.66,0,0,1,45.11,69.33Z"/><path class="cls-1" d="M52.24,42,48.17,56.56,50,65.5l-4.89,1-1.83-8.94L33.82,45.75l5.48-1.12,5.31,6.93,2.14-8.45L52.24,42m0-5.67a5.52,5.52,0,0,0-1.14.12l-5.48,1.12a5.68,5.68,0,0,0-3.43,2.2A5.72,5.72,0,0,0,39.31,39a5.52,5.52,0,0,0-1.14.12L32.69,40.2a5.67,5.67,0,0,0-3.29,9.1L38,60l1.56,7.59a5.67,5.67,0,0,0,5.55,4.54,5.52,5.52,0,0,0,1.14-.12l4.89-1a5.67,5.67,0,0,0,4.42-6.69L54,56.76l3.7-13.25a5.69,5.69,0,0,0-5.46-7.2Z"/><path class="cls-3" d="M64.92,65.18a14.29,14.29,0,0,1-3.56-.46,14.12,14.12,0,0,1-3.27-1.3l-.91-.5A2.84,2.84,0,0,1,56,59.12l2.3-4.4.12-.21a9.57,9.57,0,0,1-1-.74,9.1,9.1,0,0,1-2.85-5.27A9.75,9.75,0,0,1,55,43a9.18,9.18,0,0,1,3.43-4.32,13.78,13.78,0,0,1,5.15-2.1,13.44,13.44,0,0,1,2.75-.28h.27c.35,0,.69,0,1,.06a2.9,2.9,0,0,1,1.33-.67l16.2-3.31a2.91,2.91,0,0,1,.57-.06,2.83,2.83,0,0,1,1.41.37,11.69,11.69,0,0,1,4.35-1.83A12.59,12.59,0,0,1,94,30.59a11,11,0,0,1,3.4.53,10.29,10.29,0,0,1,4.8,3.33,12.28,12.28,0,0,1,2.46,5.38l1.16,5.68a12.24,12.24,0,0,1-.15,5.91,10.21,10.21,0,0,1-3.11,4.95,11.26,11.26,0,0,1-5.3,2.57,12.44,12.44,0,0,1-2.48.26,10.71,10.71,0,0,1-3.4-.54,10.26,10.26,0,0,1-4.4-2.86l.42,2.05a2.84,2.84,0,0,1-2.21,3.35l-4.89,1a3.66,3.66,0,0,1-.57,0A2.84,2.84,0,0,1,76.91,60l-.1-.54a9.67,9.67,0,0,1-3.07,3.28,14.45,14.45,0,0,1-5.23,2.09,17.51,17.51,0,0,1-3.48.36Zm28.89-24-.21,0a.79.79,0,0,0-.23.08,2,2,0,0,0,0,.69l1.2,5.88a1.46,1.46,0,0,0,.25.64H95l.15,0a1.21,1.21,0,0,0,.23-.07,2,2,0,0,0,0-.7l-1.2-5.87a1.46,1.46,0,0,0-.25-.65ZM72.89,46.36a9.33,9.33,0,0,1,1.41.86l-.37-1.83-.67.14Z"/><path class="cls-1" d="M94,33.42a7.81,7.81,0,0,1,2.51.4A7.43,7.43,0,0,1,100,36.24a9.47,9.47,0,0,1,1.88,4.16L103,46.08a9.56,9.56,0,0,1-.1,4.56,7.45,7.45,0,0,1-2.26,3.6,8.52,8.52,0,0,1-4,1.92,9.22,9.22,0,0,1-1.92.2A8.08,8.08,0,0,1,92.23,56a7.45,7.45,0,0,1-3.49-2.43,9.49,9.49,0,0,1-1.89-4.16L85.69,43.7a9.89,9.89,0,0,1-.11-3.58L81,41.05l3.55,17.37-4.89,1L76.14,42.05l-4.87,1-1,2.14-1-.45A8.56,8.56,0,0,0,67.08,44a5.67,5.67,0,0,0-.91-.07,4.83,4.83,0,0,0-1.08.11,4.49,4.49,0,0,0-2.45,1.15,1.69,1.69,0,0,0-.4,1.62,1.19,1.19,0,0,0,.47.85,2.55,2.55,0,0,0,1.16.4,17.35,17.35,0,0,0,2,.09h1a17.55,17.55,0,0,1,3.39.28,5.9,5.9,0,0,1,2.9,1.49,6.4,6.4,0,0,1,1.77,3.51,6.7,6.7,0,0,1-.27,3.95,6.55,6.55,0,0,1-2.5,3A11.45,11.45,0,0,1,67.94,62a14.86,14.86,0,0,1-2.91.31h-.11a11.33,11.33,0,0,1-5.47-1.42l-.91-.5L60.83,56l1,.54a7.21,7.21,0,0,0,2.46.85,8.47,8.47,0,0,0,1,.07A8.38,8.38,0,0,0,67,57.31a5.08,5.08,0,0,0,2.66-1.2,1.59,1.59,0,0,0,.45-1.57,1.5,1.5,0,0,0-.48-.93,2.24,2.24,0,0,0-1.1-.41,12.49,12.49,0,0,0-1.64-.09h-2A19.71,19.71,0,0,1,62.34,53a5.8,5.8,0,0,1-3-1.39,6.42,6.42,0,0,1-1.92-3.69,7.14,7.14,0,0,1,.23-4A6.39,6.39,0,0,1,60,41a10.8,10.8,0,0,1,4.09-1.64,10.62,10.62,0,0,1,2.18-.23h.22a11.86,11.86,0,0,1,2.41.3,8.46,8.46,0,0,1,.82.24l-.25-1.21,16.21-3.32.57,2.77a7.33,7.33,0,0,1,1.77-2.36,8.52,8.52,0,0,1,4-1.92,9.94,9.94,0,0,1,1.92-.2m.93,18a4.2,4.2,0,0,0,.77-.08,3.21,3.21,0,0,0,1.57-.75,2.81,2.81,0,0,0,.82-1.38,4.29,4.29,0,0,0,0-2l-1.2-5.87a4.32,4.32,0,0,0-.8-1.83,2.73,2.73,0,0,0-1.3-.94,2.76,2.76,0,0,0-1-.16,4.2,4.2,0,0,0-.77.08,3.22,3.22,0,0,0-1.57.76,2.74,2.74,0,0,0-.82,1.37,4.29,4.29,0,0,0,0,2l1.2,5.87a4.27,4.27,0,0,0,.8,1.83,2.67,2.67,0,0,0,1.3.94,2.76,2.76,0,0,0,1,.16M94,27.75a15.2,15.2,0,0,0-3,.32,14.54,14.54,0,0,0-4.15,1.49,6,6,0,0,0-1-.1,5.52,5.52,0,0,0-1.14.12L68.37,32.9a5.71,5.71,0,0,0-1.55.55H66.3a17.56,17.56,0,0,0-9.52,2.89A12.15,12.15,0,0,0,52.32,42a12.64,12.64,0,0,0-.48,7.09,12.29,12.29,0,0,0,3,6.14l-1.36,2.6a5.68,5.68,0,0,0,2.3,7.6l.92.5a17.43,17.43,0,0,0,3.92,1.56,17.81,17.81,0,0,0,4.22.55H65a20.84,20.84,0,0,0,4-.42,17.47,17.47,0,0,0,6.26-2.52,14.26,14.26,0,0,0,1.23-.94,5.6,5.6,0,0,0,3.13,1A5.67,5.67,0,0,0,80.83,65l4.89-1a5.62,5.62,0,0,0,3.59-2.43,5.09,5.09,0,0,0,.3-.5c.27.11.56.22.84.31a13.71,13.71,0,0,0,4.29.68,14.67,14.67,0,0,0,3.06-.32,14.1,14.1,0,0,0,6.6-3.21,13.16,13.16,0,0,0,4-6.29,15.2,15.2,0,0,0,.2-7.27l-1.16-5.68a15.2,15.2,0,0,0-3-6.6,13.06,13.06,0,0,0-6.12-4.23A13.6,13.6,0,0,0,94,27.75Z"/><path class="cls-3" d="M105.47,57a2.83,2.83,0,0,1-1.57-.47,2.86,2.86,0,0,1-1.21-1.8L98.16,32.58a2.83,2.83,0,0,1,2.21-3.34l8.79-1.8a11.09,11.09,0,0,1,2.27-.24,10.07,10.07,0,0,1,3,.46,9.44,9.44,0,0,1,4.36,2.94,11.36,11.36,0,0,1,2,10.08,9.21,9.21,0,0,1-2.86,4.4,10.25,10.25,0,0,1-4.76,2.26l-1.12.23,1,5a2.83,2.83,0,0,1-2.2,3.35l-4.9,1A2.6,2.6,0,0,1,105.47,57Z"/><path class="cls-1" d="M111.43,30a7.2,7.2,0,0,1,2.14.32,6.52,6.52,0,0,1,3.05,2.06,8.47,8.47,0,0,1,1.52,7.44,6.46,6.46,0,0,1-2,3.07,7.56,7.56,0,0,1-3.48,1.64l-3.89.8,1.59,7.77-4.89,1L100.94,32l4.89-1h0l3.9-.79a8.4,8.4,0,0,1,1.7-.18m-3.64,10.57,4-.82a2,2,0,0,0,1-.48,1.9,1.9,0,0,0,.52-.92,3.34,3.34,0,0,0,0-1.41,3.21,3.21,0,0,0-.56-1.31,1.75,1.75,0,0,0-1.47-.77,2.59,2.59,0,0,0-.47.05l-4,.82,1,4.84m3.64-16.24a14.56,14.56,0,0,0-2.84.29l-3.9.8-4.89,1a5.67,5.67,0,0,0-4.42,6.69l4.53,22.13a5.67,5.67,0,0,0,5.56,4.53,6.18,6.18,0,0,0,1.13-.11l4.89-1a5.68,5.68,0,0,0,4.42-6.7l-.47-2.31a13,13,0,0,0,4.4-2.46,12.2,12.2,0,0,0,3.73-5.73A14.2,14.2,0,0,0,121,28.78,12.27,12.27,0,0,0,115.31,25a12.68,12.68,0,0,0-3.88-.6Z"/><path class="cls-3" d="M12.44,54.91,6.78,56.07l-.9-4.41,15.86-3.25.63,3.1L22.6,51a7.34,7.34,0,0,1,1.73-2.3,8.42,8.42,0,0,1,3.91-1.88,9.47,9.47,0,0,1,1.88-.2,7.77,7.77,0,0,1,2.46.39A7.35,7.35,0,0,1,36,49.42a9.34,9.34,0,0,1,1.85,4.08L39,59.18a9.23,9.23,0,0,1-.1,4.48,7.3,7.3,0,0,1-2.2,3.52,8.31,8.31,0,0,1-3.91,1.87,8.87,8.87,0,0,1-1.89.2,8,8,0,0,1-2.45-.38A7.35,7.35,0,0,1,25,66.5a9.34,9.34,0,0,1-1.85-4.08L22,56.74a9.82,9.82,0,0,1-.11-3.53L22,53l-5,1,3.56,17.37L16,72.28ZM30,51.28a3.85,3.85,0,0,0-.8.09,3.4,3.4,0,0,0-1.65.79,3,3,0,0,0-.88,1.46,4.54,4.54,0,0,0,0,2.08l1.21,5.87a4.35,4.35,0,0,0,.83,1.9,3,3,0,0,0,1.38,1,3.05,3.05,0,0,0,1,.16,3.83,3.83,0,0,0,.81-.08,3.4,3.4,0,0,0,1.65-.79,3,3,0,0,0,.88-1.46,4.54,4.54,0,0,0,0-2.08L33.2,54.35a4.35,4.35,0,0,0-.83-1.9,2.91,2.91,0,0,0-1.37-1A3.18,3.18,0,0,0,30,51.28Z"/><path class="cls-1" d="M30.12,46.84a7.63,7.63,0,0,1,2.4.38,7,7,0,0,1,3.33,2.31,9.13,9.13,0,0,1,1.81,4l1.17,5.68a9.11,9.11,0,0,1-.1,4.39,7.09,7.09,0,0,1-2.15,3.44,8.16,8.16,0,0,1-3.83,1.83,9.18,9.18,0,0,1-1.85.2,7.57,7.57,0,0,1-2.39-.38,7.1,7.1,0,0,1-3.33-2.31,9.13,9.13,0,0,1-1.81-4L22.2,56.7a9.66,9.66,0,0,1-.1-3.46l.08-.51-.5.11-4.56.93-.35.07.08.35,3.48,17-4.2.86-3.48-17-.07-.35-.35.07L6.92,55.86l-.83-4.07L21.6,48.62,22.1,51l.21,1,.45-.94a7,7,0,0,1,1.69-2.25A8.17,8.17,0,0,1,28.28,47a9.91,9.91,0,0,1,1.84-.19m.93,18a4.24,4.24,0,0,0,.85-.09,3.55,3.55,0,0,0,1.73-.83,3.12,3.12,0,0,0,.93-1.55,4.7,4.7,0,0,0,0-2.15l-1.2-5.88a4.56,4.56,0,0,0-.87-2,3.11,3.11,0,0,0-1.46-1.06A3.22,3.22,0,0,0,30,51.1a5.12,5.12,0,0,0-.84.09A3.56,3.56,0,0,0,27.4,52a3.08,3.08,0,0,0-.93,1.55,4.7,4.7,0,0,0,0,2.15l1.2,5.87a4.55,4.55,0,0,0,.87,2,3.09,3.09,0,0,0,1.46,1,3.21,3.21,0,0,0,1.07.18m-.93-18.32a9.05,9.05,0,0,0-1.91.2,8.47,8.47,0,0,0-4,1.92A7.28,7.28,0,0,0,22.44,51l-.56-2.76L5.67,51.52l1,4.75,5.66-1.15,3.56,17.37,4.89-1L17.19,54.11l4.56-.93a9.94,9.94,0,0,0,.11,3.59L23,62.45a9.38,9.38,0,0,0,1.89,4.16A7.48,7.48,0,0,0,28.4,69a8,8,0,0,0,2.5.39,9.79,9.79,0,0,0,1.92-.2,8.47,8.47,0,0,0,4-1.92,7.45,7.45,0,0,0,2.26-3.6,9.44,9.44,0,0,0,.1-4.56L38,53.47a9.38,9.38,0,0,0-1.89-4.16,7.4,7.4,0,0,0-3.49-2.43,8,8,0,0,0-2.51-.39Zm.93,18a2.79,2.79,0,0,1-2.25-1.1,4.27,4.27,0,0,1-.8-1.83l-1.2-5.87a4.3,4.3,0,0,1,0-2,2.81,2.81,0,0,1,.82-1.38,3.29,3.29,0,0,1,1.57-.75,4.29,4.29,0,0,1,.77-.08,2.86,2.86,0,0,1,1,.16,2.69,2.69,0,0,1,1.29.94,4.28,4.28,0,0,1,.8,1.82l1.2,5.88a4.3,4.3,0,0,1,0,2,2.68,2.68,0,0,1-.83,1.37,3.22,3.22,0,0,1-1.56.76,4.3,4.3,0,0,1-.78.08Z"/><polygon class="cls-3" points="43.46 57.52 34.14 45.87 39.23 44.83 44.69 51.96 46.9 43.26 51.99 42.22 48 56.51 49.8 65.36 45.25 66.29 43.46 57.52"/><path class="cls-1" d="M51.74,42.45l-3.91,14,0,.09,0,.08,1.76,8.59-4.2.86-1.76-8.59,0-.09,0-.06L34.46,46l4.7-1,5.16,6.76.45.58.18-.71L47,43.41l4.7-1m.5-.47-5.49,1.13-2.14,8.45L39.3,44.63l-5.48,1.12,9.46,11.81,1.83,8.94,4.89-1-1.83-8.94L52.24,42Z"/><path class="cls-3" d="M64.92,62.17a11.67,11.67,0,0,1-2.8-.36,11.21,11.21,0,0,1-2.58-1l-.77-.42,2.14-4.09.79.45a7.28,7.28,0,0,0,3.58,1A9.59,9.59,0,0,0,67,57.49a5.43,5.43,0,0,0,2.75-1.25,1.78,1.78,0,0,0,.49-1.73,1.62,1.62,0,0,0-.55-1A2.44,2.44,0,0,0,68.53,53a13,13,0,0,0-1.67-.09h-.94l-1.11,0a19.19,19.19,0,0,1-2.45-.14,5.55,5.55,0,0,1-2.93-1.35,6.17,6.17,0,0,1-1.86-3.58A6.83,6.83,0,0,1,57.79,44a6.18,6.18,0,0,1,2.34-2.91,10.64,10.64,0,0,1,4-1.62,10.37,10.37,0,0,1,2.14-.22h.21a12.11,12.11,0,0,1,2.38.3c.22,0,.45.12.67.19l.42.13-.27-1.32,15.86-3.25.64,3.11.23-.48a7.3,7.3,0,0,1,1.73-2.3,8.37,8.37,0,0,1,3.91-1.88A9.44,9.44,0,0,1,94,33.6a8,8,0,0,1,2.45.38,7.32,7.32,0,0,1,3.41,2.37,9.4,9.4,0,0,1,1.85,4.08l1.16,5.68a9.36,9.36,0,0,1-.09,4.48,7.24,7.24,0,0,1-2.21,3.52A8.37,8.37,0,0,1,96.62,56a9.47,9.47,0,0,1-1.88.2,7.67,7.67,0,0,1-2.45-.39,7.25,7.25,0,0,1-3.41-2.37A9.34,9.34,0,0,1,87,49.35l-1.16-5.68a9.82,9.82,0,0,1-.11-3.53l0-.25-5,1,3.55,17.37-4.54.93L76.27,41.84l-5.13,1L70.22,45l-.81-.37a9.09,9.09,0,0,0-2.3-.73,7.57,7.57,0,0,0-.94-.07,6,6,0,0,0-1.12.11,4.65,4.65,0,0,0-2.54,1.21,1.86,1.86,0,0,0-.44,1.77,1.36,1.36,0,0,0,.54,1,2.66,2.66,0,0,0,1.25.43,17.69,17.69,0,0,0,2,.08h1a18.2,18.2,0,0,1,3.36.27A5.85,5.85,0,0,1,73,50.07a6.28,6.28,0,0,1,1.72,3.41,6.56,6.56,0,0,1-.27,3.86,6.41,6.41,0,0,1-2.43,2.9,11.47,11.47,0,0,1-4.15,1.63,14.44,14.44,0,0,1-2.87.3Zm28.89-24a3.94,3.94,0,0,0-.81.09,3.49,3.49,0,0,0-1.65.79,2.94,2.94,0,0,0-.87,1.46,4.4,4.4,0,0,0,0,2.08l1.2,5.87a4.6,4.6,0,0,0,.83,1.9,3,3,0,0,0,1.38,1,3.16,3.16,0,0,0,1,.17,3.86,3.86,0,0,0,.81-.09,3.49,3.49,0,0,0,1.65-.79,2.94,2.94,0,0,0,.87-1.46,4.4,4.4,0,0,0,0-2.08L97,41.28a4.6,4.6,0,0,0-.83-1.9,3,3,0,0,0-1.38-1A3.16,3.16,0,0,0,93.81,38.21Z"/><path class="cls-1" d="M94,33.77a7.68,7.68,0,0,1,2.4.38,7.12,7.12,0,0,1,3.32,2.31,9.31,9.31,0,0,1,1.82,4l1.16,5.68a9.28,9.28,0,0,1-.09,4.4A7.13,7.13,0,0,1,100.41,54a8,8,0,0,1-3.82,1.83,9.18,9.18,0,0,1-1.85.2,7.63,7.63,0,0,1-2.4-.38A7.05,7.05,0,0,1,89,53.32a9.26,9.26,0,0,1-1.82-4L86,43.63a9.67,9.67,0,0,1-.11-3.46l.08-.5-.5.1L81,40.7l-.35.07.07.35,3.48,17L80,59,76.48,42l-.07-.35-.34.07-4.88,1-.17,0-.08.16-.81,1.82-.65-.3a8.48,8.48,0,0,0-2.35-.74,6.22,6.22,0,0,0-1-.08,5.47,5.47,0,0,0-1.15.12A4.84,4.84,0,0,0,62.38,45a2,2,0,0,0-.49,1.93A1.58,1.58,0,0,0,62.51,48a3,3,0,0,0,1.33.46c.5,0,1.18.08,2,.08h1a17.85,17.85,0,0,1,3.33.27,5.71,5.71,0,0,1,2.72,1.41,6.05,6.05,0,0,1,1.67,3.32,6.44,6.44,0,0,1-.26,3.75A6.26,6.26,0,0,1,72,60.09a11.16,11.16,0,0,1-4.08,1.6A14.15,14.15,0,0,1,65,62h-.11a11.4,11.4,0,0,1-2.76-.35,11.07,11.07,0,0,1-2.54-1L59,60.29l2-3.77.64.36a7.34,7.34,0,0,0,2.58.89,7.54,7.54,0,0,0,1.08.07A9,9,0,0,0,67,57.66a5.53,5.53,0,0,0,2.84-1.3,1.94,1.94,0,0,0,.55-1.89,1.82,1.82,0,0,0-.62-1.14,2.67,2.67,0,0,0-1.26-.49,15.68,15.68,0,0,0-1.69-.08h-1l-1.1,0a18.65,18.65,0,0,1-2.42-.13,5.48,5.48,0,0,1-2.85-1.31,6.06,6.06,0,0,1-1.8-3.49A6.71,6.71,0,0,1,58,44.11a6.06,6.06,0,0,1,2.28-2.84,11.35,11.35,0,0,1,6.07-1.8h.21a12.58,12.58,0,0,1,2.34.29l.67.2.13,0,.57.18-.12-.59-.18-.85,15.52-3.18L85.93,38l.21,1,.46-1a7,7,0,0,1,1.69-2.25A8.12,8.12,0,0,1,92.11,34a9.18,9.18,0,0,1,1.85-.2m.93,18a4.32,4.32,0,0,0,.85-.09,3.51,3.51,0,0,0,1.73-.83,3.06,3.06,0,0,0,.92-1.55,4.44,4.44,0,0,0,0-2.15l-1.2-5.87a4.72,4.72,0,0,0-.86-2,3.16,3.16,0,0,0-1.46-1.06A3.49,3.49,0,0,0,93.81,38a4.14,4.14,0,0,0-.84.09,3.59,3.59,0,0,0-1.74.83,3.06,3.06,0,0,0-.92,1.55,4.44,4.44,0,0,0,0,2.15l1.2,5.88a4.68,4.68,0,0,0,.86,2,3.16,3.16,0,0,0,1.46,1.06,3.26,3.26,0,0,0,1.08.17M94,33.42a9.94,9.94,0,0,0-1.92.2,8.52,8.52,0,0,0-4,1.92,7.33,7.33,0,0,0-1.77,2.36l-.57-2.77L69.5,38.45l.25,1.21a8.46,8.46,0,0,0-.82-.24,11.86,11.86,0,0,0-2.41-.3H66.3a10.62,10.62,0,0,0-2.18.23A10.8,10.8,0,0,0,60,41a6.39,6.39,0,0,0-2.41,3,7.14,7.14,0,0,0-.23,4,6.42,6.42,0,0,0,1.92,3.69,5.8,5.8,0,0,0,3,1.39,19.71,19.71,0,0,0,2.47.13h2a12.49,12.49,0,0,1,1.64.09,2.24,2.24,0,0,1,1.1.41,1.5,1.5,0,0,1,.48.93,1.59,1.59,0,0,1-.45,1.57A5.08,5.08,0,0,1,67,57.31a8.38,8.38,0,0,1-1.69.18,8.47,8.47,0,0,1-1-.07,7.21,7.21,0,0,1-2.46-.85l-1-.54-2.29,4.4.91.5a11.33,11.33,0,0,0,5.47,1.42H65A14.86,14.86,0,0,0,67.94,62a11.45,11.45,0,0,0,4.21-1.66,6.55,6.55,0,0,0,2.5-3,6.7,6.7,0,0,0,.27-3.95,6.4,6.4,0,0,0-1.77-3.51,5.9,5.9,0,0,0-2.9-1.49,17.55,17.55,0,0,0-3.39-.28h-1a17.35,17.35,0,0,1-2-.09,2.55,2.55,0,0,1-1.16-.4,1.19,1.19,0,0,1-.47-.85,1.69,1.69,0,0,1,.4-1.62,4.49,4.49,0,0,1,2.45-1.15A4.83,4.83,0,0,1,66.17,44a5.67,5.67,0,0,1,.91.07,8.56,8.56,0,0,1,2.25.71l1,.45,1-2.14,4.87-1,3.55,17.37,4.89-1L81,41.05l4.55-.93a9.89,9.89,0,0,0,.11,3.58l1.16,5.68a9.49,9.49,0,0,0,1.89,4.16A7.45,7.45,0,0,0,92.23,56a8.08,8.08,0,0,0,2.51.39,9.22,9.22,0,0,0,1.92-.2,8.52,8.52,0,0,0,4-1.92,7.45,7.45,0,0,0,2.26-3.6,9.56,9.56,0,0,0,.1-4.56l-1.17-5.68A9.47,9.47,0,0,0,100,36.24a7.43,7.43,0,0,0-3.49-2.42,7.81,7.81,0,0,0-2.51-.4Zm.93,18a2.76,2.76,0,0,1-1-.16,2.67,2.67,0,0,1-1.3-.94,4.27,4.27,0,0,1-.8-1.83l-1.2-5.87a4.29,4.29,0,0,1,0-2,2.74,2.74,0,0,1,.82-1.37A3.22,3.22,0,0,1,93,38.47a4.2,4.2,0,0,1,.77-.08,2.76,2.76,0,0,1,1,.16,2.73,2.73,0,0,1,1.3.94,4.32,4.32,0,0,1,.8,1.83l1.2,5.87a4.29,4.29,0,0,1,0,2,2.81,2.81,0,0,1-.82,1.38,3.21,3.21,0,0,1-1.57.75,4.2,4.2,0,0,1-.77.08Z"/><path class="cls-3" d="M101.14,32.15l8.62-1.76a8.12,8.12,0,0,1,1.67-.18,6.87,6.87,0,0,1,2.09.32,6.34,6.34,0,0,1,3,2,7.68,7.68,0,0,1,1.6,3.47,7.57,7.57,0,0,1-.11,3.8,6.29,6.29,0,0,1-1.94,3,7.45,7.45,0,0,1-3.4,1.59l-4.07.84L110.15,53l-4.55.93Zm10.13,2.58a2.32,2.32,0,0,0-.51.05l-4.17.85,1.06,5.19,4.17-.86a2.08,2.08,0,0,0,1.08-.53,2,2,0,0,0,.57-1,3.39,3.39,0,0,0,0-1.49,3.28,3.28,0,0,0-.59-1.38,2.09,2.09,0,0,0-.92-.71A2,2,0,0,0,111.27,34.73Z"/><path class="cls-1" d="M111.43,30.39a6.9,6.9,0,0,1,2,.31,6.13,6.13,0,0,1,2.88,1.95,8.13,8.13,0,0,1,1.45,7.1,6.06,6.06,0,0,1-1.89,2.91,7.22,7.22,0,0,1-3.32,1.56l-3.9.8-.34.07.07.35,1.52,7.43-4.2.85-4.39-21.43,4.55-.93,3.9-.8a8.36,8.36,0,0,1,1.63-.17M107.52,41l.34-.07,4-.82a2.28,2.28,0,0,0,1.16-.58,2.08,2.08,0,0,0,.62-1.09,3.46,3.46,0,0,0,0-1.57,3.36,3.36,0,0,0-.62-1.45,2.19,2.19,0,0,0-1-.77,2.11,2.11,0,0,0-.75-.13,2.55,2.55,0,0,0-.54.06l-4,.82-.35.07.07.34,1,4.84.08.35m3.91-11a8.4,8.4,0,0,0-1.7.18l-3.9.79h0l-4.89,1,4.53,22.12,4.89-1-1.59-7.77,3.89-.8a7.56,7.56,0,0,0,3.48-1.64,6.46,6.46,0,0,0,2-3.07,8.47,8.47,0,0,0-1.52-7.44,6.52,6.52,0,0,0-3.05-2.06,7.2,7.2,0,0,0-2.14-.32Zm-3.64,10.57-1-4.84,4-.82a2.59,2.59,0,0,1,.47-.05,1.75,1.75,0,0,1,1.47.77A3.21,3.21,0,0,1,113.3,37a3.34,3.34,0,0,1,0,1.41,1.9,1.9,0,0,1-.52.92,2,2,0,0,1-1,.48l-4,.82Z"/><path class="cls-4" d="M28.37,76.5l1.72-.36,2.51,12-1.72.36Zm.83-.17,7-1.47.34,1.61-7,1.47Zm1.1,5.26,6.11-1.27.33,1.61L30.63,83.2Zm1.08,5.18,7-1.47.33,1.61-7,1.47Z"/><path class="cls-4" d="M42.22,80.66l-.35-.36-5.29-5.51,1.92-.4,4,4.29.38.39,5.58,5.82-1.93.41Zm-.41-1.57,2-5.8,1.93-.41-2.69,7.37-2.14,6.21-1.93.4Z"/><path class="cls-4" d="M50.44,84a3.86,3.86,0,0,1-1.82-1.27,5.09,5.09,0,0,1-1-2.25l-.68-3.3a5.17,5.17,0,0,1,0-2.48,4,4,0,0,1,1.17-1.89,4.57,4.57,0,0,1,2.12-1,4.34,4.34,0,0,1,2,0,4.13,4.13,0,0,1,1.74,1,4.8,4.8,0,0,1,1.2,1.71l-1.76.37a2.62,2.62,0,0,0-.75-.9,2.7,2.7,0,0,0-1-.5,2.57,2.57,0,0,0-2.33.61,2.44,2.44,0,0,0-.67,1.18,3.42,3.42,0,0,0,0,1.56l.68,3.31A3.42,3.42,0,0,0,50,81.57a2.39,2.39,0,0,0,1.08.82,2.5,2.5,0,0,0,1.39.08,2.64,2.64,0,0,0,1-.44,2.44,2.44,0,0,0,.74-.85A2.6,2.6,0,0,0,54.51,80l1.76-.37a4.68,4.68,0,0,1-.42,2,4.14,4.14,0,0,1-1.22,1.56,4.39,4.39,0,0,1-1.84.85A4.63,4.63,0,0,1,50.44,84Z"/><path class="cls-4" d="M55.89,70.77l1.72-.36,2.51,12-1.72.36Zm3,10.26,7-1.46.33,1.61-7,1.46Z"/><path class="cls-4" d="M68.82,80.23A3.59,3.59,0,0,1,67,79a5.45,5.45,0,0,1-1-2.31L64.42,69l1.72-.36,1.61,7.74a2.9,2.9,0,0,0,1.1,1.9,2.51,2.51,0,0,0,2.05.33,2.56,2.56,0,0,0,1.77-1.12,3,3,0,0,0,.26-2.18l-1.62-7.75L73,67.2l1.6,7.69a5.39,5.39,0,0,1,0,2.53,3.56,3.56,0,0,1-1.15,1.84,4.94,4.94,0,0,1-2.23,1A4.83,4.83,0,0,1,68.82,80.23Z"/><path class="cls-4" d="M79.2,78.45a7.35,7.35,0,0,1-1.58-.19,7.21,7.21,0,0,1-1.46-.56l.8-1.52a5,5,0,0,0,1.73.57,5.28,5.28,0,0,0,1.89-.08,3.81,3.81,0,0,0,2-.91A1.58,1.58,0,0,0,83,74.23h0a1.41,1.41,0,0,0-.54-.93,2,2,0,0,0-1-.36,10.1,10.1,0,0,0-1.43-.05H79.8a15,15,0,0,1-2.1,0,2.88,2.88,0,0,1-1.51-.68,3.2,3.2,0,0,1-1-1.85h0a3.5,3.5,0,0,1,.11-2,3.2,3.2,0,0,1,1.24-1.51,6,6,0,0,1,2.26-.91,6.56,6.56,0,0,1,1.32-.13,6.91,6.91,0,0,1,1.35.16,7.47,7.47,0,0,1,1.36.45l-.7,1.54a5.66,5.66,0,0,0-1.55-.46,4.14,4.14,0,0,0-1.45,0,3.46,3.46,0,0,0-1.84.9,1.63,1.63,0,0,0-.41,1.54h0a1.35,1.35,0,0,0,.56.9,2.13,2.13,0,0,0,1,.34,13.54,13.54,0,0,0,1.56,0h.32a10.27,10.27,0,0,1,2,.14,3,3,0,0,1,1.45.73,3.16,3.16,0,0,1,.89,1.77v0a3.32,3.32,0,0,1-.14,2,3.38,3.38,0,0,1-1.29,1.51,6.49,6.49,0,0,1-2.35.92A8.61,8.61,0,0,1,79.2,78.45Z"/><path class="cls-4" d="M88.52,76.55l-1.72.36-2.51-12L86,64.5Z"/><path class="cls-4" d="M87.26,64.24l1.87-.39L94,72.68l1-10.05,1.87-.39L95.39,75.12l-1.63.34Z"/><path class="cls-4" d="M97.87,62l1.72-.36,2.51,12-1.72.36Zm.84-.17,7-1.47.34,1.61-7,1.46Zm1.09,5.26,6.11-1.27.34,1.6-6.11,1.28Zm1.08,5.18,7-1.47.33,1.61-7,1.47Z"/></g></g></svg>