<svg xmlns="http://www.w3.org/2000/svg" viewBox="0 0 94.77 86.22"><defs><style>.cls-1{fill:#fff;}.cls-2,.cls-4{fill:#cd233f;}.cls-3{fill:#029bd0;}.cls-4{fill-rule:evenodd;}.cls-5{fill:#d02842;}</style></defs><g id="Calque_2" data-name="Calque 2"><g id="Calque_5" data-name="Calque 5"><rect class="cls-1" x="2" y="2" width="90.77" height="82.22" rx="8.76"/><path class="cls-2" d="M84,4a6.76,6.76,0,0,1,6.76,6.76v64.7A6.76,6.76,0,0,1,84,82.22H10.76A6.76,6.76,0,0,1,4,75.46V10.76A6.76,6.76,0,0,1,10.76,4H84m0-4H10.76A10.78,10.78,0,0,0,0,10.76v64.7A10.78,10.78,0,0,0,10.76,86.22H84A10.77,10.77,0,0,0,94.77,75.46V10.76A10.77,10.77,0,0,0,84,0Z"/><path class="cls-3" d="M22.84,25h7.22v1.82H24.57v5.56h5.07v1.78H24.57V41.7H22.84Z"/><path class="cls-3" d="M24.82,42H22.59V24.71h7.72V27H24.82v5.06h5.07v2.28H24.82Zm-1.73-.5h1.23V33.87h5.07V32.59H24.32V26.53h5.49V25.21H23.09Z"/><path class="cls-3" d="M34.94,36.43,33.55,41.7H31.76L36.31,25H38.4L43,41.7H41.13L39.7,36.43Zm4.4-1.68L38,29.93c-.29-1.09-.49-2.09-.69-3.06h0c-.2,1-.42,2-.68,3L35.3,34.75Z"/><path class="cls-3" d="M43.31,42H40.94L39.5,36.68H35.13L33.74,42H31.43l4.69-17.24h2.47l0,.19Zm-2-.5h1.33L38.21,25.21H36.5L32.08,41.45h1.28l1.39-5.27h5.14ZM39.66,35H35l1.4-5.16c.22-.87.44-1.83.67-3l0-.21h.41l.08.2,0,.18c.19.91.38,1.84.66,2.86Zm-4-.5H39L37.78,30c-.19-.69-.34-1.35-.47-2-.16.72-.3,1.36-.46,2Z"/><path class="cls-3" d="M46.74,25h1.73V39.88H54.2V41.7H46.74Z"/><path class="cls-3" d="M54.45,42h-8V24.71h2.23V39.63h5.73ZM47,41.45h7V40.13H48.22V25.21H47Z"/><path class="cls-3" d="M57.93,25h1.73V39.88h5.73V41.7H57.93Z"/><path class="cls-3" d="M65.64,42h-8V24.71h2.23V39.63h5.73Zm-7.46-.5h7V40.13H59.41V25.21H58.18Z"/><path class="cls-3" d="M15.08,56.77a3.67,3.67,0,0,1-2.12.59c-2.26,0-4-2.22-4-6.31,0-3.9,1.71-6.54,4.19-6.54a3.11,3.11,0,0,1,1.91.55l-.25,1.31a2.72,2.72,0,0,0-1.62-.51c-1.88,0-3.13,1.86-3.13,5.14,0,3,1.13,5,3.08,5a2.88,2.88,0,0,0,1.69-.52Z"/><path class="cls-3" d="M13,57.61c-2.56,0-4.22-2.57-4.22-6.56s1.79-6.79,4.44-6.79a3.26,3.26,0,0,1,2.07.61l.11.09L15,46.81l-.32-.24a2.45,2.45,0,0,0-1.47-.46c-1.78,0-2.88,1.87-2.88,4.89s1.06,4.76,2.83,4.76a2.65,2.65,0,0,0,1.54-.47L15,55l.31,1.83-.12.09A3.78,3.78,0,0,1,13,57.61Zm.22-12.85c-2.35,0-3.94,2.53-3.94,6.29S10.7,57.11,13,57.11a3.53,3.53,0,0,0,1.84-.46l-.12-.75a3.33,3.33,0,0,1-1.51.36c-2.05,0-3.33-2-3.33-5.26s1.29-5.39,3.38-5.39a3,3,0,0,1,1.44.35l.15-.79A2.94,2.94,0,0,0,13.18,44.76Z"/><path class="cls-3" d="M24.05,50.81c0,4.29-1.68,6.57-3.73,6.57s-3.6-2.55-3.6-6.33c0-4,1.58-6.54,3.72-6.54S24.05,47.11,24.05,50.81ZM17.82,51c0,2.66.93,5,2.56,5S23,53.72,23,50.89c0-2.48-.83-5.07-2.55-5.07S17.82,48.28,17.82,51Z"/><path class="cls-3" d="M20.32,57.63c-2.27,0-3.85-2.71-3.85-6.58s1.63-6.79,4-6.79,3.86,2.63,3.86,6.55C24.3,55,22.74,57.63,20.32,57.63Zm.12-12.87c-2,0-3.47,2.59-3.47,6.29s1.38,6.08,3.35,6.08,3.48-2.54,3.48-6.32C23.8,47.19,22.45,44.76,20.44,44.76Zm-.06,11.55c-1.93,0-2.81-2.74-2.81-5.29,0-2.72.88-5.45,2.83-5.45s2.8,2.76,2.8,5.32C23.2,54.13,22.07,56.31,20.38,56.31Zm0-10.24c-1.6,0-2.33,2.56-2.33,5s.8,4.79,2.31,4.79,2.32-2,2.32-4.92C22.7,48.49,21.91,46.07,20.4,46.07Z"/><path class="cls-3" d="M26.46,57.17V44.71h1.13L30.17,51c.59,1.46,1,2.77,1.44,4l0,0c-.1-1.67-.12-3.18-.12-5.13V44.71h1V57.17H31.44l-2.55-6.32c-.56-1.39-1.09-2.81-1.5-4.16l0,0c.06,1.57.08,3.07.08,5.14v5.32Z"/><path class="cls-3" d="M32.74,57.42H31.27l-2.61-6.48c-.4-1-.73-1.85-1-2.64,0,1.05,0,2.17,0,3.55v5.57H26.21v-13h1.55l2.64,6.46c.33.83.63,1.62.9,2.4,0-1.1,0-2.19,0-3.4V44.46h1.48Zm-1.13-.5h.63V45h-.48v5c0,1.83,0,3.4.12,5.11v.14l-.4.29-.12-.32c-.39-1.29-.86-2.61-1.44-4L27.43,45h-.72v12h.48V51.85c0-2.08,0-3.56-.08-5.13v-.16l.41-.21.12.27c.35,1.16.82,2.48,1.49,4.14Z"/><path class="cls-3" d="M37.13,57.17,34.51,44.71h1.12l1.25,6.14c.34,1.68.64,3.2.85,4.66h0c.22-1.44.56-3,.91-4.64L40,44.71h1.11L38.27,57.17Z"/><path class="cls-3" d="M38.47,57.42H36.92l-2.72-13h1.63l1.29,6.34c.25,1.2.46,2.26.63,3.27.21-1.1.46-2.23.68-3.26l1.4-6.35h1.62l-.07.31Zm-1.14-.5h.74l2.75-12h-.59l-1.31,6c-.32,1.46-.68,3.14-.92,4.63l0,.21h-.43l0-.21c-.21-1.42-.5-2.89-.86-4.65L35.42,45h-.6Z"/><path class="cls-3" d="M47.23,51.33H44.11v4.49h3.48v1.35H43.08V44.71h4.33v1.35h-3.3V50h3.12Z"/><path class="cls-3" d="M47.84,57.42h-5v-13h4.83v1.85h-3.3v3.44h3.12v1.83H44.36v4h3.48Zm-4.51-.5h4v-.85H43.86v-5H47v-.83H43.86V45.81h3.3V45H43.33Z"/><path class="cls-3" d="M50,57.17V44.71h1.13L53.7,51a41.85,41.85,0,0,1,1.44,4l0,0c-.1-1.67-.12-3.18-.12-5.13V44.71h1V57.17H55l-2.55-6.32c-.56-1.39-1.1-2.81-1.5-4.16l0,0c.06,1.57.09,3.07.09,5.14v5.32Z"/><path class="cls-3" d="M56.27,57.42H54.81L52.2,50.94c-.4-1-.73-1.86-1-2.64,0,1.05,0,2.17,0,3.55v5.57H49.75v-13H51.3l2.64,6.46c.33.83.63,1.62.9,2.4,0-1.1,0-2.19,0-3.4V44.46h1.47Zm-1.12-.5h.62V45H55.3v5c0,1.83,0,3.4.12,5.11v.14l-.39.29-.13-.32a42,42,0,0,0-1.43-4L51,45h-.71v12h.48V51.85c0-2.08,0-3.56-.09-5.13v-.16l.41-.21.12.27c.35,1.16.82,2.47,1.49,4.14Z"/><path class="cls-3" d="M60.43,46.08H58V44.71h5.94v1.37H61.47V57.17h-1Z"/><path class="cls-3" d="M61.72,57.42H60.18V46.33H57.74V44.46h6.44v1.87H61.72Zm-1-.5h.54V45.83h2.46V45H58.24v.87h2.44Z"/><path class="cls-3" d="M66.92,44.71V57.17h-1V44.71Z"/><path class="cls-3" d="M67.17,57.42H65.64v-13h1.53Zm-1-.5h.53V45h-.53Z"/><path class="cls-3" d="M76.66,50.81c0,4.29-1.68,6.57-3.73,6.57s-3.6-2.55-3.6-6.33c0-4,1.58-6.54,3.72-6.54S76.66,47.11,76.66,50.81ZM70.43,51c0,2.66.93,5,2.56,5s2.57-2.34,2.57-5.17c0-2.48-.83-5.07-2.55-5.07S70.43,48.28,70.43,51Z"/><path class="cls-3" d="M72.93,57.63c-2.27,0-3.85-2.71-3.85-6.58s1.63-6.79,4-6.79,3.86,2.63,3.86,6.55C76.91,55,75.35,57.63,72.93,57.63Zm.12-12.87c-2,0-3.47,2.59-3.47,6.29s1.38,6.08,3.35,6.08,3.48-2.54,3.48-6.32C76.41,47.19,75.06,44.76,73.05,44.76ZM73,56.31c-1.93,0-2.81-2.74-2.81-5.29,0-2.72.88-5.45,2.83-5.45s2.8,2.76,2.8,5.32C75.81,54.13,74.68,56.31,73,56.31Zm0-10.24c-1.6,0-2.33,2.56-2.33,5s.8,4.79,2.31,4.79,2.32-2,2.32-4.92C75.31,48.49,74.52,46.07,73,46.07Z"/><path class="cls-3" d="M79.07,57.17V44.71H80.2L82.78,51c.59,1.46,1,2.77,1.44,4l0,0c-.1-1.67-.12-3.18-.12-5.13V44.71h1V57.17h-1L81.5,50.85c-.56-1.39-1.09-2.81-1.5-4.16l0,0c.06,1.57.08,3.07.08,5.14v5.32Z"/><path class="cls-3" d="M85.35,57.42H83.88l-2.61-6.48c-.4-1-.73-1.86-1-2.64,0,1.05,0,2.17,0,3.55v5.57H78.82v-13h1.55L83,50.92c.33.83.64,1.62.9,2.4,0-1.1,0-2.19,0-3.4V44.46h1.48Zm-1.13-.5h.63V45h-.48v5c0,1.83,0,3.4.12,5.11v.14l-.4.29L84,55.14c-.39-1.29-.86-2.61-1.44-4L80,45h-.72v12h.48V51.85c0-2.08,0-3.56-.08-5.13v-.16l.41-.21.12.27c.35,1.16.82,2.47,1.49,4.14Z"/><path class="cls-2" d="M15.25,70H11.4v5.23h4.29v1.57H10.11V62.33h5.36V63.9H11.4v4.59h3.85Z"/><path class="cls-2" d="M15.94,77.09H9.86v-15h5.86v2.07H11.65v4.09H15.5v2.05H11.65V75h4.29Zm-5.58-.5h5.08V75.52H11.15V69.79H15V68.74H11.15V63.65h4.07V62.58H10.36Z"/><path class="cls-2" d="M24.12,76.84l-1.27-3.21c-.51-1.23-.83-2-1.14-2.86h0c-.28.84-.56,1.61-1.08,2.88l-1.19,3.19H17.94l3-7.34-2.92-7.17h1.49l1.31,3.4c.37,1,.65,1.68.91,2.45h0c.28-.86.53-1.52.9-2.45l1.35-3.4h1.47l-3,7.06,3.09,7.45Z"/><path class="cls-2" d="M26,77.09H24l-1.33-3.37c-.37-.87-.65-1.57-.92-2.25-.22.62-.47,1.3-.87,2.28l-1.25,3.34h-2L20.7,69.5l-3-7.42h2l1.37,3.56c.26.67.49,1.25.7,1.84.22-.62.43-1.18.69-1.84l1.42-3.56h2l-3.12,7.31Zm-1.69-.5h.94l-3-7.2.05-.1,2.86-6.71h-.92l-1.29,3.24c-.35.87-.6,1.55-.89,2.44l-.06.17h-.36l-.1-.17c-.27-.79-.56-1.54-.91-2.44l-1.25-3.24h-.94l2.81,6.92-2.93,7.09h.92l1.14-3c.52-1.3.8-2.06,1.07-2.88l.06-.17h.35l.09.16c.29.78.59,1.53,1.14,2.85Z"/><path class="cls-2" d="M34.93,76.37a4.7,4.7,0,0,1-2.62.68c-2.8,0-4.9-2.58-4.9-7.34,0-4.54,2.1-7.62,5.18-7.62a3.94,3.94,0,0,1,2.36.65l-.31,1.53a3.44,3.44,0,0,0-2-.61c-2.33,0-3.88,2.18-3.88,6,0,3.55,1.4,5.83,3.82,5.83a3.76,3.76,0,0,0,2.09-.6Z"/><path class="cls-2" d="M32.31,77.3c-3.13,0-5.15-3-5.15-7.59s2.18-7.87,5.43-7.87a4.11,4.11,0,0,1,2.51.7l.12.09-.41,2.06-.32-.22a3.19,3.19,0,0,0-1.85-.56c-2.24,0-3.63,2.2-3.63,5.74s1.33,5.58,3.57,5.58a3.54,3.54,0,0,0,1.94-.55l.32-.23.37,2-.13.09A5,5,0,0,1,32.31,77.3Zm.28-15c-3,0-4.93,3-4.93,7.37s1.82,7.09,4.65,7.09a4.75,4.75,0,0,0,2.35-.55l-.18-1a4.26,4.26,0,0,1-1.9.45c-2.51,0-4.07-2.33-4.07-6.08s1.58-6.24,4.13-6.24a3.83,3.83,0,0,1,1.82.45l.21-1A3.83,3.83,0,0,0,32.59,62.34Z"/><path class="cls-2" d="M37.87,62.33h1.28V75.27h4.24v1.57H37.87Z"/><path class="cls-2" d="M43.64,77.09h-6v-15H39.4V75h4.24Zm-5.52-.5h5V75.52H38.9V62.58h-.78Z"/><path class="cls-2" d="M46.9,62.33v8.59c0,3.25,1,4.63,2.31,4.63s2.41-1.42,2.41-4.63V62.33h1.3v8.46c0,4.46-1.61,6.29-3.76,6.29s-3.56-1.7-3.56-6.2V62.33Z"/><path class="cls-2" d="M49.16,77.33c-1.42,0-3.81-.84-3.81-6.45v-8.8h1.8v8.84c0,2.78.75,4.38,2.06,4.38,1.79,0,2.16-2.38,2.16-4.38V62.08h1.8v8.71C53.17,76.48,50.66,77.33,49.16,77.33ZM45.85,62.58v8.3c0,3.89,1.14,6,3.31,6s3.51-2.15,3.51-6V62.58h-.8v8.34c0,4-1.45,4.88-2.66,4.88-.77,0-2.56-.48-2.56-4.88V62.58Z"/><path class="cls-2" d="M56.29,74.56a3.62,3.62,0,0,0,2.3.94c1.31,0,2.08-1,2.08-2.47a3,3,0,0,0-1.87-2.89A4.31,4.31,0,0,1,56.17,66c0-2.26,1.29-3.94,3.21-3.94a3.39,3.39,0,0,1,2.2.71l-.35,1.53a3.07,3.07,0,0,0-1.89-.69,2,2,0,0,0-1.87,2.18c0,1.35.6,2,2,2.79A4.4,4.4,0,0,1,62,72.88c0,2.24-1.14,4.17-3.48,4.17A3.91,3.91,0,0,1,56,76.13Z"/><path class="cls-2" d="M58.5,77.3a4.23,4.23,0,0,1-2.71-1l-.09-.1.44-2.13.32.29a3.32,3.32,0,0,0,2.13.88c1.13,0,1.83-.85,1.83-2.22a2.73,2.73,0,0,0-1.75-2.67A4.53,4.53,0,0,1,55.92,66c0-2.47,1.43-4.19,3.46-4.19a3.62,3.62,0,0,1,2.36.77l.12.1-.48,2.06-.31-.24a2.78,2.78,0,0,0-1.73-.64,1.73,1.73,0,0,0-1.62,1.93c0,1.16.45,1.79,1.85,2.58a4.65,4.65,0,0,1,2.66,4.48C62.23,75.57,60.76,77.3,58.5,77.3ZM56.24,76a3.79,3.79,0,0,0,2.26.76c2.38,0,3.23-2.11,3.23-3.92a4.16,4.16,0,0,0-2.41-4c-1.33-.75-2.1-1.48-2.1-3a2.2,2.2,0,0,1,2.12-2.43,3.22,3.22,0,0,1,1.73.52l.23-1a3.25,3.25,0,0,0-1.92-.56c-1.74,0-3,1.52-3,3.69a4.07,4.07,0,0,0,2.49,3.89,3.23,3.23,0,0,1,2,3.11c0,1.65-.92,2.72-2.33,2.72A3.67,3.67,0,0,1,56.45,75Z"/><path class="cls-2" d="M66.34,62.33V76.84H65.06V62.33Z"/><path class="cls-2" d="M66.59,77.09H64.81v-15h1.78Zm-1.28-.5h.78v-14h-.78Z"/><path class="cls-2" d="M72.08,76.84,68.84,62.33h1.39l1.54,7.15c.43,2,.8,3.72,1.06,5.42h0c.28-1.68.7-3.51,1.14-5.4l1.68-7.17h1.37L73.5,76.84Z"/><path class="cls-2" d="M73.69,77.09H71.88l-3.35-15h1.9L72,69.42c.33,1.53.61,2.87.84,4.12.27-1.39.59-2.82.89-4.1l1.73-7.36h1.88Zm-1.41-.5h1l3.43-14h-.86l-1.63,7c-.39,1.69-.84,3.64-1.13,5.39l0,.21h-.43l-.06-.21c-.26-1.63-.61-3.34-1.06-5.41l-1.5-7h-.88Z"/><path class="cls-2" d="M84.59,70H80.73v5.23H85v1.57H79.45V62.33h5.36V63.9H80.73v4.59h3.86Z"/><path class="cls-2" d="M85.28,77.09H79.2v-15h5.86v2.07H81v4.09h3.86v2.05H81V75h4.3Zm-5.58-.5h5.08V75.52h-4.3V69.79h3.86V68.74H80.48V63.65h4.08V62.58H79.7Z"/><path class="cls-3" d="M19.17,42.76h-.79l-1-.54c-2.32-1.31-3.55-1.89-5-1.9-1,0-1.86.25-1.86,1,0,.46.44.85.81,1.08l-.91.22a1.79,1.79,0,0,1-1-1.44c0-1.1,1.41-1.56,2.77-1.56,1.76,0,3.18.68,5.12,1.75l.7.41h0V39.5h1.07Z"/><path class="cls-3" d="M19.42,43h-1.1l-1-.57c-2.25-1.27-3.46-1.86-4.87-1.87-.48,0-1.61.07-1.61.76,0,.39.48.74.69.87l.5.32-1.59.38-.09-.06a2,2,0,0,1-1.08-1.65c0-1.34,1.63-1.81,3-1.81,1.87,0,3.35.74,5.24,1.79l.36.21V39.25h1.57Zm-1-.5h.48V39.75h-.57V42H18L18,42l-.71-.41a10.07,10.07,0,0,0-5-1.72c-1.25,0-2.52.4-2.52,1.31a1.55,1.55,0,0,0,.76,1.17l.3-.07a1.35,1.35,0,0,1-.49-1c0-.8.77-1.26,2.11-1.26s2.7.57,5.11,1.93Z"/><path class="cls-3" d="M14.3,34.64c3.24,0,5,.64,5,1.77s-1.74,1.67-4.89,1.69-5-.74-5-1.77S11.27,34.64,14.3,34.64Zm.15,2.77c2.48,0,3.89-.41,3.89-1s-1.54-1-4-1-3.88.32-3.88,1S11.86,37.41,14.45,37.41Z"/><path class="cls-3" d="M14.44,38.35c-3.26,0-5.21-.76-5.21-2s1.8-1.94,5.07-1.94c4.37,0,5.28,1.1,5.28,2C19.58,37.63,17.71,38.33,14.44,38.35Zm-.14-3.46c-2.82,0-4.57.55-4.57,1.44s1.46,1.52,4.71,1.52c3.43,0,4.64-.79,4.64-1.44C19.08,35.46,17.3,34.89,14.3,34.89Zm.15,2.77c-1.58,0-4.22-.17-4.22-1.29,0-.87,1.35-1.29,4.13-1.29s4.23.42,4.23,1.29C18.59,37.49,16,37.66,14.45,37.66Zm-.09-2.08c-2.68,0-3.63.42-3.63.79s1,.79,3.72.79,3.64-.47,3.64-.79S17.3,35.58,14.36,35.58Z"/><path class="cls-3" d="M10.84,31.8v0l.9.88-1,.14L9.64,31.72v-.59h9.53v.67Z"/><path class="cls-3" d="M10.67,33.1,9.39,31.83v-.95h10v1.17h-8l.83.83Zm-.78-1.48.95.95.36,0-.61-.6v-.35l.25,0h8.08v-.17h-9Z"/><path class="cls-3" d="M9.64,25.26h.85l8.68,2.22v.71L10.74,26h0v2.49H9.64Z"/><path class="cls-3" d="M11,28.72H9.39V25h1.1l8.93,2.27v1.24L11,26.3Zm-1.07-.5h.57V25.73h.34l8.12,2.13v-.2L10.43,25.5H9.89Z"/><g id="Calque_2-2" data-name="Calque 2"><g id="Calque_4" data-name="Calque 4"><path class="cls-4" d="M32.52,13.66c-.26-.24-1-.14-2.56-.06A10.53,10.53,0,0,1,31,10.38c2.6.15,5.8.52,9.47.5,7.22,0,7.28-2.7,7.28-2.7-3.06.88-7.28.62-10.48.33-4-.37-8-1.3-11.3-.41-3.91,1.05-4.29,4-4.14,5.19,1.56-2,3.68-2.79,6.4-2.94h.81A6.53,6.53,0,0,0,27.79,13c-.08.28-.17.55-.25.81-3.34.29-4,1.82-3.77,2.21s1.39-.12,2.87-.29h.28a5.89,5.89,0,0,1-2.26,3.19,3.69,3.69,0,0,1-3.54.24c.13,1.75,2.75,2.7,5,1.51,1.78-1,2.8-3.3,3.37-5,.5,0,1,0,1.46,0,1.35-.09,1.94-1.46,1.62-1.77m27-1.95a.53.53,0,0,0-.66.33h0a.53.53,0,0,0,0,.39c-.5.46-1,.81-1.22.75s-.08-1,.23-1.75a.58.58,0,0,0,.19-1.15.59.59,0,0,0-.65.39h0a.61.61,0,0,0,.15.6c-.42.75-.85,1.42-1.22,1.3h0c-.38-.12-.36-.91-.26-1.78a.57.57,0,0,0,.45-.52.57.57,0,0,0-.36-.74h0a.57.57,0,0,0-.74.33l0,0h0a.57.57,0,0,0,.28.69c-.2.83-.5,1.68-.82,1.57s-.43-.63-.57-1.3a.53.53,0,0,0,.22-.72l0,0a.51.51,0,0,0-.29-.25.53.53,0,0,0-.67.34h0a.53.53,0,0,0,.34.67h.06L54,13.23l3.72,1.25L59.1,12.7a.53.53,0,0,0,.7-.25v-.07a.54.54,0,0,0-.35-.67"/><path class="cls-4" d="M55.26,18c-.69,1.21-1.66,1.83-2.18,1.38s-.39-1.79.29-3S55,14.51,55.55,15s.39,1.79-.29,3m-.93-4.17a5.29,5.29,0,0,0-1.51.91,7,7,0,0,0-.59.62h0a7.15,7.15,0,0,0-.44.68,5.94,5.94,0,0,0-.5,1h0a9.19,9.19,0,0,1-.61,1.11,3.87,3.87,0,0,1-.92.84,4.32,4.32,0,0,1-.68.26c-1.57.46-1.86-.67-1.51-1.2a16.7,16.7,0,0,1,1.58-1.34c1.14-1,1.92-1.55,2.47-2.1s.2-.9-.24-1a2.1,2.1,0,0,0-1.93.38c-.39.33-2.7,3.12-2.7,3.12s3.77-7.28,4.38-8.53c.5-1-1.94-1.17-2.62.31-.39.87-3.08,7.11-3.41,7.88-.6,1.42-.64,1.64-.94,1.88h0a1.78,1.78,0,0,1-1,.45c-.16,0-.26-.1-.28-.29a2.16,2.16,0,0,1,.06-.76c.05-.18.11-.38.19-.6s.15-.45.24-.67.19-.45.28-.66l.26-.59.2-.46a1.39,1.39,0,0,0,.1-.28,1.42,1.42,0,0,0,0-.91.5.5,0,0,0-.51-.32,1.32,1.32,0,0,0-.7.2,2.1,2.1,0,0,0-.67.55c-.2.23-.38.47-.57.71s-.25.33-.39.51l-.39.5-.54.69h-.15l.08-.2.14-.37c.12-.3.25-.61.37-.92.05-.15.11-.29.16-.42a1.71,1.71,0,0,0,.09-.3,1.2,1.2,0,0,0,0-.65c-.07-.17-.23-.25-.5-.25a1,1,0,0,0-.69.23,1.56,1.56,0,0,0-.45.57c-.17.35-.33.71-.48,1.07-.36.85-.69,1.73-1,2.61l-.18.56a6.94,6.94,0,0,1-1.09.45.58.58,0,0,1-.43,0,.46.46,0,0,1-.07-.32,5.44,5.44,0,0,1,.55-1.68c.4-.92.76-1.84,1.13-2.78A.5.5,0,0,0,38,14c-.06-.19-.28-.26-.47-.28a1.27,1.27,0,0,0-1.16.31,1.58,1.58,0,0,0-.2.36l-1.37,3.14a2.71,2.71,0,0,1-1.32,1.61.45.45,0,0,1-.36,0,.43.43,0,0,1-.27-.39,1.21,1.21,0,0,1,.12-.46c.57-1.4,1-2.37,1.56-3.77a2,2,0,0,0,.17-.54.28.28,0,0,0-.15-.23,1.13,1.13,0,0,0-1.12.16,3.48,3.48,0,0,0-1,1.51c-.28.62-.57,1.23-.82,1.86a12.79,12.79,0,0,0-.76,2.18A1.34,1.34,0,0,0,31,20.62a1,1,0,0,0,.71.24,3.92,3.92,0,0,0,2.77-1.22,1.27,1.27,0,0,0,.4,1,1,1,0,0,0,.69.11,5.29,5.29,0,0,0,1.4-.38l.56-.24a.88.88,0,0,0,0,.23.57.57,0,0,0,.2.35.72.72,0,0,0,.45.13.93.93,0,0,0,.46-.12,1.43,1.43,0,0,0,.44-.41l2.93-3.92h.12c-.14.37-.29.76-.42,1.12a8.83,8.83,0,0,0-.3,1,4.27,4.27,0,0,0-.15,1.74c.09.4.27.59.54.59a2.83,2.83,0,0,0,.82-.09,5.82,5.82,0,0,0,.79-.3l.53-.28v.25c0,.22,0,.27.12.36s.2.09.41.09a.44.44,0,0,0,.36-.11c.33-.42.65-.87,1-1.32l.19-.26a1.38,1.38,0,0,0,1,1.68h0c.84.14,2.21-.06,4-1.43a3.58,3.58,0,0,0,.14.54,1.71,1.71,0,0,0,1.72,1.09,2.68,2.68,0,0,0,.93-.13,4.28,4.28,0,0,0,.9-.47,4.86,4.86,0,0,0,.76-.67,6.77,6.77,0,0,0,1.16-1.69,7.19,7.19,0,0,0,.52-1.69,5,5,0,0,0,.09-1s0-.7-.13-.75l-2.78-.88"/></g></g><path class="cls-5" d="M79,22.35c-.47.27-.69.48-.75.92a4.12,4.12,0,0,1-1.11,2.43,3.63,3.63,0,0,0-.41.81c-.26.54-.52,1-1.13,1.16-.4.11-.21.43-.25.66a2.89,2.89,0,0,0-1.83.34c0-.47.39-.69.66-1s0-.3-.05-.47c-.33-1-.32-1-1.26-.25-.16-.35-.32-.76.14-.92a1.87,1.87,0,0,0,1.42-1.85s.18-.07.27-.11c-.1.53.12.74.92.52-.2.35-1.06.53-1.19,1.5.85-.31,1.47-.66,1.19-1.5a.43.43,0,0,1,.19-.78c.53-.12.76-.53,1.1-.83s.6-.42.28-.76-.51.16-.78.23a1.51,1.51,0,0,0-1.07,1,.83.83,0,0,1-.64.6c0-.2-.09-.29-.25-.32a.55.55,0,0,0-.61.4c0,1.08-.91,1.38-1.59,1.88-.51.37-.5.37-.08-1.31.93-1,.75-1,.73-.94-.32.74-1,1-1.65,1.32-.18.09-.1.28-.11.43,0,.32.22.15.32.15a2.91,2.91,0,0,0,1.62-1.07c.11-.22.42-.35.32-.66,0-.08-.13-.14-1.23.77-1.49.68-1.7.25-1.68-.29s.21-.25.44-.11.64.09.51-.26c-.51-1.36-.15-2.81-.37-4.15a.48.48,0,0,0-.63.17c-.34.48-.51.44-.71-.14-.1-.26-.63.1-.93-.35.64,0,1.21-.05,1.78-.05.89,0,1.13.38,1,1.4-.13.69-.18,1.24.74,1.6a4.19,4.19,0,0,0,1.55.58c.69,0,.82-.8,1.47-.8.1,0,.1-.4-.13-.5s-.32,0-.47,0c-.91-.23-1.84-.39-2.08-1.56a1.23,1.23,0,0,0-.31-.68c-.48-.41-.83-.81-.25-1.47a.86.86,0,0,0,0-1c-.37-.32-.07-.74-.4-1.11-.21.46-.15,1-.59,1.32s-.34.64.28.66c.15,0,.19.24.16.4a.29.29,0,0,1-.34.24c-.7,0-1.4,0-2.11,0-.27-.4-.09-.84-.13-1.25s.3-.5.5-.32c.44.39.48.21.47-.22,0-.16-.06-.41.12-.42s.15.3.23.45.28.16.42.13a.32.32,0,0,0,.19-.22,2,2,0,0,0,0-.64c-.14-.55.21-.66.59-.88.57-.34.55-.85-.05-1.08a18.16,18.16,0,0,1-2.22-1.3c-.08,0-.33-.13-.16-.32s.19-.06.29-.08c.49-.11.79.44,1.33.35a1.48,1.48,0,0,1,1.35.24c.3.26,1.57-.34,1.75-.71.1-.22,0-.37-.14-.56-.71-1-1-2.18-1.62-3.21a.51.51,0,0,1,0-.66c.94.94,1.9,1.84,2.78,2.81a1.12,1.12,0,0,0,1.27.41c.54-.22,1.33-.16,1.5-1A7.71,7.71,0,0,0,78,8.25a9.74,9.74,0,0,1,.78-3.1,15.48,15.48,0,0,1,.5,4.21c-.09.9.54,1.18,1.19,1.61s1.18,0,1.66-.26a3.34,3.34,0,0,0,1-1c.46-.6,1.22-.81,1.72-1.36.06-.08.32-.08.42,0,.27.18-.06.23-.11.33a8.31,8.31,0,0,1-1.84,2.47,1.43,1.43,0,0,0-.47,1.57c1.7.53,3.39-.52,5.11-.15a1.28,1.28,0,0,1-1.08.81c-.79.09-1.43.6-2.14.68s-.66.32-.65.8.2.89.7.86c1.06-.06,2,.64,3.18.27-.57.71-.57.72-.94.72H85.4c-1,0-1,0-.49,1a1.15,1.15,0,0,1-.18,1.42A2.71,2.71,0,0,0,84,20.42a1.76,1.76,0,0,1-1.93,1.42c-.71-.08-1.25.51-2,.37-.2,0-.43.34-.58.65A4.79,4.79,0,0,0,79.16,24c0,.16-.35.41-.43.38a.3.3,0,0,1,0-.52c.45-.41.12-.92.32-1.52,0-.1-.06-.06-.09,0s0,.2.14.14a.45.45,0,0,0,.14-.19S79.13,22.24,79,22.35Zm3.44-7.1a.6.6,0,0,0-.16-.19c-.13-.06-.2,0-.13.14s.12.11.19.15.06-.07-.2-.29v-.33c.2,0,.27-.12.38-.21s.39-.37.2-.65-.38-.07-1.25.22c.31-.13.7-.15.68-.65,0-.2-.09-.29-.26-.32s-.73.72-.68.83.17.09.93-.19v1h-.8s-.11.08-.11.1.07.21.11.21A3.47,3.47,0,0,1,82.44,15.25ZM75,13.44c-.4-.14-.91-.78-1,.24-.93.21-.59.59-.14,1s0,.32-.21.38a.32.32,0,0,0-.18.5c.12.21.33.2.54.06a5.76,5.76,0,0,1,3.64-.9c1.06.06,2.12,0,3.35,0-1.1-.63-1.1-.64-1.61-.64H76c0-.27,0-.54,0-.8s0-.48-.41-.51C75.05,12.74,75,13,75,13.44Zm6.89,5.83c1,0,1.22-.21,1.2-1a1.14,1.14,0,1,0-2.26,0C80.84,19,81.09,19.25,81.91,19.27Zm-7.37,0c.86,0,1.11-.23,1.13-.93S75,16.93,74.45,17a1.44,1.44,0,0,0-1,1.19A1.05,1.05,0,0,0,74.54,19.27Zm4-6.55c0-.35,0-.59-.48-.59s-.46.41-.49.74,0,.58.48.59C78.74,13.47,78.56,13.05,78.58,12.72Zm.33.48c0,.21-.06.46.17.55s.46-.15.65-.32.14-.37.15-.57-.06-.42-.35-.39-.55-.15-.62.26A2.46,2.46,0,0,0,78.91,13.2Zm-1.62-.08a1.47,1.47,0,0,0,0-.47c-.1-.24-.34-.2-.54-.17a.73.73,0,0,0-.41.15c-.1.11.37,1.09.56,1.12a.44.44,0,0,0,.38-.16C77.34,13.47,77.29,13.28,77.29,13.12Zm3.4,1c.16-.33.34-.64.47-1a.21.21,0,0,0-.23-.3c-.26,0-.65-.22-.73.29A1,1,0,0,0,80.69,14.08Zm-5.33,12.3c-.31,0-.36.18-.33.4a.27.27,0,0,0,.31.26c.3,0,.35-.19.32-.41A.24.24,0,0,0,75.36,26.38Z"/><path class="cls-5" d="M85.64,37.11c0,1.22,0,1.22-1.23,1.25v3.83H70.5V38.44c-.45-.07-.94,0-1.22-.23s-.12-.69,0-1.1Zm-7.06,3.67c0-.42,0-.9,0-1.37a.69.69,0,0,0-.69-.72c-.41,0-.86-.1-1.14.36a2.82,2.82,0,0,0,.12,2c.39.5.67-.29,1.06-.08A.54.54,0,0,0,78.58,40.78Zm.65.11h1.94V39.75c0-.11,0-.22,0-.32-.06-.51-.38-.75-1-.75s-.93.24-1,.75S79.23,40.37,79.23,40.89Zm-3.29,0V38.7a4.13,4.13,0,0,0-1.51.06v2.16Z"/><path class="cls-5" d="M84.1,36.39H70c-.28-.36,0-.75-.17-1.07.25-.25,9.6-.33,14.17-.15C84.19,35.51,84,35.89,84.1,36.39Z"/><path class="cls-5" d="M77,28.33a.74.74,0,0,0,.92-.47c.16-.59.65-1,.71-1.65a3.6,3.6,0,0,1,.86-1.63c.24,2,.2,3.77-1.19,5.23.08.52-.33.35-.59.48-.69.32-1.54.43-1.88,1.29-.08.21-.21.39,0,.55s.47,0,.65-.19.24-.2.23-.4.23-.36.42-.29c.39.14,0,.26,0,.41s-.17.66-.05.75c.36.3-.86.61,0,.75a.74.74,0,0,0,.94-.77c0-.38,0-.76,0-1.13a1.07,1.07,0,0,1,1.06-1c.27,0,.29.3.2.49a5.06,5.06,0,0,0-.59,2.73c-.87,0-1.67,0-2.46,0s-1.57-.22-2.33.25c-.24-.28,0-.67-.09-1s0-.57.37-.53.23.4.28.63a2.52,2.52,0,0,0,.1.29c.28-.13.57-.3.53-.63a3,3,0,0,1,1.2-2.57,1.58,1.58,0,0,0,.43-1.28A.27.27,0,0,0,77,28.33Z"/><path class="cls-5" d="M80.13,25.85l1.81.92c.52-.68,1.32-1.06,1.61-1.93.07-.23.34-.42.55-.57.57-.41,1.29-.07,1.77.82.13.24-.26.77-.69,1-.17.1-.28.33-.53.27a1.24,1.24,0,0,0-1.34.63c-.26.39-.79.28-1,.67-.8-.16-.82.33-.79.92a10.82,10.82,0,0,1-.09,1.95,4.57,4.57,0,0,0-1.19-1.61c-.08-.06-.07-.36-.24-.2s-.56.15-.39-.14A3.68,3.68,0,0,0,80.13,25.85Z"/><path class="cls-5" d="M77.45,34.15H83.1c.2,0,.31.08.33.25s0,.4-.33.4h-11c-.22,0-.43,0-.65,0a.26.26,0,0,1-.32-.25c0-.23,0-.4.33-.4Z"/><path class="cls-5" d="M81.75,33.46H79.22c.18-.45-.49-1.12.54-1.31.2,0,.11-.28.11-.43,0-.37,0-.75,0-1.13s-.16-.58.25-.64.43.22.39.51a.49.49,0,0,0,.25.53A2,2,0,0,1,81.75,33.46Z"/><path class="cls-5" d="M76.64,28.65a1.7,1.7,0,0,0-1,1.05.79.79,0,0,1-.64.57c0-.36.09-.84-.54-.58a11.57,11.57,0,0,0-1.14.64c.18-.86.56-1.27,1.24-1.35a.82.82,0,0,0,.77-.65c.67.14.88-.48,1.26-.8.18-.15.38-.27.54-.13s-.17.27-.18.45,0,.32,0,.48C76.74,28.32,76.63,28.42,76.64,28.65Z"/><path class="cls-5" d="M80,25.4a2.72,2.72,0,0,1,.51-2.7c.2-.32.43-.28.64.1s.62.79.59,1.16-.53.62-.85.9S80.49,25.5,80,25.4Z"/><path class="cls-5" d="M74.71,30.67c0,.23.06.49-.12.5-.35,0-.52.35-.82.38s-.58.15-.68-.2.13-.52.45-.43.51-.36.84-.32C74.49,30.61,74.71,30.47,74.71,30.67Z"/><path class="cls-5" d="M83.16,22.92a1,1,0,0,1,1.12.2c.24.16.69,0,1.38,0C84.13,23.62,83.83,23.58,83.16,22.92Z"/><path class="cls-5" d="M68,15.48c.7-.35,4.14.17,4.74.38C71.54,16.2,68.63,16.15,68,15.48Z"/><path class="cls-5" d="M70.35,22.77a1.46,1.46,0,0,1-.1-1.23C70.72,21.94,70.41,22.37,70.35,22.77Z"/><path class="cls-5" d="M69.05,21.47a1.52,1.52,0,0,1,0-1.33A1.43,1.43,0,0,1,69.05,21.47Z"/><path class="cls-5" d="M85.88,24.05s-.16-.05-.17-.1,0-.44.23-.47c.13,0,.27.1.4.15Z"/><path class="cls-5" d="M75,30.27a.27.27,0,0,1-.32.32A.27.27,0,0,1,75,30.27Z"/><path class="cls-1" d="M76,14.09h3.37c.51,0,.51,0,1.61.64-1.23,0-2.29,0-3.35,0a5.76,5.76,0,0,0-3.64.9c-.21.14-.42.15-.54-.06a.32.32,0,0,1,.18-.5c.23-.06.64,0,.21-.38s-.79-.79.14-1c.14-1,.65-.38,1-.24,0,.16,0,.32,0,.48s0,.48.24.48S75.94,14.62,76,14.09Z"/><path class="cls-1" d="M81.91,19.27c-.82,0-1.07-.26-1.06-1a1.14,1.14,0,1,1,2.26,0C83.13,19.06,82.86,19.28,81.91,19.27Z"/><path class="cls-1" d="M74.54,19.27a1.05,1.05,0,0,1-1.14-1.08,1.44,1.44,0,0,1,1-1.19c.57-.07,1.23.66,1.22,1.34S75.4,19.25,74.54,19.27Z"/><path class="cls-1" d="M74.7,24.12a.83.83,0,0,0,.64-.6,1.51,1.51,0,0,1,1.07-1c.27-.07.47-.57.78-.23s-.06.57-.28.76-.57.71-1.1.83a.71.71,0,0,0-.46.91C74.82,24.86,74.6,24.65,74.7,24.12Z"/><path class="cls-1" d="M73.2,23.79c.07.07.17.13.2.21.1.31-.21.44-.32.66a2.91,2.91,0,0,1-1.62,1.07c-.1,0-.35.17-.32-.15,0-.15-.07-.34.11-.43.64-.33,1.33-.58,1.65-1.32C72.92,23.78,73.1,23.8,73.2,23.79Z"/><path class="cls-1" d="M78.58,12.72c0,.33.16.75-.49.74-.49,0-.5-.25-.48-.59s-.16-.75.49-.74S78.61,12.37,78.58,12.72Z"/><path class="cls-1" d="M75.9,24.51c0,1-.62,1.32-1.47,1.63C74.56,25.17,75.42,25,75.9,24.51Z"/><path class="cls-1" d="M78.91,13.2a2.46,2.46,0,0,1,0-.47c.07-.41.4-.23.62-.26s.36.15.35.39.05.41-.15.57-.35.45-.65.32S78.91,13.41,78.91,13.2Z"/><path class="cls-1" d="M77.29,13.12c0,.16,0,.35,0,.47a.44.44,0,0,1-.38.16c-.19,0-.66-1-.56-1.12a.73.73,0,0,1,.41-.15c.2,0,.44-.07.54.17A1.47,1.47,0,0,1,77.29,13.12Z"/><path class="cls-1" d="M75,13.44c-.06-.43,0-.7.57-.66.38,0,.43.21.41.51s0,.53,0,.8c-.28,0-.67.14-.65-.4A.25.25,0,0,0,75,13.44Z"/><path class="cls-1" d="M80.69,14.08a1,1,0,0,1-.49-1c.08-.51.47-.26.73-.29a.21.21,0,0,1,.23.3C81,13.44,80.85,13.75,80.69,14.08Z"/><path class="cls-1" d="M81.47,14.09c-.09-.05-.22-.07-.26-.14s.56-.85.68-.83.25.12.26.32C82.17,13.94,81.78,14,81.47,14.09Z"/><path class="cls-1" d="M82.14,14.73v-1c.2,0,.44-.1.58.11s0,.47-.2.65S82.34,14.78,82.14,14.73Z"/><path class="cls-1" d="M75.36,26.38a.24.24,0,0,1,.3.25c0,.22,0,.4-.32.41a.27.27,0,0,1-.31-.26C75,26.56,75.05,26.36,75.36,26.38Z"/><path class="cls-1" d="M82.14,14.73v.33c-.26,0-.53,0-.8,0,0,0-.08-.13-.11-.21s.07-.1.11-.1Z"/><path class="cls-1" d="M79.09,22.2s.11.09.1.11a.45.45,0,0,1-.14.19c-.14.06-.2,0-.14-.14S79,22.25,79.09,22.2Z"/><path class="cls-1" d="M82.44,15.25l-.1.1c-.07,0-.16-.08-.19-.15s0-.2.13-.14A.6.6,0,0,1,82.44,15.25Z"/><path class="cls-1" d="M78.58,40.78a.54.54,0,0,1-.65.15c-.39-.21-.67.58-1.06.08a2.82,2.82,0,0,1-.12-2c.28-.46.73-.39,1.14-.36a.69.69,0,0,1,.69.72C78.6,39.88,78.58,40.36,78.58,40.78Z"/><path class="cls-1" d="M79.23,40.89c0-.52,0-1,0-1.46s.36-.75,1-.75.91.24,1,.75c0,.1,0,.21,0,.32v1.14Z"/><path class="cls-1" d="M75.94,40.92H74.43V38.76a4.13,4.13,0,0,1,1.51-.06Z"/><path class="cls-1" d="M76.64,28.65c0-.23.1-.33.32-.32A.27.27,0,0,1,76.64,28.65Z"/><path class="cls-5" d="M75,13.44a.25.25,0,0,1,.32.25c0,.54.37.37.65.4,0,.53-.47.3-.73.31s-.24-.27-.24-.48S75,13.6,75,13.44Z"/></g></g></svg>