<svg xmlns="http://www.w3.org/2000/svg" viewBox="0 0 199.06 52.99"><defs><style>.cls-1{fill:#e31b36;}.cls-2{fill:#fff;}</style></defs><g id="Calque_2" data-name="Calque 2"><g id="Calque_9" data-name="Calque 9"><rect class="cls-1" x="1.42" y="1.42" width="196.23" height="50.15" rx="24.2"/><path class="cls-2" d="M173.45,2.83a22.81,22.81,0,0,1,22.78,22.79v1.75a22.81,22.81,0,0,1-22.78,22.78H25.62A22.81,22.81,0,0,1,2.83,27.37V25.62A22.81,22.81,0,0,1,25.62,2.83H173.45m0-2.83H25.62A25.62,25.62,0,0,0,0,25.62v1.75A25.62,25.62,0,0,0,25.62,53H173.45a25.62,25.62,0,0,0,25.61-25.62V25.62A25.62,25.62,0,0,0,173.45,0Z"/><path class="cls-2" d="M185,40a1.45,1.45,0,1,1-1.43,1.44A1.42,1.42,0,0,1,185,40Zm0,.23a1.22,1.22,0,0,0,0,2.43,1.16,1.16,0,0,0,1.15-1.21A1.18,1.18,0,0,0,185,40.25Zm-.27,2h-.25V40.7a2.68,2.68,0,0,1,.45,0,.87.87,0,0,1,.5.12.37.37,0,0,1,.15.33.4.4,0,0,1-.32.39h0c.14,0,.24.16.27.39a1.7,1.7,0,0,0,.1.4h-.26a1.1,1.1,0,0,1-.11-.41.3.3,0,0,0-.35-.28h-.18Zm0-.89h.19c.21,0,.39-.08.39-.27s-.1-.28-.39-.28h-.19Z"/><path class="cls-2" d="M154.38,26.43a17.47,17.47,0,1,1,34.94,0"/><path class="cls-2" d="M189.32,26.43a17.47,17.47,0,1,1-34.94,0"/><path class="cls-1" d="M183.31,26.43A11.47,11.47,0,1,1,171.85,15,11.46,11.46,0,0,1,183.31,26.43Z"/><path class="cls-2" d="M177.91,26.43a6.06,6.06,0,1,1-6.06-6.06A6.06,6.06,0,0,1,177.91,26.43Z"/><path class="cls-2" d="M23.14,38.55c-6.53,0-11.1-4.84-11.1-11.77,0-7.16,4.71-12.17,11.46-12.17s11.1,4.72,11.1,11.74C34.6,34.78,28.84,38.55,23.14,38.55Zm.22-20.86c-5.05,0-7.31,4.53-7.31,9,0,4.21,2.28,8.75,7.27,8.75s7.31-4.51,7.31-9C30.63,22.25,28.35,17.69,23.36,17.69Z"/><path class="cls-2" d="M23.5,15c6.52,0,10.74,4.7,10.74,11.38,0,7.74-5,11.85-11.1,11.85-6.31,0-10.74-4.61-10.74-11.42C12.4,19.64,17.11,15,23.5,15m-.18,20.86c4.89,0,7.66-4.24,7.66-9.35,0-4.47-2.48-9.14-7.62-9.14s-7.66,4.44-7.66,9.38,2.76,9.11,7.62,9.11m.18-21.57c-7,0-11.81,5.15-11.81,12.52,0,7.14,4.71,12.12,11.45,12.12C29,38.9,35,35,35,26.35c0-7.23-4.6-12.09-11.45-12.09Zm-.18,20.86c-4.75,0-6.92-4.36-6.92-8.4,0-4.32,2.15-8.67,7-8.67s6.91,4.37,6.91,8.43c0,4.3-2.15,8.64-6.95,8.64Z"/><path class="cls-2" d="M55,38.18,47.32,26.61c-1.63-2.44-2.87-4.48-3.85-6.3.12,2.35.17,4.75.17,7.91v10H40V15h3.92L51.7,26.52a62.69,62.69,0,0,1,3.58,5.92c-.18-2.53-.22-4.95-.22-7.69V15h3.62v23.2Z"/><path class="cls-2" d="M58.32,15.34V37.83H55.2L47.61,26.42a71.72,71.72,0,0,1-4.46-7.51l-.11,0c.18,2.84.25,5.54.25,9.28v9.61H40.38V15.34h3.37l7.66,11.38A63.46,63.46,0,0,1,55.7,34l.07,0c-.28-3-.36-5.74-.36-9.24V15.34h2.91m.71-.71H54.71V24.75c0,2.17,0,4.14.12,6.13-.83-1.47-1.77-3-2.83-4.56L44.34,14.94l-.21-.31H39.67V38.54H44V28.22c0-2.5,0-4.52-.11-6.42.86,1.49,1.88,3.13,3.13,5l7.59,11.41.21.32H59V14.63Z"/><polygon class="cls-2" points="65.49 38.18 65.49 14.98 69.28 14.98 69.28 35.04 79.5 35.04 79.5 38.18 65.49 38.18"/><path class="cls-2" d="M68.93,15.34V35.39H79.14v2.44H65.84V15.34h3.09m.71-.71H65.13V38.54H79.85V34.68H69.64v-20Z"/><path class="cls-2" d="M86.7,38.18v-9.8L78.88,15h4.34l3.47,6.39c.86,1.59,1.49,2.82,2.09,4.06.53-1.08,1.12-2.17,1.79-3.41l.35-.65L94.47,15h4.35l-8.3,13.37v9.83Z"/><path class="cls-2" d="M98.19,15.34l-8,12.91v9.58H87.05V28.28L79.5,15.34H83l3.37,6.2c.92,1.71,1.63,3.07,2.37,4.64h.07c.68-1.47,1.49-2.93,2.41-4.64l3.44-6.2h3.52m1.27-.71h-5.2l-.21.36L90.61,21.2l-.35.65c-.54,1-1,1.9-1.47,2.78-.52-1-1.08-2.1-1.79-3.42L83.63,15l-.2-.37H78.26l.62,1.06,7.46,12.79V38.54h4.54V28.45l7.91-12.74.67-1.08Z"/><path class="cls-2" d="M127.34,38.18l-2.56-7.07h-8l-2.48,7.07h-4L118.75,15H123l8.41,23.2Zm-3.45-10-2.17-6c-.38-1.06-.68-2.05-.94-3-.31,1.1-.6,2.07-.91,3l-2.17,6Z"/><path class="cls-2" d="M122.73,15.34l8.15,22.49h-3.29L125,30.75h-8.47l-2.49,7.08h-3.19L119,15.34h3.73m-5.54,13.14h7.2L122.05,22c-.53-1.47-.88-2.8-1.24-4.1h-.07c-.35,1.33-.74,2.7-1.2,4.07l-2.35,6.5m6-13.85h-4.71l-.17.47-8.12,22.49-.35.95h4.71l.16-.48,2.32-6.6h7.47l2.39,6.61.17.47h4.8l-.34-.95-8.16-22.5-.17-.46Zm-5,13.15,2-5.56c.2-.58.39-1.18.58-1.82.18.6.37,1.21.61,1.85l2,5.53Z"/><polygon class="cls-2" points="137.98 38.18 137.98 18.16 130.71 18.16 130.71 14.98 149.11 14.98 149.11 18.16 141.81 18.16 141.81 38.18 137.98 38.18"/><path class="cls-2" d="M148.76,15.34v2.47h-7.31v20h-3.12v-20h-7.27V15.34h17.7m.71-.71H130.35v3.88h7.27v20h4.54v-20h7.31V14.63Z"/></g></g></svg>