<svg xmlns="http://www.w3.org/2000/svg" viewBox="0 0 200 200"><defs><style>.cls-1{fill:#89a1a1;}.cls-2{fill:#fff;}.cls-3{fill:#8cc04e;}</style></defs><g id="Calque_2" data-name="Calque 2"><g id="THINKGEEK"><rect class="cls-1" width="200" height="200" rx="18.55"/><path class="cls-2" d="M57.13,110.1c-1.56-1.4-3.43-3.08-4.73-4.41l0,0c.88,1.61,1.76,3.36,2.69,5.36l3.27,7-1,1-6.75-3.33c-2-1-3.79-1.93-5.35-2.89l0,0c1.29,1.35,3,3.21,4.48,4.89l4.26,4.82L52.57,124l-9.85-11.33,1.75-1.74,6.93,3.31c1.74.86,3.26,1.67,4.63,2.5l0,0c-.8-1.33-1.59-2.87-2.45-4.68l-3.24-7,1.74-1.74,11.25,9.93-1.33,1.33Z"/><path class="cls-2" d="M63.71,106.16l2.23,4.43L64.53,112l-7-14.18,1.65-1.65,14.2,7-1.46,1.46-4.46-2.2Zm2.41-4.54-4.09-2c-.93-.46-1.71-.93-2.48-1.39l0,0c.47.79.94,1.61,1.38,2.46l2,4.1Z"/><path class="cls-2" d="M64.5,91.14A28.73,28.73,0,0,1,67.18,88c2-2,3.82-2.9,5.61-3a6.92,6.92,0,0,1,5.3,2.31A8,8,0,0,1,80.68,93c0,2-1.1,4.15-3.16,6.21a30.56,30.56,0,0,1-2.61,2.35Zm10.73,8a12.59,12.59,0,0,0,1.46-1.3c2.92-2.92,2.87-6.14,0-9-2.48-2.51-5.48-2.69-8.37.2a10.77,10.77,0,0,0-1.46,1.75Z"/><path class="cls-2" d="M85.93,80.68l-4.12,4.11,3.82,3.82L90.22,84l1.14,1.15-6,6L74.82,80.53l5.72-5.71L81.68,76l-4.35,4.35,3.35,3.35,4.11-4.12Z"/><path class="cls-2" d="M85.88,69.47l5.7-5.7,1.15,1.15-4.34,4.33,3.52,3.52,4-4,1.13,1.13-4,4,4.79,4.8-1.36,1.36Z"/><path class="cls-2" d="M107.76,58c3.65,3.64,3.36,7.79.66,10.49s-6.93,2.6-10.13-.61c-3.36-3.36-3.47-7.65-.64-10.48S104.62,54.82,107.76,58Zm-8,8.39c2.26,2.26,5.51,3.06,7.67.91s1.39-5.39-1-7.79c-2.1-2.11-5.4-3.21-7.68-.93S97.39,64,99.72,66.35Z"/><path class="cls-2" d="M104.5,51.14a20.26,20.26,0,0,1,2.4-2.84c1.46-1.46,2.67-2.14,3.93-2.2a3.7,3.7,0,0,1,2.84,1.18,3.92,3.92,0,0,1,.71,4.69l0,.05a3.75,3.75,0,0,1,3.7.58,23.92,23.92,0,0,0,3.72,2.09l-1.41,1.41a18.68,18.68,0,0,1-3.24-1.82c-1.78-1.14-2.89-1.13-4.18.07l-1.29,1.28,4.59,4.59-1.37,1.37Zm6.19,3.46,1.39-1.4c1.46-1.46,1.59-3.19.38-4.4-1.37-1.37-2.95-1-4.41.46a8.3,8.3,0,0,0-1.23,1.47Z"/><path class="cls-2" d="M31,162.75,24.84,169,22.91,167,38,151.93l1.92,1.92-6.23,6.24,15.6,15.6-2.67,2.66Z"/><path class="cls-2" d="M42.92,147l7.33,7.33,9.87-9.87-7.34-7.33,2.67-2.66L73,152l-2.66,2.67-8.22-8.22-9.86,9.87,8.21,8.21-2.63,2.64L40.28,149.66Z"/><path class="cls-2" d="M62.65,127.3l17.52,17.52-2.63,2.64L60,129.93Z"/><path class="cls-2" d="M84.77,140.22,67.25,122.7l2.87-2.88,15.41,2.33a67.13,67.13,0,0,1,9.35,2l0-.09a95.58,95.58,0,0,1-7.51-6.9l-7.33-7.33,2.48-2.49,17.53,17.53-2.67,2.66-15.37-2.41a76.73,76.73,0,0,1-9.66-2l-.06.12c2.36,2.06,4.52,4.1,7.44,7l7.48,7.49Z"/><path class="cls-2" d="M87.16,102.79l2.63-2.64,8.45,8.45.09-.09c-.13-1.22-.21-2.39-.26-3.47l-.35-12.82L101,89l.05,14.82,18,2.13L116,109l-15.32-1.88V111l6.68,6.68-2.64,2.63Z"/><path class="cls-3" d="M83.34,154.92l.91-.91,3.82,3.83c1.52,1.51,1.07,2.9-.14,4.1a5.11,5.11,0,0,1-1.1.84l-.47-.74a3.68,3.68,0,0,0,.87-.65c.81-.81,1-1.59-.12-2.71Z"/><path class="cls-3" d="M94.55,149.3c2,2,1.54,4.48-.25,6.27s-4.32,2-6,.26-1.62-4.39.25-6.26S92.85,147.61,94.55,149.3Zm-5.35,5.54a3.18,3.18,0,1,0-.14-4.63A3.1,3.1,0,0,0,89.2,154.84Z"/><path class="cls-3" d="M93.83,144.42l5.72,5.72-.91.91-5.71-5.72Z"/><path class="cls-3" d="M101.13,148.56l-5.72-5.72,1-1,5.14.65a22.31,22.31,0,0,1,3.12.59v0a30.27,30.27,0,0,1-2.45-2.24l-2.39-2.39.85-.86,5.72,5.72-.92.92-5.13-.68a24.94,24.94,0,0,1-3.22-.59l0,0c.77.67,1.48,1.33,2.43,2.28L102,147.7Z"/><path class="cls-3" d="M105.38,132.88l5.71,5.72-.9.9-5.72-5.71Z"/><path class="cls-3" d="M112.67,137,107,131.3l1-1,5.14.64a22.51,22.51,0,0,1,3.12.6v0a28.68,28.68,0,0,1-2.45-2.24l-2.4-2.4.86-.85,5.71,5.72-.91.91L111.9,132a24.29,24.29,0,0,1-3.22-.6l0,0c.77.67,1.48,1.34,2.43,2.29l2.44,2.44Z"/><path class="cls-2" d="M126.82,122.36a11.39,11.39,0,0,1-1.84,2.47,5.87,5.87,0,0,1-3.38,1.87,3.77,3.77,0,0,1-3.11-1.15c-1.69-1.71-1.5-4.4.85-6.75a7.58,7.58,0,0,1,2-1.49l.38.82a6.19,6.19,0,0,0-1.79,1.31c-1.71,1.71-2,3.69-.53,5.12s3.38,1.23,5-.4a5.14,5.14,0,0,0,1-1.36l-1.7-1.71-1.43,1.43-.59-.59,2.31-2.32Z"/><path class="cls-2" d="M129.41,114.92l-2.73,2.73,2.06,2.06,3-3,.62.62-3.94,3.94-5.72-5.71,3.79-3.79.62.62-2.89,2.88,1.81,1.81,2.73-2.73Z"/><path class="cls-2" d="M134.53,109.8l-2.73,2.73,2.06,2.06,3-3,.62.62-3.94,3.94-5.72-5.71,3.79-3.79.62.61-2.88,2.89,1.8,1.81,2.73-2.73Z"/><path class="cls-2" d="M133,105.27l.91-.9,2.75,2.76,0,0c0-.4-.05-.8-.06-1.16v-4.29l1.12-1.12-.11,5,6,.55-1.07,1.08-5.12-.5,0,1.3,2.18,2.17-.9.91Z"/><path class="cls-2" d="M149.63,94.23c2,2,1.54,4.48-.25,6.27s-4.33,2-6.06.25-1.61-4.39.26-6.26S147.93,92.53,149.63,94.23Zm-5.36,5.54a3.18,3.18,0,1,0-.13-4.64A3.11,3.11,0,0,0,144.27,99.77Z"/><path class="cls-2" d="M148.91,89.35l3.38,3.38c1.28,1.28,2.52,1.13,3.46.19s1.15-2.27-.12-3.53L152.25,86l.92-.92,3.33,3.33c1.76,1.76,1.34,3.61-.18,5.13s-3.19,1.85-5,.08L148,90.26Z"/><path class="cls-2" d="M156.7,82.81,154.56,85l-.62-.63,5.19-5.19.63.62-2.15,2.15L162.7,87l-.91.91Z"/><path class="cls-3" d="M156.57,50l6.72-6.72,1.82,1.82L161,49.26l5.23,5.23a13.91,13.91,0,0,0,4-3c4.75-4.75,5.24-10.5.8-14.94s-10.29-3.81-15.25,1.15A17,17,0,0,0,152,42.93l-2.48-1.22a20.5,20.5,0,0,1,4.28-5.89c6.84-6.84,14.84-7.19,20.09-2a11.86,11.86,0,0,1,3.69,9.37c-.36,3.63-2.23,6.85-5.32,9.94a30.71,30.71,0,0,1-7.22,5.3Z"/><path class="cls-3" d="M141.1,63.72,149,55.79l-5.54-5.54-8.38,8.38-1.9-1.89,11-11,17.52,17.53L150.28,74.72l-1.9-1.9L157.22,64l-6.32-6.32L143,65.59Z"/><path class="cls-3" d="M126.21,78.61l7.93-7.93-5.54-5.54-8.38,8.38-1.9-1.9,11-11,17.52,17.52L135.39,89.6l-1.89-1.89,8.83-8.84L136,72.55l-7.92,7.93Z"/><path class="cls-3" d="M132,93l-2.64,2.64L122.66,89l-3.86,0,1.89,15.32-3.12,3.12-2.13-18.05-14.82,0,3.27-3.27,12.81.34c1.09.06,2.26.14,3.48.27l.09-.09-8.45-8.45,2.63-2.63Z"/></g></g></svg>