<svg xmlns="http://www.w3.org/2000/svg" viewBox="0 0 225.13 201.79"><defs><style>.cls-1,.cls-3,.cls-4{fill:#d4e8ed;}.cls-2{fill:#d3e8ed;}.cls-3,.cls-4{stroke:#000;stroke-miterlimit:10;}.cls-4{stroke-width:2.13px;}</style></defs><g id="Calque_2" data-name="Calque 2"><g id="EXCLUSIVE"><path class="cls-1" d="M111.35,197.54a96.64,96.64,0,0,1-16-191.91,98.12,98.12,0,0,1,16.28-1.38,96.65,96.65,0,0,1-.24,193.29Z"/><path d="M111.6,0V8.5h0A92.57,92.57,0,1,1,96,9.82,93.8,93.8,0,0,1,111.6,8.5V0m0,0a100.9,100.9,0,0,0-.24,201.79A100.9,100.9,0,0,0,111.59,0Z"/><path class="cls-2" d="M8.5,132.72a4.25,4.25,0,0,1-3.86-6l8.22-18-8.22-18a4.25,4.25,0,0,1,3.86-6H216.62a4.25,4.25,0,0,1,3.87,6l-8.2,18,8.2,18a4.25,4.25,0,0,1-3.87,6Z"/><path d="M216.62,88.89l-9,19.79,9,19.79H8.5l9-19.79-9-19.79H216.62m0-8.5H8.5a8.5,8.5,0,0,0-7.73,12l7.42,16.26L.77,124.94A8.5,8.5,0,0,0,8.5,137H216.62a8.51,8.51,0,0,0,7.74-12L217,108.68l7.4-16.26a8.51,8.51,0,0,0-7.74-12Zm0,17h0Z"/><circle class="cls-1" cx="111.33" cy="100.83" r="92.85"/><circle class="cls-1" cx="111.47" cy="100.9" r="83.61"/><path d="M202,83.07c-2.66-1-5.28-1.91-7.9-2.69s-5.32-1.43-7.93-2l-2.95.89a76.44,76.44,0,0,1,2.84,14.43l3.07-.3c2.21-1.5,4.44-3.12,6.59-4.84S200,85,202,83.07Z"/><path d="M203.76,101.09c-2.4-1.52-4.76-2.92-7.22-4.19s-4.89-2.44-7.39-3.48l-3.07.3a74.9,74.9,0,0,1,0,14.67l3.07.32c2.46-1,5-2.19,7.41-3.46S201.4,102.59,203.76,101.09Z"/><path d="M202,119.1c-2.07-2-4.11-3.8-6.26-5.53s-4.32-3.36-6.57-4.86l-3.07-.32a75.18,75.18,0,0,1-2.9,14.4l2.95.91c2.61-.54,5.3-1.17,7.94-1.94S199.33,120.11,202,119.1Z"/><path d="M196.65,136.39c-1.64-2.32-3.31-4.53-5.06-6.64s-3.6-4.14-5.49-6l-2.95-.91a74.94,74.94,0,0,1-5.66,13.57l2.73,1.46c2.66,0,5.39-.13,8.16-.35S193.86,136.86,196.65,136.39Z"/><path d="M188.1,152.32c-1.15-2.58-2.39-5.09-3.68-7.49s-2.75-4.77-4.2-7l-2.73-1.46a74.83,74.83,0,0,1-8.19,12.21l2.39,2c2.64.52,5.31.92,8.08,1.24S185.25,152.23,188.1,152.32Z"/><path d="M176.6,166.29c-.6-2.75-1.35-5.47-2.15-8.07s-1.77-5.22-2.76-7.69l-2.39-2a74.94,74.94,0,0,1-10.4,10.37l1.95,2.39c2.51,1,5,1.93,7.69,2.79S173.83,165.64,176.6,166.29Z"/><path d="M162.59,177.74c-.05-2.8-.26-5.62-.52-8.33s-.72-5.46-1.22-8.08l-1.95-2.39a74.52,74.52,0,0,1-12.22,8.12l1.44,2.73c2.25,1.51,4.55,2.89,7,4.25S160,176.57,162.59,177.74Z"/><path d="M146.6,186.23c.49-2.78.85-5.57,1.12-8.28s.37-5.49.4-8.16l-1.44-2.73a76.15,76.15,0,0,1-13.6,5.6l.89,3q2.85,2.81,6,5.51C142.09,182.89,144.29,184.57,146.6,186.23Z"/><path d="M129.3,191.44c1-2.66,1.91-5.27,2.69-7.9s1.43-5.32,2-7.92l-.89-3a75.66,75.66,0,0,1-14.43,2.84l.3,3.07c1.5,2.21,3.12,4.45,4.84,6.59S127.35,189.4,129.3,191.44Z"/><path d="M111.28,193.19c1.52-2.41,2.92-4.77,4.2-7.22s2.44-4.9,3.47-7.4l-.3-3.07a74.14,74.14,0,0,1-14.67,0l-.31,3.08c1,2.45,2.18,5,3.45,7.4S109.78,190.83,111.28,193.19Z"/><path d="M93.27,191.37c2-2.06,3.8-4.11,5.53-6.26s3.36-4.31,4.87-6.56l.31-3.08a74.42,74.42,0,0,1-14.4-2.9l-.91,3c.54,2.61,1.17,5.3,1.94,7.94S92.26,188.75,93.27,191.37Z"/><path d="M76,186.08c2.32-1.65,4.53-3.32,6.64-5.07s4.14-3.59,6-5.49l.91-3A75.63,75.63,0,0,1,76,166.92l-1.46,2.72c0,2.66.13,5.39.35,8.16S75.51,183.29,76,186.08Z"/><path d="M60.05,177.52c2.59-1.15,5.09-2.39,7.49-3.68s4.77-2.75,7-4.2L76,166.92a75.54,75.54,0,0,1-12.21-8.2l-2,2.39c-.52,2.64-.91,5.31-1.24,8.08S60.14,174.68,60.05,177.52Z"/><path d="M46.09,166c2.74-.6,5.46-1.35,8.06-2.14s5.22-1.78,7.69-2.77l2-2.39a74.4,74.4,0,0,1-10.37-10.4l-2.39,2c-1,2.5-1.93,5-2.79,7.68S46.73,163.25,46.09,166Z"/><path d="M34.63,152c2.8,0,5.62-.25,8.33-.52s5.47-.72,8.08-1.21l2.39-2a74.52,74.52,0,0,1-8.12-12.22l-2.73,1.44c-1.51,2.25-2.89,4.56-4.24,7S35.8,149.41,34.63,152Z"/><path d="M26.14,136c2.78.5,5.57.86,8.28,1.12s5.5.37,8.16.4l2.73-1.44a76.15,76.15,0,0,1-5.6-13.6l-3,.89q-2.82,2.85-5.52,6C29.48,131.52,27.8,133.71,26.14,136Z"/><path d="M20.93,118.72c2.66,1,5.28,1.91,7.9,2.7s5.32,1.42,7.93,2l3-.89a76.34,76.34,0,0,1-2.84-14.42l-3.07.3c-2.21,1.49-4.45,3.11-6.59,4.84S23,116.78,20.93,118.72Z"/><path d="M19.18,100.71c2.41,1.51,4.77,2.91,7.22,4.19s4.9,2.44,7.4,3.48l3.07-.3a75,75,0,0,1,0-14.68l-3.08-.31c-2.45,1-5,2.18-7.4,3.45S21.54,99.2,19.18,100.71Z"/><path d="M21,82.7c2.06,2,4.11,3.79,6.26,5.52s4.32,3.36,6.56,4.87l3.08.31A74.42,74.42,0,0,1,39.8,79l-2.95-.9c-2.61.53-5.3,1.17-7.94,1.93S23.62,81.69,21,82.7Z"/><path d="M26.29,65.4c1.65,2.32,3.32,4.53,5.07,6.64s3.6,4.14,5.49,6.06l2.95.9a75.93,75.93,0,0,1,5.65-13.57L42.73,64c-2.66,0-5.39.13-8.16.36S29.08,64.93,26.29,65.4Z"/><path d="M34.85,49.47c1.15,2.59,2.39,5.1,3.68,7.5s2.75,4.77,4.2,7l2.72,1.46a76,76,0,0,1,8.2-12.21l-2.39-2c-2.64-.52-5.31-.91-8.08-1.23S37.69,49.56,34.85,49.47Z"/><path d="M46.35,35.51c.6,2.74,1.35,5.46,2.14,8.06s1.78,5.22,2.77,7.69l2.39,2a74.87,74.87,0,0,1,10.4-10.36l-2-2.4c-2.5-1-5-1.93-7.68-2.79S49.12,36.15,46.35,35.51Z"/><path d="M60.36,24.05c0,2.8.26,5.63.52,8.33s.72,5.47,1.21,8.08l2,2.4a74,74,0,0,1,12.22-8.13L74.83,32c-2.25-1.51-4.56-2.88-7-4.24S63,25.22,60.36,24.05Z"/><path d="M76.35,15.56c-.5,2.78-.86,5.57-1.12,8.28s-.37,5.5-.4,8.16l1.44,2.73a75.38,75.38,0,0,1,13.6-5.59l-.89-3q-2.85-2.82-6-5.52C80.85,18.9,78.66,17.22,76.35,15.56Z"/><path d="M93.65,10.35c-1,2.66-1.91,5.28-2.69,7.9s-1.43,5.32-2,7.93l.89,3a75.58,75.58,0,0,1,14.42-2.85l-.3-3.07c-1.49-2.2-3.11-4.44-4.84-6.59S95.59,12.4,93.65,10.35Z"/><path d="M111.66,8.61c-1.51,2.41-2.91,4.76-4.19,7.22S105,20.72,104,23.22l.3,3.07a75,75,0,0,1,14.68,0l.31-3.07c-1-2.46-2.18-5-3.45-7.41S113.17,11,111.66,8.61Z"/><path d="M129.67,10.42c-1.95,2.07-3.79,4.11-5.52,6.26s-3.36,4.32-4.87,6.57L119,26.32a75.18,75.18,0,0,1,14.4,2.9l.91-2.95c-.54-2.61-1.17-5.29-1.94-7.94S130.68,13,129.67,10.42Z"/><path d="M147,15.72c-2.32,1.64-4.53,3.31-6.64,5.06s-4.14,3.6-6.05,5.49l-.91,2.95a76,76,0,0,1,13.57,5.66l1.46-2.72c0-2.67-.13-5.4-.36-8.17S147.44,18.51,147,15.72Z"/><path d="M162.9,24.27c-2.59,1.15-5.09,2.39-7.49,3.68s-4.78,2.75-7,4.21l-1.46,2.72a75.27,75.27,0,0,1,12.21,8.19l2-2.39c.52-2.64.91-5.31,1.23-8.08S162.81,27.12,162.9,24.27Z"/><path d="M176.86,35.77c-2.74.6-5.46,1.35-8.06,2.15s-5.22,1.77-7.69,2.76l-2,2.39a76.06,76.06,0,0,1,10.37,10.4l2.39-1.95c1-2.5,1.93-5,2.79-7.68S176.22,38.54,176.86,35.77Z"/><path d="M188.32,49.78c-2.8,0-5.63.26-8.33.53s-5.47.71-8.08,1.21l-2.39,1.95a75,75,0,0,1,8.12,12.23l2.73-1.45c1.51-2.25,2.88-4.55,4.24-7S187.15,52.38,188.32,49.78Z"/><path d="M196.81,65.77c-2.78-.49-5.57-.85-8.28-1.12s-5.5-.37-8.16-.4l-2.73,1.45a76.05,76.05,0,0,1,5.6,13.59l2.95-.89q2.82-2.85,5.52-6C193.47,70.28,195.15,68.08,196.81,65.77Z"/><rect x="13.07" y="128.47" width="28.23" height="1.71"/><rect x="183.86" y="128.47" width="23.81" height="1.71"/><circle class="cls-3" cx="111.72" cy="100.9" r="72.13"/><circle class="cls-3" cx="111.47" cy="100.9" r="35.26"/><circle class="cls-3" cx="111.47" cy="100.67" r="32.46"/><rect class="cls-4" x="17.89" y="80.23" width="187.67" height="39.19"/><path d="M66.8,85.06H60.58l-4.55,9-4.61-9H28v30.08H51.23l4.83-9.57L61,115.14h6.22L59,99.8ZM33.55,109.29v-6.17h10.3V97.27H33.55V90.91H45.68V86l7.39,13.87-7.39,14.06v-4.59Z"/><path d="M72.3,93.21a4.29,4.29,0,0,1,1.38-1.87,3.24,3.24,0,0,1,3.5-.2,4.53,4.53,0,0,1,1.39,1.28,5.43,5.43,0,0,1,.88,2l.2.81h5.56L85,94a12.91,12.91,0,0,0-1.74-4.75A9.65,9.65,0,0,0,80,85.94a8.48,8.48,0,0,0-4.36-1.17,8.72,8.72,0,0,0-5,1.48,9.51,9.51,0,0,0-3.32,4.11,14.49,14.49,0,0,0-1.14,5.91V104a14.49,14.49,0,0,0,1.14,5.91,9.42,9.42,0,0,0,3.32,4.1,8.73,8.73,0,0,0,5,1.47A8.32,8.32,0,0,0,80,114.25,9.55,9.55,0,0,0,83.26,111,12.92,12.92,0,0,0,85,106.24l.2-1.24H79.64l-.19.83a5.44,5.44,0,0,1-.88,2,3.9,3.9,0,0,1-1.36,1.22,3.27,3.27,0,0,1-1.57.4,3.23,3.23,0,0,1-2-.61A4.23,4.23,0,0,1,72.3,107a8.11,8.11,0,0,1-.53-3V96.27A8.13,8.13,0,0,1,72.3,93.21Z"/><polygon points="92.89 85.06 87.38 85.06 87.38 115.14 105.02 115.14 105.02 109.29 92.89 109.29 92.89 85.06"/><path d="M119.47,104.1a6.47,6.47,0,0,1-1.11,4.07,4,4,0,0,1-5.87,0,6.47,6.47,0,0,1-1.1-4.07v-19h-5.51V104A15.43,15.43,0,0,0,107,110a8.78,8.78,0,0,0,3.3,4,10.29,10.29,0,0,0,10.33,0,8.68,8.68,0,0,0,3.31-4A15.43,15.43,0,0,0,125,104V85.06h-5.51Z"/><path d="M142,98.64a19.79,19.79,0,0,0-3.89-1.31l-.31-.06-1.79-.44a4.19,4.19,0,0,1-1.31-.41,3.17,3.17,0,0,1-1.32-.91,2.44,2.44,0,0,1-.45-1.6,3,3,0,0,1,1-2.43,4.86,4.86,0,0,1,3.16-.89,5.79,5.79,0,0,1,2.33.5,9.65,9.65,0,0,1,2.48,1.59l.94.8,3.06-5-.71-.59a14.33,14.33,0,0,0-2.58-1.75,12.5,12.5,0,0,0-2.7-1.06,11.18,11.18,0,0,0-2.82-.36A11.43,11.43,0,0,0,132,85.84a7.81,7.81,0,0,0-3.39,3.24,10.27,10.27,0,0,0-1.13,5,9.06,9.06,0,0,0,1.26,5.16,6.64,6.64,0,0,0,3.09,2.61,24.29,24.29,0,0,0,4.09,1.13l.21,0a1.28,1.28,0,0,0,.27.05h0a16.64,16.64,0,0,1,2.51.71,2.89,2.89,0,0,1,1.24.93,2.75,2.75,0,0,1,.44,1.69,2.72,2.72,0,0,1-1,2.34,5.46,5.46,0,0,1-3.41.9,8,8,0,0,1-5.89-2.45l-.9-.9L126,111l.64.64a13.45,13.45,0,0,0,2.75,2.08A12.51,12.51,0,0,0,132.6,115a15.17,15.17,0,0,0,3.56.41,12,12,0,0,0,5.25-1.06,7.84,7.84,0,0,0,3.49-3.19,9.75,9.75,0,0,0,1.19-5,9.28,9.28,0,0,0-1.15-4.9A7,7,0,0,0,142,98.64Z"/><rect x="148.45" y="85.06" width="5.52" height="30.09"/><polygon points="166.53 103.88 161.56 85.06 155.65 85.06 164.12 115.14 168.95 115.14 177.42 85.06 171.51 85.06 166.53 103.88"/><polygon points="196.25 90.91 196.25 85.06 178.61 85.06 178.61 115.14 196.25 115.14 196.25 109.29 184.12 109.29 184.12 103.12 194.42 103.12 194.42 97.27 184.12 97.27 184.12 90.91 196.25 90.91"/><polygon points="119.21 60.13 111.47 56.07 103.74 60.13 105.22 51.52 98.96 45.42 107.61 44.17 111.47 36.34 115.34 44.17 123.98 45.42 117.73 51.52 119.21 60.13"/><polygon points="103.74 140.63 111.47 144.69 119.21 140.63 117.73 149.24 123.98 155.34 115.34 156.59 111.47 164.42 107.61 156.59 98.96 155.34 105.22 149.24 103.74 140.63"/><polygon points="139.8 130.17 144.74 132.78 149.69 130.17 148.75 135.68 152.75 139.58 147.22 140.39 144.74 145.4 142.27 140.39 136.74 139.58 140.74 135.68 139.8 130.17"/><polygon points="81.89 129.65 76.95 132.25 72 129.65 72.95 135.16 68.94 139.06 74.47 139.87 76.95 144.88 79.42 139.87 84.95 139.06 80.95 135.16 81.89 129.65"/><polygon points="82.77 71.73 77.82 69.13 72.88 71.73 73.82 66.22 69.82 62.32 75.35 61.52 77.82 56.51 80.3 61.52 85.83 62.32 81.83 66.22 82.77 71.73"/><polygon points="140.67 72.26 145.62 69.66 150.57 72.26 149.62 66.75 153.62 62.85 148.09 62.04 145.62 57.03 143.15 62.04 137.61 62.85 141.62 66.75 140.67 72.26"/></g></g></svg>