<svg xmlns="http://www.w3.org/2000/svg" viewBox="0 0 175.91 175.91"><defs><style>.cls-1{fill:#da2185;stroke:#da2887;stroke-width:2.83px;}.cls-1,.cls-7{stroke-miterlimit:10;}.cls-2{fill:#ed6ba5;}.cls-3{fill:#ec6ca5;}.cls-4{fill:#d92385;}.cls-5,.cls-7{fill:#fff;}.cls-6{fill:#843089;}.cls-7{stroke:#fff;stroke-width:2.83px;}</style></defs><g id="Calque_2" data-name="Calque 2"><g id="FLOCKED"><circle class="cls-1" cx="87.95" cy="87.95" r="86.54"/><circle class="cls-2" cx="87.95" cy="87.95" r="67.27"/><circle class="cls-3" cx="87.95" cy="87.95" r="63.96"/><path class="cls-4" d="M148.17,91.22c2-1,4.06-2.07,6.09-3.27h1.3l-.1,3.66c-.1,1.22-.16,2.44-.3,3.65l-1.29-.14C152,93.72,150.08,92.41,148.17,91.22Z"/><path class="cls-4" d="M147.46,97.72c2.18-.75,4.26-1.63,6.41-2.6l1.29.14a68.05,68.05,0,0,1-1.18,7.23l-1.27-.28A68.88,68.88,0,0,0,147.46,97.72Z"/><path class="cls-4" d="M146.06,104.09c2.25-.51,4.42-1.15,6.65-1.88l1.27.28c-.28,1.18-.52,2.38-.88,3.55s-.67,2.35-1.08,3.5l-1.23-.41A66.56,66.56,0,0,0,146.06,104.09Z"/><path class="cls-4" d="M144,110.27c1.13-.13,2.27-.29,3.41-.48s2.26-.42,3.4-.66l1.23.41-.59,1.73-.67,1.71c-.43,1.14-.94,2.25-1.45,3.36l-1.18-.54C146.81,113.87,145.46,112,144,110.27Z"/><path class="cls-4" d="M141.24,116.2c2.25,0,4.61-.14,6.89-.4l1.18.54a67.65,67.65,0,0,1-3.42,6.47l-1.12-.67C143.65,120.07,142.51,118.11,141.24,116.2Z"/><path class="cls-4" d="M137.88,121.8c2.25.21,4.55.33,6.89.34l1.12.67c-.64,1-1.31,2.07-2,3.09s-1.39,2-2.14,3l-1-.79C139.88,125.92,138.89,123.8,137.88,121.8Z"/><path class="cls-4" d="M133.91,127c2.26.49,4.48.81,6.83,1.09l1,.79a66.18,66.18,0,0,1-4.75,5.57l-.94-.9C135.47,131.32,134.72,129.11,133.91,127Z"/><path class="cls-4" d="M129.42,131.73q1.62.53,3.3,1c1.1.29,2.22.57,3.36.82l.94.9-1.26,1.32L134.44,137c-.87.85-1.8,1.64-2.73,2.44l-.84-1C130.48,136.18,130,134,129.42,131.73Z"/><path class="cls-4" d="M124.44,136c2.06.91,4.25,1.8,6.43,2.52l.84,1a71.34,71.34,0,0,1-5.81,4.44l-.73-1.07C125,140.48,124.8,138.22,124.44,136Z"/><path class="cls-4" d="M119.05,139.64c2,1.14,4,2.2,6.12,3.2l.73,1.07c-1,.67-2.05,1.34-3.09,2s-2.1,1.24-3.18,1.8l-.61-1.15C119.14,144.23,119.13,141.88,119.05,139.64Z"/><path class="cls-4" d="M113.27,142.69c1.85,1.39,3.73,2.62,5.75,3.85l.61,1.15a67.78,67.78,0,0,1-6.65,3.07l-.48-1.21C112.88,147.28,113.12,145,113.27,142.69Z"/><path class="cls-4" d="M107.21,145.1c.83.78,1.7,1.55,2.58,2.29s1.78,1.45,2.71,2.16l.48,1.21-1.71.67-1.73.59c-1.15.41-2.32.75-3.5,1.08l-.35-1.26A68.94,68.94,0,0,0,107.21,145.1Z"/><path class="cls-4" d="M100.92,146.85c1.49,1.7,3.09,3.42,4.77,5l.35,1.26a67,67,0,0,1-7.15,1.57l-.21-1.28C99.53,151.18,100.3,149.08,100.92,146.85Z"/><path class="cls-4" d="M94.48,147.91c1.29,1.83,2.7,3.72,4.2,5.48l.21,1.28c-1.2.22-2.42.33-3.63.49s-2.43.2-3.65.3l-.07-1.3C92.63,152.07,93.61,150,94.48,147.91Z"/><path class="cls-4" d="M88,148.26c1.09,2,2.29,4,3.59,5.9l.07,1.3-3.66.1-3.65-.1.07-1.3C85.67,152.21,86.86,150.23,88,148.26Z"/><path class="cls-4" d="M81.43,147.91c.87,2.1,1.85,4.16,2.94,6.25l-.07,1.3c-1.22-.1-2.44-.16-3.65-.3s-2.43-.27-3.63-.49l.21-1.28C78.73,151.63,80.14,149.74,81.43,147.91Z"/><path class="cls-4" d="M75,146.85c.62,2.23,1.39,4.33,2.24,6.54L77,154.67a67,67,0,0,1-7.15-1.57l.35-1.26C71.9,150.27,73.5,148.55,75,146.85Z"/><path class="cls-4" d="M68.7,145.1a66.15,66.15,0,0,0,1.52,6.74l-.35,1.26c-1.18-.33-2.35-.67-3.5-1.08l-1.74-.59-1.7-.67.48-1.21c.93-.71,1.83-1.43,2.71-2.16S67.86,145.88,68.7,145.1Z"/><path class="cls-4" d="M62.63,142.69c.16,2.26.4,4.59.78,6.86l-.48,1.21a67.78,67.78,0,0,1-6.65-3.07l.61-1.15C58.9,145.31,60.79,144.08,62.63,142.69Z"/><path class="cls-4" d="M56.86,139.64c-.08,2.24-.09,4.59,0,6.9l-.61,1.15c-1.08-.56-2.12-1.2-3.19-1.8s-2.06-1.31-3.08-2l.73-1.07C52.87,141.84,54.91,140.78,56.86,139.64Z"/><path class="cls-4" d="M51.46,136c-.35,2.26-.56,4.52-.72,6.88L50,143.91a71.5,71.5,0,0,1-5.82-4.44l.85-1C47.22,137.76,49.41,136.87,51.46,136Z"/><path class="cls-4" d="M46.49,131.73c-.6,2.22-1.06,4.45-1.45,6.75l-.85,1c-.92-.8-1.85-1.59-2.72-2.44l-1.32-1.27-1.27-1.32.95-.9c1.14-.25,2.26-.53,3.36-.82S45.41,132.08,46.49,131.73Z"/><path class="cls-4" d="M42,127c-.81,2.12-1.56,4.33-2.17,6.55l-.95.9a68,68,0,0,1-4.74-5.57l1-.79C37.51,127.8,39.74,127.48,42,127Z"/><path class="cls-4" d="M38,121.8c-1,2-2,4.12-2.86,6.28l-1,.79c-.75-1-1.43-2-2.15-3s-1.33-2.05-2-3.09l1.11-.67C33.48,122.13,35.78,122,38,121.8Z"/><path class="cls-4" d="M34.67,116.2c-1.27,1.91-2.41,3.87-3.54,5.94l-1.11.67a67.65,67.65,0,0,1-3.42-6.47l1.18-.54C30.06,116.06,32.42,116.16,34.67,116.2Z"/><path class="cls-4" d="M31.93,110.27c-1.48,1.77-2.83,3.6-4.15,5.53l-1.18.54c-.51-1.11-1-2.22-1.45-3.36l-.67-1.71-.59-1.73,1.23-.41c1.14.24,2.27.47,3.39.66S30.8,110.14,31.93,110.27Z"/><path class="cls-4" d="M29.85,104.09a66.56,66.56,0,0,0-4.73,5l-1.23.41c-.42-1.15-.75-2.32-1.08-3.5s-.6-2.37-.88-3.55l1.27-.28C25.43,102.94,27.6,103.58,29.85,104.09Z"/><path class="cls-4" d="M28.44,97.72a68.74,68.74,0,0,0-5.24,4.49l-1.27.28a70.73,70.73,0,0,1-1.19-7.23l1.3-.14C24.19,96.09,26.27,97,28.44,97.72Z"/><path class="cls-4" d="M27.74,91.22c-1.91,1.19-3.84,2.5-5.7,3.9l-1.3.14c-.13-1.21-.19-2.43-.29-3.65L20.35,88h1.3C23.68,89.15,25.7,90.24,27.74,91.22Z"/><path class="cls-4" d="M27.74,84.69c-2,1-4.06,2.07-6.09,3.26h-1.3l.1-3.65c.1-1.22.16-2.44.29-3.65l1.3.14C23.9,82.19,25.83,83.49,27.74,84.69Z"/><path class="cls-4" d="M28.44,78.19c-2.17.75-4.25,1.63-6.4,2.6l-1.3-.14a70.73,70.73,0,0,1,1.19-7.23l1.27.28C24.85,75.29,26.68,76.8,28.44,78.19Z"/><path class="cls-4" d="M29.85,71.82A67.38,67.38,0,0,0,23.2,73.7l-1.27-.28c.28-1.19.52-2.38.88-3.55s.66-2.35,1.08-3.5l1.23.41A66.56,66.56,0,0,0,29.85,71.82Z"/><path class="cls-4" d="M31.93,65.63c-1.13.14-2.27.3-3.42.49s-2.25.42-3.39.66l-1.23-.41.59-1.74.67-1.7c.43-1.15.94-2.25,1.45-3.37l1.18.55C29.1,62,30.45,63.87,31.93,65.63Z"/><path class="cls-4" d="M34.67,59.71c-2.25,0-4.61.14-6.89.4l-1.18-.55A70.13,70.13,0,0,1,30,53.09l1.11.68C32.26,55.84,33.4,57.8,34.67,59.71Z"/><path class="cls-4" d="M38,54.11c-2.25-.21-4.55-.33-6.9-.34L30,53.09c.64-1,1.3-2.06,2-3.08s1.4-2,2.15-3l1,.79C36,50,37,52.11,38,54.11Z"/><path class="cls-4" d="M42,48.92c-2.26-.49-4.49-.81-6.83-1.09l-1-.79a68,68,0,0,1,4.74-5.57l.95.9C40.44,44.59,41.19,46.8,42,48.92Z"/><path class="cls-4" d="M46.49,44.18q-1.62-.52-3.3-1c-1.1-.29-2.22-.57-3.36-.82l-.95-.9,1.27-1.32,1.32-1.27c.87-.86,1.8-1.65,2.72-2.44l.85,1C45.43,39.73,45.89,42,46.49,44.18Z"/><path class="cls-4" d="M51.46,40c-2.05-.91-4.24-1.8-6.42-2.52l-.85-1A71.62,71.62,0,0,1,50,32l.73,1.08C50.9,35.43,51.11,37.68,51.46,40Z"/><path class="cls-4" d="M56.86,36.27c-2-1.14-4-2.2-6.12-3.2L50,32c1-.67,2.05-1.33,3.08-2s2.11-1.24,3.19-1.8l.61,1.15C56.77,31.68,56.78,34,56.86,36.27Z"/><path class="cls-4" d="M62.63,33.22c-1.84-1.39-3.73-2.62-5.74-3.85l-.61-1.15a65.53,65.53,0,0,1,6.65-3.07l.48,1.21C63,28.63,62.79,31,62.63,33.22Z"/><path class="cls-4" d="M68.7,30.8c-.84-.77-1.7-1.54-2.58-2.29s-1.78-1.44-2.71-2.15l-.48-1.21,1.7-.67,1.74-.59c1.15-.42,2.32-.75,3.5-1.08l.35,1.25A67.38,67.38,0,0,0,68.7,30.8Z"/><path class="cls-4" d="M75,29.06c-1.49-1.7-3.09-3.42-4.77-5l-.35-1.25A64.63,64.63,0,0,1,77,21.24l.21,1.28C76.38,24.72,75.61,26.83,75,29.06Z"/><path class="cls-4" d="M81.43,28c-1.29-1.83-2.7-3.72-4.2-5.48L77,21.24c1.2-.22,2.42-.33,3.63-.5s2.43-.19,3.65-.29l.07,1.3C83.28,23.84,82.3,25.9,81.43,28Z"/><path class="cls-4" d="M88,27.65c-1.09-2-2.28-4-3.58-5.9l-.07-1.3,3.65-.1,3.66.1-.07,1.3C90.24,23.69,89,25.68,88,27.65Z"/><path class="cls-4" d="M94.48,28c-.87-2.1-1.85-4.16-2.94-6.25l.07-1.3c1.22.1,2.44.16,3.65.29s2.43.28,3.63.5l-.21,1.28C97.18,24.28,95.77,26.17,94.48,28Z"/><path class="cls-4" d="M100.92,29.06c-.62-2.23-1.39-4.34-2.24-6.54l.21-1.28A64.63,64.63,0,0,1,106,22.81l-.35,1.25C104,25.64,102.41,27.36,100.92,29.06Z"/><path class="cls-4" d="M107.21,30.8c-.39-2.26-.9-4.49-1.52-6.74l.35-1.25c1.18.33,2.35.66,3.5,1.08l1.73.59,1.71.67-.48,1.21c-.93.71-1.83,1.43-2.71,2.15S108,30,107.21,30.8Z"/><path class="cls-4" d="M113.27,33.22c-.15-2.26-.39-4.59-.77-6.86l.48-1.21a65.53,65.53,0,0,1,6.65,3.07L119,29.37C117,30.6,115.12,31.83,113.27,33.22Z"/><path class="cls-4" d="M119.05,36.27c.08-2.24.09-4.59,0-6.9l.61-1.15c1.08.56,2.12,1.2,3.18,1.8s2.07,1.3,3.09,2l-.73,1.08C123,34.07,121,35.13,119.05,36.27Z"/><path class="cls-4" d="M124.44,40c.36-2.27.57-4.52.73-6.88L125.9,32a71.46,71.46,0,0,1,5.81,4.45l-.84,1C128.69,38.15,126.5,39,124.44,40Z"/><path class="cls-4" d="M129.42,44.18c.6-2.22,1.06-4.45,1.45-6.75l.84-1c.93.79,1.86,1.58,2.73,2.44l1.32,1.27L137,41.47l-.94.9c-1.14.25-2.26.53-3.36.82S130.5,43.83,129.42,44.18Z"/><path class="cls-4" d="M133.91,48.92c.81-2.12,1.56-4.33,2.17-6.55l.94-.9A66.18,66.18,0,0,1,141.77,47l-1,.79C138.39,48.11,136.17,48.43,133.91,48.92Z"/><path class="cls-4" d="M137.88,54.11c1-2,2-4.13,2.86-6.28l1-.79c.75,1,1.43,2,2.14,3s1.34,2.05,2,3.08l-1.12.68C142.43,53.78,140.13,53.9,137.88,54.11Z"/><path class="cls-4" d="M141.24,59.71c1.27-1.91,2.41-3.87,3.53-5.94l1.12-.68a70.13,70.13,0,0,1,3.42,6.47l-1.18.55C145.85,59.85,143.49,59.75,141.24,59.71Z"/><path class="cls-4" d="M144,65.63c1.48-1.76,2.83-3.59,4.15-5.52l1.18-.55c.51,1.12,1,2.22,1.45,3.37l.67,1.7.59,1.74-1.23.41c-1.14-.24-2.27-.47-3.4-.66S145.11,65.77,144,65.63Z"/><path class="cls-4" d="M146.06,71.82a66.56,66.56,0,0,0,4.73-5l1.23-.41c.41,1.15.75,2.32,1.08,3.5s.6,2.36.88,3.55l-1.27.28A67.38,67.38,0,0,0,146.06,71.82Z"/><path class="cls-4" d="M147.46,78.19c1.77-1.39,3.59-2.9,5.25-4.49l1.27-.28a68.05,68.05,0,0,1,1.18,7.23l-1.29.14C151.72,79.82,149.64,78.94,147.46,78.19Z"/><path class="cls-4" d="M148.17,84.69c1.91-1.2,3.84-2.5,5.7-3.9l1.29-.14c.14,1.21.2,2.43.3,3.65l.1,3.65h-1.3C152.23,86.76,150.21,85.67,148.17,84.69Z"/><path class="cls-5" d="M16.77,111.53a4.26,4.26,0,0,1-4.26-4.25V68.63a4.25,4.25,0,0,1,4.26-4.25H32.52a4.25,4.25,0,0,1,4.25,4.25v5.16A4.25,4.25,0,0,1,32.52,78h-8V81.6h6.09a4.26,4.26,0,0,1,4.26,4.25V91a4.25,4.25,0,0,1-4.26,4.25H24.53v12a4.25,4.25,0,0,1-4.25,4.25Z"/><path class="cls-6" d="M32.52,68.63v5.16H20.28V68.63H32.52m-12.24,0H18.49v5.16h1.79V85.85H18.49V91h1.79v16.27H16.77V68.63h3.51M30.62,85.85V91H20.28V85.85H30.62m1.9-25.72H16.77a8.51,8.51,0,0,0-8.51,8.5v38.65a8.51,8.51,0,0,0,8.51,8.5h3.51a8.51,8.51,0,0,0,8.5-8.5V99.51h1.84A8.5,8.5,0,0,0,39.13,91V85.85a8.47,8.47,0,0,0-1.71-5.11A8.49,8.49,0,0,0,41,73.79V68.63a8.51,8.51,0,0,0-8.5-8.5Z"/><path class="cls-5" d="M15.9,112.34a4.25,4.25,0,0,1-4.26-4.25V67.82a4.26,4.26,0,0,1,4.26-4.26H33.39a4.26,4.26,0,0,1,4.25,4.26v6.79a4.26,4.26,0,0,1-4.25,4.25h-8v1.93h6.09A4.25,4.25,0,0,1,35.75,85v6.79a4.25,4.25,0,0,1-4.26,4.25H25.4v12a4.25,4.25,0,0,1-4.25,4.25Z"/><path class="cls-6" d="M33.39,67.82V74.6H21.15V85H31.49v6.79H21.15v16.26H15.9V67.82H33.39M21.15,73h10.5V69.45H21.15V73m-1.79,0h.05V69.45h-.05V73M17.63,85h1.78V74.6H17.63V85m3.52,5.15h8.6V86.67h-8.6v3.52m-1.79,0h.05V86.67h-.05v3.52m-1.73,16.27h1.78V91.83H17.63v14.63M33.39,59.31H15.9a8.51,8.51,0,0,0-8.51,8.51v40.27a8.51,8.51,0,0,0,8.51,8.51h5.25a8.51,8.51,0,0,0,8.5-8.51v-7.76h1.84A8.51,8.51,0,0,0,40,91.83V85a8.43,8.43,0,0,0-1-4,8.47,8.47,0,0,0,2.91-6.41V67.82a8.51,8.51,0,0,0-8.5-8.51Z"/><path class="cls-5" d="M36.82,111.53a4.25,4.25,0,0,1-4.25-4.25V68.63a4.25,4.25,0,0,1,4.25-4.25h3.51a4.25,4.25,0,0,1,4.25,4.25V97.87H52.9a4.25,4.25,0,0,1,4.25,4.25v5.16a4.25,4.25,0,0,1-4.25,4.25Z"/><path class="cls-6" d="M40.33,68.63v33.49H38.58v5.16H36.82V68.63h3.51M52.9,102.12v5.16H40.33v-5.16H52.9m-12.57-42H36.82a8.5,8.5,0,0,0-8.5,8.5v38.65a8.5,8.5,0,0,0,8.5,8.5H52.9a8.5,8.5,0,0,0,8.5-8.5v-5.16a8.49,8.49,0,0,0-8.5-8.5H48.84v-25a8.51,8.51,0,0,0-8.51-8.5Z"/><path class="cls-5" d="M36,112.34a4.25,4.25,0,0,1-4.25-4.25V67.82A4.25,4.25,0,0,1,36,63.56H41.2a4.25,4.25,0,0,1,4.25,4.26V97.05h8.32A4.25,4.25,0,0,1,58,101.3v6.79a4.25,4.25,0,0,1-4.25,4.25Z"/><path class="cls-6" d="M41.2,67.82V101.3H53.77v6.79H36V67.82H41.2m-3.51,38.64h0V101.3h1.75V69.45H37.69v37m3.51,0H52v-3.52H41.2v3.52m-1.75,0h0v0M41.2,59.31H36a8.51,8.51,0,0,0-8.5,8.51v40.27A8.51,8.51,0,0,0,36,116.6H53.77a8.5,8.5,0,0,0,8.5-8.51V101.3a8.5,8.5,0,0,0-8.5-8.5H49.71v-25a8.51,8.51,0,0,0-8.51-8.51Z"/><path class="cls-5" d="M64.62,111.93a11.06,11.06,0,0,1-7.43-2.84,15.57,15.57,0,0,1-4.3-6.82,27.7,27.7,0,0,1-1.32-8.84v-11a27.81,27.81,0,0,1,1.32-8.85,15.59,15.59,0,0,1,4.3-6.81,11.15,11.15,0,0,1,14.87,0,15.66,15.66,0,0,1,4.3,6.82,27.71,27.71,0,0,1,1.31,8.84v11a27.43,27.43,0,0,1-1.32,8.84,15.55,15.55,0,0,1-4.29,6.82A11.07,11.07,0,0,1,64.62,111.93Zm0-34A3.56,3.56,0,0,0,64.11,79a10.6,10.6,0,0,0-.43,3.26V93.62a10.64,10.64,0,0,0,.43,3.26A4,4,0,0,0,64.62,98a3.6,3.6,0,0,0,.51-1.08,10.62,10.62,0,0,0,.44-3.26V82.29A10.58,10.58,0,0,0,65.13,79,3.65,3.65,0,0,0,64.63,78Z"/><path class="cls-6" d="M64.62,68.23A6.75,6.75,0,0,1,69.24,70a11.43,11.43,0,0,1,3.09,5,23.25,23.25,0,0,1,1.09,7.48v11a23.3,23.3,0,0,1-1.09,7.48,11.43,11.43,0,0,1-3.09,5,6.93,6.93,0,0,1-9.23,0,11.43,11.43,0,0,1-3.09-5,23.3,23.3,0,0,1-1.09-7.48v-11A23.25,23.25,0,0,1,56.92,75,11.43,11.43,0,0,1,60,70a6.74,6.74,0,0,1,4.61-1.77m0,34.1a3.93,3.93,0,0,0,2.73-1.07,7,7,0,0,0,1.83-3.06,14.82,14.82,0,0,0,.64-4.58V82.29a14.82,14.82,0,0,0-.64-4.58,7,7,0,0,0-1.83-3.06,4,4,0,0,0-5.46,0,7,7,0,0,0-1.82,3.06,14.8,14.8,0,0,0-.65,4.58V93.62a14.8,14.8,0,0,0,.65,4.58,7,7,0,0,0,1.82,3.06,4,4,0,0,0,2.73,1.07m0-42.6a15.28,15.28,0,0,0-10.25,3.9,19.83,19.83,0,0,0-5.51,8.64,32,32,0,0,0-1.54,10.21v11a31.72,31.72,0,0,0,1.55,10.21,19.73,19.73,0,0,0,5.5,8.64,15.4,15.4,0,0,0,20.5,0,19.65,19.65,0,0,0,5.51-8.63,31.73,31.73,0,0,0,1.54-10.21v-11a31.68,31.68,0,0,0-1.54-10.21,19.74,19.74,0,0,0-5.51-8.64,15.26,15.26,0,0,0-10.25-3.9Z"/><path class="cls-5" d="M64.62,112.74a11.93,11.93,0,0,1-8-3.06,16.44,16.44,0,0,1-4.53-7.16,28.43,28.43,0,0,1-1.35-9.09v-11a28.43,28.43,0,0,1,1.35-9.09,16.37,16.37,0,0,1,4.54-7.17,12.08,12.08,0,0,1,16.05,0,16.36,16.36,0,0,1,4.53,7.17,28.42,28.42,0,0,1,1.36,9.09v11a28.42,28.42,0,0,1-1.36,9.09,16.36,16.36,0,0,1-4.53,7.17A11.93,11.93,0,0,1,64.62,112.74Zm0-31.91a13.61,13.61,0,0,0-.07,1.46V93.62a13.61,13.61,0,0,0,.07,1.46,13.54,13.54,0,0,0,.08-1.46V82.29A13.54,13.54,0,0,0,64.62,80.83Z"/><path class="cls-6" d="M64.62,67.42a7.65,7.65,0,0,1,5.21,2,12.13,12.13,0,0,1,3.33,5.34,24.25,24.25,0,0,1,1.13,7.73v11a24.29,24.29,0,0,1-1.13,7.73,12.19,12.19,0,0,1-3.33,5.34,7.82,7.82,0,0,1-10.42,0,12.27,12.27,0,0,1-3.32-5.34A24.29,24.29,0,0,1,55,93.43v-11a24.25,24.25,0,0,1,1.13-7.73,12.21,12.21,0,0,1,3.32-5.34,7.68,7.68,0,0,1,5.21-2m0,39.44a5.83,5.83,0,0,0,4-1.55,10.56,10.56,0,0,0,2.86-4.65,22.58,22.58,0,0,0,1-7.23v-11a22.69,22.69,0,0,0-1-7.24,10.58,10.58,0,0,0-2.86-4.64,6,6,0,0,0-8,0,10.58,10.58,0,0,0-2.86,4.64,22.69,22.69,0,0,0-1,7.24v11a22.58,22.58,0,0,0,1,7.23,10.56,10.56,0,0,0,2.86,4.65,5.81,5.81,0,0,0,4,1.55m0-34.1A4.8,4.8,0,0,1,68,74.07,7.71,7.71,0,0,1,70,77.47a15.71,15.71,0,0,1,.68,4.82V93.62A15.71,15.71,0,0,1,70,98.44a7.77,7.77,0,0,1-2.05,3.4h0a4.9,4.9,0,0,1-6.67,0,7.77,7.77,0,0,1-2-3.4,15.71,15.71,0,0,1-.68-4.82V82.29a15.71,15.71,0,0,1,.68-4.82,7.71,7.71,0,0,1,2-3.4,4.8,4.8,0,0,1,3.33-1.31m0,28.76a3.05,3.05,0,0,0,2.13-.85A6.34,6.34,0,0,0,68.35,98a14.18,14.18,0,0,0,.6-4.34V82.29a14.18,14.18,0,0,0-.6-4.34,6.28,6.28,0,0,0-1.6-2.71,3.08,3.08,0,0,0-4.25,0A6.18,6.18,0,0,0,60.9,78a14.16,14.16,0,0,0-.61,4.34V93.62A14.16,14.16,0,0,0,60.9,98a6.24,6.24,0,0,0,1.6,2.71,3,3,0,0,0,2.12.85m0-42.61A16.14,16.14,0,0,0,53.78,63,20.53,20.53,0,0,0,48,72a32.67,32.67,0,0,0-1.59,10.46v11A32.61,32.61,0,0,0,48,103.88a20.57,20.57,0,0,0,5.74,9,16.33,16.33,0,0,0,21.69,0,20.57,20.57,0,0,0,5.74-9,32.62,32.62,0,0,0,1.58-10.45v-11A32.72,32.72,0,0,0,81.21,72a20.59,20.59,0,0,0-5.74-9,16.14,16.14,0,0,0-10.85-4.13Z"/><path class="cls-5" d="M86.61,111.93a10.92,10.92,0,0,1-7.42-2.88A15.69,15.69,0,0,1,75,102.18a28.16,28.16,0,0,1-1.31-8.91V82.66a28.5,28.5,0,0,1,1.3-8.91,15.9,15.9,0,0,1,4.24-6.87A10.9,10.9,0,0,1,86.61,64a10.51,10.51,0,0,1,6.59,2.33,15.18,15.18,0,0,1,4.24,5.57,24.66,24.66,0,0,1,2,7.31A4.25,4.25,0,0,1,95.23,84h-3.6a4.26,4.26,0,0,1-4.18-3.5,7,7,0,0,0-.65-2l-.21-.35a5.39,5.39,0,0,0-.4,1,12.43,12.43,0,0,0-.44,3.54V93.27a12.07,12.07,0,0,0,.45,3.53,5.15,5.15,0,0,0,.41,1l.2-.32a6.69,6.69,0,0,0,.63-2,4.25,4.25,0,0,1,4.19-3.55h3.6a4.25,4.25,0,0,1,4.22,4.78,24.26,24.26,0,0,1-2,7.32,15.15,15.15,0,0,1-4.25,5.55A10.43,10.43,0,0,1,86.61,111.93Z"/><path class="cls-6" d="M86.61,68.23a6.28,6.28,0,0,1,4,1.43,10.83,10.83,0,0,1,3,4,20.29,20.29,0,0,1,1.64,6h-3.6a10.51,10.51,0,0,0-1.09-3.23,6.6,6.6,0,0,0-1.8-2.2,3.55,3.55,0,0,0-2.13-.77,3.69,3.69,0,0,0-2.69,1.15,7.61,7.61,0,0,0-1.79,3.2,16.41,16.41,0,0,0-.64,4.8v10.6a16.41,16.41,0,0,0,.64,4.78,7.53,7.53,0,0,0,1.79,3.21,3.75,3.75,0,0,0,2.69,1.13,3.67,3.67,0,0,0,2.14-.72,6.11,6.11,0,0,0,1.79-2.13,10.47,10.47,0,0,0,1.09-3.35h3.6a20.29,20.29,0,0,1-1.65,6,11,11,0,0,1-3,4,6.24,6.24,0,0,1-3.94,1.42A6.58,6.58,0,0,1,82,105.89a11.41,11.41,0,0,1-3.06-5,24.13,24.13,0,0,1-1.08-7.57V82.67A24.15,24.15,0,0,1,79,75.09,11.5,11.5,0,0,1,82,70a6.55,6.55,0,0,1,4.57-1.8m8.62,28h0M86.61,59.73a15.08,15.08,0,0,0-10.3,4,20,20,0,0,0-5.4,8.67,32.57,32.57,0,0,0-1.52,10.26v10.6a32.46,32.46,0,0,0,1.52,10.25,19.82,19.82,0,0,0,5.43,8.68,15.09,15.09,0,0,0,10.27,4,14.79,14.79,0,0,0,9.2-3.24,19.32,19.32,0,0,0,5.47-7.1,28.47,28.47,0,0,0,2.35-8.3A8.49,8.49,0,0,0,97.35,88a8.5,8.5,0,0,0,6.32-9.3,28.81,28.81,0,0,0-2.37-8.56A19.4,19.4,0,0,0,95.83,63a14.83,14.83,0,0,0-9.22-3.24Z"/><path class="cls-5" d="M86.61,112.74a11.82,11.82,0,0,1-8-3.1,16.58,16.58,0,0,1-4.46-7.21,29.17,29.17,0,0,1-1.34-9.16V82.66a29.11,29.11,0,0,1,1.34-9.15,16.56,16.56,0,0,1,4.45-7.21,11.76,11.76,0,0,1,8-3.13,11.44,11.44,0,0,1,7.14,2.52,15.89,15.89,0,0,1,4.49,5.87,25.15,25.15,0,0,1,2.07,7.53l.12.91a4.25,4.25,0,0,1-4.22,4.78H90.9a4.24,4.24,0,0,1-4.18-3.49l0-.15a14.77,14.77,0,0,0-.07,1.52V93.27c0,.53,0,1,.06,1.48l0-.08a4.24,4.24,0,0,1,4.19-3.55h5.32a4.25,4.25,0,0,1,4.22,4.79l-.12.91a24.85,24.85,0,0,1-2.09,7.54,15.81,15.81,0,0,1-4.48,5.86A11.47,11.47,0,0,1,86.61,112.74Z"/><path class="cls-6" d="M86.61,67.42A7.16,7.16,0,0,1,91.12,69a11.61,11.61,0,0,1,3.26,4.33,21.08,21.08,0,0,1,1.72,6.26l.11.91H90.9l-.12-.68a10.2,10.2,0,0,0-1-3,5.94,5.94,0,0,0-1.57-1.92,2.62,2.62,0,0,0-1.59-.59,2.83,2.83,0,0,0-2.06.89A6.76,6.76,0,0,0,83,78.1a15.56,15.56,0,0,0-.61,4.57v10.6A15.63,15.63,0,0,0,83,97.83a6.65,6.65,0,0,0,1.58,2.86,2.84,2.84,0,0,0,2.06.88,2.72,2.72,0,0,0,1.62-.56,5.34,5.34,0,0,0,1.54-1.84,10.36,10.36,0,0,0,1-3.1l.11-.69h5.32l-.11.91a20.85,20.85,0,0,1-1.73,6.27,11.76,11.76,0,0,1-3.26,4.32,7.16,7.16,0,0,1-4.5,1.61,7.54,7.54,0,0,1-5.18-2,12.47,12.47,0,0,1-3.28-5.39A25.13,25.13,0,0,1,77,93.27V82.67a25.13,25.13,0,0,1,1.12-7.82,12.52,12.52,0,0,1,3.28-5.41,7.51,7.51,0,0,1,5.18-2m-4,37.89h0a5.71,5.71,0,0,0,4,1.55A5.3,5.3,0,0,0,90,105.63a10.09,10.09,0,0,0,2.79-3.73A18.46,18.46,0,0,0,94.24,97H92.36a11.25,11.25,0,0,1-1,2.9,6.86,6.86,0,0,1-2,2.41,4.53,4.53,0,0,1-2.66.88,4.6,4.6,0,0,1-3.32-1.38,8.33,8.33,0,0,1-2-3.54,17,17,0,0,1-.67-5V82.67a17,17,0,0,1,.67-5,8.45,8.45,0,0,1,2-3.54,4.61,4.61,0,0,1,3.32-1.39,4.46,4.46,0,0,1,2.67.94,7.46,7.46,0,0,1,2,2.47,11.33,11.33,0,0,1,1,2.78h1.89A18.83,18.83,0,0,0,92.79,74,10.1,10.1,0,0,0,90,70.28a5.33,5.33,0,0,0-3.4-1.23,5.68,5.68,0,0,0-4,1.56,11,11,0,0,0-2.83,4.72,23.55,23.55,0,0,0-1,7.34v10.6a23.53,23.53,0,0,0,1,7.33,10.88,10.88,0,0,0,2.83,4.71m4-46.4a16,16,0,0,0-10.9,4.24,20.82,20.82,0,0,0-5.63,9,33.42,33.42,0,0,0-1.56,10.5v10.6a33.4,33.4,0,0,0,1.56,10.49,20.62,20.62,0,0,0,5.65,9A16,16,0,0,0,86.61,117a15.6,15.6,0,0,0,9.75-3.43,20,20,0,0,0,5.71-7.39,29,29,0,0,0,2.46-8.82l.12-.91A8.51,8.51,0,0,0,100.36,88a8.33,8.33,0,0,0,2.23-1.79,8.55,8.55,0,0,0,2.06-6.69l-.12-.91a29.23,29.23,0,0,0-2.44-8.8,20,20,0,0,0-5.71-7.41,15.65,15.65,0,0,0-9.77-3.44Z"/><path class="cls-5" d="M114.75,111.53a4.25,4.25,0,0,1-4-2.72l-3.15-8.15v6.62a4.25,4.25,0,0,1-4.25,4.25H99.88a4.25,4.25,0,0,1-4.25-4.25V68.63a4.25,4.25,0,0,1,4.25-4.25h3.51a4.25,4.25,0,0,1,4.25,4.25v2.49l2.26-4.42a4.25,4.25,0,0,1,3.79-2.32H118a4.25,4.25,0,0,1,3.75,6.25L114.64,84,123,105.75a4.25,4.25,0,0,1-4,5.78Z"/><path class="cls-6" d="M118,68.63l-8,15.09-.4-1-2.77,4,.67,1.75-4.08,7.66V88.83l10.3-20.2H118m-14.62,0v20.2l-.76,1.49-.51,8.13,1.27-2.39v11.22H99.88V68.63h3.51M110,83.72l9.09,23.56h-4.31L107.47,88.4l2.5-4.68m8-23.59h-4.32a8.52,8.52,0,0,0-5.15,1.73,8.45,8.45,0,0,0-5.15-1.73H99.88a8.5,8.5,0,0,0-8.5,8.5v38.65a8.5,8.5,0,0,0,8.5,8.5h3.51a8.42,8.42,0,0,0,5.68-2.18,8.47,8.47,0,0,0,5.68,2.18h4.31A8.5,8.5,0,0,0,127,104.21L119.3,84.29l6.21-11.66a8.5,8.5,0,0,0-7.5-12.5Zm0,17Z"/><path class="cls-5" d="M114.14,112.34a4.25,4.25,0,0,1-4-2.72l-1.67-4.31v2.78a4.25,4.25,0,0,1-4.25,4.25H99a4.25,4.25,0,0,1-4.25-4.25V67.82A4.25,4.25,0,0,1,99,63.56h5.25a4.24,4.24,0,0,1,4.24,4l.85-1.66a4.26,4.26,0,0,1,3.79-2.33h6.27a4.26,4.26,0,0,1,3.76,6.26l-7.59,14.23,8.68,22.51a4.25,4.25,0,0,1-4,5.78Z"/><path class="cls-6" d="M119.41,67.82l-8.5,16,9.39,24.32h-6.16l-6.79-17.63-3.09,5.79v11.84H99V67.82h5.25V85.24l8.88-17.42h6.27m-2.81,1.63h-2.37L104.26,89v3.59l2.27-4.26-.7-1.8,4-5.67.3.78,6.5-12.21m-15.85,37h1.77V99.52L101,102.38l.78-12.27.74-1.46V69.45h-1.77v37m14.61,0h2.46l-8-20.68-1.42,2.67,6.94,18m4-47.15h-6.27a8.52,8.52,0,0,0-4.44,1.25,8.48,8.48,0,0,0-4.44-1.25H99a8.5,8.5,0,0,0-8.5,8.51v40.27A8.5,8.5,0,0,0,99,116.6h5.25A8.44,8.44,0,0,0,109.2,115a8.48,8.48,0,0,0,4.94,1.59h6.16A8.51,8.51,0,0,0,128.23,105l-8-20.69,6.67-12.52a8.51,8.51,0,0,0-7.51-12.51Z"/><path class="cls-5" d="M122.85,111.53a4.26,4.26,0,0,1-4.26-4.25V68.63a4.25,4.25,0,0,1,4.26-4.25h16.07a4.25,4.25,0,0,1,4.26,4.25v5.16A4.25,4.25,0,0,1,138.92,78h-8.31v3.22H137a4.25,4.25,0,0,1,4.25,4.25v5.15A4.25,4.25,0,0,1,137,94.92h-6.42v3h8.31a4.25,4.25,0,0,1,4.26,4.25v5.16a4.26,4.26,0,0,1-4.26,4.25Z"/><path class="cls-6" d="M138.92,68.63v5.16H126.36V68.63h12.56m-12.56,0h-1.81v5.16h1.81V85.51h-1.81v5.15h1.81v11.46h-1.81v5.16h-1.7V68.63h3.51M137,85.51v5.15H126.36V85.51H137m1.89,16.61v5.16H126.36v-5.16h12.56m0-42H122.85a8.51,8.51,0,0,0-8.51,8.5v38.65a8.51,8.51,0,0,0,8.51,8.5h16.07a8.51,8.51,0,0,0,8.51-8.5v-5.16a8.48,8.48,0,0,0-3.32-6.74,8.47,8.47,0,0,0,1.42-4.72V85.51A8.48,8.48,0,0,0,144,80.62a8.48,8.48,0,0,0,3.44-6.83V68.63a8.51,8.51,0,0,0-8.51-8.5Z"/><path class="cls-5" d="M122,112.34a4.25,4.25,0,0,1-4.26-4.25V67.82A4.26,4.26,0,0,1,122,63.56h17.81a4.26,4.26,0,0,1,4.26,4.26v6.79a4.26,4.26,0,0,1-4.26,4.25h-8.31v1.58h6.42a4.25,4.25,0,0,1,4.25,4.25v6.79a4.25,4.25,0,0,1-4.25,4.25h-6.42v1.32h8.31a4.25,4.25,0,0,1,4.26,4.25v6.79a4.25,4.25,0,0,1-4.26,4.25Z"/><path class="cls-6" d="M139.79,67.82V74.6H127.23V84.69H137.9v6.79H127.23v9.82h12.56v6.79H122V67.82h17.81M127.23,73h10.83V69.45H127.23V73m-1.81,0h.07V69.45h-.07V73m-1.71,11.72h1.78V74.6h-1.78V84.69m3.52,5.16h8.93V86.33h-8.93v3.52m-1.81,0h.07V86.33h-.07v3.52m-1.71,11.45h1.78V91.48h-1.78v9.82m3.52,5.16h10.83v-3.52H127.23v3.52m-1.81,0h.07v-3.52h-.07v3.52m14.37-47.15H122a8.51,8.51,0,0,0-8.51,8.51v40.27A8.51,8.51,0,0,0,122,116.6h17.81a8.51,8.51,0,0,0,8.51-8.51V101.3a8.48,8.48,0,0,0-2.7-6.21,8.37,8.37,0,0,0,.8-3.61V84.69a8.46,8.46,0,0,0-.89-3.79,8.5,8.5,0,0,0,2.79-6.3V67.82a8.51,8.51,0,0,0-8.51-8.51Z"/><path class="cls-5" d="M143.92,111.53a4.26,4.26,0,0,1-4.26-4.25V68.63a4.25,4.25,0,0,1,4.26-4.25h7.93a12.45,12.45,0,0,1,7.72,2.49,14.18,14.18,0,0,1,4.68,6.67,26.54,26.54,0,0,1,1.37,8.94v11a26.48,26.48,0,0,1-1.37,8.93,14,14,0,0,1-4.7,6.69,12.5,12.5,0,0,1-7.71,2.48Zm8-13.66c.5,0,.59-.1.78-.38s.78-1.48.78-3.85V82.27a7,7,0,0,0-.77-3.86c-.19-.27-.29-.37-.79-.37h-.28V97.87Z"/><path class="cls-6" d="M151.85,68.63A8.27,8.27,0,0,1,157,70.25,10,10,0,0,1,160.25,75a22.19,22.19,0,0,1,1.12,7.5v11a22.09,22.09,0,0,1-1.12,7.49,9.87,9.87,0,0,1-3.26,4.73,8.25,8.25,0,0,1-5.15,1.63h-4.41v-5.16H152a4.9,4.9,0,0,0,4.29-2.22,10.93,10.93,0,0,0,1.52-6.26V82.27A10.93,10.93,0,0,0,156.25,76,4.9,4.9,0,0,0,152,73.79h-4.53V68.63h4.42m-4.42,0h-1.14v5.16h1.14v28.33h-1.14v5.16h-2.37V68.63h3.51m4.42-8.5h-7.93a8.51,8.51,0,0,0-8.51,8.5v38.65a8.51,8.51,0,0,0,8.51,8.5h7.92a16.92,16.92,0,0,0,10.28-3.34,18.31,18.31,0,0,0,6.13-8.64,30.59,30.59,0,0,0,1.63-10.37v-11a30.84,30.84,0,0,0-1.62-10.37,18.39,18.39,0,0,0-6.12-8.63,16.85,16.85,0,0,0-10.29-3.35Z"/><path class="cls-5" d="M143.05,112.34a4.25,4.25,0,0,1-4.25-4.25V67.82a4.25,4.25,0,0,1,4.25-4.26h8.8a13.36,13.36,0,0,1,8.27,2.67,15.06,15.06,0,0,1,5,7,27.33,27.33,0,0,1,1.41,9.2v11a27.22,27.22,0,0,1-1.41,9.19,15,15,0,0,1-5,7.06,13.32,13.32,0,0,1-8.26,2.66Zm9.5-17a12.83,12.83,0,0,0,.1-1.68V82.27a12.72,12.72,0,0,0-.1-1.68Z"/><path class="cls-6" d="M151.85,67.82a9.17,9.17,0,0,1,5.7,1.8,10.88,10.88,0,0,1,3.53,5.1,23.19,23.19,0,0,1,1.16,7.76v11a23.08,23.08,0,0,1-1.16,7.75,10.81,10.81,0,0,1-3.54,5.11,9.19,9.19,0,0,1-5.7,1.8h-8.79V67.82h8.8M148.3,73H152a5.75,5.75,0,0,1,5,2.6,11.69,11.69,0,0,1,1.66,6.7V93.64a11.77,11.77,0,0,1-1.66,6.7,5.77,5.77,0,0,1-5,2.6H148.3v3.52h3.54a7.37,7.37,0,0,0,4.61-1.44,9.22,9.22,0,0,0,3-4.36,21.61,21.61,0,0,0,1.07-7.23v-11a21.61,21.61,0,0,0-1.07-7.23,9.22,9.22,0,0,0-3-4.36,7.3,7.3,0,0,0-4.6-1.44H148.3V73m-3.51,33.49h.63V101.3h1.14V74.6h-1.14V69.45h-.63v37m3.51-5.16H152a4,4,0,0,0,3.56-1.84,10.3,10.3,0,0,0,1.39-5.82V82.27a10.3,10.3,0,0,0-1.39-5.82A4,4,0,0,0,152,74.6H148.3v26.7m3.55-42h-8.8a8.51,8.51,0,0,0-8.51,8.51v40.27a8.51,8.51,0,0,0,8.51,8.51h8.79a17.77,17.77,0,0,0,10.83-3.53,19.13,19.13,0,0,0,6.41-9,31.68,31.68,0,0,0,1.67-10.64v-11a31.58,31.58,0,0,0-1.67-10.63,19.09,19.09,0,0,0-6.39-9,17.7,17.7,0,0,0-10.84-3.54Z"/><path class="cls-7" d="M16.77,68.63h3.51v38.65H16.77Zm1.72,0h14v5.16h-14Zm0,17.23H30.62V91H18.49Z"/><path class="cls-7" d="M36.82,68.63h3.51v38.65H36.82Zm1.76,33.49H52.9v5.16H38.58Z"/><path class="cls-7" d="M60,105.91a11.43,11.43,0,0,1-3.09-5,23.25,23.25,0,0,1-1.09-7.48v-11A23.3,23.3,0,0,1,56.92,75,11.43,11.43,0,0,1,60,70a6.93,6.93,0,0,1,9.23,0,11.43,11.43,0,0,1,3.09,5,23.3,23.3,0,0,1,1.09,7.48v11a23.25,23.25,0,0,1-1.09,7.48,11.43,11.43,0,0,1-3.09,5,6.9,6.9,0,0,1-9.23,0Zm7.34-4.65a7,7,0,0,0,1.83-3.06,14.82,14.82,0,0,0,.64-4.58V82.29a14.82,14.82,0,0,0-.64-4.58,7,7,0,0,0-1.83-3.06,4,4,0,0,0-5.45,0,7,7,0,0,0-1.83,3.06,14.8,14.8,0,0,0-.65,4.58V93.62a14.8,14.8,0,0,0,.65,4.58,7,7,0,0,0,1.83,3.06,4,4,0,0,0,5.45,0Z"/><path class="cls-7" d="M82,105.9A11.47,11.47,0,0,1,79,100.85a24.2,24.2,0,0,1-1.08-7.58V82.67A24.2,24.2,0,0,1,79,75.09,11.56,11.56,0,0,1,82,70a6.54,6.54,0,0,1,4.57-1.79,6.27,6.27,0,0,1,4,1.42,10.91,10.91,0,0,1,3,4,20,20,0,0,1,1.64,6h-3.6a10.6,10.6,0,0,0-1.09-3.23,6.6,6.6,0,0,0-1.8-2.2,3.55,3.55,0,0,0-2.13-.77,3.73,3.73,0,0,0-2.69,1.15,7.61,7.61,0,0,0-1.79,3.2,16.41,16.41,0,0,0-.64,4.8v10.6a16.41,16.41,0,0,0,.64,4.78,7.53,7.53,0,0,0,1.79,3.21,3.75,3.75,0,0,0,2.69,1.13,3.67,3.67,0,0,0,2.14-.72,6.11,6.11,0,0,0,1.79-2.13,10.47,10.47,0,0,0,1.09-3.35h3.6a20,20,0,0,1-1.65,6,11,11,0,0,1-3,4,6.25,6.25,0,0,1-3.94,1.43A6.62,6.62,0,0,1,82,105.9Z"/><path class="cls-7" d="M99.88,68.63h3.51v38.65H99.88Zm2.75,21.69,11.06-21.69H118L102.12,98.45Zm4.17-3.67,2.77-4,9.49,24.59h-4.31Z"/><path class="cls-7" d="M122.85,68.63h3.51v38.65h-3.51Zm1.7,0h14.37v5.16H124.55Zm0,16.88H137v5.16H124.55Zm0,16.61h14.37v5.16H124.55Z"/><path class="cls-7" d="M143.92,68.63h3.51v38.65h-3.51Zm2.37,33.49H152a4.9,4.9,0,0,0,4.29-2.22,10.93,10.93,0,0,0,1.52-6.26V82.27A11,11,0,0,0,156.25,76,4.9,4.9,0,0,0,152,73.79h-5.67V68.63h5.56A8.21,8.21,0,0,1,157,70.26,9.92,9.92,0,0,1,160.25,75a22.09,22.09,0,0,1,1.12,7.49v11a22.19,22.19,0,0,1-1.12,7.5,9.92,9.92,0,0,1-3.26,4.73,8.31,8.31,0,0,1-5.15,1.62h-5.55Z"/></g></g></svg>