<svg xmlns="http://www.w3.org/2000/svg" viewBox="0 0 160.93 160.93"><defs><style>.cls-1{fill:#f3e733;}.cls-2,.cls-3{fill:#1d1d1b;}.cls-2{stroke:#fff;stroke-linecap:round;stroke-linejoin:round;stroke-width:3.54px;}.cls-3{stroke:#1d1d1b;stroke-miterlimit:10;stroke-width:0.71px;}</style></defs><g id="Calque_2" data-name="Calque 2"><g id="GLOWS_IN_THE_DARK" data-name="GLOWS IN THE DARK"><circle class="cls-1" cx="80.47" cy="80.47" r="80.47"/><path class="cls-2" d="M44.25,50.63a11,11,0,0,1-.74,3.3c-.47,1.15-.67,5.2-.82,9-.12,3-2.75,2.29-3.3,1.14a2.31,2.31,0,0,0-2.7-.94,6.58,6.58,0,0,1-3.1.74c-5.88,0-10.66-7.56-10.66-16.93S27.71,30,33.59,30c3.65,0,6.94,2.83,8.82,7.29,3.41,8.16-7.33,12.88-6.54,1.82.23-3.31-1.26-6.55-2.79-5.8-2.31,1.14-2.9,9.17-2.27,14.71.63,5.87,2.86,12.28,4.7,12.28,1.1,0,1-4.52.32-6.35a10.72,10.72,0,0,1-.79-3.3c0-2.57,2-3.11,4.28-3.11h.58C42.29,47.52,44.25,48.06,44.25,50.63Z"/><path class="cls-2" d="M64,57c0,3.51-2.58,6.81-4.86,6.81h-10c-2.39,0-4.59-.47-4.59-3.1a9.87,9.87,0,0,1,.94-3.65c1.41-2.9.94-18-.16-20.71a9.64,9.64,0,0,1-.78-3.31c0-2.56,2.2-3.1,4.59-3.1h.35c2.39,0,4.59.54,4.59,3.1a9.41,9.41,0,0,1-.79,3.31c-1.06,2.7-2.47,24.29,2.43,24.29,1.37,0,2.47-1.35,3.22-4.59C59.78,52.38,64,53.66,64,57Z"/><path class="cls-2" d="M84.83,46.92c0,9.37-4.78,16.93-10.66,16.93S63.5,56.29,63.5,46.92,68.29,30,74.17,30,84.83,37.6,84.83,46.92ZM77.7,45.7c-.87-7.42-3.18-12.89-5.1-12.21s-2.82,7.29-2,14.71,3.17,12.89,5.1,12.21S78.56,53.12,77.7,45.7Z"/><path class="cls-2" d="M118.5,32.21a5,5,0,0,1-1,1.62c-2.31,2.49-5.76,10-6.46,19.7-.4,5.6-1.42,10.32-4.24,10.32-3.45,0-5.45-4-6.78-9-.43,5-1.33,9-4.59,9C87,63.85,87.22,40.1,85,36.39a14.74,14.74,0,0,1-1.53-3.31c-.59-2.56,1.8-3.1,4.19-3.1h.32c2.43,0,4.74.54,5.33,3.1a10.46,10.46,0,0,1,0,3.31c-.43,2.36.7,13.9,3.68,18.83.2-2,.51-3.78.71-5.4a27.93,27.93,0,0,0,0-8.1,20.54,20.54,0,0,0-1.33-5.33,13.17,13.17,0,0,1-1.53-3.31C94.24,30.52,96.59,30,99,30h.32a7.91,7.91,0,0,1,3.13.54,3.39,3.39,0,0,1,2.16,2.56,8.22,8.22,0,0,1,.08,2.7,2.13,2.13,0,0,1-.08.61c-.39,2.36.74,13.9,3.68,18.83.47-11.27,4-17.75,2.86-21.39a4.13,4.13,0,0,1-.23-1.62c.23-1.22,2.23-2.23,4.19-2.23C117.25,30,118.9,31,118.5,32.21Z"/><path class="cls-2" d="M136.34,52.79c.51,5.93-4.19,11.06-9.4,11.06h-.12c-3.84,0-8.19-2-9.33-6.41-1.84-7.15,8.35-8.64,7.6-.61-.47,5,3.22,4.66,3.81,1.62,1.49-7.69-10.71-8.23-11.06-17.47-.27-6.82,4.12-11,9.45-11h.12c3.09,0,6.47,2,7.64,6.48,1.69,6.47-6.08,7.62-6.94.6-.74-5.73-3.29-4.45-3-.27C125.64,43.47,135.6,44.89,136.34,52.79Z"/><path class="cls-2" d="M44.87,74c-.95,1.57-1.36,10.32-.17,12a4,4,0,0,1,.85,2.11c0,1.52-1.91,1.79-4,1.79h-.3c-2.08,0-4-.27-4-1.79A4.19,4.19,0,0,1,38.11,86c1.22-1.68.81-10.43-.14-12a4.07,4.07,0,0,1-.68-1.91c0-1.48,1.9-1.8,4-1.8h.3c2.07,0,4,.32,4,1.8A4.18,4.18,0,0,1,44.87,74Z"/><path class="cls-2" d="M63.46,88.63c.06.75-1.43,1.29-3.47,1.29-8.63,0-8.56-11.21-10.36-14.33-.65,4.1-.14,10.66,1,12.15a1.64,1.64,0,0,1,.51.89c.11.75-1.39,1.29-2.65,1.29s-2.71-.54-2.65-1.29a2.15,2.15,0,0,1,.51-.89c1.57-2,1.91-13.09,0-15.2a1.91,1.91,0,0,1-.51-.94c-.06-.7,1.43-1.29,2.65-1.29h2.59c6.69,0,5.71,11.41,8.53,14.22.61-4.06.44-10.43-1-12a2.28,2.28,0,0,1-.54-.94c-.07-.7,1.43-1.29,2.69-1.29s2.71.59,2.65,1.29a1.73,1.73,0,0,1-.55.94c-1.87,2.11-1.56,13.2,0,15.2A1.89,1.89,0,0,1,63.46,88.63Z"/><path class="cls-2" d="M95.16,74.77c-.51-1.8-1.49-2.58-2-2.58-1.53,0-1.77,11.4-.55,13.83a5.15,5.15,0,0,1,.82,2.11c0,1.52-1.9,1.79-4,1.79h-.27c-2.07,0-4-.27-4-1.79A6,6,0,0,1,86,86c1.12-2.58.92-13.83-.51-13.83-.54,0-1.49.78-2,2.58-.71,2.38-3.73.78-3.63-1.64s2.27-2.82,4.41-2.82H94.42c2.14,0,4.28.32,4.38,2.82S95.88,77.15,95.16,74.77Z"/><path class="cls-2" d="M118.07,74c-1,1.57-1.4,10.32-.17,12a4.27,4.27,0,0,1,.81,2.11c0,1.52-1.9,1.79-4,1.79h-.28c-2.1,0-4-.27-4-1.79A4,4,0,0,1,111.3,86c.79-1.1.89-5.24.58-8.4a11.27,11.27,0,0,1-2.34,2.85c-1.46,1.41-3.47,4-2.38,6.6a3,3,0,0,1,.24,1.06c0,1.52-1.91,1.79-4,1.79h-.3c-2.08,0-4-.27-4-1.79A4.19,4.19,0,0,1,100,86c1.22-1.68.81-10.43-.14-12a4.07,4.07,0,0,1-.68-1.91c0-1.48,1.9-1.8,4-1.8h.3c2.07,0,4,.32,4,1.8a4.18,4.18,0,0,1-.68,1.91c-.65,1.06-1,5.32-.85,8.52a10.45,10.45,0,0,1,2.65-3.48c1.32-1.25,3.16-3.79,2.38-5.47a3.93,3.93,0,0,1-.44-1.48c0-1.48,1.9-1.8,4-1.8h.28c2.07,0,4,.32,4,1.8A4.51,4.51,0,0,1,118.07,74Z"/><path class="cls-2" d="M125.61,78.32h1c2.32,0,2.32-2,3.13-2.15.65-.08,1.12,1.64,1.12,3s-.47,3.16-1.12,3c-.81-.12-.81-2.11-3.13-2.11h-1c0,3.94,1,7.93,2.85,7.93,1.19,0,2.38-.78,3.06-2.66.75-2.15,4.38-1.41,4.38.55s-2.28,3.94-4.21,3.94H123c-2.07,0-4-.27-4-1.79A4.27,4.27,0,0,1,119.8,86c1.23-1.68.82-10.43-.13-12a4.07,4.07,0,0,1-.68-1.91c0-1.48,1.9-1.8,4-1.8h8.67c1.93,0,4.21,1.92,4.21,4,0,1.91-3.63,2.69-4.38.54-.68-1.87-1.87-2.65-3.06-2.65C126.8,72.19,125.88,75,125.61,78.32Z"/><path class="cls-2" d="M55.84,112.83c0,9.32-6,16.94-13.66,16.94H34.85c-3,0-5.69-.47-5.69-3.1a7.88,7.88,0,0,1,1-3.24c.68-1.42,1.17-6,1.27-10.6-.1-4.52-.59-9.1-1.27-10.52a8.2,8.2,0,0,1-1-3.31c0-2.56,2.72-3.1,5.69-3.1h7.33C49.81,95.9,55.84,103.52,55.84,112.83Zm-8.7,0c0-4.79-1.85-13.69-5.3-13.69-2.09,0-2.91,4.92-2.91,13.69s.82,13.77,2.91,13.77C45.29,126.6,47.14,117.69,47.14,112.83Z"/><path class="cls-2" d="M83.87,127.41c.44,2-3.79,2.36-5.69,2.36s-6.7-.34-7.48-2.36c-.44-1,.49-1.42.63-2.57a15.72,15.72,0,0,0-.43-4.31c-.15-.88-1.12-2.91-2.87-2.91H63.37c-2.68,0-2.48,2.84-2.29,3.85.54,3.37,3.06,4.25,2.43,6.07-.48,1.56-3.74,2.23-5.54,2.23-2.13,0-5.2-.67-4.81-2.56.39-2.1,3-1.76,5.1-8.57l5.15-17.75c.68-2.23,2.14-5,4.18-5h1.85c2.23,0,3.59,2.36,4.37,5.33,1.41,5.6,4,15,6.51,21C81.44,124.78,83.58,125.72,83.87,127.41Zm-15.4-16.53a58.62,58.62,0,0,0-2.24-6.68c-.29-.75-.87-.75-1.16.2,0,0-1.56,5.06-1.95,6.75-.58,2.49-.39,3.3,1.31,3.3h2.29C68.61,114.45,69.15,113.44,68.47,110.88Z"/><path class="cls-2" d="M108.55,127.41c-.19,2-3,2.36-4.91,2.36s-6.07-1.08-6.07-6.61v-2c0-2.36-.58-3.84-1.7-3.84h-2c.14,3,.44,4.79,1,5.73A7.87,7.87,0,0,1,96,126.67c0,2.63-2.72,3.1-5.68,3.1h-.44c-3,0-5.68-.47-5.68-3.1A8.32,8.32,0,0,1,85.38,123c1.74-2.9,1.16-18-.2-20.71a8,8,0,0,1-1-3.31c0-2.56,2.72-3.1,5.68-3.1H96.6c5.29,0,9.67,5,9.67,10.73a11.08,11.08,0,0,1-3.84,8.43c2.38.74,4.08,2.7,4.08,7.56v.54C106.51,126,108.74,125.72,108.55,127.41ZM95.63,114.66c1.89,0,3.69-4.46,3.69-8s-1.7-8.1-3.69-8.1C93,98.53,93,114.66,95.63,114.66Z"/><path class="cls-2" d="M136,126.13c.63,2.83-3,3.64-4.86,3.64s-6-.67-6.8-6.21c-.2-1.35-1.07-7.62-1.07-7.62-1.31-9-4.86-2.57-4.76,1,.14,2.77.44,5.06,1,6.07a7.87,7.87,0,0,1,1.21,3.65c0,2.63-2.72,3.1-5.68,3.1h-.44c-3,0-5.68-.47-5.68-3.1A8.44,8.44,0,0,1,110.1,123c1.75-2.9,1.17-18-.19-20.71a8,8,0,0,1-1-3.31c0-2.56,2.72-3.1,5.68-3.1h.44c3,0,5.68.54,5.68,3.1a8,8,0,0,1-1,3.31,19.5,19.5,0,0,0-1,5.46c-.19,2.5,1,1.29,1.9.48l5.53-6.48c1.32-1.55-.77-3,.3-4.39s2.86-1.48,4.66-1.48c2.53,0,4.86,1.21,3.64,2.49-1.94,2.1-4.51,2.16-6.17,4L126.38,105c-.49.6-1.07,1.35-1.7,2.22,3.93,1.08,7.29,6.89,8.16,12.22C133.86,125.45,135.51,124,136,126.13Z"/><path class="cls-3" d="M44.25,50.63a11,11,0,0,1-.74,3.3c-.47,1.15-.67,5.2-.82,9-.12,3-2.75,2.29-3.3,1.14a2.31,2.31,0,0,0-2.7-.94,6.58,6.58,0,0,1-3.1.74c-5.88,0-10.66-7.56-10.66-16.93S27.71,30,33.59,30c3.65,0,6.94,2.83,8.82,7.29,3.41,8.16-7.33,12.88-6.54,1.82.23-3.31-1.26-6.55-2.79-5.8-2.31,1.14-2.9,9.17-2.27,14.71.63,5.87,2.86,12.28,4.7,12.28,1.1,0,1-4.52.32-6.35a10.72,10.72,0,0,1-.79-3.3c0-2.57,2-3.11,4.28-3.11h.58C42.29,47.52,44.25,48.06,44.25,50.63Z"/><path class="cls-3" d="M64,57c0,3.51-2.58,6.81-4.86,6.81h-10c-2.39,0-4.59-.47-4.59-3.1a9.87,9.87,0,0,1,.94-3.65c1.41-2.9.94-18-.16-20.71a9.64,9.64,0,0,1-.78-3.31c0-2.56,2.2-3.1,4.59-3.1h.35c2.39,0,4.59.54,4.59,3.1a9.41,9.41,0,0,1-.79,3.31c-1.06,2.7-2.47,24.29,2.43,24.29,1.37,0,2.47-1.35,3.22-4.59C59.78,52.38,64,53.66,64,57Z"/><path class="cls-3" d="M84.83,46.92c0,9.37-4.78,16.93-10.66,16.93S63.5,56.29,63.5,46.92,68.29,30,74.17,30,84.83,37.6,84.83,46.92ZM77.7,45.7c-.87-7.42-3.18-12.89-5.1-12.21s-2.82,7.29-2,14.71,3.17,12.89,5.1,12.21S78.56,53.12,77.7,45.7Z"/><path class="cls-3" d="M118.5,32.21a5,5,0,0,1-1,1.62c-2.31,2.49-5.76,10-6.46,19.7-.4,5.6-1.42,10.32-4.24,10.32-3.45,0-5.45-4-6.78-9-.43,5-1.33,9-4.59,9C87,63.85,87.22,40.1,85,36.39a14.74,14.74,0,0,1-1.53-3.31c-.59-2.56,1.8-3.1,4.19-3.1h.32c2.43,0,4.74.54,5.33,3.1a10.46,10.46,0,0,1,0,3.31c-.43,2.36.7,13.9,3.68,18.83.2-2,.51-3.78.71-5.4a27.93,27.93,0,0,0,0-8.1,20.54,20.54,0,0,0-1.33-5.33,13.17,13.17,0,0,1-1.53-3.31C94.24,30.52,96.59,30,99,30h.32a7.91,7.91,0,0,1,3.13.54,3.39,3.39,0,0,1,2.16,2.56,8.22,8.22,0,0,1,.08,2.7,2.13,2.13,0,0,1-.08.61c-.39,2.36.74,13.9,3.68,18.83.47-11.27,4-17.75,2.86-21.39a4.13,4.13,0,0,1-.23-1.62c.23-1.22,2.23-2.23,4.19-2.23C117.25,30,118.9,31,118.5,32.21Z"/><path class="cls-3" d="M136.34,52.79c.51,5.93-4.19,11.06-9.4,11.06h-.12c-3.84,0-8.19-2-9.33-6.41-1.84-7.15,8.35-8.64,7.6-.61-.47,5,3.22,4.66,3.81,1.62,1.49-7.69-10.71-8.23-11.06-17.47-.27-6.82,4.12-11,9.45-11h.12c3.09,0,6.47,2,7.64,6.48,1.69,6.47-6.08,7.62-6.94.6-.74-5.73-3.29-4.45-3-.27C125.64,43.47,135.6,44.89,136.34,52.79Z"/><path class="cls-3" d="M44.87,74c-.95,1.57-1.36,10.32-.17,12a4,4,0,0,1,.85,2.11c0,1.52-1.91,1.79-4,1.79h-.3c-2.08,0-4-.27-4-1.79A4.19,4.19,0,0,1,38.11,86c1.22-1.68.81-10.43-.14-12a4.07,4.07,0,0,1-.68-1.91c0-1.48,1.9-1.8,4-1.8h.3c2.07,0,4,.32,4,1.8A4.18,4.18,0,0,1,44.87,74Z"/><path class="cls-3" d="M63.46,88.63c.06.75-1.43,1.29-3.47,1.29-8.63,0-8.56-11.21-10.36-14.33-.65,4.1-.14,10.66,1,12.15a1.64,1.64,0,0,1,.51.89c.11.75-1.39,1.29-2.65,1.29s-2.71-.54-2.65-1.29a2.15,2.15,0,0,1,.51-.89c1.57-2,1.91-13.09,0-15.2a1.91,1.91,0,0,1-.51-.94c-.06-.7,1.43-1.29,2.65-1.29h2.59c6.69,0,5.71,11.41,8.53,14.22.61-4.06.44-10.43-1-12a2.28,2.28,0,0,1-.54-.94c-.07-.7,1.43-1.29,2.69-1.29s2.71.59,2.65,1.29a1.73,1.73,0,0,1-.55.94c-1.87,2.11-1.56,13.2,0,15.2A1.89,1.89,0,0,1,63.46,88.63Z"/><path class="cls-3" d="M95.16,74.77c-.51-1.8-1.49-2.58-2-2.58-1.53,0-1.77,11.4-.55,13.83a5.15,5.15,0,0,1,.82,2.11c0,1.52-1.9,1.79-4,1.79h-.27c-2.07,0-4-.27-4-1.79A6,6,0,0,1,86,86c1.12-2.58.92-13.83-.51-13.83-.54,0-1.49.78-2,2.58-.71,2.38-3.73.78-3.63-1.64s2.27-2.82,4.41-2.82H94.42c2.14,0,4.28.32,4.38,2.82S95.88,77.15,95.16,74.77Z"/><path class="cls-3" d="M118.07,74c-1,1.57-1.4,10.32-.17,12a4.27,4.27,0,0,1,.81,2.11c0,1.52-1.9,1.79-4,1.79h-.28c-2.1,0-4-.27-4-1.79A4,4,0,0,1,111.3,86c.79-1.1.89-5.24.58-8.4a11.27,11.27,0,0,1-2.34,2.85c-1.46,1.41-3.47,4-2.38,6.6a3,3,0,0,1,.24,1.06c0,1.52-1.91,1.79-4,1.79h-.3c-2.08,0-4-.27-4-1.79A4.19,4.19,0,0,1,100,86c1.22-1.68.81-10.43-.14-12a4.07,4.07,0,0,1-.68-1.91c0-1.48,1.9-1.8,4-1.8h.3c2.07,0,4,.32,4,1.8a4.18,4.18,0,0,1-.68,1.91c-.65,1.06-1,5.32-.85,8.52a10.45,10.45,0,0,1,2.65-3.48c1.32-1.25,3.16-3.79,2.38-5.47a3.93,3.93,0,0,1-.44-1.48c0-1.48,1.9-1.8,4-1.8h.28c2.07,0,4,.32,4,1.8A4.51,4.51,0,0,1,118.07,74Z"/><path class="cls-3" d="M125.61,78.32h1c2.32,0,2.32-2,3.13-2.15.65-.08,1.12,1.64,1.12,3s-.47,3.16-1.12,3c-.81-.12-.81-2.11-3.13-2.11h-1c0,3.94,1,7.93,2.85,7.93,1.19,0,2.38-.78,3.06-2.66.75-2.15,4.38-1.41,4.38.55s-2.28,3.94-4.21,3.94H123c-2.07,0-4-.27-4-1.79A4.27,4.27,0,0,1,119.8,86c1.23-1.68.82-10.43-.13-12a4.07,4.07,0,0,1-.68-1.91c0-1.48,1.9-1.8,4-1.8h8.67c1.93,0,4.21,1.92,4.21,4,0,1.91-3.63,2.69-4.38.54-.68-1.87-1.87-2.65-3.06-2.65C126.8,72.19,125.88,75,125.61,78.32Z"/><path class="cls-3" d="M55.84,112.83c0,9.32-6,16.94-13.66,16.94H34.85c-3,0-5.69-.47-5.69-3.1a7.88,7.88,0,0,1,1-3.24c.68-1.42,1.17-6,1.27-10.6-.1-4.52-.59-9.1-1.27-10.52a8.2,8.2,0,0,1-1-3.31c0-2.56,2.72-3.1,5.69-3.1h7.33C49.81,95.9,55.84,103.52,55.84,112.83Zm-8.7,0c0-4.79-1.85-13.69-5.3-13.69-2.09,0-2.91,4.92-2.91,13.69s.82,13.77,2.91,13.77C45.29,126.6,47.14,117.69,47.14,112.83Z"/><path class="cls-3" d="M83.87,127.41c.44,2-3.79,2.36-5.69,2.36s-6.7-.34-7.48-2.36c-.44-1,.49-1.42.63-2.57a15.72,15.72,0,0,0-.43-4.31c-.15-.88-1.12-2.91-2.87-2.91H63.37c-2.68,0-2.48,2.84-2.29,3.85.54,3.37,3.06,4.25,2.43,6.07-.48,1.56-3.74,2.23-5.54,2.23-2.13,0-5.2-.67-4.81-2.56.39-2.1,3-1.76,5.1-8.57l5.15-17.75c.68-2.23,2.14-5,4.18-5h1.85c2.23,0,3.59,2.36,4.37,5.33,1.41,5.6,4,15,6.51,21C81.44,124.78,83.58,125.72,83.87,127.41Zm-15.4-16.53a58.62,58.62,0,0,0-2.24-6.68c-.29-.75-.87-.75-1.16.2,0,0-1.56,5.06-1.95,6.75-.58,2.49-.39,3.3,1.31,3.3h2.29C68.61,114.45,69.15,113.44,68.47,110.88Z"/><path class="cls-3" d="M108.55,127.41c-.19,2-3,2.36-4.91,2.36s-6.07-1.08-6.07-6.61v-2c0-2.36-.58-3.84-1.7-3.84h-2c.14,3,.44,4.79,1,5.73A7.87,7.87,0,0,1,96,126.67c0,2.63-2.72,3.1-5.68,3.1h-.44c-3,0-5.68-.47-5.68-3.1A8.32,8.32,0,0,1,85.38,123c1.74-2.9,1.16-18-.2-20.71a8,8,0,0,1-1-3.31c0-2.56,2.72-3.1,5.68-3.1H96.6c5.29,0,9.67,5,9.67,10.73a11.08,11.08,0,0,1-3.84,8.43c2.38.74,4.08,2.7,4.08,7.56v.54C106.51,126,108.74,125.72,108.55,127.41ZM95.63,114.66c1.89,0,3.69-4.46,3.69-8s-1.7-8.1-3.69-8.1C93,98.53,93,114.66,95.63,114.66Z"/><path class="cls-3" d="M136,126.13c.63,2.83-3,3.64-4.86,3.64s-6-.67-6.8-6.21c-.2-1.35-1.07-7.62-1.07-7.62-1.31-9-4.86-2.57-4.76,1,.14,2.77.44,5.06,1,6.07a7.87,7.87,0,0,1,1.21,3.65c0,2.63-2.72,3.1-5.68,3.1h-.44c-3,0-5.68-.47-5.68-3.1A8.44,8.44,0,0,1,110.1,123c1.75-2.9,1.17-18-.19-20.71a8,8,0,0,1-1-3.31c0-2.56,2.72-3.1,5.68-3.1h.44c3,0,5.68.54,5.68,3.1a8,8,0,0,1-1,3.31,19.5,19.5,0,0,0-1,5.46c-.19,2.5,1,1.29,1.9.48l5.53-6.48c1.32-1.55-.77-3,.3-4.39s2.86-1.48,4.66-1.48c2.53,0,4.86,1.21,3.64,2.49-1.94,2.1-4.51,2.16-6.17,4L126.38,105c-.49.6-1.07,1.35-1.7,2.22,3.93,1.08,7.29,6.89,8.16,12.22C133.86,125.45,135.51,124,136,126.13Z"/></g></g></svg>