<svg xmlns="http://www.w3.org/2000/svg" viewBox="0 0 141.96 141.96"><defs><style>.cls-1,.cls-2{fill:#221f20;}.cls-2{stroke:#221f20;stroke-width:2.83px;}.cls-2,.cls-4{stroke-miterlimit:10;}.cls-3{fill:#de251a;}.cls-4{fill:#bdd46c;stroke:#bdd46c;stroke-width:1.42px;}.cls-5{fill:none;}.cls-6{fill:#fff;}</style></defs><g id="Calque_2" data-name="Calque 2"><g id="Calque_5" data-name="Calque 5"><path class="cls-1" d="M142,74.64c-2-1.32-3.94-2.54-5.91-3.66h-1.48l-.08,3.28-.25,3.26,1.47.15Q138.83,76.31,142,74.64Z"/><path class="cls-1" d="M141.21,81.91c-1.81-1.51-3.65-2.93-5.5-4.24l-1.47-.15-.42,3.25L133.23,84l1.46.3C136.86,83.6,139,82.8,141.21,81.91Z"/><path class="cls-1" d="M139.72,89.07c-1.63-1.69-3.34-3.29-5-4.78l-1.46-.3c-.25,1.06-.47,2.12-.75,3.18s-.57,2.1-.91,3.14l1.41.45C135.23,90.31,137.44,89.73,139.72,89.07Z"/><path class="cls-1" d="M137.49,96c-1.42-1.84-3-3.62-4.51-5.28l-1.41-.45c-.68,2.07-1.44,4.12-2.32,6.12l1.36.59C132.93,96.81,135.16,96.46,137.49,96Z"/><path class="cls-1" d="M134.56,102.74c-1.21-2-2.59-3.91-3.95-5.72l-1.36-.59a59,59,0,0,1-2.93,5.84l1.29.73C129.93,103,132.21,102.93,134.56,102.74Z"/><path class="cls-1" d="M131,109.1c-1-2.09-2.15-4.14-3.34-6.1l-1.29-.73c-.54,1-1.08,1.9-1.68,2.8l-.89,1.38-.94,1.34,1.2.86c1.14.12,2.3.23,3.46.31S129.77,109.07,131,109.1Z"/><path class="cls-1" d="M126.71,115.05c-.81-2.19-1.7-4.32-2.7-6.4l-1.2-.86c-.62.9-1.29,1.76-2,2.61s-1.38,1.69-2.1,2.52l1.12,1C122.09,114.37,124.4,114.78,126.71,115.05Z"/><path class="cls-1" d="M121.88,120.54c-.6-2.28-1.23-4.46-2-6.64l-1.12-1a65.09,65.09,0,0,1-4.56,4.69l1,1.09C117.34,119.38,119.63,120.05,121.88,120.54Z"/><path class="cls-1" d="M116.52,125.52c-.37-2.35-.78-4.58-1.33-6.82l-1-1.09c-.79.75-1.64,1.44-2.45,2.16s-1.72,1.36-2.57,2l.89,1.18C112.13,123.9,114.31,124.76,116.52,125.52Z"/><path class="cls-1" d="M110.68,129.91c-.12-2.36-.33-4.66-.63-6.92l-.89-1.18-2.66,1.9c-.92.58-1.83,1.19-2.76,1.75l.76,1.27C106.49,127.87,108.53,128.91,110.68,129.91Z"/><path class="cls-1" d="M104.41,133.68c.14-2.33.15-4.69.09-7l-.76-1.27c-1.88,1.11-3.8,2.15-5.78,3.08l.63,1.34C100.46,131.24,102.38,132.45,104.41,133.68Z"/><path class="cls-1" d="M97.79,136.78c.39-2.28.63-4.65.8-6.9L98,128.54A65.1,65.1,0,0,1,91.9,131l.49,1.4C94.11,134,95.89,135.36,97.79,136.78Z"/><path class="cls-1" d="M90.88,139.18c.62-2.24,1.11-4.54,1.51-6.78L91.9,131c-1,.34-2.06.72-3.11,1s-2.1.61-3.17.83l.34,1.44C87.51,136,89.15,137.59,90.88,139.18Z"/><path class="cls-1" d="M83.76,140.85c.84-2.16,1.58-4.38,2.2-6.59l-.34-1.44c-1.06.25-2.12.49-3.2.66l-1.61.29-1.62.21.19,1.48c.68.91,1.39,1.84,2.12,2.74S83,140,83.76,140.85Z"/><path class="cls-1" d="M76.5,141.78c.53-1.05,1-2.09,1.52-3.13s.93-2.13,1.36-3.19L79.19,134l-1.62.21-1.64.13-1.63.12-1.64,0,0,1.48c.58,1,1.19,2,1.83,3S75.82,140.83,76.5,141.78Z"/><path class="cls-1" d="M69.2,142c.63-1,1.24-2,1.83-3s1.14-2,1.67-3l0-1.48-1.63,0-1.64,0-1.64,0-1.63-.12L66,135.8c.48,1,1,2.08,1.51,3.12S68.62,141,69.2,142Z"/><path class="cls-1" d="M61.91,141.41c.73-.92,1.44-1.84,2.12-2.76s1.34-1.9,2-2.85l.11-1.48-1.63-.13L62.86,134l-1.62-.21-1.61-.29-.26,1.46c.37,1.09.76,2.17,1.19,3.26S61.43,140.34,61.91,141.41Z"/><path class="cls-1" d="M54.72,140.1c1.64-1.66,3.19-3.36,4.65-5.16l.26-1.46c-1.08-.17-2.14-.41-3.2-.66s-2.12-.53-3.16-.83l-.42,1.42C53.37,135.64,54,137.9,54.72,140.1Z"/><path class="cls-1" d="M47.69,138.07c1.81-1.5,3.52-3,5.16-4.66l.42-1.42a61,61,0,0,1-6.18-2.15l-.56,1.38C46.82,133.47,47.18,135.81,47.69,138.07Z"/><path class="cls-1" d="M40.91,135.31c2-1.32,3.82-2.62,5.62-4.09l.56-1.38a63.75,63.75,0,0,1-5.93-2.77l-.69,1.31C40.53,130.64,40.65,133,40.91,135.31Z"/><path class="cls-1" d="M34.46,131.88c2.09-1.12,4.07-2.25,6-3.5l.69-1.31c-1-.5-1.89-1.07-2.84-1.61s-1.84-1.17-2.77-1.75l-.82,1.23C34.55,127.19,34.45,129.53,34.46,131.88Z"/><path class="cls-1" d="M28.39,127.79c2.19-.88,4.31-1.84,6.34-2.85l.82-1.23-2.66-1.9c-.85-.68-1.73-1.34-2.56-2l-.95,1.14C29,123.16,28.64,125.43,28.39,127.79Z"/><path class="cls-1" d="M22.79,123.1c2.24-.63,4.47-1.4,6.59-2.19l.95-1.14a65.16,65.16,0,0,1-4.8-4.45l-1.06,1C23.79,118.58,23.28,120.78,22.79,123.1Z"/><path class="cls-1" d="M17.69,117.86c2.28-.38,4.58-.92,6.78-1.5l1.06-1a61.05,61.05,0,0,1-4.32-4.92l-1.16.93C19.15,113.46,18.39,115.62,17.69,117.86Z"/><path class="cls-1" d="M13.15,112.13c2.32-.16,4.63-.43,6.9-.8l1.16-.93c-.68-.85-1.35-1.71-2-2.61l-.95-1.34-.88-1.38-1.25.8c-.55,1-1.07,2-1.59,3.09S13.61,111.05,13.15,112.13Z"/><path class="cls-1" d="M9.22,106c2.34.08,4.64.06,7-.09l1.25-.8c-.61-.9-1.15-1.85-1.69-2.8s-1-1.91-1.54-2.88l-1.33.66C11.59,101.94,10.33,103.93,9.22,106Z"/><path class="cls-1" d="M5.94,99.43c2.35.3,4.6.53,6.92.62l1.33-.66a63.6,63.6,0,0,1-2.63-6l-1.39.52C8.73,95.66,7.25,97.52,5.94,99.43Z"/><path class="cls-1" d="M3.36,92.58c2.31.55,4.53,1,6.81,1.34l1.39-.52c-.4-1-.71-2.06-1.07-3.09s-.61-2.1-.92-3.14l-1.43.38C6.52,89.12,4.88,90.82,3.36,92.58Z"/><path class="cls-1" d="M1.49,85.51c2.24.78,4.43,1.46,6.65,2l1.43-.38c-.28-1.06-.5-2.12-.75-3.18l-.59-3.22L6.77,81C5,82.4,3.21,83.91,1.49,85.51Z"/><path class="cls-1" d="M.37,78.28c2.15,1,4.27,1.91,6.4,2.71l1.46-.22-.41-3.25-.25-3.26-1.49.07C4.17,75.55,2.26,76.86.37,78.28Z"/><path class="cls-1" d="M0,71q3,1.83,6.08,3.35l1.49-.07L7.48,71l.09-3.27-1.49-.08C4.06,68.65,2,69.76,0,71Z"/><path class="cls-1" d="M.37,63.68c1.89,1.42,3.8,2.74,5.71,3.95l1.49.08.25-3.27.41-3.24L6.77,61C4.64,61.77,2.52,62.68.37,63.68Z"/><path class="cls-1" d="M1.49,56.45C3.21,58.06,5,59.57,6.77,61l1.46.23L8.82,58c.25-1.06.47-2.13.75-3.19l-1.43-.37C5.92,55,3.73,55.67,1.49,56.45Z"/><path class="cls-1" d="M3.36,49.38c1.52,1.77,3.16,3.46,4.78,5l1.43.37c.31-1,.57-2.1.92-3.14s.67-2.07,1.07-3.08L10.17,48C7.89,48.37,5.67,48.84,3.36,49.38Z"/><path class="cls-1" d="M5.94,42.54c1.31,1.9,2.79,3.77,4.23,5.5l1.39.53a61.41,61.41,0,0,1,2.63-6l-1.33-.67C10.54,42,8.29,42.23,5.94,42.54Z"/><path class="cls-1" d="M9.22,36c1.11,2,2.37,4,3.64,5.91l1.33.67c.5-1,1-2,1.54-2.89s1.08-1.9,1.69-2.8l-1.25-.8C13.86,35.94,11.56,35.93,9.22,36Z"/><path class="cls-1" d="M13.15,29.83c.46,1.08.94,2.14,1.43,3.17s1,2.08,1.59,3.09l1.25.8.88-1.38.95-1.34c.61-.9,1.28-1.76,2-2.61l-1.16-.92C17.78,30.27,15.47,30,13.15,29.83Z"/><path class="cls-1" d="M17.69,24.1c.7,2.24,1.46,4.4,2.36,6.54l1.16.92a61.05,61.05,0,0,1,4.32-4.92l-1.06-1C22.27,25,20,24.49,17.69,24.1Z"/><path class="cls-1" d="M22.79,18.87c.49,2.32,1,4.51,1.68,6.74l1.06,1a65.16,65.16,0,0,1,4.8-4.45l-.95-1.14C27.26,20.26,25,19.49,22.79,18.87Z"/><path class="cls-1" d="M28.39,14.17c.25,2.36.56,4.63,1,6.88l.95,1.14c.83-.7,1.71-1.35,2.56-2l2.66-1.9L34.73,17C32.7,16,30.58,15.05,28.39,14.17Z"/><path class="cls-1" d="M34.46,10.09c0,2.34.09,4.68.27,6.93l.82,1.23c.93-.58,1.84-1.18,2.77-1.75s1.88-1.11,2.84-1.61l-.69-1.31C38.53,12.33,36.55,11.2,34.46,10.09Z"/><path class="cls-1" d="M40.91,6.65c-.26,2.3-.38,4.67-.44,6.93l.69,1.31a63.75,63.75,0,0,1,5.93-2.77l-.56-1.38C44.73,9.27,42.88,8,40.91,6.65Z"/><path class="cls-1" d="M47.69,3.9c-.51,2.25-.87,4.59-1.16,6.84l.56,1.38A61,61,0,0,1,53.27,10l-.42-1.42C51.21,6.91,49.5,5.4,47.69,3.9Z"/><path class="cls-1" d="M54.72,1.86c-.74,2.2-1.35,4.46-1.87,6.69L53.27,10c1-.3,2.09-.6,3.16-.83s2.12-.49,3.2-.66L59.37,7C57.91,5.23,56.36,3.52,54.72,1.86Z"/><path class="cls-1" d="M61.91.56c-.48,1.07-.93,2.13-1.35,3.2S59.74,5.94,59.37,7l.26,1.46,1.61-.29L62.86,8l1.63-.21,1.63-.12L66,6.17c-.64-1-1.3-1.91-2-2.86S62.64,1.47,61.91.56Z"/><path class="cls-1" d="M69.2,0c-.58,1-1.14,2-1.68,3s-1,2.09-1.51,3.13l.11,1.48,1.63-.13,1.64,0,1.64,0,1.63,0L72.7,6C72.17,5,71.61,4,71,3S69.83,1,69.2,0Z"/><path class="cls-1" d="M76.5.18c-.68,1-1.34,1.91-2,2.86S73.28,5,72.7,6l0,1.48,1.64,0,1.63.13,1.64.12L79.19,8l.19-1.47C79,5.45,78.5,4.38,78,3.31S77,1.23,76.5.18Z"/><path class="cls-1" d="M83.76,1.11C83,2,82.22,2.87,81.5,3.76s-1.44,1.83-2.12,2.75L79.19,8l1.62.21,1.61.29c1.08.17,2.14.41,3.2.66L86,7.7C85.34,5.49,84.6,3.28,83.76,1.11Z"/><path class="cls-1" d="M90.88,2.79C89.15,4.37,87.51,6,86,7.7l-.34,1.44c1.07.23,2.12.53,3.17.83s2.08.65,3.11,1l.49-1.41C92,7.32,91.5,5,90.88,2.79Z"/><path class="cls-1" d="M97.79,5.19C95.89,6.6,94.11,8,92.39,9.56L91.9,11A60,60,0,0,1,98,13.43l.63-1.35C98.42,9.83,98.18,7.46,97.79,5.19Z"/><path class="cls-1" d="M104.41,8.29c-2,1.22-4,2.43-5.82,3.79L98,13.43c2,.92,3.9,2,5.78,3.07l.76-1.27C104.56,13,104.55,10.61,104.41,8.29Z"/><path class="cls-1" d="M110.68,12.05c-2.15,1-4.19,2-6.18,3.18l-.76,1.27c.93.57,1.84,1.17,2.76,1.75l2.66,1.9.89-1.18C110.35,16.71,110.56,14.41,110.68,12.05Z"/><path class="cls-1" d="M116.52,16.45c-2.21.75-4.39,1.62-6.47,2.52l-.89,1.18c.85.69,1.73,1.34,2.57,2s1.66,1.41,2.45,2.17l1-1.09C115.74,21,116.15,18.79,116.52,16.45Z"/><path class="cls-1" d="M121.88,21.42c-2.25.49-4.54,1.16-6.69,1.85l-1,1.09a63.08,63.08,0,0,1,4.56,4.69l1.12-1C120.65,25.88,121.28,23.7,121.88,21.42Z"/><path class="cls-1" d="M126.71,26.91c-2.31.27-4.62.68-6.85,1.16l-1.12,1c.72.82,1.44,1.64,2.1,2.51s1.35,1.71,2,2.61l1.2-.86C125,31.23,125.9,29.1,126.71,26.91Z"/><path class="cls-1" d="M131,32.87c-1.18,0-2.33.07-3.48.13s-2.32.19-3.46.31l-1.2.86.94,1.34.89,1.38c.6.9,1.14,1.85,1.68,2.8l1.29-.73C128.8,37,129.94,35,131,32.87Z"/><path class="cls-1" d="M134.56,39.23c-2.35-.19-4.63-.3-7-.27l-1.29.73a58.06,58.06,0,0,1,2.93,5.85l1.36-.6C132,43.13,133.35,41.2,134.56,39.23Z"/><path class="cls-1" d="M137.49,45.92c-2.33-.42-4.56-.77-6.88-1l-1.36.6c.88,2,1.64,4,2.32,6.11L133,51.2C134.51,49.54,136.07,47.76,137.49,45.92Z"/><path class="cls-1" d="M139.72,52.89c-2.28-.66-4.49-1.24-6.74-1.69l-1.41.45c.34,1,.6,2.1.91,3.14s.5,2.13.75,3.19l1.46-.3C136.38,56.18,138.09,54.58,139.72,52.89Z"/><path class="cls-1" d="M141.21,60.05c-2.19-.89-4.35-1.69-6.52-2.37l-1.46.3.59,3.22.42,3.24,1.47-.15C137.56,63,139.4,61.57,141.21,60.05Z"/><path class="cls-1" d="M142,67.33q-3.14-1.68-6.25-3l-1.47.15.25,3.27.08,3.27h1.48C138,69.86,140,68.65,142,67.33Z"/><circle class="cls-2" cx="71.03" cy="71.37" r="62.88"/><circle class="cls-1" cx="71.03" cy="71.37" r="62.19" transform="translate(-10.8 130.05) rotate(-80.78)"/><path class="cls-3" d="M71,9.88A61.49,61.49,0,1,1,9.54,71.37,61.56,61.56,0,0,1,71,9.88m0-1.41a62.9,62.9,0,1,0,62.9,62.9A62.91,62.91,0,0,0,71,8.47Z"/><path class="cls-1" d="M71,105a34,34,0,1,1,34-34A34,34,0,0,1,71,105Z"/><path class="cls-3" d="M71,37.72A33.27,33.27,0,1,1,37.76,71,33.3,33.3,0,0,1,71,37.72m0-1.42A34.68,34.68,0,1,0,105.71,71,34.69,34.69,0,0,0,71,36.3Z"/><rect class="cls-1" x="25.13" y="48.27" width="92.19" height="43.42" transform="translate(-7.14 8.1) rotate(-6.2)"/><path class="cls-4" d="M22.28,46.89l1-1.69,12,7.16-1,1.69Zm10.93,5.36,4.1-6.89,1.61,1-4.1,6.89Z"/><path class="cls-4" d="M43.7,41.58,42.28,43,32.57,32.86,34,31.49Z"/><path class="cls-4" d="M50.9,20.65l1.65-.8,6.13,12.6L57,33.29l-4.59-9.44.35.51L53.09,33l-1.23.6-6.49-5.45-.26-.77,4.59,9.44L48,37.66l-6.13-12.6,1.66-.8,7.75,6.51Z"/><path class="cls-4" d="M66.34,31.22l-1.94.28-2-13.87,2-.28Z"/><path class="cls-4" d="M72.81,16.75,82.62,18l-.23,1.86-9.81-1.22Zm3.79,1.63,2,.24L77,31.38,75,31.14Z"/><path class="cls-4" d="M90.94,20.56l1.77.86L86.62,34l-1.77-.86ZM86.52,31.91l7.25,3.5L93,37.09,85.71,33.6Zm2.62-5.42,6.29,3-.81,1.69-6.29-3ZM91.8,21,99,24.47l-.81,1.69L91,22.66Z"/><path class="cls-4" d="M107.13,30.37l1.35,1.42L98.34,41.46,97,40Zm-7.87,9.34L101.45,42a3.4,3.4,0,0,0,2.24,1.19,3,3,0,0,0,2.23-.95l3-2.85a2.92,2.92,0,0,0,1-2.18,3.37,3.37,0,0,0-1.07-2.3l-2.19-2.29L108,31.33l2.15,2.25a6.41,6.41,0,0,1,1.56,2.49,4.11,4.11,0,0,1,0,2.5,5.61,5.61,0,0,1-1.53,2.33l-2.88,2.74a5.39,5.39,0,0,1-2.4,1.42,4.05,4.05,0,0,1-2.5-.14,6.3,6.3,0,0,1-2.41-1.68L97.91,41Z"/><path class="cls-4" d="M41.26,98.61l1.39,1.25-8.9,9.91-1.39-1.25Zm-7,9.19,5.7,5.11-1.19,1.32L33,109.13Zm3.83-4.25L43,108,41.8,109.3l-4.94-4.43Zm3.88-4.33,5.69,5.11-1.18,1.32-5.7-5.11Z"/><path class="cls-4" d="M51.55,106.81l1.72.73L48.08,119.8l-1.72-.73Zm-3.33,11.12L51,119.1a3.26,3.26,0,0,0,2.4.19A2.83,2.83,0,0,0,55,117.62L56.51,114a2.82,2.82,0,0,0,.09-2.3,3.18,3.18,0,0,0-1.81-1.59L52,108.94l.69-1.64,2.73,1.15a6.17,6.17,0,0,1,2.3,1.58,4,4,0,0,1,1,2.18,5.25,5.25,0,0,1-.46,2.61l-1.47,3.47a5.22,5.22,0,0,1-1.55,2.15,3.88,3.88,0,0,1-2.24.82,6.07,6.07,0,0,1-2.74-.55l-2.72-1.15Z"/><path class="cls-4" d="M65.25,124.73l-1.86-.25,1.79-13.19,1.85.25Z"/><path class="cls-4" d="M71.59,112.05l9.34-1,.2,1.76-9.34,1Zm3.86.67,1.86-.21,1.34,12.15-1.85.21Z"/><path class="cls-4" d="M91.28,121.48l-1.76.64L85,109.62l1.75-.64Z"/><path class="cls-4" d="M100.89,116.14a4.16,4.16,0,0,1-2.34-.45,5.47,5.47,0,0,1-2-1.77l-2.18-3.08a5.51,5.51,0,0,1-1-2.44,4.1,4.1,0,0,1,.34-2.35,5,5,0,0,1,1.65-1.92,4.83,4.83,0,0,1,2.36-.92,4.12,4.12,0,0,1,2.33.45,5.47,5.47,0,0,1,2,1.77l2.18,3.08a5.49,5.49,0,0,1,1,2.44,4.19,4.19,0,0,1-.35,2.35,4.84,4.84,0,0,1-1.65,1.92A4.93,4.93,0,0,1,100.89,116.14Zm2.26-3.56a2.57,2.57,0,0,0,.18-1.43,3.59,3.59,0,0,0-.63-1.48l-2.26-3.19a3.59,3.59,0,0,0-1.19-1.09,2.57,2.57,0,0,0-1.4-.29,2.76,2.76,0,0,0-1.4.53,2.83,2.83,0,0,0-1,1.14,2.57,2.57,0,0,0-.19,1.43,3.48,3.48,0,0,0,.64,1.48l2.25,3.19a3.48,3.48,0,0,0,1.2,1.08,2.47,2.47,0,0,0,1.4.3,2.79,2.79,0,0,0,1.4-.53A2.83,2.83,0,0,0,103.15,112.58Z"/><path class="cls-4" d="M102.67,98.18l1-1.39,12.17.55.07.31-8.64-6,1.06-1.52,10.91,7.61-1,1.41-12-.48-.07-.31,8.51,5.93-1.06,1.52Z"/><polygon class="cls-5" points="71.94 81.97 76.83 81.43 76.57 75.25 71.94 81.97"/><path class="cls-5" d="M69,62.07a1.54,1.54,0,0,0,1,.13,3.25,3.25,0,0,0,1.36-.47,4.09,4.09,0,0,0,1.16-1.08,4.78,4.78,0,0,0,.74-1.54l1.21-4.28a2.82,2.82,0,0,0,.11-1.34.85.85,0,0,0-.37-.59,1.38,1.38,0,0,0-.69-.15h-.3a3.47,3.47,0,0,0-1.36.48,3.93,3.93,0,0,0-1.15,1.08,4.6,4.6,0,0,0-.75,1.54l-1.21,4.28a2.82,2.82,0,0,0-.11,1.34A.82.82,0,0,0,69,62.07Z"/><path class="cls-6" d="M28.72,88a7.25,7.25,0,0,1-1.46,1.72,7.49,7.49,0,0,1-1.84,1.21,6.19,6.19,0,0,1-1.86.54,3,3,0,0,1-1.8-.25,1.4,1.4,0,0,1-.71-1,4.19,4.19,0,0,1,.26-2.12l1.91-5.65A7.51,7.51,0,0,1,24.55,80a7.22,7.22,0,0,1,2-1.73,6,6,0,0,1,2.37-.78,3.13,3.13,0,0,1,1.46.15,1.79,1.79,0,0,1,.9.71,2,2,0,0,1,.3,1.21l0,.81,4.63-.51.07-.55a6,6,0,0,0-.47-3.46,4.5,4.5,0,0,0-2.38-2.18,7.44,7.44,0,0,0-3.7-.41A12.76,12.76,0,0,0,25,74.76a13.62,13.62,0,0,0-3.89,3.16,13.31,13.31,0,0,0-2.48,4.38L16.7,88a7.78,7.78,0,0,0-.4,4.32,4.17,4.17,0,0,0,2.23,2.85,6.59,6.59,0,0,0,3,.64c.39,0,.8,0,1.22-.07a12.51,12.51,0,0,0,4.08-1.23,14.72,14.72,0,0,0,3.65-2.57,14.38,14.38,0,0,0,2.73-3.56l.64-1.19-5,.55Z"/><polygon class="cls-6" points="56.56 70.5 53.49 79.58 45.31 80.49 48.39 71.4 43.64 71.93 36.16 94.01 40.91 93.49 43.88 84.72 52.06 83.81 49.09 92.59 53.84 92.06 61.31 69.98 56.56 70.5"/><path class="cls-6" d="M73.78,68.6,57.31,91.68l5.34-.59,3.25-4.71,8.1-.89.19,4.33,4.87-.54L77.55,68.19ZM68.93,82l4.64-6.72.26,6.18Z"/><path class="cls-6" d="M93.21,71a8.49,8.49,0,0,1,3.61-1.14A6.32,6.32,0,0,1,99,70a5.66,5.66,0,0,1,1.91.9l.48.34,3.64-3.5-.71-.49a8.05,8.05,0,0,0-2-1,9.77,9.77,0,0,0-2.26-.49,12,12,0,0,0-2.47,0A16.57,16.57,0,0,0,92.77,67a11.5,11.5,0,0,0-3.68,2.52,9.65,9.65,0,0,0-2.22,3.65c-.57,1.67-.59,2.93-.07,3.84a3.52,3.52,0,0,0,2.36,1.69,21.35,21.35,0,0,0,3.55.41h.42a14.44,14.44,0,0,1,2.23.26,1.37,1.37,0,0,1,.85.48c.13.17.11.54,0,1A4,4,0,0,1,94.31,83a9.5,9.5,0,0,1-3.83,1.16,9,9,0,0,1-3-.12,4.43,4.43,0,0,1-2-1L85,82.58,81.18,86l.6.53a7.34,7.34,0,0,0,2.12,1.29,9.91,9.91,0,0,0,2.66.59c.38,0,.79,0,1.2,0a19,19,0,0,0,1.95-.11,17.43,17.43,0,0,0,5-1.25,11.9,11.9,0,0,0,3.76-2.51,9.31,9.31,0,0,0,2.26-3.63,4.7,4.7,0,0,0,.11-3.64,3.45,3.45,0,0,0-2.16-1.8,16,16,0,0,0-3.38-.56h-.21l-.26,0a23.4,23.4,0,0,1-2.47-.28,1.63,1.63,0,0,1-.95-.49c-.17-.2-.06-.66,0-.92A4,4,0,0,1,93.21,71Z"/><polygon class="cls-6" points="125.84 66.93 127.28 62.7 111.11 64.48 103.63 86.57 119.8 84.78 121.23 80.55 109.81 81.81 111.38 77.19 121.08 76.12 122.51 71.89 112.81 72.96 114.42 68.19 125.84 66.93"/><path class="cls-6" d="M39.05,68.12a4.43,4.43,0,0,0,2.1.47,6.76,6.76,0,0,0,.76,0A7.38,7.38,0,0,0,45,67.49a8.72,8.72,0,0,0,2.48-2.3A9.71,9.71,0,0,0,49,62l1-3.56-6.42.7-1,3.43,2.85-.32a4.67,4.67,0,0,1-.65,1.28,4.13,4.13,0,0,1-1.15,1.1,3.21,3.21,0,0,1-1.36.47,1.75,1.75,0,0,1-1-.13.76.76,0,0,1-.39-.54A2.39,2.39,0,0,1,41,63.23l1.21-4.31A5.59,5.59,0,0,1,43,57.29a4.14,4.14,0,0,1,1.16-1.13,3.18,3.18,0,0,1,1.35-.5,1.55,1.55,0,0,1,.73.1.84.84,0,0,1,.42.39,1.59,1.59,0,0,1,.15.81l0,.83,3.54-.39.06-.57A4.94,4.94,0,0,0,50,54.29a3.38,3.38,0,0,0-1.62-1.67,4.52,4.52,0,0,0-2.48-.36,7.55,7.55,0,0,0-3.08,1.06,8.83,8.83,0,0,0-2.48,2.29,9.71,9.71,0,0,0-1.53,3.15l-1.22,4.3a5.71,5.71,0,0,0-.14,3A3.15,3.15,0,0,0,39.05,68.12Z"/><polygon class="cls-6" points="60.95 66.31 61.91 62.9 54.82 63.67 58.39 51.04 54.89 51.42 50.35 67.48 60.95 66.31"/><path class="cls-6" d="M65.67,65.16a4.22,4.22,0,0,0,2.13.51,6,6,0,0,0,.72,0,7.48,7.48,0,0,0,3.08-1,8.75,8.75,0,0,0,2.49-2.26,9.76,9.76,0,0,0,1.53-3.12l1.17-4.13A6.43,6.43,0,0,0,77,52a3.22,3.22,0,0,0-1.55-2.14,4.54,4.54,0,0,0-2.85-.47,7.48,7.48,0,0,0-3.08,1A8.59,8.59,0,0,0,67,52.65a9.37,9.37,0,0,0-1.53,3.12L64.32,59.9A6.16,6.16,0,0,0,64.13,63,3.24,3.24,0,0,0,65.67,65.16Zm2-5,1.21-4.28a4.6,4.6,0,0,1,.75-1.54,3.93,3.93,0,0,1,1.15-1.08,3.47,3.47,0,0,1,1.36-.48h.3a1.38,1.38,0,0,1,.69.15.85.85,0,0,1,.37.59,2.82,2.82,0,0,1-.11,1.34L72.2,59.11a4.78,4.78,0,0,1-.74,1.54,4.09,4.09,0,0,1-1.16,1.08,3.25,3.25,0,0,1-1.36.47,1.54,1.54,0,0,1-1-.13.82.82,0,0,1-.38-.59A2.82,2.82,0,0,1,67.69,60.14Z"/><polygon class="cls-6" points="86.75 63.49 89.96 63.13 98.3 46.67 94.55 47.08 90.09 56.18 90.36 47.54 87.81 47.81 83.06 56.92 83.63 48.27 80.13 48.66 79.38 64.29 82.6 63.94 86.97 55.78 86.75 63.49"/></g></g></svg>