<svg xmlns="http://www.w3.org/2000/svg" viewBox="0 0 78.69 78.69"><defs><style>.cls-1,.cls-3{fill:#8e3e29;}.cls-2,.cls-4,.cls-8{fill:#b0d5d9;}.cls-3{fill-rule:evenodd;}.cls-4{font-size:16.93px;}.cls-4,.cls-8{font-family:Margin-DEMO, Margin DEMO;}.cls-5{letter-spacing:-0.02em;}.cls-6{letter-spacing:0em;}.cls-7{letter-spacing:-0.2em;}.cls-8{font-size:29.77px;}.cls-9{fill:#fff;}</style></defs><g id="Calque_2" data-name="Calque 2"><g id="Calque_9" data-name="Calque 9"><circle class="cls-1" cx="39.35" cy="39.35" r="39.35"/><path class="cls-2" d="M39.35,4.56A34.8,34.8,0,0,0,8.19,23.87H70.5A34.77,34.77,0,0,0,39.35,4.56Z"/><path class="cls-2" d="M39.35,74.13A34.78,34.78,0,0,0,71.08,53.58H7.61A34.79,34.79,0,0,0,39.35,74.13Z"/><path class="cls-1" d="M70.5,23.87H8.19a34.77,34.77,0,0,0-.58,29.71H71.08a34.77,34.77,0,0,0-.58-29.71Z"/><path class="cls-3" d="M34.16,15.38c-.16-.16-.68-.1-1.67,0a7,7,0,0,1,.7-2.11c1.7.09,3.79.33,6.18.32,4.7,0,4.74-1.76,4.74-1.76a20,20,0,0,1-6.83.21c-2.61-.24-5.22-.84-7.37-.26-2.55.68-2.8,2.57-2.7,3.38a5.14,5.14,0,0,1,4.17-1.91l.53,0a4.11,4.11,0,0,0-.83,1.7c-.06.18-.12.35-.17.52-2.18.19-2.6,1.19-2.48,1.45s.91-.09,1.87-.2h.18A3.85,3.85,0,0,1,29,18.72a2.39,2.39,0,0,1-2.3.16c.08,1.14,1.79,1.76,3.24,1a5.71,5.71,0,0,0,2.2-3.28c.32,0,.64,0,1,0,.88-.05,1.27-1,1-1.15m17.58-1.27a.35.35,0,0,0-.44.22h0a.35.35,0,0,0,0,.25c-.33.3-.64.53-.8.48s-.05-.63.16-1.15a.36.36,0,0,0,.41-.26.38.38,0,0,0-.24-.48.38.38,0,0,0-.47.25h0a.4.4,0,0,0,.1.39c-.27.49-.55.92-.8.85h0c-.24-.08-.23-.59-.16-1.16a.34.34,0,0,0,.3-.26.37.37,0,0,0-.24-.47.36.36,0,0,0-.47.24h0a.37.37,0,0,0,.18.45c-.13.54-.33,1.09-.53,1s-.28-.41-.38-.85a.36.36,0,0,0,.14-.48.45.45,0,0,0-.2-.16.34.34,0,0,0-.43.22h0a.35.35,0,0,0,.22.44h0l.06,1.46,2.4.78.89-1.16a.35.35,0,0,0,.46-.16s0,0,0-.05a.34.34,0,0,0-.22-.43"/><path class="cls-3" d="M49,18.19c-.44.79-1.08,1.19-1.42.9s-.25-1.17.19-2,1.08-1.2,1.42-.9.26,1.17-.19,2m-.6-2.72a3.5,3.5,0,0,0-1,.59,5,5,0,0,0-.38.41h0a4.17,4.17,0,0,0-.29.44,4.37,4.37,0,0,0-.33.69h0a7.4,7.4,0,0,1-.4.73,2.77,2.77,0,0,1-.59.54A4.13,4.13,0,0,1,45,19c-1,.3-1.21-.44-1-.78a11.69,11.69,0,0,1,1-.88c.75-.62,1.26-1,1.61-1.37s.13-.58-.16-.63a1.36,1.36,0,0,0-1.26.25c-.25.21-1.75,2-1.75,2s2.45-4.74,2.85-5.56c.33-.67-1.26-.76-1.7.2-.26.56-2,4.63-2.23,5.14-.39.92-.41,1.06-.61,1.22h0a1.12,1.12,0,0,1-.63.29c-.11,0-.17-.06-.19-.19a1.34,1.34,0,0,1,0-.5q0-.18.12-.39c0-.15.1-.29.16-.44l.18-.43.17-.38c0-.12.09-.22.13-.3l.06-.19a1,1,0,0,0,0-.59.33.33,0,0,0-.34-.2.89.89,0,0,0-.45.12,1.59,1.59,0,0,0-.44.36c-.13.15-.25.31-.37.46l-.25.34-.26.32-.35.45h-.09a1.28,1.28,0,0,1,0-.13c0-.07.06-.15.1-.23l.24-.61.1-.27a1.36,1.36,0,0,0,.06-.2.63.63,0,0,0,0-.43c0-.1-.14-.16-.32-.16a.72.72,0,0,0-.45.15,1.1,1.1,0,0,0-.3.38l-.31.69c-.23.56-.45,1.13-.64,1.7l-.12.37a3.41,3.41,0,0,1-.71.29.28.28,0,0,1-.28,0,.26.26,0,0,1,0-.21,3.54,3.54,0,0,1,.35-1.1c.27-.59.51-1.19.74-1.8a.34.34,0,0,0,0-.24c0-.12-.18-.17-.3-.18a.83.83,0,0,0-.76.2.92.92,0,0,0-.13.24l-.89,2a1.72,1.72,0,0,1-.86,1.05.33.33,0,0,1-.24,0,.28.28,0,0,1-.14-.26.84.84,0,0,1,.08-.3c.37-.91.64-1.54,1-2.44a1.4,1.4,0,0,0,.11-.36.19.19,0,0,0-.09-.15.76.76,0,0,0-.74.11,2.23,2.23,0,0,0-.68,1c-.18.41-.37.81-.54,1.22a7.85,7.85,0,0,0-.49,1.41.87.87,0,0,0,.14.77.69.69,0,0,0,.46.15,2.58,2.58,0,0,0,1.81-.8.83.83,0,0,0,.26.67.7.7,0,0,0,.45.07,3.24,3.24,0,0,0,.91-.25l.36-.16a.61.61,0,0,0,0,.15.35.35,0,0,0,.13.23.41.41,0,0,0,.3.09A.6.6,0,0,0,38.2,20a.72.72,0,0,0,.29-.27l1.89-2.54h.07l-.27.73a4.71,4.71,0,0,0-.19.64,2.5,2.5,0,0,0-.1,1.13c.06.26.17.39.35.39a2,2,0,0,0,.53-.08,3.13,3.13,0,0,0,.51-.19l.34-.19c0,.05,0,.13,0,.17s0,.17.08.23.13.06.27.06a.33.33,0,0,0,.23-.07,9,9,0,0,0,.64-.86L43,19a.89.89,0,0,0,.66,1.1,3.43,3.43,0,0,0,2.6-.93,1.4,1.4,0,0,0,.1.35,1.08,1.08,0,0,0,.39.52,1.2,1.2,0,0,0,.72.2A1.87,1.87,0,0,0,48,20.1a2.55,2.55,0,0,0,.57-.29,3.18,3.18,0,0,0,.52-.44,4,4,0,0,0,.76-1.1,5.32,5.32,0,0,0,.33-1.09,3.7,3.7,0,0,0,.05-.63s0-.46-.08-.5-1.81-.58-1.81-.58"/><text class="cls-4" transform="translate(15.29 34.88) scale(0.68 1)">SPE<tspan class="cls-5" x="24.71" y="0">C</tspan><tspan class="cls-6" x="33.18" y="0">IA</tspan><tspan class="cls-7" x="48.31" y="0">L</tspan><tspan x="53.42" y="0">TY</tspan></text><text class="cls-8" transform="translate(15.3 52.81) scale(0.6 1)">SERIES</text><path class="cls-9" d="M18.14,61.46V57.07h.48v4.39Zm0,0v-.58h2.25v.58Z"/><path class="cls-9" d="M21,57.66v-.59h2.08v.59Zm0,3.8v-.58h2.08v.58Zm.8,0V57.07h.48v4.39Z"/><path class="cls-9" d="M23.82,61.46V57.07h.46v4.39Zm.91-1.79-.39-1.82H24.2v-.78h.34L24.93,59h0l.05.71Zm.14,0,.07-.71h0l.39-1.89h.34v.78h-.14l-.39,1.82Zm.75,1.79V57.07h.46v4.39Z"/><path class="cls-9" d="M26.79,57.66v-.59h2.08v.59Zm0,3.8v-.58h2.08v.58Zm.8,0V57.07h.48v4.39Z"/><path class="cls-9" d="M29.46,57.66v-.59H32v.59Zm1,3.8V57.07H31v4.39Z"/><path class="cls-9" d="M32.53,61.46V57.07H33v4.39Zm0-3.8v-.59h2.26v.59Zm0,1.9V59h1.83v.59Zm0,1.9v-.58h2.26v.58Z"/><path class="cls-9" d="M35.36,61.46V57.07h.48v4.39Zm.45,0v-.58h.38a.9.9,0,0,0,.79-.39,2.06,2.06,0,0,0,.26-1.16A2.37,2.37,0,0,0,37,58.07a.87.87,0,0,0-.79-.41h-.37l-.06-.59h.43c1,0,1.56.75,1.56,2.26s-.52,2.13-1.56,2.13Z"/><path class="cls-9" d="M41.17,61.46V57.07h.48v4.39Zm0-3.8v-.59h2.25v.59Zm0,1.9V59H43v.59Zm0,1.9v-.58h2.25v.58Z"/><path class="cls-9" d="M44,61.46V57.07h.48v4.39Zm.45,0v-.58h.38a.9.9,0,0,0,.79-.39,2.14,2.14,0,0,0,.26-1.16,2.47,2.47,0,0,0-.26-1.26.87.87,0,0,0-.79-.41h-.37l-.06-.59h.43c1,0,1.56.75,1.56,2.26s-.52,2.13-1.56,2.13Z"/><path class="cls-9" d="M47,57.66v-.59H49v.59Zm0,3.8v-.58H49v.58Zm.79,0V57.07h.48v4.39Z"/><path class="cls-9" d="M49.62,57.66v-.59h2.49v.59Zm1,3.8V57.07h.48v4.39Z"/><path class="cls-9" d="M52.71,57.66v-.59h2.07v.59Zm0,3.8v-.58h2.07v.58Zm.79,0V57.07H54v4.39Z"/><path class="cls-9" d="M56.62,61.53c-.84,0-1.26-.75-1.26-2.23S55.78,57,56.62,57s1.26.76,1.26,2.29S57.46,61.53,56.62,61.53Zm0-.57c.5,0,.76-.56.76-1.66s-.26-1.72-.76-1.72-.75.57-.75,1.72S56.12,61,56.62,61Z"/><path class="cls-9" d="M58.42,61.46V57.07h.46v4.39Zm1.56,0-1-3.34H58.7v-1H59l1.06,3.34h.12v1.05Zm.15,0V57.07h.46v4.39Z"/><path class="cls-9" d="M26.77,67.51v-4.4h.48v4.4Zm0-3.81v-.59H29v.59Zm0,1.9V65H28.6v.59Zm0,1.91v-.59H29v.59Z"/><path class="cls-9" d="M31.44,67.51l-.87-2-1.15-2.43H30l.9,2.09L32,67.51Zm-2,0,1.11-2.31.91-2.09H32l-1.14,2.43-.87,2Z"/><path class="cls-9" d="M33.94,67.57c-1.06,0-1.59-.76-1.59-2.27a3,3,0,0,1,.4-1.66,1.4,1.4,0,0,1,1.75-.45.94.94,0,0,1,.38.41l-.35.46a1,1,0,0,0-.28-.33.66.66,0,0,0-.36-.11.83.83,0,0,0-.74.43,2.2,2.2,0,0,0-.28,1.22c0,1.15.38,1.73,1.15,1.73a1.36,1.36,0,0,0,.69-.19l.11.55A1.93,1.93,0,0,1,33.94,67.57Z"/><path class="cls-9" d="M35.41,67.51v-4.4h.48v4.4Zm0,0v-.59h2.26v.59Z"/><path class="cls-9" d="M39.34,67.57c-.73,0-1.1-.49-1.1-1.47v-3h.48v3a1.19,1.19,0,0,0,.15.66.53.53,0,0,0,.48.22c.41,0,.62-.29.62-.88v-3h.48v3a1.77,1.77,0,0,1-.28,1.1A1,1,0,0,1,39.34,67.57Z"/><path class="cls-9" d="M42.11,67.57a2.38,2.38,0,0,1-.55-.06,1.83,1.83,0,0,1-.46-.18l.06-.63a2.25,2.25,0,0,0,.51.22,1.61,1.61,0,0,0,.48.08.73.73,0,0,0,.5-.15.64.64,0,0,0,.16-.46.63.63,0,0,0-.31-.58l-.59-.35a1.52,1.52,0,0,1-.54-.49,1.31,1.31,0,0,1-.18-.71,1.36,1.36,0,0,1,.27-.9.93.93,0,0,1,.76-.31,1.29,1.29,0,0,1,.6.13,1.63,1.63,0,0,1,.51.42L43,64a2,2,0,0,0-.4-.32.75.75,0,0,0-.38-.1.48.48,0,0,0-.38.15.68.68,0,0,0-.14.46.59.59,0,0,0,.09.34.87.87,0,0,0,.26.24l.5.31a2,2,0,0,1,.58.51,1.31,1.31,0,0,1,.19.74,1.06,1.06,0,0,1-1.21,1.2Z"/><path class="cls-9" d="M44.07,63.7v-.59h2.07v.59Zm0,3.81v-.59h2.07v.59Zm.79,0v-4.4h.48v4.4Z"/><path class="cls-9" d="M47.61,67.51l-1-4.4h.52L48,67h0l.79-3.87h.52l-1,4.4Z"/><path class="cls-9" d="M49.81,67.51v-4.4h.48v4.4Zm0-3.81v-.59h2.25v.59Zm0,1.9V65h1.82v.59Zm0,1.91v-.59h2.25v.59Z"/></g></g></svg>