<svg xmlns="http://www.w3.org/2000/svg" viewBox="0 0 118.68 118.68"><defs><style>.cls-1,.cls-4{fill:#693f2c;}.cls-2{fill:#c3e4e9;}.cls-3{fill:#fff;}.cls-4{fill-rule:evenodd;}</style></defs><g id="Calque_2" data-name="Calque 2"><g id="Calque_4" data-name="Calque 4"><circle class="cls-1" cx="59.34" cy="59.34" r="59.34"/><path class="cls-2" d="M59.34,112.28a52.92,52.92,0,0,0,48.12-30.87H11.22A52.93,52.93,0,0,0,59.34,112.28Z"/><path class="cls-2" d="M59.34,6.4A52.92,52.92,0,0,0,13,33.69h92.63A53,53,0,0,0,59.34,6.4Z"/><path class="cls-1" d="M105.66,33.69H13a52.93,52.93,0,0,0-1.81,47.72h96.24a53,53,0,0,0-1.8-47.72Z"/><path class="cls-3" d="M26.49,85.88h.88v5.74h-.88Zm.44,5h3.58v.77H26.93Z"/><path class="cls-3" d="M32.42,91.62h-.88V85.88h.88Z"/><path class="cls-3" d="M38.47,85.88h.82v5.74h-.86v-4.3l0,.25-1.55,3.25h-.61l-1.54-3.17,0-.33v4.3H34V85.88h.82l1.84,3.79Z"/><path class="cls-3" d="M41.72,91.62h-.88V85.88h.88Z"/><path class="cls-3" d="M42.75,85.88h4.42v.77H42.75Zm1.77.47h.88v5.27h-.88Z"/><path class="cls-3" d="M48,85.88h.87v5.74H48Zm.42,0h3.6v.77h-3.6Zm0,2.51h3.12v.76H48.45Zm0,2.46h3.6v.77h-3.6Z"/><path class="cls-3" d="M53.29,85.88h.88v5.74h-.88Zm.6,5H55.3a1.6,1.6,0,0,0,1.08-.33,1.18,1.18,0,0,0,.38-.93V87.91a1.18,1.18,0,0,0-.38-.93,1.6,1.6,0,0,0-1.08-.33H53.89v-.77h1.39a3.16,3.16,0,0,1,1.29.24,1.85,1.85,0,0,1,.81.7,2.09,2.09,0,0,1,.28,1.12v1.62a2.09,2.09,0,0,1-.28,1.12,1.83,1.83,0,0,1-.82.7,3.1,3.1,0,0,1-1.29.24H53.89Z"/><path class="cls-3" d="M61.45,85.88h.87v5.74h-.87Zm.42,0h3.6v.77h-3.6Zm0,2.51H65v.76H61.87Zm0,2.46h3.6v.77h-3.6Z"/><path class="cls-3" d="M66.71,85.88h.88v5.74h-.88Zm.6,5h1.42a1.59,1.59,0,0,0,1.07-.33,1.18,1.18,0,0,0,.38-.93V87.91A1.18,1.18,0,0,0,69.8,87a1.59,1.59,0,0,0-1.07-.33H67.31v-.77H68.7a3.16,3.16,0,0,1,1.29.24,1.85,1.85,0,0,1,.81.7,2.09,2.09,0,0,1,.28,1.12v1.62a2.09,2.09,0,0,1-.28,1.12,1.83,1.83,0,0,1-.82.7,3.08,3.08,0,0,1-1.28.24H67.31Z"/><path class="cls-3" d="M73.29,91.62h-.88V85.88h.88Z"/><path class="cls-3" d="M74.33,85.88h4.41v.77H74.33Zm1.76.47H77v5.27h-.88Z"/><path class="cls-3" d="M80.48,91.62H79.6V85.88h.88Z"/><path class="cls-3" d="M83,91.41a1.86,1.86,0,0,1-.78-.74,2.23,2.23,0,0,1-.27-1.11V87.94a2.23,2.23,0,0,1,.27-1.11,1.94,1.94,0,0,1,.78-.75,2.47,2.47,0,0,1,1.15-.26,2.5,2.5,0,0,1,1.15.26,2,2,0,0,1,.78.75,2.23,2.23,0,0,1,.27,1.11v1.62A2.23,2.23,0,0,1,86,90.67a1.92,1.92,0,0,1-.78.74,2.38,2.38,0,0,1-1.15.27A2.35,2.35,0,0,1,83,91.41Zm1.83-.69a1.05,1.05,0,0,0,.46-.45,1.45,1.45,0,0,0,.16-.68V87.91a1.48,1.48,0,0,0-.16-.68,1.05,1.05,0,0,0-.46-.45,1.37,1.37,0,0,0-.68-.16,1.34,1.34,0,0,0-.68.16,1.05,1.05,0,0,0-.46.45,1.37,1.37,0,0,0-.16.68v1.68a1.34,1.34,0,0,0,.16.68,1.05,1.05,0,0,0,.46.45,1.34,1.34,0,0,0,.68.16A1.37,1.37,0,0,0,84.78,90.72Z"/><path class="cls-3" d="M87.63,85.88h.8l3.06,4.44-.1.1V85.88h.87v5.73h-.81l-3-4.36.1-.11v4.47h-.87Z"/><path class="cls-3" d="M37.05,95H38v5.91h-.91Zm.44,0h3.76v.78H37.49Zm0,2.58h3.26v.79H37.49Zm0,2.54h3.76v.79H37.49Z"/><path class="cls-3" d="M44.11,97.51,45.75,95h1l-2.16,3.2-1.75,2.71h-1Zm0,.78-.14-.2L41.89,95h1l1.58,2.4.15.22,2.23,3.29h-1Z"/><path class="cls-3" d="M48.46,100.68a2,2,0,0,1-.8-.77,2.32,2.32,0,0,1-.28-1.16V97.12A2.32,2.32,0,0,1,47.66,96a2,2,0,0,1,.8-.77,2.56,2.56,0,0,1,1.2-.28,2.5,2.5,0,0,1,1,.22,2.18,2.18,0,0,1,1.22,1.54H51a1.33,1.33,0,0,0-.28-.49,1.41,1.41,0,0,0-.47-.34,1.38,1.38,0,0,0-.56-.12,1.33,1.33,0,0,0-.7.18,1.17,1.17,0,0,0-.47.49,1.54,1.54,0,0,0-.17.73v1.63a1.57,1.57,0,0,0,.17.73A1.17,1.17,0,0,0,49,100a1.42,1.42,0,0,0,.7.17,1.55,1.55,0,0,0,.56-.11,1.36,1.36,0,0,0,.47-.32,1.38,1.38,0,0,0,.28-.52h.94a2.21,2.21,0,0,1-.43.93,2.16,2.16,0,0,1-.79.61,2.38,2.38,0,0,1-1,.22A2.56,2.56,0,0,1,48.46,100.68Z"/><path class="cls-3" d="M53.13,95h.92v5.91h-.92Zm.46,5.12h3.74v.79H53.59Z"/><path class="cls-3" d="M59.2,100.69a1.74,1.74,0,0,1-.79-.75,2.46,2.46,0,0,1-.27-1.19V95h.92v3.8a1.35,1.35,0,0,0,.36,1,1.66,1.66,0,0,0,2,0,1.35,1.35,0,0,0,.36-1V95h.92v3.77a2.46,2.46,0,0,1-.27,1.19,1.74,1.74,0,0,1-.79.75,2.77,2.77,0,0,1-1.24.26A2.74,2.74,0,0,1,59.2,100.69Z"/><path class="cls-3" d="M65.16,100.87a4.84,4.84,0,0,1-.79-.24,3.62,3.62,0,0,1-.68-.41l.57-.64a2.42,2.42,0,0,0,.82.44,3.1,3.1,0,0,0,1,.15,2.11,2.11,0,0,0,1.1-.24.74.74,0,0,0,.39-.67h0a.73.73,0,0,0-.17-.49,1,1,0,0,0-.46-.26,4.28,4.28,0,0,0-.73-.16h-.06l-.07,0A7.92,7.92,0,0,1,65,98.09a1.64,1.64,0,0,1-.7-.47,1.48,1.48,0,0,1-.29-1h0a1.6,1.6,0,0,1,.27-.94,1.66,1.66,0,0,1,.79-.59,3.39,3.39,0,0,1,1.26-.21,3.45,3.45,0,0,1,1.36.28,3.67,3.67,0,0,1,.65.34l-.52.66a3.41,3.41,0,0,0-.74-.37,2.45,2.45,0,0,0-.75-.12,1.91,1.91,0,0,0-1,.24.76.76,0,0,0-.37.68h0a.62.62,0,0,0,.19.48,1.3,1.3,0,0,0,.48.26c.19,0,.45.11.79.17h.17a5.84,5.84,0,0,1,1,.26,1.6,1.6,0,0,1,.67.48,1.5,1.5,0,0,1,.26.92h0a1.48,1.48,0,0,1-.28.92,1.7,1.7,0,0,1-.82.59,3.82,3.82,0,0,1-1.3.2A5.19,5.19,0,0,1,65.16,100.87Z"/><path class="cls-3" d="M70.6,100.89h-.92V95h.92Z"/><path class="cls-3" d="M71.72,95h1l1.57,4.63L75.86,95h1l-2.13,5.91h-.87Z"/><path class="cls-3" d="M77.85,95h.92v5.91h-.92Zm.45,0h3.76v.78H78.3Zm0,2.58h3.26v.79H78.3Zm0,2.54h3.76v.79H78.3Z"/><g id="Calque_2-2" data-name="Calque 2"><g id="Calque_4-2" data-name="Calque 4"><path class="cls-4" d="M52.26,22.34c-.26-.24-1-.15-2.56-.06a10.44,10.44,0,0,1,1.07-3.22c2.6.14,5.81.51,9.48.5,7.21,0,7.27-2.71,7.27-2.71-3.06.88-7.28.63-10.48.33-4-.37-8-1.29-11.3-.4-3.91,1-4.29,3.94-4.14,5.19,1.56-2.06,3.68-2.79,6.4-2.95h.81a6.78,6.78,0,0,0-1.28,2.61c-.08.28-.17.54-.25.81-3.34.28-4,1.81-3.77,2.21s1.4-.13,2.87-.29h.28a5.86,5.86,0,0,1-2.26,3.18,3.64,3.64,0,0,1-3.54.24c.13,1.75,2.75,2.7,5,1.51,1.78-1,2.8-3.29,3.37-5,.5,0,1,0,1.47-.05,1.35-.09,1.93-1.46,1.61-1.77m27-2a.53.53,0,0,0-.67.34h0a.5.5,0,0,0,0,.38c-.5.46-1,.81-1.22.76s-.07-1,.24-1.76a.58.58,0,1,0,.18-1.14.57.57,0,0,0-.64.39h0a.56.56,0,0,0,.14.59c-.42.76-.84,1.42-1.22,1.31h0c-.38-.12-.36-.91-.26-1.78a.69.69,0,0,0,.09-1.27h0a.56.56,0,0,0-.74.33s0,0,0,0h0a.59.59,0,0,0,.28.69c-.19.83-.5,1.67-.82,1.57s-.43-.63-.57-1.3a.53.53,0,0,0,.22-.72l0,0a.48.48,0,0,0-.29-.25.53.53,0,0,0-.67.34h0a.53.53,0,0,0,.34.67h.06l.1,2.26,3.71,1.24,1.37-1.78a.51.51,0,0,0,.7-.25v-.06a.53.53,0,0,0-.34-.67"/><path class="cls-4" d="M75,26.65c-.69,1.21-1.66,1.83-2.18,1.38s-.38-1.8.29-3,1.66-1.83,2.18-1.38.39,1.8-.29,3m-.93-4.17a5.26,5.26,0,0,0-1.51.9c-.2.2-.4.41-.58.63h0a4.45,4.45,0,0,0-.45.68,5.58,5.58,0,0,0-.49,1h0a12.07,12.07,0,0,1-.62,1.11,4,4,0,0,1-.91.84,4.38,4.38,0,0,1-.69.25c-1.57.46-1.85-.66-1.51-1.2A18.76,18.76,0,0,1,68.9,25.4c1.13-.95,1.92-1.55,2.46-2.1s.2-.89-.24-1a2.1,2.1,0,0,0-1.93.38c-.39.33-2.7,3.12-2.7,3.12s3.77-7.28,4.38-8.53c.5-1-1.94-1.17-2.62.31-.39.86-3.08,7.11-3.41,7.88-.6,1.41-.64,1.63-.94,1.88h0a1.77,1.77,0,0,1-1,.44c-.17,0-.27-.09-.29-.29a2.11,2.11,0,0,1,.07-.75,5,5,0,0,1,.18-.61c.07-.21.16-.44.25-.67s.18-.44.28-.65l.25-.6c.08-.17.14-.33.2-.46a.83.83,0,0,0,.1-.27,1.45,1.45,0,0,0,0-.92.5.5,0,0,0-.51-.31,1.41,1.41,0,0,0-.7.19,2.38,2.38,0,0,0-.67.55l-.57.71-.39.51-.39.51-.53.68h-.16s0-.09.08-.2.08-.22.14-.36c.12-.3.25-.61.37-.92l.16-.42a1.71,1.71,0,0,0,.09-.3,1.06,1.06,0,0,0,0-.66c-.07-.16-.22-.25-.5-.25a1.09,1.09,0,0,0-.69.24,1.56,1.56,0,0,0-.45.57c-.17.35-.33.7-.48,1.06-.36.86-.69,1.73-1,2.62a5.05,5.05,0,0,0-.18.55,7.47,7.47,0,0,1-1.1.45.58.58,0,0,1-.43,0,.44.44,0,0,1-.06-.32,5.27,5.27,0,0,1,.55-1.68c.4-.91.75-1.84,1.13-2.77a.56.56,0,0,0,0-.36c-.06-.19-.28-.26-.47-.28a1.24,1.24,0,0,0-1.16.31,1.58,1.58,0,0,0-.2.36L54.55,26.2a2.62,2.62,0,0,1-1.32,1.61.45.45,0,0,1-.36,0,.4.4,0,0,1-.26-.39,1.25,1.25,0,0,1,.12-.46c.56-1.39,1-2.36,1.55-3.76a2.19,2.19,0,0,0,.17-.55.25.25,0,0,0-.15-.22,1.13,1.13,0,0,0-1.12.16,3.51,3.51,0,0,0-1,1.5c-.28.62-.56,1.24-.82,1.86a13.06,13.06,0,0,0-.75,2.18,1.36,1.36,0,0,0,.22,1.17,1,1,0,0,0,.71.24,4,4,0,0,0,2.77-1.23,1.29,1.29,0,0,0,.4,1,1.06,1.06,0,0,0,.7.1,5.1,5.1,0,0,0,1.39-.37l.56-.25a.88.88,0,0,0,0,.23.55.55,0,0,0,.2.35.66.66,0,0,0,.45.13,1,1,0,0,0,.46-.11,1.33,1.33,0,0,0,.44-.41l2.93-3.92h.12c-.14.37-.29.75-.42,1.11a7,7,0,0,0-.29,1A4.12,4.12,0,0,0,61,28.91c.09.4.28.6.55.6a2.8,2.8,0,0,0,.81-.09,5.36,5.36,0,0,0,.79-.3l.53-.28v.25c0,.22,0,.26.12.35a.56.56,0,0,0,.41.1.52.52,0,0,0,.36-.11c.34-.43.65-.87,1-1.33l.19-.26a1.38,1.38,0,0,0,1,1.68h0c.84.15,2.21-.05,4-1.43a2.39,2.39,0,0,0,.15.54,1.65,1.65,0,0,0,.61.79,1.79,1.79,0,0,0,1.1.31,2.68,2.68,0,0,0,.93-.13,4.18,4.18,0,0,0,.91-.48,4.74,4.74,0,0,0,.75-.67,6.3,6.3,0,0,0,1.16-1.68,7.21,7.21,0,0,0,.53-1.69,6.22,6.22,0,0,0,.08-1s0-.71-.13-.75l-2.78-.88"/></g></g><path class="cls-3" d="M31.17,46.21a4.33,4.33,0,0,1-4.26,4.59h-.06c-1.74,0-3.71-.82-4.23-2.66a1.82,1.82,0,1,1,3.45-.25c-.21,2.07,1.46,1.93,1.72.67.68-3.19-4.85-3.41-5-7.25a4.16,4.16,0,0,1,4.29-4.56h.05a3.57,3.57,0,0,1,3.46,2.69c.77,2.68-2.75,3.16-3.14.25-.34-2.38-1.49-1.84-1.35-.11C26.32,42.35,30.83,42.94,31.17,46.21Z"/><path class="cls-3" d="M39.34,41.2c0,2.38-1.6,4.42-3.53,4.42h-1A6.9,6.9,0,0,0,35.15,48a3.59,3.59,0,0,1,.44,1.51c0,1.09-1,1.29-2.07,1.29h-.16c-1.09,0-2.08-.2-2.08-1.29A3.89,3.89,0,0,1,31.7,48c.64-1.2.43-7.47-.07-8.59A3.64,3.64,0,0,1,31.28,38c0-1.06,1-1.29,2.08-1.29h2.45C37.74,36.75,39.34,38.82,39.34,41.2Zm-2.54,0c0-1.51-.62-3.35-1.35-3.35-1,0-1,6.68,0,6.68C36.14,44.53,36.8,42.68,36.8,41.2Z"/><path class="cls-3" d="M43,42.49h.49c1.21,0,1.21-1.46,1.64-1.54s.58,1.17.58,2.18-.24,2.27-.58,2.18-.43-1.51-1.64-1.51h-.53c0,2.83.5,5.68,1.49,5.68.63,0,1.25-.56,1.6-1.9.39-1.54,2.29-1,2.29.39s-1.19,2.83-2.2,2.83H41.58c-1.08,0-2.08-.2-2.08-1.29A3.73,3.73,0,0,1,39.93,48c.64-1.2.43-7.47-.07-8.59A3.64,3.64,0,0,1,39.5,38c0-1.06,1-1.29,2.08-1.29h4.53c1,0,2.2,1.38,2.2,2.86A1.16,1.16,0,0,1,46,40c-.35-1.34-1-1.9-1.6-1.9C43.59,38.1,43.11,40.14,43,42.49Z"/><path class="cls-3" d="M57.41,45.73C56.86,48.64,55.1,50.8,53,50.8c-2.52,0-4.56-3.14-4.56-7s2-7,4.56-7c1.76,0,3.36,1.52,4,3.84,1,3.38-3.71,5.67-3.27.81.18-1.88-.33-3.5-1-3.3-.85.22-1.54,3-1.26,6.12.46,5.09,3.64,4,5,1.46C56.93,45,57.5,45.26,57.41,45.73Z"/><path class="cls-3" d="M61.3,39.41c-.49,1.12-.71,7.39-.09,8.59a3.46,3.46,0,0,1,.45,1.51c0,1.09-1,1.29-2.08,1.29h-.16c-1.08,0-2.08-.2-2.08-1.29A3.73,3.73,0,0,1,57.77,48c.64-1.2.42-7.47-.07-8.59A3.64,3.64,0,0,1,57.34,38c0-1.06,1-1.29,2.08-1.29h.16c1.08,0,2.08.23,2.08,1.29A3.64,3.64,0,0,1,61.3,39.41Z"/><path class="cls-3" d="M73.1,49.82c.16.84-1.39,1-2.08,1s-2.45-.14-2.74-1c-.16-.42.18-.59.24-1.07A8,8,0,0,0,68.36,47c-.06-.36-.41-1.2-1-1.2H65.6c-1,0-.9,1.18-.83,1.6.19,1.39,1.12,1.76.89,2.51s-1.37.93-2,.93-1.9-.28-1.76-1.07S63,49,63.74,46.18l1.88-7.36c.25-.92.78-2.07,1.53-2.07h.67c.82,0,1.32,1,1.6,2.21a79,79,0,0,0,2.38,8.7C72.21,48.73,73,49.12,73.1,49.82ZM67.47,43c-.27-1.14-.61-2.15-.82-2.76-.11-.31-.32-.31-.43.08,0,0-.56,2.1-.71,2.8-.21,1-.14,1.37.48,1.37h.84C67.52,44.45,67.72,44,67.47,43Z"/><path class="cls-3" d="M82,48c0,1.46-1.17,2.83-2.2,2.83H75.3c-1.08,0-2.07-.2-2.07-1.29A3.89,3.89,0,0,1,73.65,48c.64-1.2.43-7.47-.07-8.59A3.64,3.64,0,0,1,73.23,38c0-1.06,1-1.29,2.07-1.29h.16c1.09,0,2.08.23,2.08,1.29a3.64,3.64,0,0,1-.35,1.37c-.48,1.12-1.12,10.07,1.1,10.07.62,0,1.12-.56,1.45-1.9C80.13,46,82,46.57,82,48Z"/><path class="cls-3" d="M86.6,39.94c-.27-1.28-.78-1.84-1-1.84-.8,0-.92,8.16-.28,9.9a4.71,4.71,0,0,1,.43,1.51c0,1.09-1,1.29-2.08,1.29h-.14c-1.09,0-2.08-.2-2.08-1.29A5.55,5.55,0,0,1,81.82,48c.59-1.85.48-9.9-.26-9.9-.29,0-.78.56-1.07,1.84-.37,1.71-1.95.56-1.9-1.17s1.19-2,2.31-2h5.31c1.12,0,2.24.23,2.29,2S87,41.65,86.6,39.94Z"/><path class="cls-3" d="M98.88,37.68a2.09,2.09,0,0,1-.5.67A16.47,16.47,0,0,0,94.93,46a4,4,0,0,0,.38,2,3.47,3.47,0,0,1,.44,1.51c0,1.09-1,1.29-2.08,1.29h-.16c-1.08,0-2.07-.2-2.07-1.29A4.07,4.07,0,0,1,91.86,48c1.39-3-1.63-7.83-2.25-8.59A5.58,5.58,0,0,1,88.75,38c-.39-1.06.8-1.29,1.89-1.29h.16c1.08,0,2.36.23,2.75,1.29a3.27,3.27,0,0,1,.16,1.37,11.61,11.61,0,0,0,.89,3.81c.32-2.55,1.17-4.17,1-4.87a1.28,1.28,0,0,1-.06-.67c.13-.51,1-.93,1.89-.93S99.11,37.17,98.88,37.68Z"/><path class="cls-3" d="M35.32,69.67a7,7,0,0,1-6.86,7.38h-.09c-2.8,0-6-1.31-6.8-4.28-1.35-4.77,6.09-5.76,5.54-.4-.34,3.33,2.35,3.1,2.78,1.08C31,68.32,22.08,68,21.82,61.79a6.68,6.68,0,0,1,6.89-7.33h.09a5.76,5.76,0,0,1,5.58,4.32c1.23,4.32-4.44,5.08-5.07.4-.54-3.82-2.4-3-2.17-.18C27.51,63.46,34.78,64.4,35.32,69.67Z"/><path class="cls-3" d="M41.07,63.68h.8c1.94,0,1.94-2.34,2.63-2.47s.94,1.89.94,3.51-.4,3.64-.94,3.51-.69-2.43-2.63-2.43H41c0,4.54.8,9.13,2.4,9.13,1,0,2-.9,2.57-3.06.63-2.47,3.69-1.62,3.69.63s-1.91,4.55-3.54,4.55h-7.3c-1.74,0-3.34-.32-3.34-2.07a6,6,0,0,1,.69-2.43c1-1.94.68-12-.12-13.82a5.85,5.85,0,0,1-.57-2.2c0-1.71,1.6-2.07,3.34-2.07h7.3c1.63,0,3.54,2.2,3.54,4.59,0,2.2-3.06,3.1-3.69.63-.57-2.16-1.57-3.06-2.57-3.06C42.07,56.62,41.29,59.9,41.07,63.68Z"/><path class="cls-3" d="M64.23,75.47c-.12,1.35-1.78,1.58-2.89,1.58s-3.58-.72-3.58-4.41V71.29c0-1.58-.34-2.57-1-2.57h-1.2a11.33,11.33,0,0,0,.57,3.83A5.61,5.61,0,0,1,56.85,75c0,1.75-1.6,2.07-3.35,2.07h-.25c-1.75,0-3.35-.32-3.35-2.07a6,6,0,0,1,.69-2.43c1-1.94.68-12-.12-13.82a5.85,5.85,0,0,1-.57-2.2c0-1.71,1.6-2.07,3.35-2.07h3.94c3.12,0,5.69,3.33,5.69,7.15a7.81,7.81,0,0,1-2.26,5.63c1.4.49,2.41,1.8,2.41,5v.36C63,74.53,64.34,74.35,64.23,75.47ZM56.62,67c1.12,0,2.17-3,2.17-5.36s-1-5.4-2.17-5.4C55.08,56.21,55.08,67,56.62,67Z"/><path class="cls-3" d="M70.83,58.73c-.8,1.8-1.14,11.88-.14,13.82A5.74,5.74,0,0,1,71.4,75c0,1.75-1.6,2.07-3.34,2.07H67.8c-1.74,0-3.35-.32-3.35-2.07a6.18,6.18,0,0,1,.69-2.43c1-1.94.69-12-.11-13.82a5.85,5.85,0,0,1-.58-2.2c0-1.71,1.61-2.07,3.35-2.07h.26c1.74,0,3.34.36,3.34,2.07A5.85,5.85,0,0,1,70.83,58.73Z"/><path class="cls-3" d="M77.24,63.68H78c1.94,0,1.94-2.34,2.63-2.47.54-.09.94,1.89.94,3.51s-.4,3.64-.94,3.51C80,68.09,80,65.8,78,65.8h-.86c0,4.54.8,9.13,2.4,9.13,1,0,2-.9,2.57-3.06.63-2.47,3.69-1.62,3.69.63s-1.91,4.55-3.54,4.55H75c-1.74,0-3.34-.32-3.34-2.07a6,6,0,0,1,.69-2.43c1-1.94.68-12-.12-13.82a5.85,5.85,0,0,1-.57-2.2c0-1.71,1.6-2.07,3.34-2.07h7.3c1.63,0,3.54,2.2,3.54,4.59,0,2.2-3.06,3.1-3.69.63-.57-2.16-1.57-3.06-2.57-3.06C78.24,56.62,77.46,59.9,77.24,63.68Z"/><path class="cls-3" d="M100,69.67a7,7,0,0,1-6.86,7.38h-.08c-2.81,0-6-1.31-6.81-4.28C84.9,68,92.33,67,91.79,72.37c-.34,3.33,2.34,3.1,2.77,1.08,1.09-5.13-7.8-5.49-8.06-11.66a6.68,6.68,0,0,1,6.89-7.33h.09a5.75,5.75,0,0,1,5.57,4.32c1.23,4.32-4.43,5.08-5.06.4-.54-3.82-2.4-3-2.17-.18C92.19,63.46,99.45,64.4,100,69.67Z"/></g></g></svg>