<svg xmlns="http://www.w3.org/2000/svg" viewBox="0 0 246.03 195.16"><defs><style>.cls-1,.cls-4{fill:#c31440;}.cls-1,.cls-3{stroke:#000;}.cls-1{stroke-linecap:round;stroke-linejoin:round;stroke-width:3.54px;}.cls-2{fill:#d5e8ed;}.cls-3{fill:#d3e8ed;stroke-width:1.42px;}.cls-3,.cls-5{stroke-miterlimit:10;}.cls-5{fill:#d2e8ed;stroke:#d2e8ed;stroke-width:0.71px;}</style></defs><g id="Calque_2" data-name="Calque 2"><g id="SPECIAL_EDITION" data-name="SPECIAL EDITION"><path class="cls-1" d="M213.9,134.59c12.71-10.59,30.36-3.27,30.36-3.27s-11.38-28.77-1.44-49.43c0,0-8.76-8-20.4.92Z"/><path class="cls-1" d="M33.77,90.45C12.36,79.82,1.77,99,1.77,99s15.47,13,4.69,51.05c0,0,16.77-15.49,40.47-4.53Z"/><circle class="cls-2" cx="125.2" cy="97.58" r="95.45"/><path d="M125.2,4.25A93.33,93.33,0,1,1,31.88,97.58,93.33,93.33,0,0,1,125.2,4.25m0-4.25a97.58,97.58,0,1,0,97.58,97.58A97.69,97.69,0,0,0,125.2,0Z"/><path d="M211.69,93.06c.31,5.58-5.9,10.81-6.65,16.14-.77,5.49,3.72,12.23,1.93,17.35s-9.57,7.65-12.34,12.34-1.23,12.69-4.87,16.76-11.73,3.4-16.12,6.71-5.93,11.24-10.9,13.63-12.08-1.36-17.45,0c-5.22,1.34-9.72,8.09-15.3,8.4s-10.81-5.9-16.14-6.65c-5.49-.77-12.23,3.72-17.35,1.93s-7.65-9.57-12.34-12.34-12.69-1.23-16.76-4.87-3.4-11.73-6.71-16.12-11.24-5.93-13.63-10.9,1.37-12.08,0-17.45c-1.34-5.22-8.09-9.72-8.4-15.3s5.9-10.81,6.65-16.14c.77-5.49-3.72-12.23-1.93-17.35s9.57-7.65,12.34-12.34,1.23-12.69,4.87-16.76,11.73-3.4,16.12-6.71,5.93-11.24,10.9-13.63,12.08,1.37,17.45,0,9.72-8.09,15.3-8.4,10.81,5.9,16.14,6.65c5.49.77,12.23-3.72,17.35-1.93s7.65,9.57,12.34,12.34,12.69,1.23,16.76,4.87,3.4,11.73,6.71,16.12,11.24,5.93,13.63,10.9-1.36,12.08,0,17.45C204.63,83,211.38,87.48,211.69,93.06Z"/><circle class="cls-3" cx="125.17" cy="97.88" r="78.13"/><circle class="cls-3" cx="125.2" cy="97.85" r="73.32"/><circle class="cls-3" cx="125.2" cy="97.67" r="68.98"/><circle class="cls-3" cx="125.2" cy="98.47" r="39.8"/><circle class="cls-3" cx="125.2" cy="98.47" r="36.13"/><path class="cls-4" d="M58,133.44a128.52,128.52,0,0,1-31.24-3.62,1.78,1.78,0,0,1-1.34-1.63l-2.49-47a1.77,1.77,0,0,1,1.77-1.86,1.82,1.82,0,0,1,.46.06A124.16,124.16,0,0,0,58,83.5c22,0,44.37-4.85,66.05-9.54,21.86-4.72,44.47-9.61,66.8-9.61A128.54,128.54,0,0,1,222.08,68a1.78,1.78,0,0,1,1.34,1.63l2.49,47a1.78,1.78,0,0,1-.66,1.47,1.75,1.75,0,0,1-1.11.39,1.89,1.89,0,0,1-.47-.06,124,124,0,0,0-32.84-4.15c-22,0-44.37,4.85-66.06,9.54-21.86,4.72-44.46,9.61-66.79,9.61Z"/><path d="M190.83,66.12a127.58,127.58,0,0,1,30.82,3.57q1.24,23.5,2.49,47a126.38,126.38,0,0,0-33.31-4.21c-44.28,0-88.57,19.15-132.85,19.15a127.58,127.58,0,0,1-30.82-3.57q-1.25-23.5-2.49-47A126.33,126.33,0,0,0,58,85.27c44.28,0,88.57-19.15,132.85-19.15m0-3.54v0c-22.53,0-45.23,4.91-67.18,9.65-21.59,4.67-43.92,9.5-65.68,9.5A122.27,122.27,0,0,1,25.6,77.64a3.31,3.31,0,0,0-.93-.13,3.59,3.59,0,0,0-2.23.79,3.55,3.55,0,0,0-1.31,2.94l2.49,47.05a3.53,3.53,0,0,0,2.69,3.25A130.51,130.51,0,0,0,58,135.21c22.52,0,45.22-4.91,67.17-9.65,21.59-4.67,43.92-9.5,65.68-9.5a122.27,122.27,0,0,1,32.38,4.09,3.31,3.31,0,0,0,.93.13,3.56,3.56,0,0,0,3.54-3.73l-2.49-47a3.53,3.53,0,0,0-2.69-3.25,130.43,130.43,0,0,0-31.66-3.67Z"/><polygon points="124.85 54.59 117.73 51.85 111.44 56.16 111.84 48.54 105.8 43.88 113.17 41.92 115.73 34.73 119.88 41.13 127.51 41.34 122.7 47.27 124.85 54.59"/><polygon points="130.69 162.94 126.66 156.47 119.03 156.12 123.95 150.28 121.92 142.92 128.99 145.79 135.37 141.59 134.82 149.2 140.79 153.96 133.38 155.8 130.69 162.94"/><polygon points="93.32 149.1 90.7 145.04 85.86 144.9 88.92 141.15 87.56 136.51 92.07 138.25 96.06 135.53 95.8 140.36 99.62 143.31 94.95 144.55 93.32 149.1"/><polygon points="164.76 139.11 161.78 135.31 156.95 135.6 159.65 131.59 157.87 127.09 162.52 128.42 166.25 125.34 166.43 130.18 170.51 132.77 165.96 134.43 164.76 139.11"/><polygon points="159.89 59.69 155.31 58.13 151.43 61.02 151.5 56.18 147.56 53.39 152.18 51.96 153.62 47.34 156.41 51.29 161.24 51.24 158.34 55.11 159.89 59.69"/><polygon points="88.19 69.89 83.61 68.34 79.74 71.25 79.79 66.41 75.84 63.63 80.45 62.18 81.88 57.56 84.68 61.5 89.51 61.43 86.63 65.31 88.19 69.89"/><path class="cls-5" d="M36.89,121.14a8.5,8.5,0,0,1-2.08-1.39,13,13,0,0,1-1.88-2.1c.39-.87.79-1.74,1.19-2.61a9.54,9.54,0,0,0,2.24,2.28,5.65,5.65,0,0,0,2.51,1,3,3,0,0,0,2.68-.76,3.71,3.71,0,0,0,.72-2.91v0a5.12,5.12,0,0,0-.64-2.24,3.87,3.87,0,0,0-1.26-1.31,11.89,11.89,0,0,0-1.89-.93l-.07,0-.08,0-.17-.08a14.33,14.33,0,0,1-2.78-1.4,6.33,6.33,0,0,1-2-2.38,11.74,11.74,0,0,1-1.11-4.46v0a10.43,10.43,0,0,1,.31-4.1A4,4,0,0,1,34.4,95.3a4.77,4.77,0,0,1,3.08-.45,5.89,5.89,0,0,1,1.76.52A9,9,0,0,1,41,96.47a13.8,13.8,0,0,1,1.77,1.69c-.36.94-.71,1.88-1.06,2.82a10.27,10.27,0,0,0-2-1.86,4.44,4.44,0,0,0-1.92-.78,2.71,2.71,0,0,0-2.52.72,3.84,3.84,0,0,0-.67,2.94v0a4.93,4.93,0,0,0,.67,2.22,4.24,4.24,0,0,0,1.3,1.33,14.37,14.37,0,0,0,2.06,1l.09,0,.09,0,.13,0,.12.06a13.08,13.08,0,0,1,2.6,1.43,6.34,6.34,0,0,1,1.86,2.31,11.18,11.18,0,0,1,1,4.15v0a10.18,10.18,0,0,1-.35,4.08,4.37,4.37,0,0,1-1.84,2.43,4.94,4.94,0,0,1-3.19.57A7.62,7.62,0,0,1,36.89,121.14Z"/><path class="cls-5" d="M45.94,95.93l2.31.13q1.16,13.16,2.3,26.28l-2.3-.09Zm2.29,12.67c1.76.08,3.51.13,5.26.14a1.61,1.61,0,0,0,1.26-.55,3.19,3.19,0,0,0,.74-1.59,8.07,8.07,0,0,0,.11-2.35,8.89,8.89,0,0,0-.52-2.38,4.33,4.33,0,0,0-1-1.6,2,2,0,0,0-1.36-.58c-1.76,0-3.51-.08-5.26-.18-.11-1.17-.21-2.34-.31-3.51,1.72.1,3.45.16,5.18.19a4.28,4.28,0,0,1,2.68,1A7.37,7.37,0,0,1,57,100a13.5,13.5,0,0,1,1,4.2,12.61,12.61,0,0,1-.25,4.21,5.76,5.76,0,0,1-1.49,2.82,3.42,3.42,0,0,1-2.5,1c-1.73,0-3.45-.06-5.18-.14C48.44,110.93,48.33,109.76,48.23,108.6Z"/><path class="cls-5" d="M60.14,96.13l2.3-.1q1.16,13.05,2.31,26.07-1.16.08-2.31.12Q61.29,109.19,60.14,96.13Zm1.12,0c3.15-.13,6.29-.34,9.44-.63.11,1.15.21,2.31.31,3.46q-4.73.45-9.45.65Zm1,11.39c2.74-.12,5.47-.32,8.21-.56l.3,3.46c-2.73.25-5.46.45-8.2.58C62.47,109.8,62.37,108.64,62.26,107.48Zm1,11.21c3.14-.16,6.29-.41,9.44-.73.1,1.15.21,2.31.31,3.46q-4.73.49-9.45.75Z"/><path class="cls-5" d="M78.59,119.83a7.29,7.29,0,0,1-2.31-3.13,16.48,16.48,0,0,1-1.17-5l-.63-7.12a16.85,16.85,0,0,1,.26-5.16,8.24,8.24,0,0,1,1.71-3.63,4.56,4.56,0,0,1,2.9-1.58,4,4,0,0,1,2.68.6,6.76,6.76,0,0,1,2.23,2.4,13.27,13.27,0,0,1,1.44,3.86q-1.19.2-2.37.36a6.86,6.86,0,0,0-.91-2.05,4,4,0,0,0-1.31-1.3,2.28,2.28,0,0,0-1.45-.33,2.55,2.55,0,0,0-1.7,1A5.37,5.37,0,0,0,77,101a11.18,11.18,0,0,0-.13,3.27l.63,7.11a11.09,11.09,0,0,0,.7,3.15,4.71,4.71,0,0,0,1.37,2,2.32,2.32,0,0,0,1.83.52,2.58,2.58,0,0,0,1.37-.68,4.45,4.45,0,0,0,1-1.6,7.74,7.74,0,0,0,.52-2.35l2.36-.37a14.3,14.3,0,0,1-.72,4.21,8.11,8.11,0,0,1-1.76,3,4.28,4.28,0,0,1-2.5,1.33A4.08,4.08,0,0,1,78.59,119.83Z"/><path class="cls-5" d="M92.7,118.57l-2.3.4q-1.16-12.89-2.31-25.8,1.16-.18,2.31-.39Q91.56,105.68,92.7,118.57Z"/><path class="cls-5" d="M98.72,91.25l2-.39q4.19,12.26,8.37,24.45l-2.49.53Q103.36,106,100.15,96q-1.35,10.83-2.69,21.65l-2.49.47ZM97,108.54c2.88-.55,5.77-1.13,8.65-1.74l.31,3.43c-2.89.61-5.77,1.19-8.66,1.75Z"/><path class="cls-5" d="M109.25,89.08l2.3-.5,2.31,25.69-2.31.5Q110.4,101.93,109.25,89.08Zm3.15,22,9.41-2.08c.1,1.14.2,2.28.31,3.42-3.14.7-6.28,1.4-9.41,2.08Z"/><path class="cls-5" d="M128.75,84.78l2.31-.5q1.14,12.84,2.3,25.68l-2.31.51Q129.89,97.62,128.75,84.78Zm1.12-.24c3.15-.7,6.29-1.38,9.44-2,.11,1.14.21,2.29.31,3.43-3.15.65-6.3,1.33-9.44,2Zm1,11.21c2.74-.59,5.47-1.18,8.21-1.75l.3,3.43q-4.09.85-8.2,1.75Zm1,11q4.71-1,9.44-2c.1,1.15.21,2.29.31,3.44-3.15.64-6.3,1.31-9.45,2Z"/><path class="cls-5" d="M142.59,81.84l2.31-.46,2.31,25.74-2.31.45Zm3.56,22,3.73-.71a3.59,3.59,0,0,0,2.68-2,7.82,7.82,0,0,0,.63-4.35q-.33-3.8-.68-7.59a6.92,6.92,0,0,0-1.37-4,2.94,2.94,0,0,0-2.95-1c-1.25.23-2.49.47-3.73.72-.1-1.15-.2-2.29-.31-3.44l3.66-.71a5.07,5.07,0,0,1,3.48.46A6,6,0,0,1,153.71,84a14.5,14.5,0,0,1,1.18,4.88c.22,2.44.44,4.87.65,7.31a15.6,15.6,0,0,1-.28,5.13,7.47,7.47,0,0,1-1.86,3.52,6,6,0,0,1-3.3,1.69l-3.64.69Z"/><path class="cls-5" d="M162.19,104.58l-2.31.34-2.31-25.83,2.31-.36Z"/><path class="cls-5" d="M162.59,78.33c3.87-.55,7.74-1,11.61-1.35.1,1.16.21,2.31.31,3.47q-5.81.51-11.61,1.33C162.8,80.63,162.7,79.48,162.59,78.33Zm4.84,1.51c.77-.1,1.54-.18,2.31-.27q1.06,11.91,2.12,23.82l-2.31.25Q168.49,91.73,167.43,79.84Z"/><path class="cls-5" d="M181.08,102.68l-2.31.14-2.31-26,2.31-.16Z"/><path class="cls-5" d="M187.48,101.55a8.59,8.59,0,0,1-2.33-3.34,16.67,16.67,0,0,1-1.17-5c-.21-2.46-.43-4.93-.65-7.39a15.92,15.92,0,0,1,.27-5.08,7.09,7.09,0,0,1,1.74-3.44A4,4,0,0,1,188.26,76a4.66,4.66,0,0,1,3.14,1.21,9,9,0,0,1,2.33,3.43,17.77,17.77,0,0,1,1.16,5.11l.66,7.45a16,16,0,0,1-.28,5.06,6.64,6.64,0,0,1-1.73,3.33,4,4,0,0,1-2.92,1.14A4.83,4.83,0,0,1,187.48,101.55ZM192,98.41a4.16,4.16,0,0,0,1-2,9.64,9.64,0,0,0,.15-3.1c-.22-2.57-.45-5.13-.67-7.69a11.19,11.19,0,0,0-.7-3.12,5.37,5.37,0,0,0-1.38-2.09,2.75,2.75,0,0,0-1.86-.73,2.3,2.3,0,0,0-1.73.75,4.41,4.41,0,0,0-1,2.09,10.34,10.34,0,0,0-.15,3.11q.34,3.83.68,7.66a10.64,10.64,0,0,0,.7,3.09,5.25,5.25,0,0,0,1.38,2.06,2.85,2.85,0,0,0,1.86.73A2.34,2.34,0,0,0,192,98.41Z"/><path class="cls-5" d="M197.57,76.51c.7,0,1.4.08,2.1.14q4.91,10.47,9.82,21.35l-.23.43q-.91-10.5-1.82-21,1.14.15,2.28.33Q210.88,91,212,104.34l-2.12-.35Q205,93.25,200.14,82.91l.23-.45q.88,10.28,1.79,20.57c-.76-.08-1.52-.14-2.28-.2Z"/></g></g></svg>