<svg xmlns="http://www.w3.org/2000/svg" viewBox="0 0 87.17 87.17"><defs><style>.cls-1{fill:#fafdfc;}.cls-2{fill:#1d1d1b;}.cls-3{fill:#e52326;stroke:#e52326;}.cls-3,.cls-4,.cls-5{stroke-miterlimit:10;stroke-width:2.13px;}.cls-4{fill:#e94d53;stroke:#e94d53;}.cls-5{fill:#f08588;stroke:#f08588;}</style></defs><g id="Calque_2" data-name="Calque 2"><g id="SUPER_SIZIED" data-name="SUPER SIZIED"><rect class="cls-1" x="1.06" y="1.06" width="85.05" height="85.05" rx="8.45"/><path class="cls-2" d="M77.66,2.13a7.39,7.39,0,0,1,7.39,7.39V77.66a7.39,7.39,0,0,1-7.39,7.39H9.52a7.39,7.39,0,0,1-7.39-7.39V9.52A7.38,7.38,0,0,1,9.52,2.13H77.66m0-2.13H9.52A9.53,9.53,0,0,0,0,9.52V77.66a9.53,9.53,0,0,0,9.52,9.51H77.66a9.53,9.53,0,0,0,9.51-9.51V9.52A9.53,9.53,0,0,0,77.66,0Z"/><path class="cls-3" d="M7.81,60.74h3.65V80H7.81ZM9.69,70H18a4.78,4.78,0,0,0,2.07-.41,3.08,3.08,0,0,0,1.88-2.9,3.23,3.23,0,0,0-.49-1.76,3.28,3.28,0,0,0-1.39-1.17A4.78,4.78,0,0,0,18,63.31H9.69V60.74h8.18a10.62,10.62,0,0,1,4.09.73,6.34,6.34,0,0,1,2.74,2.08,5.2,5.2,0,0,1,1,3.11,5.14,5.14,0,0,1-1,3.09A6.32,6.32,0,0,1,22,71.82a10.81,10.81,0,0,1-4.09.73H9.69Z"/><path class="cls-3" d="M34,79.35a7.32,7.32,0,0,1-3.21-2.5,6.28,6.28,0,0,1-1.13-3.73V67.65a6.28,6.28,0,0,1,1.13-3.73A7.32,7.32,0,0,1,34,61.42a12.06,12.06,0,0,1,4.78-.88,12.11,12.11,0,0,1,4.79.88,7.24,7.24,0,0,1,3.2,2.5,6.29,6.29,0,0,1,1.14,3.73v5.47a6.29,6.29,0,0,1-1.14,3.73,7.24,7.24,0,0,1-3.2,2.5,12.11,12.11,0,0,1-4.79.88A12.06,12.06,0,0,1,34,79.35ZM41.64,77a4.26,4.26,0,0,0,1.89-1.53,4,4,0,0,0,.67-2.29V67.56a4,4,0,0,0-.67-2.29,4.26,4.26,0,0,0-1.89-1.53,7.82,7.82,0,0,0-5.66,0,4.37,4.37,0,0,0-1.89,1.53,4,4,0,0,0-.67,2.29v5.65a4,4,0,0,0,.67,2.29A4.37,4.37,0,0,0,36,77a7.82,7.82,0,0,0,5.66,0Z"/><path class="cls-3" d="M53.47,60.74h3.64V80H53.47ZM55.35,70h8.3a4.84,4.84,0,0,0,2.07-.41,3.12,3.12,0,0,0,1.38-1.17,3.07,3.07,0,0,0,.49-1.73,3.15,3.15,0,0,0-.49-1.76,3.25,3.25,0,0,0-1.38-1.17,4.84,4.84,0,0,0-2.07-.42h-8.3V60.74h8.17a10.59,10.59,0,0,1,4.09.73,6.28,6.28,0,0,1,2.74,2.08,5.14,5.14,0,0,1,1,3.11,5.08,5.08,0,0,1-1,3.09,6.27,6.27,0,0,1-2.74,2.07,10.78,10.78,0,0,1-4.09.73H55.35Z"/><path class="cls-3" d="M76.06,77.19h3.82V80H76.06Zm.09-16.45h3.64V72.55H76.15Z"/><path class="cls-4" d="M11.6,48.34a13.6,13.6,0,0,1-2.44-.64A11.35,11.35,0,0,1,7,46.64L8.81,45a8.48,8.48,0,0,0,2.54,1.14,11.08,11.08,0,0,0,3,.38,7.48,7.48,0,0,0,3.4-.62A1.9,1.9,0,0,0,19,44.14h0a1.59,1.59,0,0,0-.55-1.28A3.51,3.51,0,0,0,17,42.16a17,17,0,0,0-2.25-.42h-.18l-.21,0a26.45,26.45,0,0,1-3.29-.59A4.9,4.9,0,0,1,8.9,39.87,3.38,3.38,0,0,1,8,37.35H8a3.71,3.71,0,0,1,.84-2.44,5.23,5.23,0,0,1,2.45-1.54,12.63,12.63,0,0,1,3.88-.53,13,13,0,0,1,6.2,1.61l-1.61,1.72a10.28,10.28,0,0,0-2.3-1,8.23,8.23,0,0,0-2.29-.33,6.76,6.76,0,0,0-3.22.63,2,2,0,0,0-1.14,1.79h0a1.47,1.47,0,0,0,.59,1.25,3.84,3.84,0,0,0,1.47.67,24.44,24.44,0,0,0,2.45.45l.1,0h.11l.15,0,.15,0a21.11,21.11,0,0,1,3.06.67A4.89,4.89,0,0,1,21,41.68a3.34,3.34,0,0,1,.82,2.39v0a3.55,3.55,0,0,1-.87,2.41A5.43,5.43,0,0,1,18.37,48a13.44,13.44,0,0,1-4,.53A17.37,17.37,0,0,1,11.6,48.34Z"/><path class="cls-4" d="M28.36,48.39H25.52V33h2.84Z"/><path class="cls-4" d="M44.79,34.85,36,46.33h9.06v2.06H32.52V46.52L41.38,35H32.77V33h12Z"/><path class="cls-4" d="M48.82,33h2.83v15.4H48.82Zm1.38,0H61.79v2H50.2Zm0,6.72H60.26v2.06H50.2Zm0,6.62H61.79v2.06H50.2Z"/><path class="cls-4" d="M65.82,33h2.83v15.4H65.82Zm1.91,13.34H72.3a5.82,5.82,0,0,0,3.46-.88A2.89,2.89,0,0,0,77,43V38.42a2.89,2.89,0,0,0-1.23-2.49A5.82,5.82,0,0,0,72.3,35H67.73V33h4.49a11.63,11.63,0,0,1,4.15.65A5.48,5.48,0,0,1,79,35.52a5,5,0,0,1,.91,3v4.36a5,5,0,0,1-.91,3,5.57,5.57,0,0,1-2.63,1.88,11.91,11.91,0,0,1-4.16.65H67.73Z"/><path class="cls-5" d="M10.42,21a11.34,11.34,0,0,1-2.12-.55,9.76,9.76,0,0,1-1.83-.91L8,18.08a7.82,7.82,0,0,0,2.2,1,9.89,9.89,0,0,0,2.62.33,6.74,6.74,0,0,0,2.95-.53,1.66,1.66,0,0,0,1.05-1.51h0a1.37,1.37,0,0,0-.48-1.1,3.08,3.08,0,0,0-1.23-.6,17.69,17.69,0,0,0-1.94-.36H13l-.18,0A23.85,23.85,0,0,1,10,14.72a4.1,4.1,0,0,1-1.89-1.05,2.89,2.89,0,0,1-.78-2.16h0A3.14,3.14,0,0,1,8,9.4a4.53,4.53,0,0,1,2.12-1.33,11.09,11.09,0,0,1,3.37-.45,11.23,11.23,0,0,1,1.84.15,12.5,12.5,0,0,1,1.8.46A12.14,12.14,0,0,1,18.9,9l-1.4,1.48a9.4,9.4,0,0,0-2-.84,7.57,7.57,0,0,0-2-.27,5.9,5.9,0,0,0-2.79.54,1.67,1.67,0,0,0-1,1.53h0a1.28,1.28,0,0,0,.51,1.08,3.52,3.52,0,0,0,1.28.58c.51.12,1.22.25,2.13.38l.09,0h.09l.13,0,.13,0a18.42,18.42,0,0,1,2.66.58,4.15,4.15,0,0,1,1.78,1.09,2.85,2.85,0,0,1,.72,2.05v0a3,3,0,0,1-.76,2.08,4.74,4.74,0,0,1-2.2,1.31,11.74,11.74,0,0,1-3.47.45A15.2,15.2,0,0,1,10.42,21Z"/><path class="cls-5" d="M24.85,20.56a4.59,4.59,0,0,1-2.11-1.69A4.74,4.74,0,0,1,22,16.21V7.75h2.46v8.52a2.72,2.72,0,0,0,1,2.24,4.19,4.19,0,0,0,2.73.8,4.22,4.22,0,0,0,2.74-.8,2.73,2.73,0,0,0,1-2.24V7.75h2.46v8.46a4.75,4.75,0,0,1-.73,2.66,4.49,4.49,0,0,1-2.11,1.69,8.52,8.52,0,0,1-3.33.58A8.47,8.47,0,0,1,24.85,20.56Z"/><path class="cls-5" d="M38.19,7.75h2.46V21H38.19Zm1.27,6.35h5.6a3.24,3.24,0,0,0,1.4-.29,2.2,2.2,0,0,0,0-4,3.24,3.24,0,0,0-1.4-.29h-5.6V7.75H45a6.92,6.92,0,0,1,2.75.51,4.15,4.15,0,0,1,1.85,1.43,3.55,3.55,0,0,1,.66,2.13A3.57,3.57,0,0,1,49.58,14a4.11,4.11,0,0,1-1.85,1.41,6.92,6.92,0,0,1-2.75.5H39.46Z"/><path class="cls-5" d="M53.31,7.75h2.46V21H53.31Zm1.2,0H64.57V9.52H54.51Zm0,5.79h8.73v1.77H54.51Zm0,5.69H64.57V21H54.51Z"/><path class="cls-5" d="M68.06,7.74h2.46V21H68.06Zm1.07,5.89h6a2.86,2.86,0,0,0,1.24-.25,2,2,0,0,0,.84-.73,2,2,0,0,0-.83-2.88,2.91,2.91,0,0,0-1.25-.26h-6V7.74H75a6.84,6.84,0,0,1,2.67.48,4,4,0,0,1,1.79,1.34,3.5,3.5,0,0,1,0,4,4,4,0,0,1-1.79,1.34A6.86,6.86,0,0,1,75,15.4H69.13ZM73.9,15l2.45-.42L80.83,21H77.92Z"/></g></g></svg>